<svg width="20" height="20" viewBox="0 0 20 20" fill="none" xmlns="http://www.w3.org/2000/svg">
<path d="M17.9167 3.33292H15V2.08307C15 0.93405 14.0658 0 12.9167 0H2.08333C0.935 0 0 0.93405 0 2.08307V15.2931C0 15.7997 0.2775 16.2646 0.725 16.5038C0.929167 16.6129 1.15167 16.6663 1.37417 16.6663C1.64 16.6663 1.905 16.5888 2.135 16.4363L5 14.5265V17.4978H14.4575L17.8658 19.77C18.095 19.9233 18.3608 20 18.6267 20C18.8492 20 19.0717 19.9467 19.275 19.8375C19.7225 19.5976 20 19.1334 20 18.6268V5.41599C20 4.26697 19.0658 3.33292 17.9167 3.33292ZM1.6725 15.7439C1.50417 15.8572 1.29667 15.8664 1.11833 15.7697C0.94 15.6747 0.833333 15.4964 0.833333 15.2939V2.08307C0.833333 1.39399 1.39417 0.833229 2.08333 0.833229H12.9167C13.6058 0.833229 14.1667 1.39399 14.1667 2.08307V13.3317H5.29083L1.6725 15.7439ZM19.1667 18.6268C19.1667 18.8293 19.06 19.0076 18.8817 19.1026C18.7008 19.1993 18.4967 19.1884 18.3267 19.0768L14.7092 16.6646H5.83333V14.1649H15V4.16615H17.9167C18.6058 4.16615 19.1667 4.72691 19.1667 5.41599V18.6268ZM8.33333 10.8328C8.33333 11.2928 7.96 11.666 7.5 11.666C7.04 11.666 6.66667 11.2928 6.66667 10.8328C6.66667 10.3729 7.04 9.99958 7.5 9.99958C7.96 9.99958 8.33333 10.3729 8.33333 10.8328ZM5.83333 5.00021H5C5 4.25947 5.32583 3.56122 5.8925 3.08545C6.46 2.60884 7.20917 2.4097 7.94917 2.54052C8.95667 2.71716 9.78333 3.54372 9.96 4.5511C10.1467 5.6118 9.6425 6.67333 8.705 7.19077C8.295 7.41657 7.91583 7.76153 7.91583 8.74974V9.16635H7.0825V8.74974C7.0825 7.64654 7.47 6.91914 8.3025 6.46086C8.9375 6.1109 9.26583 5.41766 9.13833 4.69525C9.02167 4.027 8.47333 3.47873 7.80417 3.36041C7.30167 3.27376 6.81167 3.40124 6.4275 3.7237C6.04917 4.04116 5.83333 4.5061 5.83333 5.00021Z" fill="#878787"/>
</svg>
