<svg width="78" height="74" viewBox="0 0 78 74" fill="none" xmlns="http://www.w3.org/2000/svg">
<path d="M75.0484 33.1038H59.6201L52.7251 40.0003H64.8134C65.4535 40.0046 66.0835 40.159 66.6531 40.4514L75.0484 33.1038Z" fill="#2980B9"/>
<path d="M39.9912 64.8284H45.51V67.5871H39.9912V64.8284Z" fill="#2980B9"/>
<path d="M68.9497 44.1385V69.5263L76.81 61.6642C77.0746 61.4094 77.224 61.0577 77.2237 60.6904V34.8652L68.5732 42.4363C68.8197 42.9701 68.9481 43.5506 68.9497 44.1385Z" fill="#2980B9"/>
<path d="M31.3034 72.7099L31.3283 72.6866C31.5781 72.4289 31.7176 72.084 31.7172 71.7251V44.1386C31.7172 43.3769 31.0998 42.7593 30.3381 42.7593H1.37903C0.617493 42.7593 0 43.3768 0 44.1386V71.7251C0 72.4868 0.617342 73.1045 1.37903 73.1045H30.3381C30.6994 73.1054 31.0463 72.9636 31.3034 72.7099ZM13.7901 67.5871C13.7901 69.1106 12.5553 70.3458 11.0321 70.3458H5.51596C3.99274 70.3458 2.7579 69.1106 2.7579 67.5871V64.8284C2.7579 63.3048 3.99274 62.0697 5.51596 62.0697H11.0319C12.5551 62.0697 13.79 63.3048 13.79 64.8284L13.7901 67.5871ZM27.5801 70.3458H23.443C22.6815 70.3458 22.064 69.7283 22.064 68.9664C22.064 68.2047 22.6813 67.5871 23.443 67.5871H27.5801C28.3416 67.5871 28.9591 68.2046 28.9591 68.9664C28.9591 69.7283 28.3418 70.3458 27.5801 70.3458ZM27.5801 64.8285H23.443C22.6815 64.8285 22.064 64.211 22.064 63.4492C22.064 62.6875 22.6813 62.0698 23.443 62.0698H27.5801C28.3416 62.0698 28.9591 62.6873 28.9591 63.4492C28.9591 64.2109 28.3418 64.8285 27.5801 64.8285Z" fill="#2980B9"/>
<path d="M5.5166 64.8284H11.0353V67.5871H5.5166V64.8284Z" fill="#2980B9"/>
<path d="M65.7628 72.7167L65.7781 72.6904L65.8043 72.6655C66.0486 72.4128 66.1873 72.0762 66.1918 71.7249V44.1384C66.1918 43.3767 65.5744 42.759 64.8127 42.759H35.8536C35.0921 42.759 34.4746 43.3765 34.4746 44.1384V71.7249C34.4746 72.4866 35.0919 73.1042 35.8536 73.1042H64.8127C65.1673 73.1021 65.5078 72.9632 65.7628 72.7167ZM48.2646 67.5868C48.2646 69.1104 47.0297 70.3455 45.5065 70.3455H39.9906C38.4673 70.3455 37.2325 69.1104 37.2325 67.5868V64.8281C37.2325 63.3046 38.4673 62.0694 39.9906 62.0694H45.5065C47.0297 62.0694 48.2646 63.3046 48.2646 64.8281V67.5868ZM62.0547 70.3455H57.9176C57.1561 70.3455 56.5386 69.728 56.5386 68.9662C56.5386 68.2045 57.1559 67.5868 57.9176 67.5868H62.0547C62.8162 67.5868 63.4337 68.2043 63.4337 68.9662C63.4336 69.728 62.8162 70.3455 62.0547 70.3455ZM62.0547 64.8283H57.9176C57.1561 64.8283 56.5386 64.2108 56.5386 63.4489C56.5386 62.6872 57.1559 62.0696 57.9176 62.0696H62.0547C62.8162 62.0696 63.4337 62.6871 63.4337 63.4489C63.4336 64.2107 62.8162 64.8283 62.0547 64.8283Z" fill="#2980B9"/>
<path d="M50.1044 7.34742L58.4998 -0.000244141H47.3588L38.4946 6.89634H48.2647C48.9048 6.90057 49.5348 7.0552 50.1044 7.34742Z" fill="#27AE60"/>
<path d="M32.1386 0.39699C32.079 0.458089 32.014 0.513456 31.9442 0.562487L22.9282 6.89635H34.0016L42.8658 -0.000234571H33.0956C32.7363 -0.00159234 32.3914 0.141577 32.1386 0.39699Z" fill="#27AE60"/>
<path d="M60.2612 28.5518C60.5238 28.2989 60.6729 27.9507 60.6749 27.5862V1.76123L52.0244 9.33233C52.2709 9.86593 52.3992 10.4466 52.4009 11.0344V36.4264L60.2612 28.5518Z" fill="#27AE60"/>
<path d="M14.2118 33.501C14.1522 33.5621 14.0872 33.6175 14.0174 33.6665L5.00146 40.0004H15.4227C15.2593 39.5586 15.1735 39.092 15.169 38.621V33.1038C14.8096 33.1024 14.4646 33.2454 14.2118 33.501Z" fill="#2980B9"/>
<path d="M23.4424 31.7244H28.9611V34.4831H23.4424V31.7244Z" fill="#27AE60"/>
<path d="M19.3063 40.0002H48.2654C48.6263 40.0014 48.9732 39.8602 49.2307 39.6071L49.2583 39.5795C49.5072 39.3225 49.6456 38.9786 49.6444 38.6209V11.0344C49.6444 10.2727 49.0271 9.65503 48.2654 9.65503H19.3063C18.5447 9.65503 17.9272 10.2725 17.9272 11.0344V38.6209C17.9272 39.3827 18.5447 40.0002 19.3063 40.0002ZM41.3704 28.9656H45.5075C46.269 28.9656 46.8865 29.5831 46.8865 30.3449C46.8865 31.1066 46.2692 31.7243 45.5075 31.7243H41.3704C40.6089 31.7243 39.9914 31.1068 39.9914 30.3449C39.9914 29.5832 40.6087 28.9656 41.3704 28.9656ZM41.3704 34.483H45.5075C46.269 34.483 46.8865 35.1005 46.8865 35.8623C46.8865 36.6242 46.2692 37.2417 45.5075 37.2417H41.3704C40.6089 37.2417 39.9914 36.6242 39.9914 35.8623C39.9914 35.1005 40.6087 34.483 41.3704 34.483ZM20.6853 31.7243C20.6853 30.2007 21.9201 28.9656 23.4434 28.9656H28.9593C30.4825 28.9656 31.7174 30.2007 31.7174 31.7243V34.483C31.7174 36.0065 30.4825 37.2417 28.9593 37.2417H23.4434C21.9201 37.2417 20.6853 36.0065 20.6853 34.483V31.7243Z" fill="#27AE60"/>
</svg>
