<svg width="82" height="81" viewBox="0 0 82 81" fill="none" xmlns="http://www.w3.org/2000/svg">
<path d="M68.4301 46.8V46.05C68.4301 44.12 66.8601 42.54 64.9501 42.54H54.5601C52.6501 42.54 51.0801 44.12 51.0801 46.05V46.8H54.1601V46.05C54.1601 45.83 54.3501 45.65 54.5601 45.65H64.9501C65.1601 45.65 65.3501 45.84 65.3501 46.05V46.8H68.4301Z" fill="#8E44AD"/>
<path d="M50.2404 57.1198H69.2704C70.4204 57.1198 71.3604 56.1698 71.3604 55.0098V49.5498H48.1504V55.0098C48.1504 56.1698 49.0904 57.1198 50.2404 57.1198Z" fill="#8E44AD"/>
<path d="M34.79 57.62C23.28 57.17 14.08 47.63 14.08 35.92C14.08 24.21 23.73 14.21 35.63 14.21C47.53 14.21 57.18 23.93 57.18 35.92C57.18 37.23 57.06 38.52 56.84 39.77H64.95C66.64 39.77 68.17 40.45 69.29 41.56L71.29 40.78V31.06L65.38 28.77C64.63 25.6 63.38 22.57 61.69 19.79L64.26 13.96L57.44 7.08L51.65 9.67C48.89 7.96 45.89 6.7 42.74 5.95L40.47 0H30.82L28.55 5.95C25.4 6.7 22.4 7.96 19.64 9.67L13.85 7.08L7.03 13.96L9.6 19.79C7.9 22.57 6.65 25.6 5.91 28.77L0 31.06V40.78L5.91 43.07C6.66 46.24 7.91 49.27 9.6 52.05L7.03 57.88L13.85 64.76L19.64 62.17C22.4 63.88 25.4 65.14 28.55 65.89L30.82 71.84H36.78V64.15C35.55 62.8 34.8 61.15 34.8 59.21V57.61L34.79 57.62Z" fill="#F1C40F"/>
<path d="M42.7698 26.6502L32.3498 37.1502L28.4998 33.2702C27.0198 31.7802 24.5998 31.7802 23.1198 33.2702C21.6398 34.7602 21.6398 37.2002 23.1198 38.6902L29.0298 44.6502C30.6998 46.3302 33.2198 47.1102 35.1098 45.2102L48.1498 32.0702C49.6298 30.5802 49.6298 28.1402 48.1498 26.6502C46.6698 25.1602 44.2498 25.1602 42.7698 26.6502Z" fill="#F1C40F"/>
<path d="M80.3093 49.5498H74.0893V55.0098C74.0893 57.6898 71.9193 59.8698 69.2693 59.8698H50.2393C47.5793 59.8698 45.4193 57.6898 45.4193 55.0098V49.5498H39.1993C38.2793 49.5498 37.5293 50.2998 37.5293 51.2298V59.2198C37.5293 60.8098 38.3393 62.0198 39.5093 62.9798C42.6893 65.6098 49.0293 66.3398 52.9693 66.6698C53.3593 63.2498 56.2493 60.5898 59.7493 60.5898C63.2493 60.5898 66.1393 63.2498 66.5293 66.6698C70.4693 66.3398 76.8193 65.6098 79.9893 62.9898C81.1593 62.0198 81.9693 60.8098 81.9693 59.2298V51.2398C81.9693 50.3098 81.2193 49.5598 80.2993 49.5598L80.3093 49.5498Z" fill="#8E44AD"/>
<path d="M63.8504 67.4698C63.8504 65.1998 62.0204 63.3398 59.7504 63.3398C57.4804 63.3398 55.6504 65.1998 55.6504 67.4698C55.6504 69.7398 57.4804 71.5998 59.7504 71.5998C62.0204 71.5998 63.8504 69.7498 63.8504 67.4698Z" fill="#8E44AD"/>
<path d="M59.75 74.3498C56.66 74.3498 54.06 72.2898 53.21 69.4498C47.52 68.9998 42.43 67.9498 39.5 66.2998V77.7098C39.5 79.5098 40.96 80.9898 42.75 80.9898H76.74C78.53 80.9898 79.99 79.5098 79.99 77.7098V66.2998C77.07 67.9498 71.97 68.9998 66.28 69.4498C65.43 72.2798 62.83 74.3498 59.74 74.3498H59.75Z" fill="#8E44AD"/>
</svg>
