<svg width="76" height="82" viewBox="0 0 76 82" fill="none" xmlns="http://www.w3.org/2000/svg">
<path d="M54.2985 42.4146L52.9033 18.5254H41.6405V29.2526H36.8802V18.5254H18.546V29.2526H13.7856V18.5254H2.5227L0.021147 61.3581C-0.17355 64.6932 0.981305 67.8683 3.27308 70.2983C5.56486 72.7284 8.66637 74.0667 12.0062 74.0667H38.4119C36.8711 71.066 36.001 67.6667 36.001 64.0677C36.001 53.2053 43.9275 44.1613 54.2985 42.4146Z" fill="#8E44AD"/>
<path d="M18.5455 13.9305C18.5455 8.87467 22.6578 4.76143 27.7124 4.76143C32.7671 4.76143 36.8796 8.87467 36.8796 13.9305V18.5251H41.6399V13.9305C41.6399 6.24922 35.3921 0 27.7124 0C20.0328 0 13.7852 6.24922 13.7852 13.9305V18.5251H18.5455V13.9305Z" fill="#8E44AD"/>
<path d="M75.1484 64.0674C75.1484 54.5846 67.4352 46.8696 57.9546 46.8696C48.4739 46.8696 40.7607 54.5846 40.7607 64.0674C40.7607 73.5503 48.4739 81.2651 57.9546 81.2651C67.4352 81.2651 75.1484 73.5503 75.1484 64.0674ZM55.3803 72.4902L47.6488 63.7438L51.2151 60.59L55.5339 65.4759L64.4783 56.2089L67.903 59.5158L55.3803 72.4902Z" fill="#F39C12"/>
</svg>
