<svg width="98" height="75" viewBox="0 0 98 75" fill="none" xmlns="http://www.w3.org/2000/svg">
<path d="M25.1329 36.1665C26.7579 36.1665 28.0753 34.8488 28.0753 33.2234C28.0753 31.5979 26.7579 30.2803 25.1329 30.2803C23.5078 30.2803 22.1904 31.5979 22.1904 33.2234C22.1904 34.8488 23.5078 36.1665 25.1329 36.1665Z" fill="#F1C40F"/>
<path d="M43.8257 48.1118C45.4508 48.1118 46.7681 46.7941 46.7681 45.1687C46.7681 43.5433 45.4508 42.2256 43.8257 42.2256C42.2007 42.2256 40.8833 43.5433 40.8833 45.1687C40.8833 46.7941 42.2007 48.1118 43.8257 48.1118Z" fill="#F1C40F"/>
<path d="M68.0859 43.0914L67.0185 41.6342C65.8646 40.0473 65.8358 37.8976 66.9752 36.2818L68.0137 34.8103C69.6003 32.5597 68.8647 29.429 66.4271 28.1161L64.8405 27.265C63.1097 26.3416 62.1577 24.4084 62.4895 22.4608L62.7924 20.6862C63.2539 17.974 61.2202 15.4637 58.4653 15.3483L56.6623 15.2761C54.7007 15.1896 52.9987 13.8623 52.4506 11.9723L51.9458 10.2411C51.1814 7.58654 48.2678 6.21598 45.7292 7.31243L44.0705 8.01935C42.2675 8.79841 40.1617 8.33674 38.8491 6.86519L37.652 5.52348C35.8202 3.47485 32.6037 3.48927 30.7863 5.58119L29.6036 6.93733C28.3055 8.42331 26.214 8.91382 24.3967 8.16362L22.7235 7.47112C20.1705 6.41795 17.2858 7.84623 16.5502 10.5008L16.0742 12.2465C15.555 14.1508 13.8818 15.507 11.9202 15.6079L10.1173 15.7089C7.36234 15.8676 5.37187 18.4068 5.8767 21.1191L6.20845 22.8936C6.56904 24.8268 5.64592 26.7744 3.92951 27.7266L2.35733 28.6067C-0.0514128 29.9484 -0.743748 33.0935 0.886124 35.3152L1.95347 36.7723C3.10736 38.3593 3.13621 40.5089 1.99674 42.1247L0.958242 43.5963C-0.628358 45.8469 0.107247 48.9776 2.54484 50.2904L4.13144 51.1416C5.86228 52.0649 6.81424 53.9982 6.48249 55.9458L6.1796 57.7203C5.71804 60.4326 7.75178 62.9429 10.5067 63.0583L12.3096 63.1304C14.2713 63.217 15.9732 64.5443 16.5213 66.4342L17.0262 68.1655C17.7906 70.82 20.7042 72.1906 23.2428 71.0941L24.9015 70.3872C26.7044 69.6082 28.8103 70.0698 30.1228 71.5414L31.32 72.8831C33.1662 74.9317 36.3827 74.9173 38.1857 72.8254L39.3684 71.4692C40.6665 69.9833 42.7579 69.4927 44.5753 70.243L46.2485 70.9354C48.8015 71.9886 51.6862 70.5603 52.4218 67.9058L52.8978 66.1601C53.417 64.2557 55.0902 62.8996 57.0518 62.7986L58.8547 62.6976C61.6096 62.5389 63.6001 59.9998 63.0953 57.2875L62.7635 55.513C62.4029 53.5798 63.3261 51.6321 65.0425 50.68L66.6146 49.7999C69.0234 48.4726 69.7157 45.3275 68.0859 43.0914ZM18.0214 33.2233C18.0214 29.2992 21.1946 26.1252 25.1178 26.1252C29.0411 26.1252 32.2143 29.2992 32.2143 33.2233C32.2143 37.1474 29.0411 40.3214 25.1178 40.3214C21.1946 40.3214 18.0214 37.133 18.0214 33.2233ZM26.4881 51.5311C25.8823 52.2669 24.7861 52.3679 24.0505 51.762C23.3149 51.156 23.2139 50.0596 23.8197 49.3238L42.4406 26.8899C43.0464 26.1541 44.1426 26.0531 44.8782 26.659C45.6138 27.265 45.7148 28.3614 45.109 29.0972L26.4881 51.5311ZM43.8253 52.2669C39.9021 52.2669 36.7289 49.093 36.7289 45.1688C36.7289 41.2447 39.9021 38.0708 43.8253 38.0708C47.7485 38.0708 50.9217 41.2447 50.9217 45.1688C50.9217 49.093 47.7485 52.2669 43.8253 52.2669Z" fill="#F1C40F"/>
<path d="M69.3978 20.9869C70.458 20.9869 71.3175 20.1272 71.3175 19.0667C71.3175 18.0062 70.458 17.1465 69.3978 17.1465C68.3375 17.1465 67.478 18.0062 67.478 19.0667C67.478 20.1272 68.3375 20.9869 69.3978 20.9869Z" fill="#E74C3C"/>
<path d="M81.5936 28.7806C82.6538 28.7806 83.5133 27.9209 83.5133 26.8604C83.5133 25.7999 82.6538 24.9402 81.5936 24.9402C80.5333 24.9402 79.6738 25.7999 79.6738 26.8604C79.6738 27.9209 80.5333 28.7806 81.5936 28.7806Z" fill="#E74C3C"/>
<path d="M97.4219 25.505L96.7255 24.5543C95.9726 23.519 95.9538 22.1165 96.6972 21.0622L97.3748 20.1021C98.41 18.6337 97.93 16.5912 96.3396 15.7346L95.3045 15.1793C94.1752 14.5769 93.5541 13.3156 93.7706 12.0448L93.9682 10.8871C94.2693 9.11748 92.9424 7.47966 91.145 7.40436L89.9687 7.3573C88.6889 7.30082 87.5784 6.43485 87.2208 5.20179L86.8915 4.07226C86.3927 2.34032 84.4918 1.44611 82.8355 2.16147L81.7533 2.6227C80.577 3.13099 79.203 2.82978 78.3467 1.86968L77.5656 0.994296C76.3705 -0.342311 74.2719 -0.332898 73.0862 1.03195L72.3145 1.91674C71.4676 2.88625 70.1031 3.20629 68.9173 2.71683L67.8257 2.26501C66.16 1.57789 64.2779 2.50975 63.798 4.24169L63.4874 5.38063C63.1487 6.62311 62.057 7.5079 60.7772 7.57379L59.6009 7.63968C57.8035 7.74322 56.5048 9.39986 56.8342 11.1695L57.0506 12.3272C57.2859 13.5885 56.6836 14.8592 55.5638 15.4805L54.538 16.0547C52.9665 16.93 52.5148 18.982 53.5781 20.4316L54.2745 21.3823C55.0274 22.4177 55.0462 23.8202 54.3028 24.8744L53.6252 25.8345C52.59 27.3029 53.07 29.3454 54.6604 30.202L55.6955 30.7573C56.8248 31.3598 57.4459 32.6211 57.2294 33.8918L57.0318 35.0495C56.7307 36.8191 58.0576 38.4569 59.855 38.5322L61.0313 38.5793C62.3111 38.6358 63.4216 39.5018 63.7792 40.7348L64.1085 41.8644C64.6073 43.5963 66.5082 44.4905 68.1645 43.7751L69.2467 43.3139C70.423 42.8056 71.797 43.1068 72.6533 44.0669L73.4344 44.9423C74.6389 46.2789 76.7375 46.2695 77.9138 44.9047L78.6855 44.0199C79.5324 43.0504 80.8969 42.7303 82.0827 43.2198L83.1743 43.6716C84.84 44.3587 86.7221 43.4269 87.202 41.6949L87.5126 40.556C87.8513 39.3135 88.943 38.4287 90.2228 38.3628L91.3991 38.2969C93.1965 38.1934 94.4952 36.5368 94.1658 34.7672L93.9494 33.6094C93.7141 32.3481 94.3164 31.0774 95.4362 30.4561L96.462 29.882C98.0335 29.016 98.4853 26.964 97.4219 25.505ZM64.7579 19.0667C64.7579 16.5065 66.8282 14.4357 69.3879 14.4357C71.9475 14.4357 74.0178 16.5065 74.0178 19.0667C74.0178 21.627 71.9475 23.6978 69.3879 23.6978C66.8282 23.6978 64.7579 21.6176 64.7579 19.0667ZM70.2819 31.0115C69.8866 31.4915 69.1714 31.5574 68.6915 31.1621C68.2115 30.7667 68.1457 30.0514 68.5409 29.5713L80.6899 14.9345C81.0852 14.4545 81.8004 14.3886 82.2803 14.7839C82.7602 15.1793 82.8261 15.8946 82.4309 16.3747L70.2819 31.0115ZM81.5933 31.4915C79.0337 31.4915 76.9633 29.4207 76.9633 26.8605C76.9633 24.3002 79.0337 22.2294 81.5933 22.2294C84.153 22.2294 86.2233 24.3002 86.2233 26.8605C86.2233 29.4207 84.153 31.4915 81.5933 31.4915Z" fill="#E74C3C"/>
</svg>
