<svg width="75" height="75" viewBox="0 0 75 75" fill="none" xmlns="http://www.w3.org/2000/svg">
<path d="M22.621 15.9547C27.0257 15.9547 30.5965 12.3831 30.5965 7.97734C30.5965 3.57158 27.0257 0 22.621 0C18.2163 0 14.6455 3.57158 14.6455 7.97734C14.6455 12.3831 18.2163 15.9547 22.621 15.9547Z" fill="#F1C40F"/>
<path d="M44.741 44.2378H43.0688C43.0706 44.8834 43.0719 45.5046 43.0719 45.8317C43.0719 46.2098 43.0742 46.8148 43.0771 47.4306C43.7108 47.4276 44.3397 47.4254 44.741 47.4254C45.7207 47.4254 46.5481 46.6955 46.5481 45.8317C46.5481 44.9676 45.7205 44.2378 44.741 44.2378Z" fill="#34495E"/>
<path d="M72.0694 33.3596H2.17513C0.973879 33.3596 0 34.3337 0 35.5353V63.0933C0 64.2949 0.973879 65.269 2.17513 65.269H72.0694C73.2706 65.269 74.2445 64.2949 74.2445 63.0933V35.5353C74.2445 34.3337 73.2706 33.3596 72.0694 33.3596ZM34.8313 56.5664C34.8313 57.768 33.8574 58.7421 32.6561 58.7421C31.4549 58.7421 30.481 57.768 30.481 56.5664V51.2412H24.7965V56.5664C24.7965 57.768 23.8226 58.7421 22.6214 58.7421C21.4201 58.7421 20.4462 57.768 20.4462 56.5664V42.0622C20.4462 40.8606 21.4201 39.8865 22.6214 39.8865C23.8226 39.8865 24.7965 40.8606 24.7965 42.0622V46.8899H30.481V42.0622C30.481 40.8606 31.4549 39.8865 32.6561 39.8865C33.8574 39.8865 34.8313 40.8606 34.8313 42.0622V56.5664ZM50.3558 55.129C51.1494 56.0311 51.0618 57.4058 50.16 58.1996C49.2582 58.9934 47.8838 58.9058 47.0902 58.0038L43.0581 53.4216V56.5664C43.0581 57.768 42.0842 58.7421 40.8829 58.7421C39.6817 58.7421 38.7078 57.768 38.7078 56.5664V42.0622C38.7078 40.8606 39.6817 39.8865 40.8829 39.8865C40.8836 39.8865 40.8845 39.8867 40.8852 39.8867C40.886 39.8867 40.8868 39.8865 40.8876 39.8865H44.741C48.1361 39.8865 50.8981 42.5536 50.8981 45.8317C50.8981 48.3289 49.2943 50.47 47.0297 51.3491L50.3558 55.129Z" fill="#34495E"/>
<path d="M37.8469 29.0086V26.833C37.8469 22.3191 35.4075 18.3661 31.7796 16.218C29.5218 18.7259 26.2527 20.306 22.6209 20.306C18.9892 20.306 15.7201 18.7259 13.4623 16.218C9.83436 18.3661 7.39502 22.3191 7.39502 26.833V29.0086H37.8469Z" fill="#F1C40F"/>
<path d="M64.9863 29.0084L69.5935 17.4878C70.165 16.0587 69.1128 14.5042 67.574 14.5042H51.623C50.7335 14.5042 49.9338 15.0457 49.6035 15.8718L44.3501 29.0084H64.9863Z" fill="#F1C40F"/>
<path d="M8.84701 74.262H13.1973C14.3985 74.262 15.3724 73.2879 15.3724 72.0863V69.6206H6.67188V72.0863C6.67188 73.2879 7.64575 74.262 8.84701 74.262Z" fill="#34495E"/>
<path d="M61.0501 74.262H65.4004C66.6016 74.262 67.5755 73.2879 67.5755 72.0863V69.6206H58.875V72.0863C58.875 73.2879 59.8489 74.262 61.0501 74.262Z" fill="#34495E"/>
</svg>
