<svg width="82" height="82" viewBox="0 0 82 82" fill="none" xmlns="http://www.w3.org/2000/svg">
<g clip-path="url(#clip0_354_10541)">
<path d="M55.7235 16.605C55.5973 17.1885 55.2188 17.6458 54.6667 17.8666C54.1147 18.1031 53.5311 18.04 53.0264 17.7246C51.6542 16.8416 49.8404 17.0466 48.7048 18.182C47.3484 19.5381 47.3484 21.73 48.7048 23.0862L51.5911 25.972H66.6379L69.5242 23.0862C70.8648 21.73 70.8648 19.5381 69.5242 18.182C68.3571 17.015 66.5432 16.8573 65.2026 17.7246C64.6979 18.0558 64.1143 18.1031 63.5623 17.8666C63.0103 17.63 62.6317 17.1885 62.5055 16.605C62.1586 15.0123 60.739 13.877 59.1145 13.877C57.4584 13.877 56.0705 15.0596 55.7235 16.605Z" fill="#3498DB"/>
<path d="M66.6378 28.6211H51.5911C49.73 28.6211 48.2158 30.1349 48.2158 31.9957C48.2158 33.8565 49.73 35.3703 51.5911 35.3703H66.6378C68.499 35.3703 70.0131 33.8565 70.0131 31.9957C70.0131 30.1349 68.499 28.6211 66.6378 28.6211Z" fill="#3498DB"/>
<path d="M79.1609 51.7862C76.8108 47.6547 73.2305 43.0501 68.4515 37.7358C67.8837 37.9093 67.2686 38.0197 66.6377 38.0197H51.5909C50.9601 38.0197 50.3449 37.9251 49.7771 37.7358C44.9824 43.0501 41.4178 47.6547 39.0678 51.7862C30.4561 66.9089 42.7112 82.2839 59.1143 82.0001C75.5332 82.2839 87.7883 66.9089 79.1609 51.7862ZM64.3349 67.587C63.2624 68.3912 61.906 68.8801 60.5811 69.0851V70.252C60.5811 71.1035 59.8872 71.7816 59.0512 71.7816C58.2153 71.7816 57.5213 71.0878 57.5213 70.252V69.0535C56.4173 68.8643 55.3763 68.4701 54.4773 67.8551C53.1524 66.972 52.143 65.6789 51.7171 63.9601C51.5121 63.1401 52.0168 62.3043 52.837 62.1151C53.6571 61.9101 54.493 62.4147 54.6823 63.2347C54.9031 64.1493 55.4552 64.8431 56.1649 65.3162C56.9535 65.8366 57.9314 66.1205 58.9408 66.1362C58.9724 66.1362 59.0197 66.1362 59.0512 66.1362C59.0985 66.1362 59.1301 66.1362 59.1774 66.1362H59.2563C59.4455 66.1362 59.6663 66.1047 59.9345 66.0889C60.8808 65.9785 61.8272 65.6789 62.5054 65.1585C63.0416 64.7485 63.4044 64.1808 63.3886 63.4239C63.3886 63.3608 63.3886 63.282 63.3571 63.1558C63.2467 62.2097 62.7104 61.5789 61.9849 61.1531C61.0859 60.617 59.9187 60.3331 58.8146 60.1439C57.4425 59.9231 55.9599 59.5131 54.7454 58.7247C53.3574 57.8258 52.3638 56.4855 52.2692 54.4828C52.1745 52.4958 53.0262 50.9031 54.3826 49.7993C55.2659 49.0897 56.3542 48.6008 57.5213 48.3643V47.1501C57.5213 46.2985 58.2153 45.6205 59.0512 45.6205C59.8872 45.6205 60.5811 46.3143 60.5811 47.1501V48.3328C60.7389 48.3643 60.8808 48.3958 61.0228 48.4274C63.0416 48.932 64.8712 50.2566 65.8333 52.5589C66.1645 53.3316 65.786 54.2305 65.0131 54.5616C64.2403 54.8928 63.3413 54.5143 63.0101 53.7416C62.458 52.4328 61.4328 51.6916 60.2815 51.392C59.9029 51.2974 59.5244 51.2501 59.1616 51.2501C59.1301 51.2501 59.0828 51.2501 59.0512 51.2501C59.0197 51.2501 58.9881 51.2501 58.9566 51.2501C58.6727 51.2501 58.3888 51.2816 58.1207 51.3447C57.4425 51.4866 56.8116 51.7547 56.3226 52.1647C55.6917 52.6693 55.2974 53.4105 55.3447 54.3251C55.3921 55.1766 55.8179 55.7443 56.433 56.1543C57.2216 56.6747 58.2942 56.9585 59.3194 57.1162C60.7389 57.3528 62.2845 57.7312 63.5779 58.5197C65.0447 59.4028 66.1487 60.7431 66.4011 62.7931C66.4169 62.9508 66.4326 63.1401 66.4326 63.3608C66.48 65.2374 65.6283 66.6251 64.3349 67.6028V67.587Z" fill="#3498DB"/>
<path d="M36.7494 50.4774C37.4591 49.2474 38.232 48.0175 39.0521 46.8032C38.579 46.4878 38.2635 45.9517 38.2635 45.3525V43.1132C38.2635 42.1671 39.0364 41.3786 39.9985 41.3786H43.1371C44.5409 39.6598 45.9919 37.9882 47.4587 36.364C47.0329 35.954 46.6544 35.4809 46.3547 34.9605H39.9985C39.0521 34.9605 38.2635 34.1878 38.2635 33.2259V30.9867C38.2635 30.0405 39.0364 29.2521 39.9985 29.2521H46.2285C46.7648 28.2113 47.6007 27.344 48.6259 26.7605L46.8279 24.9628C45.7396 23.8748 45.1402 22.4555 45.0614 21.0205H10.0154C9.06905 21.0205 8.28044 20.2478 8.28044 19.2859V12.5051C8.28044 11.559 9.05328 10.7705 10.0154 10.7705H48.0265C48.9729 10.7705 49.7615 11.5432 49.7615 12.5051V14.6813C50.976 14.3975 52.2851 14.4921 53.468 14.9809C54.2724 13.0571 56.0073 11.6694 58.0577 11.3067V7.5063C58.0577 3.37476 54.6824 -0.015625 50.5343 -0.015625H7.52337C3.37526 0.00014423 0 3.39053 0 7.52207V62.4778C0 66.6094 3.37526 69.9998 7.52337 69.9998H35.2037C32.4909 63.5344 33.311 56.5486 36.7651 50.4932L36.7494 50.4774ZM24.0685 30.9867C24.0685 30.0405 24.8413 29.2521 25.8034 29.2521H32.2543C33.2006 29.2521 33.9892 30.0248 33.9892 30.9867V33.2259C33.9892 34.1721 33.2164 34.9605 32.2543 34.9605H25.8034C24.8571 34.9605 24.0685 34.1878 24.0685 33.2259V30.9867ZM24.0685 43.0975C24.0685 42.1513 24.8413 41.3628 25.8034 41.3628H32.2543C33.2006 41.3628 33.9892 42.1355 33.9892 43.0975V45.3367C33.9892 46.2828 33.2164 47.0713 32.2543 47.0713H25.8034C24.8571 47.0713 24.0685 46.2986 24.0685 45.3367V43.0975ZM19.7942 57.4632C19.7942 58.4094 19.0214 59.1978 18.0592 59.1978H11.6084C10.6621 59.1978 9.87344 58.4251 9.87344 57.4632V55.224C9.87344 54.2778 10.6463 53.4894 11.6084 53.4894H18.0592C19.0056 53.4894 19.7942 54.2621 19.7942 55.224V57.4632ZM19.7942 45.3525C19.7942 46.2986 19.0214 47.0871 18.0592 47.0871H11.6084C10.6621 47.0871 9.87344 46.3144 9.87344 45.3525V43.1132C9.87344 42.1671 10.6463 41.3786 11.6084 41.3786H18.0592C19.0056 41.3786 19.7942 42.1513 19.7942 43.1132V45.3525ZM19.7942 33.2417C19.7942 34.1878 19.0214 34.9763 18.0592 34.9763H11.6084C10.6621 34.9763 9.87344 34.2036 9.87344 33.2417V31.0025C9.87344 30.0563 10.6463 29.2678 11.6084 29.2678H18.0592C19.0056 29.2678 19.7942 30.0405 19.7942 31.0025V33.2417ZM32.2543 59.1978H25.8034C24.8571 59.1978 24.0685 58.4251 24.0685 57.4632V55.224C24.0685 54.2778 24.8413 53.4894 25.8034 53.4894H32.2543C33.2006 53.4894 33.9892 54.2621 33.9892 55.224V57.4632C33.9892 58.4094 33.2164 59.1978 32.2543 59.1978Z" fill="#F39C12"/>
</g>
<defs>
<clipPath id="clip0_354_10541">
<rect width="82" height="82" fill="white"/>
</clipPath>
</defs>
</svg>
