<svg width="82" height="74" viewBox="0 0 82 74" fill="none" xmlns="http://www.w3.org/2000/svg">
<path d="M29.7321 27.0858L30.4412 26.1605V26.0944C30.4412 23.0276 31.7413 20.2648 33.8032 18.3349V12.9019H14.4194V27.0858H29.7321Z" fill="#1ABC9C"/>
<path d="M30.4283 48.2229V31.9239H12.0032C10.6768 31.9239 9.59994 30.8399 9.59994 29.5048V10.4827C9.59994 9.14755 10.6768 8.06359 12.0032 8.06359H36.1935C37.5199 8.06359 38.5967 9.14755 38.5967 10.4827V15.7571C39.3584 15.5852 40.1595 15.4795 40.9737 15.4795H48.1967V5.60486C48.1967 2.51161 45.7015 0 42.6284 0H5.56823C2.4952 0 0 2.51161 0 5.60486V33.1797C0 34.5809 0.275785 35.9689 0.801089 37.2644C1.33953 38.5863 2.12748 39.7628 3.13869 40.7674C4.1893 41.8249 4.7934 43.3055 4.7934 44.8521V71.5809C4.7934 72.916 5.87028 74 7.19667 74H40.9869C42.3133 74 43.3901 72.916 43.3901 71.5809V58.8378H40.9606C35.1429 58.8378 30.4151 54.079 30.4151 48.2229H30.4283ZM14.4853 65.9364C13.1589 65.9364 12.082 64.8524 12.082 63.5173C12.082 62.1822 13.1589 61.0983 14.4853 61.0983C15.8117 61.0983 16.8885 62.1822 16.8885 63.5173C16.8885 64.8524 15.8117 65.9364 14.4853 65.9364ZM14.4853 56.2601C13.1589 56.2601 12.082 55.1761 12.082 53.841C12.082 52.5059 13.1589 51.4219 14.4853 51.4219C15.8117 51.4219 16.8885 52.5059 16.8885 53.841C16.8885 55.1761 15.8117 56.2601 14.4853 56.2601ZM14.4853 46.5838C13.1589 46.5838 12.082 45.4998 12.082 44.1647C12.082 42.8296 13.1589 41.7456 14.4853 41.7456C15.8117 41.7456 16.8885 42.8296 16.8885 44.1647C16.8885 45.4998 15.8117 46.5838 14.4853 46.5838ZM24.0983 65.9364C22.7719 65.9364 21.6951 64.8524 21.6951 63.5173C21.6951 62.1822 22.7719 61.0983 24.0983 61.0983C25.4247 61.0983 26.5016 62.1822 26.5016 63.5173C26.5016 64.8524 25.4247 65.9364 24.0983 65.9364ZM24.0983 56.2601C22.7719 56.2601 21.6951 55.1761 21.6951 53.841C21.6951 52.5059 22.7719 51.4219 24.0983 51.4219C25.4247 51.4219 26.5016 52.5059 26.5016 53.841C26.5016 55.1761 25.4247 56.2601 24.0983 56.2601ZM24.0983 46.5838C22.7719 46.5838 21.6951 45.4998 21.6951 44.1647C21.6951 42.8296 22.7719 41.7456 24.0983 41.7456C25.4247 41.7456 26.5016 42.8296 26.5016 44.1647C26.5016 45.4998 25.4247 46.5838 24.0983 46.5838ZM33.7114 65.9364C32.385 65.9364 31.3081 64.8524 31.3081 63.5173C31.3081 62.1822 32.385 61.0983 33.7114 61.0983C35.0378 61.0983 36.1147 62.1822 36.1147 63.5173C36.1147 64.8524 35.0378 65.9364 33.7114 65.9364Z" fill="#1ABC9C"/>
<path d="M76.2612 20.3174H40.987C37.822 20.3174 35.248 22.9083 35.248 26.0941V48.2227C35.248 51.4085 37.822 53.9994 40.987 53.9994H76.2612C79.4261 53.9994 82.0001 51.4085 82.0001 48.2227V26.0941C82.0001 22.9083 79.4261 20.3174 76.2612 20.3174ZM53.0165 47.6675H44.0469C42.7205 47.6675 41.6436 46.5836 41.6436 45.2484C41.6436 43.9133 42.7205 42.8294 44.0469 42.8294H53.0165C54.3429 42.8294 55.4197 43.9133 55.4197 45.2484C55.4197 46.5836 54.3429 47.6675 53.0165 47.6675ZM71.5991 47.6675H62.6295C61.3031 47.6675 60.2263 46.5836 60.2263 45.2484C60.2263 43.9133 61.3031 42.8294 62.6295 42.8294H71.5991C72.9255 42.8294 74.0024 43.9133 74.0024 45.2484C74.0024 46.5836 72.9255 47.6675 71.5991 47.6675Z" fill="#E74C3C"/>
<path d="M64.9147 11.4609C63.8904 12.3069 63.7459 13.8271 64.5864 14.8582C65.4269 15.8893 66.9371 16.0347 67.9746 15.1887C68.5262 14.7392 69.1828 14.5013 69.9051 14.5013C70.6274 14.5013 71.3366 14.7657 71.875 15.2283C72.3346 15.6249 72.8862 15.81 73.4378 15.81C74.1207 15.81 74.7904 15.5191 75.2632 14.9639C76.13 13.9461 76.0118 12.4259 75.0006 11.5534C73.5822 10.3241 71.7699 9.6499 69.9051 9.6499C68.0403 9.6499 66.3199 10.2844 64.9278 11.4477L64.9147 11.4609Z" fill="#E74C3C"/>
<path d="M61.8149 7.77278C64.0737 5.88246 66.9498 4.83816 69.8915 4.83816C72.8332 4.83816 75.7749 5.9089 78.0468 7.83887C78.4933 8.22222 79.0449 8.40729 79.5965 8.40729C80.2794 8.40729 80.9623 8.11647 81.435 7.54805C82.2887 6.53019 82.1573 4.99678 81.1461 4.13755C78.0074 1.46731 74.002 0 69.8915 0C65.781 0 61.8543 1.44087 58.7419 4.05824C57.7176 4.91747 57.5862 6.43766 58.4267 7.46874C59.2803 8.49982 60.7906 8.63201 61.8149 7.786V7.77278Z" fill="#E74C3C"/>
</svg>
