<svg width="94" height="80" viewBox="0 0 94 80" fill="none" xmlns="http://www.w3.org/2000/svg">
<g clip-path="url(#clip0_354_10626)">
<path d="M12.2476 67.5994C8.82369 67.5994 6.04834 70.3751 6.04834 73.7996C6.04834 77.2241 8.82369 79.9999 12.2476 79.9999C15.6716 79.9999 18.4469 77.2241 18.4469 73.7996C18.4469 70.3751 15.6716 67.5994 12.2476 67.5994ZM12.2476 76.1983C10.9203 76.1983 9.84937 75.1272 9.84937 73.7996C9.84937 72.4721 10.9203 71.401 12.2476 71.401C13.575 71.401 14.6459 72.4721 14.6459 73.7996C14.6459 75.1272 13.575 76.1983 12.2476 76.1983Z" fill="#2980B9"/>
<path d="M0 65.0198V70.7675C0 72.4269 1.34243 73.7846 3.0016 73.7997C3.0016 69.7115 5.65629 66.2417 9.33665 65.0198H0Z" fill="#2980B9"/>
<path d="M47.4374 30.6846C47.4374 29.0101 46.0648 27.6523 44.4057 27.6523H3.03177C1.35751 27.6523 0 29.0252 0 30.6846V61.9725H47.4374V30.6846ZM12.3081 44.3071L23.2134 33.4C23.8017 32.8117 24.767 32.8117 25.3703 33.4C25.9586 33.9884 25.9586 34.9539 25.3703 35.5573L14.465 46.4643C13.8768 47.0527 12.9114 47.0527 12.3081 46.4643C11.7198 45.876 11.7198 44.9105 12.3081 44.3071ZM35.1293 45.3178L24.224 56.2248C23.6357 56.8132 22.6704 56.8132 22.0671 56.2248C21.4788 55.6365 21.4788 54.671 22.0671 54.0676L32.9724 43.1605C33.5607 42.5722 34.526 42.5722 35.1293 43.1605C35.7176 43.7489 35.7176 44.7144 35.1293 45.3178ZM35.2802 35.4064L14.3142 56.3757C13.7259 56.9641 12.7606 56.9641 12.1573 56.3757C11.569 55.7874 11.569 54.8219 12.1573 54.2184L33.1232 33.2492C33.7115 32.6608 34.6768 32.6608 35.2802 33.2492C35.8684 33.8375 35.8684 34.803 35.2802 35.4064Z" fill="#2980B9"/>
<path d="M59.504 16.8659V18.284H65.4922V3.03225C65.4922 1.35772 64.1196 0 62.4604 0H21.1016C19.4273 0 18.0698 1.37281 18.0698 3.03225V10.7713H53.4405C56.789 10.7713 59.5191 13.5018 59.5191 16.8508L59.504 16.8659Z" fill="#F39C12"/>
<path d="M72.8532 22.8399C71.9331 21.8442 70.7717 21.3313 69.4142 21.3313H59.5044V32.1026H60.3792C61.601 32.1026 62.7473 32.3741 63.773 32.8719V25.9023H69.0673C69.4444 25.9023 69.6706 26.0079 69.9271 26.2794L79.8369 37.1261C80.0631 37.3675 80.1385 37.5787 80.1385 37.9106V39.8717H70.8622L76.971 46.5548C78.2984 48.003 78.9922 49.7831 78.9922 51.7443V55.3347C79.7916 56.7075 80.2441 58.2915 80.2441 59.9811H81.9335C83.6077 59.9811 84.9652 58.6234 84.9652 56.9489V54.3541H81.2547C80.5005 54.3541 79.8821 53.7356 79.8821 52.9813V49.7077C79.8821 48.9534 80.5005 48.3349 81.2547 48.3349H84.9652V37.9408C84.9652 36.7339 84.558 35.693 83.7435 34.8029L72.8382 22.87L72.8532 22.8399Z" fill="#F39C12"/>
<path d="M63.8181 36.6585C62.898 35.6628 61.7366 35.1499 60.3791 35.1499H50.4692V73.7997H52.7167C52.7167 68.7007 56.8495 64.5521 61.9628 64.5521C67.0761 64.5521 71.209 68.6856 71.209 73.7997H72.8983C74.5726 73.7997 75.9301 72.442 75.9301 70.7675V68.1727H72.2196C71.4654 68.1727 70.847 67.5542 70.847 66.7999V63.5263C70.847 62.772 71.4654 62.1535 72.2196 62.1535H75.9301V51.7443C75.9301 50.5374 75.5228 49.4965 74.7083 48.6064L63.803 36.6736L63.8181 36.6585ZM56.8797 59.9962H54.9189C54.0742 59.9962 53.3954 59.3174 53.3954 58.4725C53.3954 57.6277 54.0742 56.9489 54.9189 56.9489H56.8797C57.7244 56.9489 58.4031 57.6277 58.4031 58.4725C58.4031 59.3174 57.7244 59.9962 56.8797 59.9962ZM71.1185 53.6904H54.7529V39.736H60.0472C60.4243 39.736 60.6506 39.8416 60.907 40.1131L70.8168 50.9598C71.0431 51.2012 71.1185 51.4124 71.1185 51.7443V53.7054V53.6904Z" fill="#2980B9"/>
<path d="M61.963 67.5994C58.539 67.5994 55.7637 70.3751 55.7637 73.7996C55.7637 77.2241 58.539 79.9999 61.963 79.9999C65.3869 79.9999 68.1623 77.2241 68.1623 73.7996C68.1623 70.3751 65.3869 67.5994 61.963 67.5994ZM61.963 76.1983C60.6356 76.1983 59.5647 75.1272 59.5647 73.7996C59.5647 72.4721 60.6356 71.401 61.963 71.401C63.2903 71.401 64.3612 72.4721 64.3612 73.7996C64.3612 75.1272 63.2903 76.1983 61.963 76.1983Z" fill="#2980B9"/>
<path d="M90.3045 40.5205C89.5503 40.5205 88.9319 39.902 88.9319 39.1477V35.8741C88.9319 35.1198 89.5503 34.5012 90.3045 34.5012H94.015V24.1071C94.015 22.9003 93.6077 21.8593 92.7932 20.9693L81.8879 9.03641C80.9678 8.04075 79.8064 7.52783 78.4489 7.52783H68.5391V18.2991H69.4139C70.6357 18.2991 71.782 18.5706 72.8077 19.0685V12.0988H78.102C78.479 12.0988 78.7053 12.2044 78.9617 12.476L88.8715 23.3227C89.0978 23.564 89.1732 23.7752 89.1732 24.1071V26.0683H79.8969L86.0057 32.7513C87.333 34.1995 88.0269 35.9797 88.0269 37.9408V41.5312C88.8263 42.904 89.2788 44.488 89.2788 46.1777H90.9681C92.6424 46.1777 93.9999 44.8199 93.9999 43.1454V40.5506H90.2894L90.3045 40.5205Z" fill="#F39C12"/>
<path d="M37.4371 73.7997H47.4374V65.0198H31.1021C34.888 66.2719 37.4371 69.8171 37.4371 73.7997Z" fill="#2980B9"/>
<path d="M28.191 67.5994C24.7671 67.5994 21.9917 70.3751 21.9917 73.7996C21.9917 77.2241 24.7671 79.9999 28.191 79.9999C31.6149 79.9999 34.3903 77.2241 34.3903 73.7996C34.3903 70.3751 31.6149 67.5994 28.191 67.5994ZM28.191 76.1983C26.8637 76.1983 25.7927 75.1272 25.7927 73.7996C25.7927 72.4721 26.8637 71.401 28.191 71.401C29.5183 71.401 30.5893 72.4721 30.5893 73.7996C30.5893 75.1272 29.5183 76.1983 28.191 76.1983Z" fill="#2980B9"/>
<path d="M15.1436 65.0198C17.2854 65.7288 19.0803 67.2072 20.2116 69.1231C21.3428 67.2072 23.1378 65.7288 25.2796 65.0198H15.1436Z" fill="#2980B9"/>
<path d="M50.4845 32.1026H56.4726V16.8509C56.4726 15.1763 55.1 13.8186 53.4408 13.8186H12.0669C10.3927 13.8186 9.03516 15.1914 9.03516 16.8509V24.5899H44.4058C47.7543 24.5899 50.4845 27.3204 50.4845 30.6694V32.0875V32.1026Z" fill="#F39C12"/>
</g>
<defs>
<clipPath id="clip0_354_10626">
<rect width="94" height="80" fill="white"/>
</clipPath>
</defs>
</svg>
