<svg width="83" height="81" viewBox="0 0 83 81" fill="none" xmlns="http://www.w3.org/2000/svg">
<path d="M41.015 21.7506C44.9961 21.6806 47.6384 17.1476 47.6384 13.3671C47.6384 5.08857 34.3916 5.08857 34.3916 13.3671C34.3916 17.1476 37.0339 21.6806 41.015 21.7506Z" fill="#9B59B6"/>
<path d="M46.564 21.1733C43.3403 24.5863 38.6898 24.5863 35.4662 21.1733C31.2209 22.381 27.9092 25.0413 27.9092 29.1718V35.7351H54.121V29.1718C54.121 25.0413 50.8269 22.3635 46.564 21.1733Z" fill="#9B59B6"/>
<path d="M19.2953 14.5924C23.2764 14.5224 25.9187 9.98936 25.9187 6.20889C25.9187 -2.06963 12.6543 -2.06963 12.6543 6.20889C12.6543 9.98936 15.2966 14.5224 19.2777 14.5924H19.2953Z" fill="#9B59B6"/>
<path d="M56.0939 28.5764H75.8232V22.0306C75.8232 17.8826 72.5291 15.2223 68.2661 14.0146C65.0425 17.4276 60.392 17.4276 57.1684 14.0146C53.5396 15.0298 50.6154 17.13 49.8228 20.2804C53.2049 21.8731 55.8472 24.621 56.0939 28.5764Z" fill="#9B59B6"/>
<path d="M62.7177 14.5924C66.6987 14.5224 69.3411 9.98936 69.3411 6.20889C69.3411 -2.06963 56.0942 -2.06963 56.0942 6.20889C56.0942 9.98936 58.7366 14.5224 62.7177 14.5924Z" fill="#9B59B6"/>
<path d="M61.361 44.1713C58.9301 43.4712 53.5749 42.1235 48.9949 41.7385C47.0396 41.5634 44.3444 41.3359 42.6357 42.4561C38.3552 45.2564 35.4839 47.7417 34.0218 49.912C32.7711 51.8022 32.6302 53.4124 33.6166 54.7601C35.2196 56.7728 38.4433 55.4252 40.7333 54.095C44.5382 51.8897 45.2957 50.2445 50.0695 53.7975C54.1034 56.7903 59.4057 62.3385 62.9111 65.944L67.9492 61.4109L61.3434 44.1888L61.361 44.1713Z" fill="#27AE60"/>
<path d="M32.2075 20.2804C31.4148 17.13 28.4906 15.0298 24.8618 14.0146C21.6382 17.4276 16.9877 17.4276 13.7641 14.0146C9.50112 15.2223 6.20703 17.8826 6.20703 22.0306V28.5764H25.9364C26.183 24.621 28.8253 21.8906 32.2075 20.2804Z" fill="#9B59B6"/>
<path d="M60.5156 66.3114C57.38 63.091 52.5005 58.0678 48.8894 55.39C45.3487 52.7647 44.9083 53.9898 41.7375 55.8101C39.6412 57.0177 37.8092 57.6653 36.2591 57.7528C31.1506 58.0328 29.6533 52.8522 32.3484 48.8092C33.6696 46.8315 35.9596 44.6787 39.2185 42.3509C38.1263 41.5808 35.7306 41.4933 32.9826 41.7383C28.4026 42.1409 23.0475 43.471 20.6342 44.1711L14.0107 61.3933C18.8726 65.8038 24.7209 71.597 29.4595 75.3775C32.9298 78.1428 38.6724 82.1508 42.9353 80.6981L32.9826 72.8047C32.5598 72.4546 32.4894 71.842 32.8241 71.422C33.1764 71.0019 33.7929 70.9319 34.2157 71.2645L45.2782 80.0506C46.3704 80.5406 47.3392 80.5931 48.1847 80.1906C48.9774 79.823 49.7173 79.0529 50.3867 77.8803L39.9936 69.3742C39.5708 69.0242 39.5003 68.3941 39.8526 67.9741C40.2049 67.554 40.8391 67.484 41.2619 67.834L52.2363 76.8127C52.7119 77.1452 53.2404 77.3202 53.7512 77.4077C55.6009 77.6878 57.4153 76.5676 57.9613 74.7824L47.6563 65.8213C47.2335 65.4538 47.1983 64.8412 47.5682 64.4211C47.9381 64.0186 48.5547 63.9661 48.9774 64.3336L59.4234 73.4172C61.3435 73.2422 62.6118 71.6495 62.559 69.6718C62.559 69.0417 62.3828 68.4291 62.0834 67.9216C61.6254 67.449 61.0969 66.9064 60.5156 66.3114Z" fill="#27AE60"/>
<path d="M81.9005 57.245L74.5901 38.2026C74.2554 37.345 73.2689 36.89 72.4058 37.2225L63.8975 40.4429C62.9991 40.793 62.5763 41.7906 62.911 42.6132L70.2215 61.638C70.5561 62.5131 71.5426 62.9507 72.4058 62.6182L80.914 59.3978C81.7948 59.0652 82.2352 58.0851 81.9005 57.21V57.245Z" fill="#27AE60"/>
<path d="M18.1326 40.4608L9.62438 37.2404C8.76122 36.9078 7.77475 37.3279 7.44006 38.2205L0.112024 57.2453C-0.22267 58.1205 0.217717 59.1006 1.09849 59.4331L9.60676 62.6535C10.4875 62.9861 11.4564 62.5485 11.7911 61.6734L19.1015 42.6485C19.4362 41.8259 19.0134 40.8108 18.115 40.4783L18.1326 40.4608Z" fill="#27AE60"/>
</svg>
