<svg width="70" height="70" viewBox="0 0 70 70" fill="none" xmlns="http://www.w3.org/2000/svg">
<path d="M51.3803 27.4683H1.77196C0.79352 27.4683 0 28.2613 0 29.24V68.2275C0 69.2062 0.79352 69.9999 1.77196 69.9999H14.1737V46.9617C14.1737 45.9831 14.9672 45.1893 15.9457 45.1893H37.2066C38.185 45.1893 38.9785 45.9831 38.9785 46.9617V69.9999H53.1522V29.24C53.1522 28.2613 52.3587 27.4683 51.3803 27.4683Z" fill="#F1C40F"/>
<path d="M17.7173 48.7341H35.4347V70H17.7173V48.7341Z" fill="#F1C40F"/>
<path d="M68.2116 38.9876H55.8096V70.0002H68.2116C68.6813 70.0002 69.1323 69.8191 69.4644 69.4954C69.7973 69.1724 69.9835 68.7339 69.9835 68.2771V40.7101C69.9835 40.2532 69.7973 39.8147 69.4644 39.4917C69.1323 39.1686 68.6813 38.9869 68.2116 38.9876ZM64.6684 56.2164H61.1246C60.1462 56.2164 59.3534 55.4454 59.3534 54.4939C59.3534 53.5424 60.1462 52.7707 61.1246 52.7707H64.6684C65.6468 52.7707 66.4397 53.5424 66.4397 54.4939C66.4397 55.4454 65.6468 56.2164 64.6684 56.2164ZM64.6684 49.3251H61.1246C60.1462 49.3251 59.3534 48.5534 59.3534 47.602C59.3534 46.6505 60.1462 45.8788 61.1246 45.8788H64.6684C65.6468 45.8788 66.4397 46.6505 66.4397 47.602C66.4397 48.5534 65.6468 49.3251 64.6684 49.3251Z" fill="#27AE60"/>
<path d="M38.9785 8.86076C39.4483 8.86141 39.8993 8.67449 40.2315 8.34221C40.5637 8.00992 40.7505 7.55887 40.7499 7.08899C40.7499 6.69895 40.7499 6.59381 42.1968 6.11096C43.5497 5.6612 46.0652 4.8214 46.0652 1.77241C46.0652 0.793723 45.2724 0 44.2939 0C43.3154 0 42.5219 0.793723 42.5219 1.77241C42.5219 2.16181 42.5219 2.26695 41.0756 2.7498C39.7228 3.2002 37.2065 4.03936 37.2065 7.08899C37.2065 7.55887 37.3928 8.00992 37.725 8.34221C38.0578 8.67449 38.5081 8.86141 38.9785 8.86076Z" fill="#27AE60"/>
<path d="M46.0652 12.2949C46.0659 11.6816 45.7064 11.1182 45.1303 10.8292C44.5541 10.5402 43.8546 10.5719 43.3109 10.9126L37.9955 14.2351C37.5031 14.5436 37.2072 15.0619 37.2065 15.6174V23.924H46.0652V12.2949Z" fill="#27AE60"/>
<path d="M23.9184 8.86076C24.3881 8.86141 24.839 8.67449 25.1712 8.34221C25.504 8.00992 25.6902 7.55887 25.6902 7.08899C25.6902 6.69895 25.6902 6.59381 27.1364 6.11096C28.4891 5.6612 31.0052 4.8214 31.0052 1.77241C31.0052 0.793723 30.2117 0 29.2333 0C28.2549 0 27.4614 0.793723 27.4614 1.77241C27.4614 2.16181 27.4614 2.26695 26.0153 2.7498C24.6625 3.2002 22.1465 4.03936 22.1465 7.08899C22.1465 7.55887 22.3327 8.00992 22.6655 8.34221C22.9977 8.67449 23.4486 8.86141 23.9184 8.86076Z" fill="#27AE60"/>
<path d="M31.0052 12.2949C31.0058 11.6816 30.6458 11.1182 30.0696 10.8292C29.4935 10.5402 28.7941 10.5719 28.2504 10.9126L22.9354 14.2351C22.4436 14.5436 22.1478 15.0619 22.1465 15.6174V23.924H31.0052V12.2949Z" fill="#27AE60"/>
<path d="M8.85827 8.86076C9.32868 8.86141 9.77898 8.67449 10.1118 8.34221C10.444 8.00992 10.6303 7.55887 10.6303 7.08899C10.6303 6.69895 10.6303 6.59381 12.0765 6.11096C13.4294 5.6612 15.9456 4.8214 15.9456 1.77241C15.9456 0.793723 15.1521 0 14.1736 0C13.1952 0 12.4023 0.793723 12.4023 1.77241C12.4023 2.16181 12.4023 2.26695 10.9553 2.7498C9.60249 3.2002 7.08692 4.03936 7.08692 7.08899C7.08627 7.55887 7.27313 8.00992 7.60534 8.34221C7.93755 8.67449 8.3885 8.86141 8.85827 8.86076Z" fill="#27AE60"/>
<path d="M15.9456 12.2949C15.9463 11.6816 15.5868 11.1182 15.01 10.8292C14.4338 10.5402 13.7343 10.5719 13.1913 10.9126L7.87591 14.2351C7.38344 14.5436 7.08756 15.0619 7.08691 15.6174V23.924H15.9456V12.2949Z" fill="#27AE60"/>
</svg>
