<svg width="18" height="18" viewBox="0 0 18 18" fill="none" xmlns="http://www.w3.org/2000/svg">
<rect width="18" height="18" fill="#1E1E1E"/>
<rect x="-498.5" y="-1113.5" width="1471" height="1238" rx="4.5" stroke="#9747FF" stroke-dasharray="10 5"/>
<g filter="url(#filter0_b_0_1)">
<rect x="-122" y="-506" width="352" height="576" rx="26" fill="#0B3041"/>
</g>
<path d="M0.818101 8.99997C0.818101 8.79072 0.898077 8.58127 1.05783 8.42152L9.23957 0.239776C9.55927 -0.0799257 10.077 -0.0799257 10.3965 0.239776C10.716 0.559478 10.7162 1.07718 10.3965 1.39667L2.79317 8.99997L10.3965 16.6033C10.7162 16.923 10.7162 17.4407 10.3965 17.7602C10.0768 18.0797 9.55907 18.0799 9.23957 17.7602L1.05783 9.57842C0.898077 9.41867 0.818101 9.20922 0.818101 8.99997ZM7.60322 9.57842L15.785 17.7602C16.1047 18.0799 16.6224 18.0799 16.9419 17.7602C17.2614 17.4405 17.2616 16.9228 16.9419 16.6033L9.33857 8.99997L16.9419 1.39667C17.2616 1.07697 17.2616 0.559273 16.9419 0.239776C16.6222 -0.0797209 16.1045 -0.0799254 15.785 0.239776L7.60322 8.42152C7.44347 8.58127 7.3635 8.79072 7.3635 8.99997C7.3635 9.20922 7.44347 9.41867 7.60322 9.57842Z" fill="white"/>
<defs>
<filter id="filter0_b_0_1" x="-157" y="-541" width="422" height="646" filterUnits="userSpaceOnUse" color-interpolation-filters="sRGB">
<feFlood flood-opacity="0" result="BackgroundImageFix"/>
<feGaussianBlur in="BackgroundImageFix" stdDeviation="17.5"/>
<feComposite in2="SourceAlpha" operator="in" result="effect1_backgroundBlur_0_1"/>
<feBlend mode="normal" in="SourceGraphic" in2="effect1_backgroundBlur_0_1" result="shape"/>
</filter>
</defs>
</svg>
