<svg width="18" height="18" viewBox="0 0 18 18" fill="none" xmlns="http://www.w3.org/2000/svg">
<path d="M0.81859 8.99957C0.81859 8.79032 0.898565 8.58087 1.05831 8.42112L9.24006 0.239379C9.55976 -0.0803225 10.0775 -0.0803224 10.397 0.239379C10.7165 0.559081 10.7167 1.07678 10.397 1.39628L2.79366 8.99957L10.397 16.6029C10.7167 16.9226 10.7167 17.4403 10.397 17.7598C10.0773 18.0793 9.55956 18.0795 9.24006 17.7598L1.05831 9.57802C0.898565 9.41827 0.81859 9.20882 0.81859 8.99957ZM7.60371 9.57802L15.7855 17.7598C16.1052 18.0795 16.6229 18.0795 16.9424 17.7598C17.2618 17.4401 17.2621 16.9224 16.9424 16.6029L9.33906 8.99957L16.9424 1.39628C17.2621 1.07658 17.2621 0.558877 16.9424 0.239379C16.6227 -0.0801176 16.105 -0.0803222 15.7855 0.239379L7.60371 8.42112C7.44396 8.58087 7.36399 8.79032 7.36399 8.99957C7.36399 9.20882 7.44396 9.41827 7.60371 9.57802Z" fill="#0B3041"/>
</svg>
