<svg width="210" height="354" viewBox="0 0 210 354" fill="none" xmlns="http://www.w3.org/2000/svg">
<path d="M104.555 345.176C114.349 345.176 122.288 337.236 122.288 327.441C122.288 317.646 114.349 309.706 104.555 309.706C94.7619 309.706 86.8228 317.646 86.8228 327.441C86.8228 337.236 94.7619 345.176 104.555 345.176Z" fill="#D4D4D4"/>
<path d="M104.555 353.453C90.3693 353.453 78.8386 341.92 78.8386 327.732C78.8386 313.544 90.3693 302.011 104.555 302.011C118.741 302.011 130.272 313.544 130.272 327.732C130.272 341.92 118.741 353.453 104.555 353.453ZM104.555 303.83C91.3696 303.83 80.6573 314.544 80.6573 327.732C80.6573 340.92 91.3696 351.634 104.555 351.634C117.741 351.634 128.453 340.92 128.453 327.732C128.453 314.544 117.741 303.83 104.555 303.83Z" fill="#BFBFBF"/>
<path d="M104.555 303.83C104.046 303.83 103.646 303.43 103.646 302.92V207.731C103.646 207.222 104.046 206.822 104.555 206.822C105.065 206.822 105.465 207.222 105.465 207.731V302.92C105.465 303.43 105.065 303.83 104.555 303.83Z" fill="#BFBFBF"/>
<g filter="url(#filter0_d_374_8526)">
<path d="M192.855 15.8793C188.981 13.4964 184.143 13.3145 180.087 15.37L104.537 53.8604L29.0057 15.3882C24.9499 13.3327 20.1303 13.5146 16.2382 15.8975C12.3643 18.2805 10 22.5006 10 27.0481V153.124C10 157.763 12.4553 162.056 16.4747 164.402L97.9535 212.06C99.9905 213.261 102.264 213.843 104.555 213.843C106.847 213.843 109.12 213.243 111.157 212.06L192.636 164.402C196.637 162.056 199.111 157.763 199.111 153.124V27.0299C199.111 22.4824 196.747 18.2623 192.873 15.8793H192.855Z" fill="#EEEEEE"/>
<path d="M192.855 15.8793C188.981 13.4964 184.143 13.3145 180.087 15.37L104.537 53.8604L29.0057 15.3882C24.9499 13.3327 20.1303 13.5146 16.2382 15.8975C12.3643 18.2805 10 22.5006 10 27.0481V153.124C10 157.763 12.4553 162.056 16.4747 164.402L97.9535 212.06C99.9905 213.261 102.264 213.843 104.555 213.843C106.847 213.843 109.12 213.243 111.157 212.06L192.636 164.402C196.637 162.056 199.111 157.763 199.111 153.124V27.0299C199.111 22.4824 196.747 18.2623 192.873 15.8793H192.855ZM189.872 153.106C189.872 154.47 189.144 155.744 187.962 156.417L106.483 204.075C105.301 204.766 103.773 204.766 102.609 204.075L21.1306 156.417C19.9484 155.725 19.2209 154.452 19.2209 153.106V27.0299C19.2209 25.702 19.9302 24.4469 21.0578 23.7557C21.6762 23.3737 22.3673 23.1918 23.0766 23.1918C23.6768 23.1918 24.277 23.3373 24.8226 23.6102L104.555 64.2288L184.288 23.6102C185.47 23.0099 186.907 23.0645 188.035 23.7557C189.162 24.4469 189.872 25.702 189.872 27.0299V153.106Z" fill="white"/>
</g>
<path d="M87.2413 8.65788C70.6909 18.2259 65.0165 39.3811 74.5648 55.9523C84.1131 72.5236 105.283 78.1807 121.852 68.6309C138.42 59.0811 144.076 37.9077 134.528 21.3364C124.98 4.76518 103.81 -0.910158 87.2413 8.65788Z" fill="url(#paint0_linear_374_8526)"/>
<path d="M135.028 46.7943C139.536 29.9678 129.552 12.6723 112.728 8.16367C95.9043 3.65503 78.6116 13.6406 74.1037 30.4671C69.5958 47.2935 79.5797 64.5891 96.4035 69.0977C113.227 73.6063 130.52 63.6208 135.028 46.7943Z" fill="url(#paint1_linear_374_8526)"/>
<path d="M90.026 96.7443H90.3177L90.901 97.3276V98.8693L90.3177 99.4526H90.1719C88.6302 99.4526 87.4844 98.8485 86.8594 97.6818C85.8594 98.7651 84.3594 99.4526 82.4427 99.4526H77.9635C77.4427 99.4526 77.1302 99.1401 77.1302 98.5985V97.5776C77.1302 97.036 77.4427 96.7443 77.9635 96.7443H82.4427C84.1302 96.7235 85.0885 95.411 85.0885 94.1401C85.0885 92.5776 83.9844 91.5151 82.5052 91.4735C81.4219 91.4318 80.3802 91.5985 78.901 92.0776C78.4844 92.2026 78.2552 92.0985 78.2552 91.661V90.2026C78.2552 89.8068 78.401 89.4526 78.901 89.3068C80.2552 88.8485 81.3802 88.7651 82.5052 88.7651C85.7969 88.7651 88.2344 90.9943 88.2344 93.9943V94.8276C88.2344 96.1401 88.7344 96.7443 90.026 96.7443ZM90.2897 99.4526L89.7064 98.8693V97.3276L90.2897 96.7443H91.6647C92.6439 96.7443 93.3105 96.0985 93.3105 94.9318V91.036C93.3105 90.5151 93.623 90.2026 94.1439 90.2026H95.6647C96.2064 90.2026 96.498 90.5151 96.498 91.036V95.411C96.498 97.9526 94.8105 99.4526 92.4147 99.4526H90.2897ZM91.8314 104.244C90.9147 104.244 90.4147 103.765 90.4147 102.848C90.4147 101.953 90.9147 101.453 91.8314 101.453C92.7272 101.453 93.2064 101.953 93.2064 102.848C93.2064 103.765 92.7272 104.244 91.8314 104.244ZM95.498 104.244C94.6022 104.244 94.1022 103.765 94.1022 102.848C94.1022 101.953 94.6022 101.453 95.498 101.453C96.3939 101.453 96.8939 101.953 96.8939 102.848C96.8939 103.765 96.3939 104.244 95.498 104.244ZM111.462 96.7443H111.753L112.337 97.3276V98.8693L111.753 99.4526H111.607C110.066 99.4526 108.92 98.8485 108.295 97.6818C107.295 98.7651 105.795 99.4526 103.878 99.4526H99.3991C98.8783 99.4526 98.5658 99.1401 98.5658 98.5985V97.5776C98.5658 97.036 98.8783 96.7443 99.3991 96.7443H103.878C105.566 96.7235 106.524 95.411 106.524 94.1401C106.524 92.5776 105.42 91.5151 103.941 91.4735C102.857 91.4318 101.816 91.5985 100.337 92.0776C99.9199 92.2026 99.6908 92.0985 99.6908 91.661V90.2026C99.6908 89.8068 99.8366 89.4526 100.337 89.3068C101.691 88.8485 102.816 88.7651 103.941 88.7651C107.232 88.7651 109.67 90.9943 109.67 93.9943V94.8276C109.67 96.1401 110.17 96.7443 111.462 96.7443ZM124.413 96.7443H125.163L125.746 97.3276V98.8693L125.163 99.4526H111.746L111.163 98.8693V97.3276L111.746 96.7443H120.496C120.225 96.2235 120.121 95.536 120.121 94.536V93.6401C120.121 92.0568 119.059 91.3068 117.496 91.3068C116.309 91.3068 115.329 91.411 113.85 91.8901C113.434 92.0151 113.204 91.911 113.204 91.4735V90.2026C113.204 89.8068 113.35 89.4526 113.85 89.3068C115.204 88.8485 116.288 88.7651 117.496 88.7651C120.371 88.7651 123.059 89.9318 123.059 93.5985V94.536C123.059 95.5568 123.142 96.7443 124.413 96.7443ZM127.986 88.2026C127.07 88.2026 126.57 87.7026 126.57 86.8068C126.57 85.911 127.07 85.411 127.986 85.411C128.882 85.411 129.361 85.911 129.361 86.8068C129.361 87.7026 128.882 88.2026 127.986 88.2026ZM131.674 88.2026C130.778 88.2026 130.278 87.7026 130.278 86.8068C130.278 85.911 130.778 85.411 131.674 85.411C132.57 85.411 133.07 85.911 133.07 86.8068C133.07 87.7026 132.57 88.2026 131.674 88.2026ZM125.153 99.4526L124.57 98.8693V97.3276L125.153 96.7443H126.528C127.507 96.7443 128.174 96.0985 128.174 94.9318V91.036C128.174 90.5151 128.486 90.2026 129.007 90.2026H130.528C131.07 90.2026 131.361 90.5151 131.361 91.036V95.411C131.361 97.9526 129.674 99.4526 127.278 99.4526H125.153ZM68.4712 122.182C67.5545 122.182 67.0545 121.682 67.0545 120.786C67.0545 119.89 67.5545 119.39 68.4712 119.39C69.367 119.39 69.8462 119.89 69.8462 120.786C69.8462 121.682 69.367 122.182 68.4712 122.182ZM72.1587 122.182C71.2629 122.182 70.7629 121.682 70.7629 120.786C70.7629 119.89 71.2629 119.39 72.1587 119.39C73.0545 119.39 73.5545 119.89 73.5545 120.786C73.5545 121.682 73.0545 122.182 72.1587 122.182ZM75.5129 133.453H64.9504C62.5545 133.453 60.867 131.994 60.867 129.411V125.036C60.867 124.515 61.1587 124.203 61.6795 124.203H63.2212C63.742 124.203 64.0545 124.515 64.0545 125.036V128.932C64.0545 130.098 64.6795 130.744 65.7004 130.744H74.7837C75.7837 130.744 76.4087 130.098 76.4087 128.932V125.036C76.4087 124.515 76.7212 124.203 77.2629 124.203H78.7837C79.3045 124.203 79.617 124.515 79.617 125.036V129.411C79.617 131.994 77.9295 133.453 75.5129 133.453ZM88.7596 131.328V132.869L88.1763 133.453H86.9888C84.5721 133.453 82.8846 131.953 82.8846 129.411V118.39C82.8846 117.869 83.1971 117.557 83.7179 117.557H85.2388C85.7804 117.557 86.0929 117.869 86.0929 118.39V128.932C86.0929 130.098 86.7388 130.744 87.7179 130.744H88.1763L88.7596 131.328ZM95.6535 130.744H96.1535L96.7368 131.328V132.869L96.1535 133.453H95.8618C94.5701 133.453 93.5493 133.036 92.8618 132.244C92.1326 133.036 91.0701 133.453 89.7785 133.453H88.1743L87.591 132.869V131.328L88.1743 130.744H89.0285C90.0701 130.744 90.6743 130.098 90.6743 128.932V125.036C90.6743 124.515 90.9868 124.203 91.5076 124.203H93.0285C93.5701 124.203 93.8618 124.515 93.8618 125.036V128.828C93.8618 130.14 94.3618 130.744 95.6535 130.744ZM91.4451 135.473C92.341 135.473 92.841 135.953 92.841 136.848C92.841 137.744 92.341 138.244 91.4451 138.244C90.5493 138.244 90.0493 137.744 90.0493 136.848C90.0493 135.953 90.5493 135.473 91.4451 135.473ZM103.637 130.744H104.137L104.72 131.328V132.869L104.137 133.453H103.845C102.554 133.453 101.533 133.036 100.845 132.244C100.116 133.036 99.0535 133.453 97.7619 133.453H96.1577L95.5744 132.869V131.328L96.1577 130.744H97.0119C98.0535 130.744 98.6577 130.098 98.6577 128.932V118.515C98.6577 117.973 98.9702 117.682 99.491 117.682H101.012C101.554 117.682 101.845 117.973 101.845 118.515V128.828C101.845 130.14 102.345 130.744 103.637 130.744ZM125.204 130.744H125.495L126.079 131.328V132.869L125.495 133.453H125.37C123.829 133.453 122.704 132.869 122.058 131.744C121.037 132.828 119.454 133.453 117.599 133.453H104.141L103.558 132.869V131.328L104.141 130.744H106.245V118.515C106.245 117.973 106.558 117.682 107.099 117.682H108.62C109.141 117.682 109.454 117.973 109.454 118.515V126.244C111.391 124.348 114.058 122.744 117.433 122.744C120.974 122.744 123.412 124.994 123.412 128.203V128.828C123.412 130.14 123.912 130.744 125.204 130.744ZM109.454 130.744H117.579C119.162 130.703 120.266 129.786 120.266 128.203C120.266 126.619 119.287 125.494 117.433 125.453C114.079 125.453 111.349 127.453 109.454 129.39V130.744ZM128.295 122.203C127.378 122.203 126.878 121.703 126.878 120.807C126.878 119.911 127.378 119.411 128.295 119.411C129.191 119.411 129.67 119.911 129.67 120.807C129.67 121.703 129.191 122.203 128.295 122.203ZM131.983 122.203C131.087 122.203 130.587 121.703 130.587 120.807C130.587 119.911 131.087 119.411 131.983 119.411C132.878 119.411 133.378 119.911 133.378 120.807C133.378 121.703 132.878 122.203 131.983 122.203ZM133.503 130.744H134.524L135.108 131.328V132.869L134.524 133.453H133.712C132.42 133.453 131.399 133.036 130.712 132.244C129.983 133.036 128.92 133.453 127.628 133.453H125.503L124.92 132.869V131.328L125.503 130.744H126.878C127.92 130.744 128.524 130.098 128.524 128.932V125.036C128.524 124.515 128.837 124.203 129.358 124.203H130.878C131.42 124.203 131.712 124.515 131.712 125.036V128.828C131.712 130.14 132.212 130.744 133.503 130.744ZM142.429 122.765C145.783 122.765 148.262 125.098 148.262 128.244C148.262 133.723 142.908 135.223 138.866 132.203C138.137 133.015 137.033 133.453 135.741 133.453H134.512L133.929 132.869V131.328L134.512 130.744H134.991C135.971 130.744 136.637 130.098 136.637 128.932V128.244C136.637 125.098 139.075 122.765 142.429 122.765ZM139.825 129.869C142.596 131.848 145.137 131.161 145.137 128.244C145.137 126.661 144.012 125.473 142.491 125.473C140.95 125.473 139.846 126.661 139.846 128.244V129.411C139.846 129.578 139.846 129.723 139.825 129.869ZM89.894 164.744H90.1857L90.769 165.328V166.869L90.1857 167.453H90.0607C89.3107 167.453 88.6232 167.286 88.0399 166.973C87.644 170.223 85.2482 172.328 81.8315 172.328C78.0607 172.328 75.5399 169.786 75.5399 165.953V161.807C75.5399 161.265 75.8315 160.953 76.3732 160.953H77.894C78.4565 160.953 78.7482 161.265 78.7482 161.807V166.14C78.7482 168.119 79.9982 169.453 81.8315 169.453C83.6857 169.453 84.9149 168.119 84.9149 166.14V152.515C84.9149 151.973 85.2065 151.661 85.7482 151.661H87.2274C87.7899 151.661 88.1024 151.973 88.1024 152.515V162.828C88.1024 164.14 88.6024 164.744 89.894 164.744ZM105.676 164.744H106.135L106.718 165.328V166.869L106.135 167.453H105.864C104.447 167.453 103.364 166.953 102.697 165.994C100.905 168.223 97.3638 168.348 94.4888 166.203C93.7596 167.015 92.6554 167.453 91.3429 167.453H90.1763L89.5929 166.869V165.328L90.1763 164.744H90.6138C91.5929 164.744 92.2388 164.098 92.2388 162.932V162.244C92.2388 159.098 94.6763 156.765 98.0304 156.765C101.385 156.765 103.885 159.098 103.885 162.244V162.911C103.885 164.14 104.385 164.744 105.676 164.744ZM95.4263 163.848C98.1971 165.848 100.739 165.161 100.739 162.244C100.739 160.661 99.6138 159.473 98.0929 159.473C96.5721 159.473 95.4471 160.661 95.4471 162.244V163.411C95.4471 163.557 95.4471 163.703 95.4263 163.848ZM118.414 164.744H120.539L121.122 165.328V166.869L120.539 167.453H118.393C117.081 167.369 116.247 166.869 115.685 165.953C114.289 167.119 113.664 167.453 112.456 167.453H106.143L105.56 166.869V165.328L106.143 164.744H110.56L107.789 159.64C107.56 159.244 107.497 159.078 107.726 158.682L108.56 157.161C108.747 156.807 108.976 156.557 109.351 156.557H113.476C116.393 156.557 118.601 157.161 119.06 159.786C119.372 161.473 118.643 163.119 117.372 164.432C117.622 164.619 117.956 164.723 118.414 164.744ZM113.476 159.265H110.622L113.31 164.432C113.851 164.119 114.497 163.619 115.06 163.036C115.664 162.411 116.081 161.682 116.039 160.953C115.997 159.765 115.143 159.265 113.476 159.265ZM120.547 167.453L119.964 166.869V165.328L120.547 164.744H121.152C122.131 164.744 122.777 164.098 122.777 162.932V152.369C122.777 151.848 123.089 151.536 123.631 151.536H125.152C125.672 151.536 125.985 151.848 125.985 152.369V163.411C125.985 165.953 124.277 167.453 121.881 167.453H120.547ZM131.622 167.453H130.101C129.559 167.453 129.247 167.14 129.247 166.598V152.39C129.247 151.848 129.559 151.536 130.101 151.536H131.622C132.164 151.536 132.476 151.848 132.476 152.39V166.598C132.476 167.14 132.164 167.453 131.622 167.453Z" fill="#0B3041"/>
<path d="M105.371 37.661C105.371 42.8901 102.975 45.7026 99.4541 45.7026C95.9333 45.7026 93.5374 42.8901 93.5374 37.661C93.5374 32.411 95.9333 29.5985 99.4541 29.5985C102.975 29.5985 105.371 32.411 105.371 37.661ZM96.7249 37.661C96.7249 41.3276 97.8083 43.0568 99.4541 43.0568C101.1 43.0568 102.204 41.3276 102.204 37.661C102.204 33.9735 101.1 32.2026 99.4541 32.2026C97.8083 32.2026 96.7249 33.9735 96.7249 37.661ZM107.486 29.536H111.632C112.174 29.536 112.465 29.8485 112.465 30.3901V44.5985C112.465 45.1401 112.174 45.4526 111.632 45.4526H110.132C109.569 45.4526 109.278 45.1401 109.278 44.5985V32.0776H106.924C106.382 32.0776 106.09 31.786 106.257 31.161L106.507 30.286C106.632 29.786 106.944 29.536 107.486 29.536Z" fill="#9B9B9B"/>
<defs>
<filter id="filter0_d_374_8526" x="0" y="9.9502" width="209.111" height="219.893" filterUnits="userSpaceOnUse" color-interpolation-filters="sRGB">
<feFlood flood-opacity="0" result="BackgroundImageFix"/>
<feColorMatrix in="SourceAlpha" type="matrix" values="0 0 0 0 0 0 0 0 0 0 0 0 0 0 0 0 0 0 127 0" result="hardAlpha"/>
<feOffset dy="6"/>
<feGaussianBlur stdDeviation="5"/>
<feColorMatrix type="matrix" values="0 0 0 0 0.666667 0 0 0 0 0.666667 0 0 0 0 0.666667 0 0 0 0.75 0"/>
<feBlend mode="normal" in2="BackgroundImageFix" result="effect1_dropShadow_374_8526"/>
<feBlend mode="normal" in="SourceGraphic" in2="effect1_dropShadow_374_8526" result="shape"/>
</filter>
<linearGradient id="paint0_linear_374_8526" x1="80.0755" y1="14.1513" x2="129.043" y2="63.1114" gradientUnits="userSpaceOnUse">
<stop offset="0.02" stop-color="white"/>
<stop offset="0.94" stop-color="#C9C9C9"/>
</linearGradient>
<linearGradient id="paint1_linear_374_8526" x1="82.2709" y1="16.3148" x2="126.873" y2="60.9281" gradientUnits="userSpaceOnUse">
<stop offset="0.06" stop-color="#D9D9D9"/>
<stop offset="0.98" stop-color="white"/>
</linearGradient>
</defs>
</svg>
