<svg width="210" height="356" viewBox="0 0 210 356" fill="none" xmlns="http://www.w3.org/2000/svg">
<path d="M104.556 8.72886C94.7621 8.72886 86.823 16.6693 86.823 26.4643C86.823 36.2593 94.7621 44.1997 104.556 44.1997C114.349 44.1997 122.288 36.2593 122.288 26.4643C122.288 16.6693 114.349 8.72886 104.556 8.72886Z" fill="#D4D4D4"/>
<path d="M104.555 0.452432C118.742 0.452434 130.272 11.985 130.272 26.1733C130.272 40.3617 118.742 51.8943 104.555 51.8943C90.3694 51.8943 78.8387 40.3617 78.8387 26.1733C78.8387 11.985 90.3694 0.452431 104.555 0.452432ZM104.555 50.0753C117.741 50.0753 128.453 39.3612 128.453 26.1733C128.453 12.9855 117.741 2.27145 104.555 2.27145C91.3697 2.27145 80.6574 12.9855 80.6574 26.1733C80.6574 39.3612 91.3697 50.0753 104.555 50.0753Z" fill="#BFBFBF"/>
<path d="M104.555 50.0753C105.065 50.0753 105.465 50.4755 105.465 50.9848L105.465 146.174C105.465 146.683 105.065 147.083 104.555 147.083C104.046 147.083 103.646 146.683 103.646 146.174L103.646 50.9848C103.646 50.4755 104.046 50.0753 104.555 50.0753Z" fill="#BFBFBF"/>
<g filter="url(#filter0_d_374_8572)">
<path d="M16.2563 338.026C20.1302 340.409 24.968 340.591 29.0238 338.535L104.574 300.045L180.105 338.517C184.161 340.573 188.981 340.391 192.873 338.008C196.746 335.625 199.111 331.405 199.111 326.857L199.111 200.781C199.111 196.143 196.656 191.85 192.636 189.503L111.157 141.845C109.12 140.644 106.847 140.062 104.555 140.062C102.264 140.062 99.9904 140.662 97.9534 141.845L16.4746 189.503C12.4734 191.85 9.99995 196.143 9.99995 200.781L9.99994 326.875C9.99994 331.423 12.3643 335.643 16.2382 338.026L16.2563 338.026Z" fill="#EEEEEE"/>
<path d="M16.2563 338.026C20.1302 340.409 24.968 340.591 29.0238 338.535L104.574 300.045L180.105 338.517C184.161 340.573 188.981 340.391 192.873 338.008C196.746 335.625 199.111 331.405 199.111 326.857L199.111 200.781C199.111 196.143 196.656 191.85 192.636 189.503L111.157 141.845C109.12 140.644 106.847 140.062 104.555 140.062C102.264 140.062 99.9904 140.662 97.9534 141.845L16.4746 189.503C12.4734 191.85 9.99995 196.143 9.99995 200.781L9.99994 326.875C9.99994 331.423 12.3643 335.643 16.2382 338.026L16.2563 338.026ZM19.2391 200.799C19.2391 199.435 19.9665 198.162 21.1487 197.489L102.628 149.83C103.81 149.139 105.337 149.139 106.501 149.83L187.98 197.489C189.162 198.18 189.89 199.453 189.89 200.799L189.89 326.875C189.89 328.203 189.181 329.458 188.053 330.15C187.435 330.532 186.744 330.713 186.034 330.713C185.434 330.713 184.834 330.568 184.288 330.295L104.555 289.676L24.8225 330.295C23.6404 330.895 22.2036 330.841 21.076 330.15C19.9483 329.458 19.239 328.203 19.239 326.875L19.2391 200.799Z" fill="white"/>
</g>
<path d="M121.87 345.247C138.42 335.679 144.094 314.524 134.546 297.953C124.998 281.382 103.828 275.725 87.2593 285.274C70.6907 294.824 65.0345 315.998 74.5828 332.569C84.1311 349.14 105.301 354.815 121.87 345.247Z" fill="url(#paint0_linear_374_8572)"/>
<path d="M74.083 307.111C69.5751 323.937 79.559 341.233 96.3828 345.742C113.207 350.25 130.499 340.265 135.007 323.438C139.515 306.612 129.531 289.316 112.707 284.808C95.8836 280.299 78.5909 290.285 74.083 307.111Z" fill="url(#paint1_linear_374_8572)"/>
<path d="M94.4448 193.744H94.9448L95.5282 194.328V195.869L94.9448 196.453H93.6948C92.4865 196.453 91.4448 196.078 90.7157 195.39C89.5698 196.119 88.2782 196.453 86.924 196.453H81.7782C80.4865 196.453 79.6532 197.078 79.6532 198.744C79.6532 200.494 80.0907 201.786 80.6115 202.473C80.9865 203.098 81.0073 203.536 80.2157 204.015L79.5282 204.411C78.7365 204.89 78.299 204.661 77.8823 203.953C77.1115 202.744 76.4657 201.182 76.4657 198.932C76.4657 195.744 78.4448 193.723 81.7782 193.744H82.049C81.4865 193.036 81.174 192.14 81.174 191.078C81.174 188.098 83.6532 185.765 87.0073 185.765C90.3615 185.765 92.799 188.098 92.799 191.244V191.994C92.799 193.14 93.4657 193.744 94.4448 193.744ZM86.9448 188.473C85.424 188.473 84.299 189.661 84.299 191.244C84.299 192.453 85.1115 193.744 86.9448 193.744C87.8615 193.744 88.7782 193.473 89.6115 192.994C89.5907 192.828 89.5907 192.64 89.5907 192.453V191.244C89.5907 189.661 88.4865 188.473 86.9448 188.473ZM102.935 193.744H103.956L104.539 194.328V195.869L103.956 196.453H103.143C101.852 196.453 100.831 196.036 100.143 195.244C99.4142 196.036 98.3517 196.453 97.0601 196.453H94.9351L94.3517 195.869V194.328L94.9351 193.744H96.3101C97.3517 193.744 97.9559 193.098 97.9559 191.932V186.578C97.9559 186.057 98.2684 185.744 98.7892 185.744H100.31C100.852 185.744 101.143 186.057 101.143 186.578V191.828C101.143 193.14 101.643 193.744 102.935 193.744ZM96.6226 198.473C97.5184 198.473 97.9976 198.953 97.9976 199.869C97.9976 200.765 97.5184 201.265 96.6226 201.265C95.7059 201.265 95.2059 200.765 95.2059 199.869C95.2059 198.953 95.7059 198.473 96.6226 198.473ZM100.289 198.473C101.185 198.473 101.685 198.953 101.685 199.869C101.685 200.765 101.185 201.265 100.289 201.265C99.3934 201.265 98.8934 200.765 98.8934 199.869C98.8934 198.953 99.3934 198.473 100.289 198.473ZM111.944 193.744H112.965L113.548 194.328V195.869L112.965 196.453H112.152C110.861 196.453 109.84 196.036 109.152 195.244C108.423 196.036 107.361 196.453 106.069 196.453H103.944L103.361 195.869V194.328L103.944 193.744H105.319C106.361 193.744 106.965 193.098 106.965 191.932V188.036C106.965 187.515 107.277 187.203 107.798 187.203H109.319C109.861 187.203 110.152 187.515 110.152 188.036V191.828C110.152 193.14 110.652 193.744 111.944 193.744ZM105.444 198.453C106.34 198.453 106.819 198.953 106.819 199.848C106.819 200.765 106.34 201.244 105.444 201.244C104.527 201.244 104.027 200.765 104.027 199.848C104.027 198.953 104.527 198.453 105.444 198.453ZM109.111 198.453C110.006 198.453 110.506 198.953 110.506 199.848C110.506 200.765 110.006 201.244 109.111 201.244C108.215 201.244 107.715 200.765 107.715 199.848C107.715 198.953 108.215 198.453 109.111 198.453ZM118.453 183.765C117.536 183.765 117.036 183.265 117.036 182.369C117.036 181.473 117.536 180.973 118.453 180.973C119.348 180.973 119.828 181.473 119.828 182.369C119.828 183.265 119.348 183.765 118.453 183.765ZM122.14 183.765C121.244 183.765 120.744 183.265 120.744 182.369C120.744 181.473 121.244 180.973 122.14 180.973C123.036 180.973 123.536 181.473 123.536 182.369C123.536 183.265 123.036 183.765 122.14 183.765ZM125.682 193.744H127.64L128.223 194.328V195.869L127.64 196.453H112.953L112.369 195.869V194.328L112.953 193.744H115.453C114.848 193.015 114.515 192.078 114.515 190.994C114.515 187.994 116.953 185.765 120.307 185.765C123.661 185.765 126.078 188.098 126.078 191.244C126.078 191.953 125.973 192.786 125.682 193.744ZM117.661 191.14C117.661 192.411 118.619 193.703 120.307 193.744H122.494C122.828 192.723 122.953 191.89 122.953 191.244C122.953 189.661 121.828 188.473 120.307 188.473C118.765 188.473 117.661 189.578 117.661 191.14ZM130.462 185.203C129.546 185.203 129.046 184.703 129.046 183.807C129.046 182.911 129.546 182.411 130.462 182.411C131.358 182.411 131.837 182.911 131.837 183.807C131.837 184.703 131.358 185.203 130.462 185.203ZM134.15 185.203C133.254 185.203 132.754 184.703 132.754 183.807C132.754 182.911 133.254 182.411 134.15 182.411C135.046 182.411 135.546 182.911 135.546 183.807C135.546 184.703 135.046 185.203 134.15 185.203ZM127.629 196.453L127.046 195.869V194.328L127.629 193.744H129.004C129.983 193.744 130.65 193.098 130.65 191.932V188.036C130.65 187.515 130.962 187.203 131.483 187.203H133.004C133.546 187.203 133.837 187.515 133.837 188.036V192.411C133.837 194.953 132.15 196.453 129.754 196.453H127.629ZM70.8031 236.307C70.3031 236.223 70.1572 235.786 70.1572 235.411V234.119C70.1572 233.682 70.3864 233.661 70.8031 233.703C73.1989 234.036 73.8031 232.703 73.8031 230.473V220.807C73.8031 220.265 74.1156 219.953 74.6572 219.953H76.1364C76.6989 219.953 76.9906 220.265 76.9906 220.807V230.89C76.9906 235.453 73.7822 236.786 70.8031 236.307ZM86.1576 228.328V229.869L85.5742 230.453H84.3867C81.9701 230.453 80.2826 228.953 80.2826 226.411V215.39C80.2826 214.869 80.5951 214.557 81.1159 214.557H82.6367C83.1784 214.557 83.4909 214.869 83.4909 215.39V225.932C83.4909 227.098 84.1367 227.744 85.1159 227.744H85.5742L86.1576 228.328ZM93.5723 227.744H94.5931L95.1764 228.328V229.869L94.5931 230.453H93.7806C92.4889 230.453 91.4681 230.036 90.7806 229.244C90.0514 230.036 88.9889 230.453 87.6973 230.453H85.5723L84.9889 229.869V228.328L85.5723 227.744H86.9473C87.9889 227.744 88.5931 227.098 88.5931 225.932V220.578C88.5931 220.057 88.9056 219.744 89.4264 219.744H90.9473C91.4889 219.744 91.7806 220.057 91.7806 220.578V225.828C91.7806 227.14 92.2806 227.744 93.5723 227.744ZM87.2598 232.473C88.1556 232.473 88.6348 232.953 88.6348 233.869C88.6348 234.765 88.1556 235.265 87.2598 235.265C86.3431 235.265 85.8431 234.765 85.8431 233.869C85.8431 232.953 86.3431 232.473 87.2598 232.473ZM90.9264 232.473C91.8223 232.473 92.3223 232.953 92.3223 233.869C92.3223 234.765 91.8223 235.265 90.9264 235.265C90.0306 235.265 89.5306 234.765 89.5306 233.869C89.5306 232.953 90.0306 232.473 90.9264 232.473ZM97.3727 219.203C96.4561 219.203 95.9561 218.703 95.9561 217.807C95.9561 216.911 96.4561 216.411 97.3727 216.411C98.2686 216.411 98.7477 216.911 98.7477 217.807C98.7477 218.703 98.2686 219.203 97.3727 219.203ZM101.06 219.203C100.164 219.203 99.6644 218.703 99.6644 217.807C99.6644 216.911 100.164 216.411 101.06 216.411C101.956 216.411 102.456 216.911 102.456 217.807C102.456 218.703 101.956 219.203 101.06 219.203ZM102.581 227.744H103.602L104.185 228.328V229.869L103.602 230.453H102.789C101.498 230.453 100.477 230.036 99.7894 229.244C99.0602 230.036 97.9977 230.453 96.7061 230.453H94.5811L93.9977 229.869V228.328L94.5811 227.744H95.9561C96.9977 227.744 97.6019 227.098 97.6019 225.932V222.036C97.6019 221.515 97.9144 221.203 98.4352 221.203H99.9561C100.498 221.203 100.789 221.515 100.789 222.036V225.828C100.789 227.14 101.289 227.744 102.581 227.744ZM109.34 217.661C108.34 217.661 107.819 217.14 107.819 216.161C107.819 215.161 108.34 214.64 109.34 214.64C110.34 214.64 110.861 215.161 110.861 216.161C110.861 217.14 110.34 217.661 109.34 217.661ZM116.423 228.161C116.944 228.265 117.236 228.473 117.236 228.973V229.619C117.236 230.098 116.986 230.473 116.548 230.453H103.59L103.007 229.869V228.328L103.59 227.744H112.277C112.048 227.119 111.965 226.39 111.965 225.536V224.64C111.965 223.057 110.902 222.307 109.34 222.307C108.132 222.265 107.173 222.411 105.694 222.89C105.277 223.015 105.048 222.911 105.048 222.473V221.203C105.048 220.807 105.194 220.453 105.694 220.307C107.048 219.848 108.277 219.765 109.34 219.765C112.215 219.765 114.902 220.932 114.902 224.598V225.536C114.902 226.557 114.986 227.932 116.423 228.161ZM122.208 230.453H120.687C120.146 230.453 119.833 230.14 119.833 229.598V215.39C119.833 214.848 120.146 214.536 120.687 214.536H122.208C122.75 214.536 123.063 214.848 123.063 215.39V229.598C123.063 230.14 122.75 230.453 122.208 230.453ZM138.022 225.223V229.015C138.022 233.307 135.814 236.661 131.127 236.682H131.106C131.085 236.682 131.085 236.682 131.085 236.682C130.043 236.682 129.231 236.598 127.897 236.14C127.397 235.973 127.252 235.619 127.252 235.244V233.786C127.252 233.348 127.481 233.244 127.897 233.369C129.356 233.848 130.085 233.973 131.106 233.973C134.252 233.973 134.814 231.848 134.877 229.473C134.21 230.14 133.21 230.723 131.918 230.723C128.835 230.723 126.46 228.39 126.46 225.244C126.46 222.098 128.877 219.765 132.231 219.765C135.585 219.765 138.002 222.098 138.022 225.223ZM134.877 225.473V225.244C134.877 223.661 133.772 222.473 132.231 222.473C130.71 222.473 129.585 223.661 129.585 225.244C129.585 226.807 130.71 228.015 132.231 228.015C133.606 228.015 134.877 226.869 134.877 225.473ZM80.1938 269.328C76.423 269.328 73.9022 266.786 73.9022 262.953V258.807C73.9022 258.265 74.1938 257.953 74.7355 257.953H76.2563C76.8188 257.953 77.1105 258.265 77.1105 258.807V263.14C77.1105 265.119 78.3605 266.453 80.1938 266.453C82.048 266.453 83.2772 265.119 83.2772 263.14V249.515C83.2772 248.973 83.5688 248.661 84.1105 248.661H85.5897C86.1522 248.661 86.4647 248.973 86.4647 249.515V262.953C86.4647 266.786 83.9438 269.328 80.1938 269.328ZM100.535 261.744H102.201L102.785 262.328V263.869L102.201 264.453H100.451C99.993 268.036 97.7847 270.661 93.6388 270.682H93.618C93.5972 270.682 93.5972 270.682 93.5972 270.682C92.5555 270.682 91.743 270.598 90.4097 270.14C89.9097 269.973 89.7638 269.619 89.7638 269.244V267.786C89.7638 267.348 89.993 267.244 90.4097 267.369C91.868 267.848 92.5972 267.973 93.618 267.973C96.3055 267.973 97.118 266.411 97.3263 264.453H94.743C91.3472 264.453 88.9722 262.328 88.9722 259.182C88.9722 256.078 91.3888 253.765 94.743 253.765C98.0972 253.765 100.514 256.098 100.535 259.223V261.744ZM92.0972 259.182C92.0972 260.744 93.2222 261.744 94.743 261.744H97.3888V259.244C97.3888 257.661 96.2847 256.473 94.743 256.473C93.2222 256.473 92.0972 257.661 92.0972 259.182ZM109.69 261.744H110.19L110.773 262.328V263.869L110.19 264.453H109.898C108.606 264.453 107.585 264.036 106.898 263.244C106.169 264.036 105.106 264.453 103.815 264.453H102.21L101.627 263.869V262.328L102.21 261.744H103.065C104.106 261.744 104.71 261.098 104.71 259.932V249.515C104.71 248.973 105.023 248.682 105.544 248.682H107.065C107.606 248.682 107.898 248.973 107.898 249.515V259.828C107.898 261.14 108.398 261.744 109.69 261.744ZM122.861 261.744H123.611L124.194 262.328V263.869L123.611 264.453H110.194L109.611 263.869V262.328L110.194 261.744H118.944C118.673 261.223 118.569 260.536 118.569 259.536V258.64C118.569 257.057 117.506 256.307 115.944 256.307C114.756 256.307 113.777 256.411 112.298 256.89C111.881 257.015 111.652 256.911 111.652 256.473V255.203C111.652 254.807 111.798 254.453 112.298 254.307C113.652 253.848 114.736 253.765 115.944 253.765C118.819 253.765 121.506 254.932 121.506 258.598V259.536C121.506 260.557 121.59 261.744 122.861 261.744ZM123.622 264.453L123.038 263.869V262.328L123.622 261.744H124.226C125.205 261.744 125.851 261.098 125.851 259.932V249.369C125.851 248.848 126.163 248.536 126.705 248.536H128.226C128.747 248.536 129.059 248.848 129.059 249.369V260.411C129.059 262.953 127.351 264.453 124.955 264.453H123.622ZM134.696 264.453H133.175C132.634 264.453 132.321 264.14 132.321 263.598V249.39C132.321 248.848 132.634 248.536 133.175 248.536H134.696C135.238 248.536 135.55 248.848 135.55 249.39V263.598C135.55 264.14 135.238 264.453 134.696 264.453Z" fill="#0B3041"/>
<path d="M105.106 316.208C105.106 321.438 102.71 324.25 99.189 324.25C95.6681 324.25 93.2723 321.438 93.2723 316.208C93.2723 310.958 95.6681 308.146 99.189 308.146C102.71 308.146 105.106 310.958 105.106 316.208ZM96.4598 316.208C96.4598 319.875 97.5431 321.604 99.189 321.604C100.835 321.604 101.939 319.875 101.939 316.208C101.939 312.521 100.835 310.75 99.189 310.75C97.5431 310.75 96.4598 312.521 96.4598 316.208ZM110.846 321.417H115.888C116.45 321.417 116.742 321.729 116.742 322.25V323.167C116.742 323.708 116.45 324 115.888 324H107.533C106.992 324 106.679 323.687 106.679 323.146V322.333C106.679 322 106.7 321.646 107.221 321.187C108.138 320.333 109.033 319.562 109.763 318.792C111.846 317.021 113.7 315.292 113.7 313.125C113.7 311.604 112.929 310.562 111.263 310.562C110.2 310.562 109.304 311.125 108.388 311.917C107.95 312.271 107.596 312.208 107.242 311.792L106.721 311.167C106.367 310.729 106.471 310.354 106.908 309.938C108.013 308.875 109.763 308.083 111.679 308.083C114.763 308.083 116.763 310.021 116.763 312.833C116.763 314.667 116.033 316.167 114.929 317.542C113.825 318.917 112.325 320.146 110.846 321.417Z" fill="#9B9B9B"/>
<defs>
<filter id="filter0_d_374_8572" x="0" y="136.062" width="209.111" height="219.893" filterUnits="userSpaceOnUse" color-interpolation-filters="sRGB">
<feFlood flood-opacity="0" result="BackgroundImageFix"/>
<feColorMatrix in="SourceAlpha" type="matrix" values="0 0 0 0 0 0 0 0 0 0 0 0 0 0 0 0 0 0 127 0" result="hardAlpha"/>
<feOffset dy="6"/>
<feGaussianBlur stdDeviation="5"/>
<feColorMatrix type="matrix" values="0 0 0 0 0.666667 0 0 0 0 0.666667 0 0 0 0 0.666667 0 0 0 0.75 0"/>
<feBlend mode="normal" in2="BackgroundImageFix" result="effect1_dropShadow_374_8572"/>
<feBlend mode="normal" in="SourceGraphic" in2="effect1_dropShadow_374_8572" result="shape"/>
</filter>
<linearGradient id="paint0_linear_374_8572" x1="129.035" y1="339.754" x2="80.0674" y2="290.794" gradientUnits="userSpaceOnUse">
<stop offset="0.02" stop-color="white"/>
<stop offset="0.94" stop-color="#C9C9C9"/>
</linearGradient>
<linearGradient id="paint1_linear_374_8572" x1="126.84" y1="337.59" x2="82.2376" y2="292.977" gradientUnits="userSpaceOnUse">
<stop offset="0.06" stop-color="#D9D9D9"/>
<stop offset="0.98" stop-color="white"/>
</linearGradient>
</defs>
</svg>
