<svg width="210" height="354" viewBox="0 0 210 354" fill="none" xmlns="http://www.w3.org/2000/svg">
<path d="M104.555 345.176C114.349 345.176 122.288 337.236 122.288 327.441C122.288 317.646 114.349 309.706 104.555 309.706C94.7619 309.706 86.8228 317.646 86.8228 327.441C86.8228 337.236 94.7619 345.176 104.555 345.176Z" fill="#D4D4D4"/>
<path d="M104.555 353.453C90.3693 353.453 78.8386 341.92 78.8386 327.732C78.8386 313.544 90.3693 302.011 104.555 302.011C118.741 302.011 130.272 313.544 130.272 327.732C130.272 341.92 118.741 353.453 104.555 353.453ZM104.555 303.83C91.3696 303.83 80.6573 314.544 80.6573 327.732C80.6573 340.92 91.3696 351.634 104.555 351.634C117.741 351.634 128.453 340.92 128.453 327.732C128.453 314.544 117.741 303.83 104.555 303.83Z" fill="#BFBFBF"/>
<path d="M104.555 303.83C104.046 303.83 103.646 303.43 103.646 302.92V207.731C103.646 207.222 104.046 206.822 104.555 206.822C105.065 206.822 105.465 207.222 105.465 207.731V302.92C105.465 303.43 105.065 303.83 104.555 303.83Z" fill="#BFBFBF"/>
<g filter="url(#filter0_d_374_8525)">
<path d="M192.855 15.8793C188.981 13.4964 184.143 13.3145 180.087 15.37L104.537 53.8604L29.0057 15.3882C24.9499 13.3327 20.1303 13.5146 16.2382 15.8975C12.3643 18.2805 10 22.5006 10 27.0481V153.124C10 157.763 12.4553 162.056 16.4747 164.402L97.9535 212.06C99.9905 213.261 102.264 213.843 104.555 213.843C106.847 213.843 109.12 213.243 111.157 212.06L192.636 164.402C196.637 162.056 199.111 157.763 199.111 153.124V27.0299C199.111 22.4824 196.747 18.2623 192.873 15.8793H192.855Z" fill="#EEEEEE"/>
<path d="M192.855 15.8793C188.981 13.4964 184.143 13.3145 180.087 15.37L104.537 53.8604L29.0057 15.3882C24.9499 13.3327 20.1303 13.5146 16.2382 15.8975C12.3643 18.2805 10 22.5006 10 27.0481V153.124C10 157.763 12.4553 162.056 16.4747 164.402L97.9535 212.06C99.9905 213.261 102.264 213.843 104.555 213.843C106.847 213.843 109.12 213.243 111.157 212.06L192.636 164.402C196.637 162.056 199.111 157.763 199.111 153.124V27.0299C199.111 22.4824 196.747 18.2623 192.873 15.8793H192.855ZM189.872 153.106C189.872 154.47 189.144 155.744 187.962 156.417L106.483 204.075C105.301 204.766 103.773 204.766 102.609 204.075L21.1306 156.417C19.9484 155.725 19.2209 154.452 19.2209 153.106V27.0299C19.2209 25.702 19.9302 24.4469 21.0578 23.7557C21.6762 23.3737 22.3673 23.1918 23.0766 23.1918C23.6768 23.1918 24.277 23.3373 24.8226 23.6102L104.555 64.2288L184.288 23.6102C185.47 23.0099 186.907 23.0645 188.035 23.7557C189.162 24.4469 189.872 25.702 189.872 27.0299V153.106Z" fill="white"/>
</g>
<path d="M87.2413 8.65788C70.6909 18.2259 65.0165 39.3811 74.5648 55.9523C84.1131 72.5236 105.283 78.1807 121.852 68.6309C138.42 59.0811 144.076 37.9077 134.528 21.3364C124.98 4.76518 103.81 -0.910158 87.2413 8.65788Z" fill="url(#paint0_linear_374_8525)"/>
<path d="M135.028 46.7943C139.536 29.9678 129.552 12.6723 112.728 8.16367C95.9043 3.65503 78.6116 13.6406 74.1037 30.4671C69.5958 47.2935 79.5797 64.5891 96.4035 69.0977C113.227 73.6063 130.52 63.6208 135.028 46.7943Z" fill="url(#paint1_linear_374_8525)"/>
<path d="M76.7222 115.208C75.7222 115.208 75.2013 114.687 75.2013 113.708C75.2013 112.708 75.7222 112.188 76.7222 112.188C77.7222 112.188 78.243 112.708 78.243 113.708C78.243 114.687 77.7222 115.208 76.7222 115.208ZM84.2638 125.292H84.5555L85.1388 125.875V127.417L84.5555 128H84.4097C82.868 128 81.7222 127.396 81.0972 126.229C80.0972 127.313 78.5972 128 76.6805 128H72.2013C71.6805 128 71.368 127.687 71.368 127.146V126.125C71.368 125.583 71.6805 125.292 72.2013 125.292H76.6805C78.368 125.271 79.3263 123.958 79.3263 122.687C79.3263 121.125 78.2222 120.063 76.743 120.021C75.6597 119.979 74.618 120.146 73.1388 120.625C72.7222 120.75 72.493 120.646 72.493 120.208V118.75C72.493 118.354 72.6388 118 73.1388 117.854C74.493 117.396 75.618 117.312 76.743 117.312C80.0347 117.312 82.4722 119.542 82.4722 122.542V123.375C82.4722 124.687 82.9722 125.292 84.2638 125.292ZM92.5483 125.292H93.5692L94.1525 125.875V127.417L93.5692 128H92.7567C91.465 128 90.4442 127.583 89.7567 126.792C89.0275 127.583 87.965 128 86.6733 128H84.5483L83.965 127.417V125.875L84.5483 125.292H85.9233C86.965 125.292 87.5692 124.646 87.5692 123.479V119.583C87.5692 119.062 87.8817 118.75 88.4025 118.75H89.9233C90.465 118.75 90.7567 119.062 90.7567 119.583V123.375C90.7567 124.687 91.2567 125.292 92.5483 125.292ZM86.0483 130C86.9442 130 87.4233 130.5 87.4233 131.396C87.4233 132.312 86.9442 132.792 86.0483 132.792C85.1317 132.792 84.6317 132.312 84.6317 131.396C84.6317 130.5 85.1317 130 86.0483 130ZM89.715 130C90.6108 130 91.1108 130.5 91.1108 131.396C91.1108 132.312 90.6108 132.792 89.715 132.792C88.8192 132.792 88.3192 132.312 88.3192 131.396C88.3192 130.5 88.8192 130 89.715 130ZM100.89 115.208C99.8905 115.208 99.3696 114.687 99.3696 113.708C99.3696 112.708 99.8905 112.188 100.89 112.188C101.89 112.188 102.411 112.708 102.411 113.708C102.411 114.687 101.89 115.208 100.89 115.208ZM106.286 125.292H108.245L108.828 125.875V127.417L108.245 128H93.5571L92.9738 127.417V125.875L93.5571 125.292H96.0571C95.453 124.562 95.1196 123.625 95.1196 122.542C95.1196 119.542 97.5571 117.312 100.911 117.312C104.265 117.312 106.682 119.646 106.682 122.792C106.682 123.5 106.578 124.333 106.286 125.292ZM98.2655 122.687C98.2655 123.958 99.2238 125.25 100.911 125.292H103.099C103.432 124.271 103.557 123.437 103.557 122.792C103.557 121.208 102.432 120.021 100.911 120.021C99.3696 120.021 98.2655 121.125 98.2655 122.687ZM112.421 115.042C111.421 115.042 110.9 114.5 110.9 113.521C110.9 112.542 111.421 112 112.421 112C113.421 112 113.942 112.542 113.942 113.521C113.942 114.5 113.421 115.042 112.421 115.042ZM116.254 125.292H117.275L117.859 125.875V127.417L117.275 128H116.463C115.171 128 114.15 127.583 113.463 126.792C112.734 127.583 111.671 128 110.379 128H108.254L107.671 127.417V125.875L108.254 125.292H109.629C110.671 125.292 111.275 124.646 111.275 123.479V118.125C111.275 117.604 111.588 117.292 112.109 117.292H113.629C114.171 117.292 114.463 117.604 114.463 118.125V123.375C114.463 124.687 114.963 125.292 116.254 125.292ZM119.127 116.75C118.21 116.75 117.71 116.25 117.71 115.354C117.71 114.458 118.21 113.958 119.127 113.958C120.023 113.958 120.502 114.458 120.502 115.354C120.502 116.25 120.023 116.75 119.127 116.75ZM122.815 116.75C121.919 116.75 121.419 116.25 121.419 115.354C121.419 114.458 121.919 113.958 122.815 113.958C123.71 113.958 124.21 114.458 124.21 115.354C124.21 116.25 123.71 116.75 122.815 116.75ZM124.335 125.292H125.356L125.94 125.875V127.417L125.356 128H124.544C123.252 128 122.231 127.583 121.544 126.792C120.815 127.583 119.752 128 118.46 128H116.335L115.752 127.417V125.875L116.335 125.292H117.71C118.752 125.292 119.356 124.646 119.356 123.479V119.583C119.356 119.062 119.669 118.75 120.19 118.75H121.71C122.252 118.75 122.544 119.062 122.544 119.583V123.375C122.544 124.687 123.044 125.292 124.335 125.292ZM125.344 128L124.761 127.417V125.875L125.344 125.292H125.948C126.928 125.292 127.573 124.646 127.573 123.479V112.917C127.573 112.396 127.886 112.083 128.428 112.083H129.948C130.469 112.083 130.782 112.396 130.782 112.917V123.958C130.782 126.5 129.073 128 126.678 128H125.344ZM136.419 128H134.898C134.356 128 134.044 127.687 134.044 127.146V112.937C134.044 112.396 134.356 112.083 134.898 112.083H136.419C136.96 112.083 137.273 112.396 137.273 112.937V127.146C137.273 127.687 136.96 128 136.419 128Z" fill="#0B3041"/>
<path d="M103.552 37.661C103.552 42.8901 101.156 45.7026 97.6353 45.7026C94.1144 45.7026 91.7186 42.8901 91.7186 37.661C91.7186 32.411 94.1144 29.5985 97.6353 29.5985C101.156 29.5985 103.552 32.411 103.552 37.661ZM94.9061 37.661C94.9061 41.3276 95.9894 43.0568 97.6353 43.0568C99.2811 43.0568 100.385 41.3276 100.385 37.661C100.385 33.9735 99.2811 32.2026 97.6353 32.2026C95.9894 32.2026 94.9061 33.9735 94.9061 37.661ZM112.858 37.0776C114.275 37.6818 115.192 39.3068 115.192 41.1401C115.192 43.8276 113.046 45.7026 109.879 45.7026C108.108 45.7026 106.358 44.9526 105.212 43.8901C104.796 43.5151 104.608 43.1818 104.962 42.8068L105.65 42.0568C105.962 41.7026 106.358 41.4735 106.796 41.911C107.525 42.6193 108.712 43.2235 109.775 43.2235C111.025 43.2235 111.921 42.2443 111.921 40.8901C111.921 39.3276 110.9 38.286 109.358 38.286H108.692C108.129 38.286 107.837 37.9735 107.837 37.4318V36.8901C107.837 36.3485 108.129 36.0568 108.692 36.0568H109.567C110.692 36.0568 111.567 35.4318 111.567 34.0568C111.567 32.786 110.733 32.0151 109.546 32.0151C108.587 32.0151 107.796 32.3276 107.108 32.8693C106.692 33.1818 106.296 33.1193 105.962 32.7026L105.462 32.036C105.129 31.6193 105.275 31.2651 105.712 30.9526C106.9 30.0151 108.379 29.536 110.004 29.536C112.796 29.536 114.733 31.1818 114.733 33.7235C114.733 35.5151 114.004 36.4943 112.858 37.0776Z" fill="#9B9B9B"/>
<defs>
<filter id="filter0_d_374_8525" x="0" y="9.9502" width="209.111" height="219.893" filterUnits="userSpaceOnUse" color-interpolation-filters="sRGB">
<feFlood flood-opacity="0" result="BackgroundImageFix"/>
<feColorMatrix in="SourceAlpha" type="matrix" values="0 0 0 0 0 0 0 0 0 0 0 0 0 0 0 0 0 0 127 0" result="hardAlpha"/>
<feOffset dy="6"/>
<feGaussianBlur stdDeviation="5"/>
<feColorMatrix type="matrix" values="0 0 0 0 0.666667 0 0 0 0 0.666667 0 0 0 0 0.666667 0 0 0 0.75 0"/>
<feBlend mode="normal" in2="BackgroundImageFix" result="effect1_dropShadow_374_8525"/>
<feBlend mode="normal" in="SourceGraphic" in2="effect1_dropShadow_374_8525" result="shape"/>
</filter>
<linearGradient id="paint0_linear_374_8525" x1="80.0755" y1="14.1513" x2="129.043" y2="63.1114" gradientUnits="userSpaceOnUse">
<stop offset="0.02" stop-color="white"/>
<stop offset="0.94" stop-color="#C9C9C9"/>
</linearGradient>
<linearGradient id="paint1_linear_374_8525" x1="82.2709" y1="16.3148" x2="126.873" y2="60.9281" gradientUnits="userSpaceOnUse">
<stop offset="0.06" stop-color="#D9D9D9"/>
<stop offset="0.98" stop-color="white"/>
</linearGradient>
</defs>
</svg>
