<svg width="210" height="356" viewBox="0 0 210 356" fill="none" xmlns="http://www.w3.org/2000/svg">
<path d="M104.556 8.72886C94.7621 8.72886 86.823 16.6693 86.823 26.4643C86.823 36.2593 94.7621 44.1997 104.556 44.1997C114.349 44.1997 122.288 36.2593 122.288 26.4643C122.288 16.6693 114.349 8.72886 104.556 8.72886Z" fill="#D4D4D4"/>
<path d="M104.555 0.452432C118.742 0.452434 130.272 11.985 130.272 26.1733C130.272 40.3617 118.742 51.8943 104.555 51.8943C90.3694 51.8943 78.8387 40.3617 78.8387 26.1733C78.8387 11.985 90.3694 0.452431 104.555 0.452432ZM104.555 50.0753C117.741 50.0753 128.453 39.3612 128.453 26.1733C128.453 12.9855 117.741 2.27145 104.555 2.27145C91.3697 2.27145 80.6574 12.9855 80.6574 26.1733C80.6574 39.3612 91.3697 50.0753 104.555 50.0753Z" fill="#BFBFBF"/>
<path d="M104.555 50.0753C105.065 50.0753 105.465 50.4755 105.465 50.9848L105.465 146.174C105.465 146.683 105.065 147.083 104.555 147.083C104.046 147.083 103.646 146.683 103.646 146.174L103.646 50.9848C103.646 50.4755 104.046 50.0753 104.555 50.0753Z" fill="#BFBFBF"/>
<g filter="url(#filter0_d_374_8557)">
<path d="M16.2563 338.026C20.1302 340.409 24.968 340.591 29.0238 338.535L104.574 300.045L180.105 338.517C184.161 340.573 188.981 340.391 192.873 338.008C196.746 335.625 199.111 331.405 199.111 326.857L199.111 200.781C199.111 196.143 196.656 191.85 192.636 189.503L111.157 141.845C109.12 140.644 106.847 140.062 104.555 140.062C102.264 140.062 99.9904 140.662 97.9534 141.845L16.4746 189.503C12.4734 191.85 9.99995 196.143 9.99995 200.781L9.99994 326.875C9.99994 331.423 12.3643 335.643 16.2382 338.026L16.2563 338.026Z" fill="#EEEEEE"/>
<path d="M16.2563 338.026C20.1302 340.409 24.968 340.591 29.0238 338.535L104.574 300.045L180.105 338.517C184.161 340.573 188.981 340.391 192.873 338.008C196.746 335.625 199.111 331.405 199.111 326.857L199.111 200.781C199.111 196.143 196.656 191.85 192.636 189.503L111.157 141.845C109.12 140.644 106.847 140.062 104.555 140.062C102.264 140.062 99.9904 140.662 97.9534 141.845L16.4746 189.503C12.4734 191.85 9.99995 196.143 9.99995 200.781L9.99994 326.875C9.99994 331.423 12.3643 335.643 16.2382 338.026L16.2563 338.026ZM19.2391 200.799C19.2391 199.435 19.9665 198.162 21.1487 197.489L102.628 149.83C103.81 149.139 105.337 149.139 106.501 149.83L187.98 197.489C189.162 198.18 189.89 199.453 189.89 200.799L189.89 326.875C189.89 328.203 189.181 329.458 188.053 330.15C187.435 330.532 186.744 330.713 186.034 330.713C185.434 330.713 184.834 330.568 184.288 330.295L104.555 289.676L24.8225 330.295C23.6404 330.895 22.2036 330.841 21.076 330.15C19.9483 329.458 19.239 328.203 19.239 326.875L19.2391 200.799Z" fill="white"/>
</g>
<path d="M121.87 345.247C138.42 335.679 144.094 314.524 134.546 297.953C124.998 281.382 103.828 275.725 87.2593 285.274C70.6907 294.824 65.0345 315.998 74.5828 332.569C84.1311 349.14 105.301 354.815 121.87 345.247Z" fill="url(#paint0_linear_374_8557)"/>
<path d="M74.083 307.111C69.5751 323.937 79.559 341.233 96.3828 345.742C113.207 350.25 130.499 340.265 135.007 323.438C139.515 306.612 129.531 289.316 112.707 284.808C95.8836 280.299 78.5909 290.285 74.083 307.111Z" fill="url(#paint1_linear_374_8557)"/>
<path d="M89.408 234.292H89.8039L90.3872 234.875V236.417L89.8039 237H89.6789C88.3872 237 87.3872 236.583 86.7205 235.792C85.9914 236.583 84.908 237 83.6164 237H73.0539C70.658 237 68.9705 235.542 68.9705 232.958V228.583C68.9705 228.062 69.2622 227.75 69.783 227.75H71.3247C71.8455 227.75 72.158 228.062 72.158 228.583V232.479C72.158 233.646 72.783 234.292 73.8039 234.292H82.8872C83.8872 234.292 84.5122 233.646 84.5122 232.479V228.583C84.5122 228.062 84.8247 227.75 85.3664 227.75H86.8872C87.408 227.75 87.7205 228.062 87.7205 228.583V232.375C87.7205 233.667 88.1997 234.292 89.408 234.292ZM78.4705 239.021C79.3664 239.021 79.8664 239.5 79.8664 240.396C79.8664 241.292 79.3664 241.792 78.4705 241.792C77.5747 241.792 77.0747 241.292 77.0747 240.396C77.0747 239.5 77.5747 239.021 78.4705 239.021ZM89.7873 237L89.2039 236.417V234.875L89.7873 234.292H91.1623C92.1414 234.292 92.8081 233.646 92.8081 232.479V228.583C92.8081 228.062 93.1206 227.75 93.6414 227.75H95.1623C95.7039 227.75 95.9956 228.062 95.9956 228.583V232.958C95.9956 235.5 94.3081 237 91.9123 237H89.7873ZM91.3289 241.792C90.4123 241.792 89.9123 241.312 89.9123 240.396C89.9123 239.5 90.4123 239 91.3289 239C92.2248 239 92.7039 239.5 92.7039 240.396C92.7039 241.312 92.2248 241.792 91.3289 241.792ZM94.9956 241.792C94.0998 241.792 93.5998 241.312 93.5998 240.396C93.5998 239.5 94.0998 239 94.9956 239C95.8914 239 96.3914 239.5 96.3914 240.396C96.3914 241.312 95.8914 241.792 94.9956 241.792ZM98.1346 242.854C97.6346 242.771 97.4888 242.333 97.4888 241.958V240.667C97.4888 240.229 97.7179 240.208 98.1346 240.25C100.53 240.583 101.135 239.25 101.135 237.021V227.354C101.135 226.813 101.447 226.5 101.989 226.5H103.468C104.03 226.5 104.322 226.813 104.322 227.354V237.438C104.322 242 101.114 243.333 98.1346 242.854ZM119.26 234.292H119.552L120.135 234.875V236.417L119.552 237H119.406C117.864 237 116.718 236.396 116.093 235.229C115.093 236.313 113.593 237 111.677 237H107.197C106.677 237 106.364 236.687 106.364 236.146V235.125C106.364 234.583 106.677 234.292 107.197 234.292H111.677C113.364 234.271 114.322 232.958 114.322 231.687C114.322 230.125 113.218 229.063 111.739 229.021C110.656 228.979 109.614 229.146 108.135 229.625C107.718 229.75 107.489 229.646 107.489 229.208V227.75C107.489 227.354 107.635 227 108.135 226.854C109.489 226.396 110.614 226.312 111.739 226.312C115.031 226.312 117.468 228.542 117.468 231.542V232.375C117.468 233.687 117.968 234.292 119.26 234.292ZM122.336 225.75C121.419 225.75 120.919 225.25 120.919 224.354C120.919 223.458 121.419 222.958 122.336 222.958C123.232 222.958 123.711 223.458 123.711 224.354C123.711 225.25 123.232 225.75 122.336 225.75ZM126.024 225.75C125.128 225.75 124.628 225.25 124.628 224.354C124.628 223.458 125.128 222.958 126.024 222.958C126.919 222.958 127.419 223.458 127.419 224.354C127.419 225.25 126.919 225.75 126.024 225.75ZM127.544 234.292H128.565L129.149 234.875V236.417L128.565 237H127.753C126.461 237 125.44 236.583 124.753 235.792C124.024 236.583 122.961 237 121.669 237H119.544L118.961 236.417V234.875L119.544 234.292H120.919C121.961 234.292 122.565 233.646 122.565 232.479V228.583C122.565 228.062 122.878 227.75 123.399 227.75H124.919C125.461 227.75 125.753 228.062 125.753 228.583V232.375C125.753 233.687 126.253 234.292 127.544 234.292ZM128.553 237L127.97 236.417V234.875L128.553 234.292H129.157C130.137 234.292 130.782 233.646 130.782 232.479V221.917C130.782 221.396 131.095 221.083 131.637 221.083H133.157C133.678 221.083 133.991 221.396 133.991 221.917V232.958C133.991 235.5 132.282 237 129.887 237H128.553ZM139.628 237H138.107C137.565 237 137.253 236.687 137.253 236.146V221.937C137.253 221.396 137.565 221.083 138.107 221.083H139.628C140.169 221.083 140.482 221.396 140.482 221.937V236.146C140.482 236.687 140.169 237 139.628 237Z" fill="#0B3041"/>
<path d="M104.873 316.208C104.873 321.438 102.477 324.25 98.9565 324.25C95.4357 324.25 93.0399 321.438 93.0399 316.208C93.0399 310.958 95.4357 308.146 98.9565 308.146C102.477 308.146 104.873 310.958 104.873 316.208ZM96.2274 316.208C96.2274 319.875 97.3107 321.604 98.9565 321.604C100.602 321.604 101.707 319.875 101.707 316.208C101.707 312.521 100.602 310.75 98.9565 310.75C97.3107 310.75 96.2274 312.521 96.2274 316.208ZM116.374 319.042H117.333C117.895 319.042 118.187 319.354 118.187 319.896V320.396C118.187 320.937 117.874 321.25 117.333 321.25H116.374V323.187C116.374 323.708 116.062 324 115.52 324H114.166C113.624 324 113.291 323.687 113.291 323.167V321.25H106.895C106.353 321.25 106.041 320.937 106.041 320.396V319.667C106.041 319.125 106.187 318.896 106.437 318.521L112.958 308.937C113.312 308.417 113.583 308.083 114.583 308.083H115.374C115.978 308.083 116.374 308.5 116.374 309.083V319.042ZM109.062 319.042H113.291V312.708L109.062 319.042Z" fill="#9B9B9B"/>
<defs>
<filter id="filter0_d_374_8557" x="0" y="136.062" width="209.111" height="219.893" filterUnits="userSpaceOnUse" color-interpolation-filters="sRGB">
<feFlood flood-opacity="0" result="BackgroundImageFix"/>
<feColorMatrix in="SourceAlpha" type="matrix" values="0 0 0 0 0 0 0 0 0 0 0 0 0 0 0 0 0 0 127 0" result="hardAlpha"/>
<feOffset dy="6"/>
<feGaussianBlur stdDeviation="5"/>
<feColorMatrix type="matrix" values="0 0 0 0 0.666667 0 0 0 0 0.666667 0 0 0 0 0.666667 0 0 0 0.75 0"/>
<feBlend mode="normal" in2="BackgroundImageFix" result="effect1_dropShadow_374_8557"/>
<feBlend mode="normal" in="SourceGraphic" in2="effect1_dropShadow_374_8557" result="shape"/>
</filter>
<linearGradient id="paint0_linear_374_8557" x1="129.035" y1="339.754" x2="80.0674" y2="290.794" gradientUnits="userSpaceOnUse">
<stop offset="0.02" stop-color="white"/>
<stop offset="0.94" stop-color="#C9C9C9"/>
</linearGradient>
<linearGradient id="paint1_linear_374_8557" x1="126.84" y1="337.59" x2="82.2376" y2="292.977" gradientUnits="userSpaceOnUse">
<stop offset="0.06" stop-color="#D9D9D9"/>
<stop offset="0.98" stop-color="white"/>
</linearGradient>
</defs>
</svg>
