<svg width="210" height="354" viewBox="0 0 210 354" fill="none" xmlns="http://www.w3.org/2000/svg">
<path d="M104.555 345.176C114.349 345.176 122.288 337.236 122.288 327.441C122.288 317.646 114.349 309.706 104.555 309.706C94.7619 309.706 86.8228 317.646 86.8228 327.441C86.8228 337.236 94.7619 345.176 104.555 345.176Z" fill="#D4D4D4"/>
<path d="M104.555 353.453C90.3693 353.453 78.8386 341.92 78.8386 327.732C78.8386 313.544 90.3693 302.011 104.555 302.011C118.741 302.011 130.272 313.544 130.272 327.732C130.272 341.92 118.741 353.453 104.555 353.453ZM104.555 303.83C91.3696 303.83 80.6573 314.544 80.6573 327.732C80.6573 340.92 91.3696 351.634 104.555 351.634C117.741 351.634 128.453 340.92 128.453 327.732C128.453 314.544 117.741 303.83 104.555 303.83Z" fill="#BFBFBF"/>
<path d="M104.555 303.83C104.046 303.83 103.646 303.43 103.646 302.92V207.731C103.646 207.222 104.046 206.822 104.555 206.822C105.065 206.822 105.465 207.222 105.465 207.731V302.92C105.465 303.43 105.065 303.83 104.555 303.83Z" fill="#BFBFBF"/>
<g filter="url(#filter0_d_374_8510)">
<path d="M192.855 15.8793C188.981 13.4964 184.143 13.3145 180.087 15.37L104.537 53.8604L29.0057 15.3882C24.9499 13.3327 20.1303 13.5146 16.2382 15.8975C12.3643 18.2805 10 22.5006 10 27.0481V153.124C10 157.763 12.4553 162.056 16.4747 164.402L97.9535 212.06C99.9905 213.261 102.264 213.843 104.555 213.843C106.847 213.843 109.12 213.243 111.157 212.06L192.636 164.402C196.637 162.056 199.111 157.763 199.111 153.124V27.0299C199.111 22.4824 196.747 18.2623 192.873 15.8793H192.855Z" fill="#EEEEEE"/>
<path d="M192.855 15.8793C188.981 13.4964 184.143 13.3145 180.087 15.37L104.537 53.8604L29.0057 15.3882C24.9499 13.3327 20.1303 13.5146 16.2382 15.8975C12.3643 18.2805 10 22.5006 10 27.0481V153.124C10 157.763 12.4553 162.056 16.4747 164.402L97.9535 212.06C99.9905 213.261 102.264 213.843 104.555 213.843C106.847 213.843 109.12 213.243 111.157 212.06L192.636 164.402C196.637 162.056 199.111 157.763 199.111 153.124V27.0299C199.111 22.4824 196.747 18.2623 192.873 15.8793H192.855ZM189.872 153.106C189.872 154.47 189.144 155.744 187.962 156.417L106.483 204.075C105.301 204.766 103.773 204.766 102.609 204.075L21.1306 156.417C19.9484 155.725 19.2209 154.452 19.2209 153.106V27.0299C19.2209 25.702 19.9302 24.4469 21.0578 23.7557C21.6762 23.3737 22.3673 23.1918 23.0766 23.1918C23.6768 23.1918 24.277 23.3373 24.8226 23.6102L104.555 64.2288L184.288 23.6102C185.47 23.0099 186.907 23.0645 188.035 23.7557C189.162 24.4469 189.872 25.702 189.872 27.0299V153.106Z" fill="white"/>
</g>
<path d="M87.2413 8.65788C70.6909 18.2259 65.0165 39.3811 74.5648 55.9523C84.1131 72.5236 105.283 78.1807 121.852 68.6309C138.42 59.0811 144.076 37.9077 134.528 21.3364C124.98 4.76518 103.81 -0.910158 87.2413 8.65788Z" fill="url(#paint0_linear_374_8510)"/>
<path d="M135.028 46.7943C139.536 29.9678 129.552 12.6723 112.728 8.16367C95.9043 3.65503 78.6116 13.6406 74.1037 30.4671C69.5958 47.2935 79.5797 64.5891 96.4035 69.0977C113.227 73.6063 130.52 63.6208 135.028 46.7943Z" fill="url(#paint1_linear_374_8510)"/>
<path d="M77.5532 94.7292C76.6366 94.7292 76.1366 94.2292 76.1366 93.3333C76.1366 92.4375 76.6366 91.9375 77.5532 91.9375C78.4491 91.9375 78.9282 92.4375 78.9282 93.3333C78.9282 94.2292 78.4491 94.7292 77.5532 94.7292ZM81.2407 94.7292C80.3449 94.7292 79.8449 94.2292 79.8449 93.3333C79.8449 92.4375 80.3449 91.9375 81.2407 91.9375C82.1366 91.9375 82.6366 92.4375 82.6366 93.3333C82.6366 94.2292 82.1366 94.7292 81.2407 94.7292ZM84.5949 106H74.0324C71.6366 106 69.9491 104.542 69.9491 101.958V97.5833C69.9491 97.0625 70.2407 96.75 70.7616 96.75H72.3032C72.8241 96.75 73.1366 97.0625 73.1366 97.5833V101.479C73.1366 102.646 73.7616 103.292 74.7824 103.292H83.8657C84.8657 103.292 85.4907 102.646 85.4907 101.479V97.5833C85.4907 97.0625 85.8032 96.75 86.3449 96.75H87.8657C88.3866 96.75 88.6991 97.0625 88.6991 97.5833V101.958C88.6991 104.542 87.0116 106 84.5949 106ZM97.8416 103.875V105.417L97.2583 106H96.0708C93.6541 106 91.9666 104.5 91.9666 101.958V90.9375C91.9666 90.4167 92.2791 90.1042 92.8 90.1042H94.3208C94.8625 90.1042 95.175 90.4167 95.175 90.9375V101.479C95.175 102.646 95.8208 103.292 96.8 103.292H97.2583L97.8416 103.875ZM105.173 95.3125C108.527 95.3125 111.006 97.6458 111.006 100.792C111.006 106.271 105.652 107.771 101.611 104.75C100.881 105.562 99.7772 106 98.4855 106H97.2563L96.673 105.417V103.875L97.2563 103.292H97.7355C98.7147 103.292 99.3813 102.646 99.3813 101.479V100.792C99.3813 97.6458 101.819 95.3125 105.173 95.3125ZM102.569 102.417C105.34 104.396 107.881 103.708 107.881 100.792C107.881 99.2083 106.756 98.0208 105.236 98.0208C103.694 98.0208 102.59 99.2083 102.59 100.792V101.958C102.59 102.125 102.59 102.271 102.569 102.417ZM125.707 103.292H125.999L126.582 103.875V105.417L125.999 106H125.853C124.311 106 123.166 105.396 122.541 104.229C121.541 105.313 120.041 106 118.124 106H113.645C113.124 106 112.811 105.687 112.811 105.146V104.125C112.811 103.583 113.124 103.292 113.645 103.292H118.124C119.811 103.271 120.77 101.958 120.77 100.687C120.77 99.125 119.666 98.0625 118.186 98.0208C117.103 97.9792 116.061 98.1458 114.582 98.625C114.166 98.75 113.936 98.6458 113.936 98.2083V96.75C113.936 96.3542 114.082 96 114.582 95.8542C115.936 95.3958 117.061 95.3125 118.186 95.3125C121.478 95.3125 123.916 97.5417 123.916 100.542V101.375C123.916 102.687 124.416 103.292 125.707 103.292ZM131.742 93.2083C130.742 93.2083 130.221 92.6875 130.221 91.7083C130.221 90.7083 130.742 90.1875 131.742 90.1875C132.742 90.1875 133.263 90.7083 133.263 91.7083C133.263 92.6875 132.742 93.2083 131.742 93.2083ZM138.825 103.708C139.346 103.813 139.638 104.021 139.638 104.521V105.167C139.638 105.646 139.388 106.021 138.95 106H125.992L125.408 105.417V103.875L125.992 103.292H134.679C134.45 102.667 134.367 101.937 134.367 101.083V100.187C134.367 98.6042 133.304 97.8542 131.742 97.8542C130.533 97.8125 129.575 97.9583 128.096 98.4375C127.679 98.5625 127.45 98.4583 127.45 98.0208V96.75C127.45 96.3542 127.596 96 128.096 95.8542C129.45 95.3958 130.679 95.3125 131.742 95.3125C134.617 95.3125 137.304 96.4792 137.304 100.146V101.083C137.304 102.104 137.388 103.479 138.825 103.708ZM54.7383 128.729C53.8216 128.729 53.3216 128.229 53.3216 127.333C53.3216 126.437 53.8216 125.938 54.7383 125.938C55.6341 125.938 56.1133 126.437 56.1133 127.333C56.1133 128.229 55.6341 128.729 54.7383 128.729ZM58.4258 128.729C57.5299 128.729 57.0299 128.229 57.0299 127.333C57.0299 126.437 57.5299 125.938 58.4258 125.938C59.3216 125.938 59.8216 126.437 59.8216 127.333C59.8216 128.229 59.3216 128.729 58.4258 128.729ZM61.7799 140H51.2174C48.8216 140 47.1341 138.542 47.1341 135.958V131.583C47.1341 131.062 47.4258 130.75 47.9466 130.75H49.4883C50.0091 130.75 50.3216 131.062 50.3216 131.583V135.479C50.3216 136.646 50.9466 137.292 51.9674 137.292H61.0508C62.0508 137.292 62.6758 136.646 62.6758 135.479V131.583C62.6758 131.062 62.9883 130.75 63.5299 130.75H65.0508C65.5716 130.75 65.8841 131.062 65.8841 131.583V135.958C65.8841 138.542 64.1966 140 61.7799 140ZM71.5267 140H70.0059C69.4642 140 69.1517 139.687 69.1517 139.146V124.937C69.1517 124.396 69.4642 124.083 70.0059 124.083H71.5267C72.0684 124.083 72.3809 124.396 72.3809 124.937V139.146C72.3809 139.687 72.0684 140 71.5267 140ZM74.1742 145.854C73.6742 145.771 73.5283 145.333 73.5283 144.958V143.667C73.5283 143.229 73.7575 143.208 74.1742 143.25C76.57 143.583 77.1742 142.25 77.1742 140.021V130.354C77.1742 129.813 77.4867 129.5 78.0283 129.5H79.5075C80.07 129.5 80.3617 129.813 80.3617 130.354V140.438C80.3617 145 77.1533 146.333 74.1742 145.854ZM89.5286 137.875V139.417L88.9453 140H87.7578C85.3411 140 83.6536 138.5 83.6536 135.958V124.937C83.6536 124.417 83.9661 124.104 84.487 124.104H86.0078C86.5495 124.104 86.862 124.417 86.862 124.937V135.479C86.862 136.646 87.5078 137.292 88.487 137.292H88.9453L89.5286 137.875ZM99.4434 125.833C98.61 125.833 98.1517 125.396 98.1517 124.562C98.1517 123.729 98.61 123.292 99.4434 123.292C100.277 123.292 100.735 123.729 100.735 124.562C100.735 125.396 100.277 125.833 99.4434 125.833ZM97.61 129.208C96.7142 129.208 96.2142 128.729 96.2142 127.833C96.2142 126.937 96.7142 126.437 97.61 126.437C98.5059 126.437 98.985 126.937 98.985 127.833C98.985 128.729 98.5059 129.208 97.61 129.208ZM99.9017 127.833C99.9017 126.937 100.402 126.437 101.298 126.437C102.193 126.437 102.673 126.937 102.673 127.833C102.673 128.729 102.193 129.208 101.298 129.208C100.402 129.208 99.9017 128.729 99.9017 127.833ZM110.048 137.292H110.339L110.923 137.875V139.417L110.339 140H110.214C108.756 140 107.652 139.479 107.006 138.438C106.173 139.437 104.923 140 103.277 140C101.818 140 100.693 139.479 99.9642 138.542C99.1725 139.521 97.9225 140 96.4225 140C95.1517 140 94.0892 139.625 93.4017 138.813C92.6725 139.583 91.61 140 90.3392 140H88.9434L88.36 139.417V137.875L88.9434 137.292H89.5892C90.6309 137.292 91.235 136.646 91.235 135.479V132.208C91.235 131.667 91.5475 131.375 92.0684 131.375H93.5892C94.1309 131.375 94.4225 131.667 94.4225 132.208V135.437C94.4225 136.75 95.0892 137.458 96.11 137.458C97.1934 137.458 97.7975 136.75 97.7975 135.583V132.208C97.7975 131.667 98.11 131.375 98.6309 131.375H100.152C100.693 131.375 100.985 131.667 100.985 132.208V135.104C100.985 136.417 101.61 137.458 103.006 137.458C104.443 137.458 105.068 136.417 105.068 134.333V130.333C105.068 129.813 105.381 129.5 105.923 129.5H107.443C107.964 129.5 108.277 129.813 108.277 130.333L108.256 134.229V134.5V135.375C108.256 136.687 108.756 137.292 110.048 137.292ZM113.122 128.75C112.205 128.75 111.705 128.25 111.705 127.354C111.705 126.458 112.205 125.958 113.122 125.958C114.018 125.958 114.497 126.458 114.497 127.354C114.497 128.25 114.018 128.75 113.122 128.75ZM116.809 128.75C115.913 128.75 115.413 128.25 115.413 127.354C115.413 126.458 115.913 125.958 116.809 125.958C117.705 125.958 118.205 126.458 118.205 127.354C118.205 128.25 117.705 128.75 116.809 128.75ZM118.33 137.292H119.351L119.934 137.875V139.417L119.351 140H118.538C117.247 140 116.226 139.583 115.538 138.792C114.809 139.583 113.747 140 112.455 140H110.33L109.747 139.417V137.875L110.33 137.292H111.705C112.747 137.292 113.351 136.646 113.351 135.479V131.583C113.351 131.062 113.663 130.75 114.184 130.75H115.705C116.247 130.75 116.538 131.062 116.538 131.583V135.375C116.538 136.687 117.038 137.292 118.33 137.292ZM136.318 129.5H137.839C138.36 129.5 138.672 129.813 138.672 130.333L138.651 134.229C138.631 137.792 136.964 140 133.672 140C132.214 140 131.089 139.479 130.36 138.542C129.568 139.521 128.318 140 126.818 140C125.547 140 124.485 139.625 123.797 138.813C123.068 139.583 122.006 140 120.735 140H119.339L118.756 139.417V137.875L119.339 137.292H119.985C121.026 137.292 121.631 136.646 121.631 135.479V132.208C121.631 131.687 121.943 131.375 122.464 131.375H123.985C124.526 131.375 124.818 131.687 124.818 132.208V135.437C124.818 136.75 125.485 137.458 126.506 137.458C127.589 137.458 128.193 136.75 128.193 135.583V132.208C128.193 131.687 128.506 131.375 129.026 131.375H130.547C131.089 131.375 131.381 131.687 131.381 132.208V135.104C131.381 136.417 132.006 137.458 133.401 137.458C134.839 137.458 135.464 136.417 135.464 134.333V130.333C135.464 129.813 135.776 129.5 136.318 129.5ZM152.038 124.083H153.517C154.079 124.083 154.371 124.396 154.371 124.937V136.354C154.371 140.188 152.059 142.562 147.059 142.562C143.579 142.562 141.329 141.375 140.246 140.333C140.038 140.125 139.913 139.938 140.225 139.542L141.184 138.333C141.35 138.104 141.6 137.979 141.975 138.292C142.684 138.896 144.704 139.854 147.059 139.854C150.163 139.854 151.184 138.521 151.184 136.542V124.937C151.184 124.396 151.496 124.083 152.038 124.083ZM146.642 137.521H145.121C144.579 137.521 144.267 137.208 144.267 136.667V127.313C144.267 126.75 144.579 126.458 145.121 126.458H146.642C147.184 126.458 147.496 126.75 147.496 127.313V136.667C147.496 137.208 147.184 137.521 146.642 137.521ZM160.028 140H158.507C157.965 140 157.653 139.687 157.653 139.146V124.937C157.653 124.396 157.965 124.083 158.507 124.083H160.028C160.569 124.083 160.882 124.396 160.882 124.937V139.146C160.882 139.687 160.569 140 160.028 140Z" fill="#0B3041"/>
<path d="M103.222 37.661C103.222 42.8901 100.826 45.7026 97.3057 45.7026C93.7848 45.7026 91.389 42.8901 91.389 37.661C91.389 32.411 93.7848 29.5985 97.3057 29.5985C100.826 29.5985 103.222 32.411 103.222 37.661ZM94.5765 37.661C94.5765 41.3276 95.6598 43.0568 97.3057 43.0568C98.9515 43.0568 100.056 41.3276 100.056 37.661C100.056 33.9735 98.9515 32.2026 97.3057 32.2026C95.6598 32.2026 94.5765 33.9735 94.5765 37.661ZM110.557 35.3485C113.598 35.3485 115.619 37.3693 115.619 40.411C115.619 43.5985 113.39 45.7235 110.036 45.7235C108.14 45.7235 106.265 45.036 105.119 43.911C104.682 43.5151 104.536 43.1818 104.911 42.786L105.598 42.036C105.973 41.6401 106.265 41.5985 106.702 41.9318C107.536 42.7026 108.786 43.2443 109.807 43.2443C111.369 43.2443 112.411 42.1401 112.411 40.4735C112.411 38.8276 111.411 37.7443 109.89 37.7443C109.036 37.7443 108.307 38.0568 107.807 38.4318C107.265 38.7235 106.952 38.5985 106.619 38.4526L105.911 38.1401C105.286 37.8693 105.348 37.4526 105.432 36.8276L106.369 30.3901C106.432 29.8485 106.661 29.536 107.202 29.536H113.702C114.244 29.536 114.557 29.8485 114.557 30.3901V31.2443C114.557 31.7651 114.244 32.0776 113.702 32.0776H108.557L108.14 35.8901C108.827 35.536 109.64 35.3485 110.557 35.3485Z" fill="#9B9B9B"/>
<defs>
<filter id="filter0_d_374_8510" x="0" y="9.9502" width="209.111" height="219.893" filterUnits="userSpaceOnUse" color-interpolation-filters="sRGB">
<feFlood flood-opacity="0" result="BackgroundImageFix"/>
<feColorMatrix in="SourceAlpha" type="matrix" values="0 0 0 0 0 0 0 0 0 0 0 0 0 0 0 0 0 0 127 0" result="hardAlpha"/>
<feOffset dy="6"/>
<feGaussianBlur stdDeviation="5"/>
<feColorMatrix type="matrix" values="0 0 0 0 0.666667 0 0 0 0 0.666667 0 0 0 0 0.666667 0 0 0 0.75 0"/>
<feBlend mode="normal" in2="BackgroundImageFix" result="effect1_dropShadow_374_8510"/>
<feBlend mode="normal" in="SourceGraphic" in2="effect1_dropShadow_374_8510" result="shape"/>
</filter>
<linearGradient id="paint0_linear_374_8510" x1="80.0755" y1="14.1513" x2="129.043" y2="63.1114" gradientUnits="userSpaceOnUse">
<stop offset="0.02" stop-color="white"/>
<stop offset="0.94" stop-color="#C9C9C9"/>
</linearGradient>
<linearGradient id="paint1_linear_374_8510" x1="82.2709" y1="16.3148" x2="126.873" y2="60.9281" gradientUnits="userSpaceOnUse">
<stop offset="0.06" stop-color="#D9D9D9"/>
<stop offset="0.98" stop-color="white"/>
</linearGradient>
</defs>
</svg>
