<svg width="210" height="356" viewBox="0 0 210 356" fill="none" xmlns="http://www.w3.org/2000/svg">
<path d="M104.556 8.72886C94.7621 8.72886 86.823 16.6693 86.823 26.4643C86.823 36.2593 94.7621 44.1997 104.556 44.1997C114.349 44.1997 122.288 36.2593 122.288 26.4643C122.288 16.6693 114.349 8.72886 104.556 8.72886Z" fill="#D4D4D4"/>
<path d="M104.556 0.452432C118.742 0.452434 130.272 11.985 130.272 26.1733C130.272 40.3617 118.742 51.8943 104.556 51.8943C90.3697 51.8943 78.839 40.3617 78.839 26.1733C78.839 11.985 90.3697 0.452431 104.556 0.452432ZM104.556 50.0753C117.741 50.0753 128.454 39.3612 128.454 26.1733C128.454 12.9855 117.741 2.27145 104.556 2.27145C91.37 2.27145 80.6577 12.9855 80.6577 26.1733C80.6577 39.3612 91.37 50.0753 104.556 50.0753Z" fill="#BFBFBF"/>
<path d="M104.555 50.0753C105.065 50.0753 105.465 50.4755 105.465 50.9848L105.465 146.174C105.465 146.683 105.065 147.083 104.555 147.083C104.046 147.083 103.646 146.683 103.646 146.174L103.646 50.9848C103.646 50.4755 104.046 50.0753 104.555 50.0753Z" fill="#BFBFBF"/>
<g filter="url(#filter0_d_374_8542)">
<path d="M16.2563 338.026C20.1302 340.409 24.968 340.591 29.0238 338.535L104.574 300.045L180.105 338.517C184.161 340.573 188.981 340.391 192.873 338.008C196.746 335.625 199.111 331.405 199.111 326.857L199.111 200.781C199.111 196.143 196.656 191.85 192.636 189.503L111.157 141.845C109.12 140.644 106.847 140.062 104.555 140.062C102.264 140.062 99.9904 140.662 97.9534 141.845L16.4746 189.503C12.4734 191.85 9.99995 196.143 9.99995 200.781L9.99994 326.875C9.99994 331.423 12.3643 335.643 16.2382 338.026L16.2563 338.026Z" fill="#EEEEEE"/>
<path d="M16.2563 338.026C20.1302 340.409 24.968 340.591 29.0238 338.535L104.574 300.045L180.105 338.517C184.161 340.573 188.981 340.391 192.873 338.008C196.746 335.625 199.111 331.405 199.111 326.857L199.111 200.781C199.111 196.143 196.656 191.85 192.636 189.503L111.157 141.845C109.12 140.644 106.847 140.062 104.555 140.062C102.264 140.062 99.9904 140.662 97.9534 141.845L16.4746 189.503C12.4734 191.85 9.99995 196.143 9.99995 200.781L9.99994 326.875C9.99994 331.423 12.3643 335.643 16.2382 338.026L16.2563 338.026ZM19.2391 200.799C19.2391 199.435 19.9665 198.162 21.1487 197.489L102.628 149.83C103.81 149.139 105.337 149.139 106.501 149.83L187.98 197.489C189.162 198.18 189.89 199.453 189.89 200.799L189.89 326.875C189.89 328.203 189.181 329.458 188.053 330.15C187.435 330.532 186.744 330.713 186.034 330.713C185.434 330.713 184.834 330.568 184.288 330.295L104.555 289.676L24.8225 330.295C23.6404 330.895 22.2036 330.841 21.076 330.15C19.9483 329.458 19.239 328.203 19.239 326.875L19.2391 200.799Z" fill="white"/>
</g>
<path d="M121.87 345.247C138.42 335.679 144.095 314.524 134.546 297.953C124.998 281.382 103.828 275.725 87.2595 285.274C70.6909 294.824 65.0347 315.998 74.583 332.569C84.1313 349.14 105.301 354.815 121.87 345.247Z" fill="url(#paint0_linear_374_8542)"/>
<path d="M74.083 307.111C69.5751 323.937 79.559 341.233 96.3828 345.742C113.207 350.25 130.499 340.265 135.007 323.438C139.515 306.612 129.531 289.316 112.707 284.808C95.8836 280.299 78.5909 290.285 74.083 307.111Z" fill="url(#paint1_linear_374_8542)"/>
<path d="M91.6128 212.292H92.1128L92.6961 212.875V214.417L92.1128 215H90.8628C89.6545 215 88.6128 214.625 87.8836 213.937C86.7378 214.667 85.4461 215 84.092 215H78.9461C77.6545 215 76.8211 215.625 76.8211 217.292C76.8211 219.042 77.2586 220.333 77.7795 221.021C78.1545 221.646 78.1753 222.083 77.3836 222.563L76.6961 222.958C75.9045 223.438 75.467 223.208 75.0503 222.5C74.2795 221.292 73.6336 219.729 73.6336 217.479C73.6336 214.292 75.6128 212.271 78.9461 212.292H79.217C78.6545 211.583 78.342 210.688 78.342 209.625C78.342 206.646 80.8211 204.312 84.1753 204.312C87.5295 204.312 89.967 206.646 89.967 209.792V210.542C89.967 211.687 90.6336 212.292 91.6128 212.292ZM84.1128 207.021C82.592 207.021 81.467 208.208 81.467 209.792C81.467 211 82.2795 212.292 84.1128 212.292C85.0295 212.292 85.9461 212.021 86.7795 211.542C86.7586 211.375 86.7586 211.187 86.7586 211V209.792C86.7586 208.208 85.6545 207.021 84.1128 207.021ZM100.103 212.292H101.124L101.707 212.875V214.417L101.124 215H100.311C99.0197 215 97.9989 214.583 97.3114 213.792C96.5822 214.583 95.5197 215 94.228 215H92.103L91.5197 214.417V212.875L92.103 212.292H93.478C94.5197 212.292 95.1239 211.646 95.1239 210.479V206.583C95.1239 206.062 95.4364 205.75 95.9572 205.75H97.478C98.0197 205.75 98.3114 206.062 98.3114 206.583V210.375C98.3114 211.687 98.8114 212.292 100.103 212.292ZM93.603 217C94.4989 217 94.978 217.5 94.978 218.396C94.978 219.312 94.4989 219.792 93.603 219.792C92.6864 219.792 92.1864 219.312 92.1864 218.396C92.1864 217.5 92.6864 217 93.603 217ZM97.2697 217C98.1655 217 98.6655 217.5 98.6655 218.396C98.6655 219.312 98.1655 219.792 97.2697 219.792C96.3739 219.792 95.8739 219.312 95.8739 218.396C95.8739 217.5 96.3739 217 97.2697 217ZM108.591 212.292H109.091L109.674 212.875V214.417L109.091 215H108.799C107.508 215 106.487 214.583 105.799 213.792C105.07 214.583 104.008 215 102.716 215H101.112L100.528 214.417V212.875L101.112 212.292H101.966C103.008 212.292 103.612 211.646 103.612 210.479V200.062C103.612 199.521 103.924 199.229 104.445 199.229H105.966C106.508 199.229 106.799 199.521 106.799 200.062V210.375C106.799 211.687 107.299 212.292 108.591 212.292ZM130.199 212.292H130.491L131.074 212.875V214.417L130.491 215H130.366C128.908 215 127.804 214.479 127.158 213.438C126.324 214.437 125.074 215 123.429 215C121.97 215 120.845 214.479 120.116 213.542C119.324 214.521 118.074 215 116.574 215C115.304 215 114.241 214.625 113.554 213.813C112.824 214.583 111.762 215 110.491 215H109.095L108.512 214.417V212.875L109.095 212.292H109.741C110.783 212.292 111.387 211.646 111.387 210.479V207.208C111.387 206.667 111.699 206.375 112.22 206.375H113.741C114.283 206.375 114.574 206.667 114.574 207.208V210.437C114.574 211.75 115.241 212.458 116.262 212.458C117.345 212.458 117.949 211.75 117.949 210.583V207.208C117.949 206.667 118.262 206.375 118.783 206.375H120.304C120.845 206.375 121.137 206.667 121.137 207.208V210.104C121.137 211.417 121.762 212.458 123.158 212.458C124.595 212.458 125.22 211.417 125.22 209.333V205.333C125.22 204.813 125.533 204.5 126.074 204.5H127.595C128.116 204.5 128.429 204.813 128.429 205.333L128.408 209.229V209.5V210.375C128.408 211.687 128.908 212.292 130.199 212.292ZM133.294 203.75C132.378 203.75 131.878 203.25 131.878 202.354C131.878 201.458 132.378 200.958 133.294 200.958C134.19 200.958 134.669 201.458 134.669 202.354C134.669 203.25 134.19 203.75 133.294 203.75ZM136.982 203.75C136.086 203.75 135.586 203.25 135.586 202.354C135.586 201.458 136.086 200.958 136.982 200.958C137.878 200.958 138.378 201.458 138.378 202.354C138.378 203.25 137.878 203.75 136.982 203.75ZM130.461 215L129.878 214.417V212.875L130.461 212.292H131.836C132.815 212.292 133.482 211.646 133.482 210.479V206.583C133.482 206.062 133.794 205.75 134.315 205.75H135.836C136.378 205.75 136.669 206.062 136.669 206.583V210.958C136.669 213.5 134.982 215 132.586 215H130.461ZM70.3031 246.292H75.0322C75.5739 246.292 75.8656 246.583 75.8656 247.125V248.146C75.8656 248.687 75.5739 249 75.0322 249H67.0322C65.5114 248.896 64.4906 249.729 64.4906 250.813C64.4906 251.896 65.4697 252.708 67.0322 252.729H70.0114C70.5322 252.729 70.8447 253.021 70.8447 253.542V254.479C70.8447 255 70.5322 255.312 70.0114 255.312H66.7822C63.6156 255.208 61.3656 253.438 61.3656 250.813C61.3656 248.542 63.1156 246.896 65.5531 246.438C64.8864 245.667 64.5114 244.708 64.5114 243.542C64.5114 240.542 66.9489 238.312 70.3031 238.312C71.3656 238.312 72.1781 238.396 73.5322 238.854C74.0322 239 74.1781 239.354 74.1781 239.75V241.208C74.1781 241.646 73.9489 241.75 73.5322 241.625C72.0531 241.146 71.3239 240.979 70.3031 241.021C68.7614 241.063 67.6572 242.125 67.6572 243.687C67.6572 244.958 68.6156 246.271 70.3031 246.292ZM89.585 243.771V247.562C89.585 251.854 87.3766 255.208 82.6891 255.229H82.6683C82.6475 255.229 82.6475 255.229 82.6475 255.229C81.6058 255.229 80.7933 255.146 79.46 254.688C78.96 254.521 78.8141 254.167 78.8141 253.792V252.333C78.8141 251.896 79.0433 251.792 79.46 251.917C80.9183 252.396 81.6475 252.521 82.6683 252.521C85.8141 252.521 86.3766 250.396 86.4391 248.021C85.7725 248.687 84.7725 249.271 83.4808 249.271C80.3975 249.271 78.0225 246.937 78.0225 243.792C78.0225 240.646 80.4391 238.312 83.7933 238.312C87.1475 238.312 89.5641 240.646 89.585 243.771ZM86.4391 244.021V243.792C86.4391 242.208 85.335 241.021 83.7933 241.021C82.2725 241.021 81.1475 242.208 81.1475 243.792C81.1475 245.354 82.2725 246.562 83.7933 246.562C85.1683 246.562 86.4391 245.417 86.4391 244.021ZM98.4844 246.292H98.7969L99.3802 246.875V248.417L98.7969 249H98.651C97.8802 249 97.2344 248.854 96.6927 248.604V249.438C96.6927 254 93.4844 255.333 90.5052 254.854C90.0052 254.771 89.8594 254.333 89.8594 253.958V252.667C89.8594 252.229 90.0885 252.208 90.5052 252.25C92.901 252.583 93.5052 251.25 93.5052 249.021V240.604C93.5052 240.062 93.8177 239.75 94.3594 239.75H95.8385C96.401 239.75 96.6927 240.062 96.6927 240.604V244.375C96.6927 245.687 97.0885 246.292 98.4844 246.292ZM109.305 234.833C108.471 234.833 108.013 234.396 108.013 233.562C108.013 232.729 108.471 232.292 109.305 232.292C110.138 232.292 110.596 232.729 110.596 233.562C110.596 234.396 110.138 234.833 109.305 234.833ZM107.471 238.208C106.576 238.208 106.076 237.729 106.076 236.833C106.076 235.937 106.576 235.437 107.471 235.437C108.367 235.437 108.846 235.937 108.846 236.833C108.846 237.729 108.367 238.208 107.471 238.208ZM109.763 236.833C109.763 235.937 110.263 235.437 111.159 235.437C112.055 235.437 112.534 235.937 112.534 236.833C112.534 237.729 112.055 238.208 111.159 238.208C110.263 238.208 109.763 237.729 109.763 236.833ZM119.909 246.292H120.201L120.784 246.875V248.417L120.201 249H120.076C118.617 249 117.513 248.479 116.867 247.438C116.034 248.437 114.784 249 113.138 249C111.68 249 110.555 248.479 109.826 247.542C109.034 248.521 107.784 249 106.284 249C105.013 249 103.951 248.625 103.263 247.813C102.534 248.583 101.471 249 100.201 249H98.8047L98.2214 248.417V246.875L98.8047 246.292H99.4505C100.492 246.292 101.096 245.646 101.096 244.479V241.208C101.096 240.667 101.409 240.375 101.93 240.375H103.451C103.992 240.375 104.284 240.667 104.284 241.208V244.437C104.284 245.75 104.951 246.458 105.971 246.458C107.055 246.458 107.659 245.75 107.659 244.583V241.208C107.659 240.667 107.971 240.375 108.492 240.375H110.013C110.555 240.375 110.846 240.667 110.846 241.208V244.104C110.846 245.417 111.471 246.458 112.867 246.458C114.305 246.458 114.93 245.417 114.93 243.333V239.333C114.93 238.813 115.242 238.5 115.784 238.5H117.305C117.826 238.5 118.138 238.813 118.138 239.333L118.117 243.229V243.5V244.375C118.117 245.687 118.617 246.292 119.909 246.292ZM135.691 246.292H136.15L136.733 246.875V248.417L136.15 249H135.879C134.462 249 133.379 248.5 132.712 247.542C130.921 249.771 127.379 249.896 124.504 247.75C123.775 248.562 122.671 249 121.358 249H120.191L119.608 248.417V246.875L120.191 246.292H120.629C121.608 246.292 122.254 245.646 122.254 244.479V243.792C122.254 240.646 124.691 238.312 128.046 238.312C131.4 238.312 133.9 240.646 133.9 243.792V244.458C133.9 245.687 134.4 246.292 135.691 246.292ZM125.441 245.396C128.212 247.396 130.754 246.708 130.754 243.792C130.754 242.208 129.629 241.021 128.108 241.021C126.587 241.021 125.462 242.208 125.462 243.792V244.958C125.462 245.104 125.462 245.25 125.441 245.396ZM136.158 249L135.575 248.417V246.875L136.158 246.292H136.762C137.742 246.292 138.387 245.646 138.387 244.479V233.917C138.387 233.396 138.7 233.083 139.242 233.083H140.762C141.283 233.083 141.596 233.396 141.596 233.917V244.958C141.596 247.5 139.887 249 137.492 249H136.158ZM147.233 249H145.712C145.17 249 144.858 248.687 144.858 248.146V233.937C144.858 233.396 145.17 233.083 145.712 233.083H147.233C147.774 233.083 148.087 233.396 148.087 233.937V248.146C148.087 248.687 147.774 249 147.233 249Z" fill="#0B3041"/>
<path d="M104.947 316.208C104.947 321.438 102.551 324.25 99.0303 324.25C95.5094 324.25 93.1136 321.438 93.1136 316.208C93.1136 310.958 95.5094 308.146 99.0303 308.146C102.551 308.146 104.947 310.958 104.947 316.208ZM96.3011 316.208C96.3011 319.875 97.3844 321.604 99.0303 321.604C100.676 321.604 101.78 319.875 101.78 316.208C101.78 312.521 100.676 310.75 99.0303 310.75C97.3844 310.75 96.3011 312.521 96.3011 316.208ZM111.865 324.25C108.76 324.25 106.531 322.375 106.531 318.687C106.531 315.708 108.531 311.646 111.531 308.5C111.906 308.083 112.385 307.854 112.844 308.333L113.51 309.021C113.969 309.5 114.01 310 113.698 310.375C112.594 311.625 111.26 313.396 110.365 314.854L110.427 314.812C111.073 314.292 111.885 314 112.781 314C115.385 314 117.281 315.896 117.281 319C117.281 322.354 114.99 324.25 111.865 324.25ZM111.885 322C113.156 322 114.135 321.042 114.135 319.187C114.135 317.312 113.156 316.354 111.906 316.354C110.635 316.354 109.656 317.312 109.656 319.187C109.656 321.042 110.635 322 111.885 322Z" fill="#9B9B9B"/>
<defs>
<filter id="filter0_d_374_8542" x="0" y="136.062" width="209.111" height="219.893" filterUnits="userSpaceOnUse" color-interpolation-filters="sRGB">
<feFlood flood-opacity="0" result="BackgroundImageFix"/>
<feColorMatrix in="SourceAlpha" type="matrix" values="0 0 0 0 0 0 0 0 0 0 0 0 0 0 0 0 0 0 127 0" result="hardAlpha"/>
<feOffset dy="6"/>
<feGaussianBlur stdDeviation="5"/>
<feColorMatrix type="matrix" values="0 0 0 0 0.666667 0 0 0 0 0.666667 0 0 0 0 0.666667 0 0 0 0.75 0"/>
<feBlend mode="normal" in2="BackgroundImageFix" result="effect1_dropShadow_374_8542"/>
<feBlend mode="normal" in="SourceGraphic" in2="effect1_dropShadow_374_8542" result="shape"/>
</filter>
<linearGradient id="paint0_linear_374_8542" x1="129.036" y1="339.754" x2="80.0676" y2="290.794" gradientUnits="userSpaceOnUse">
<stop offset="0.02" stop-color="white"/>
<stop offset="0.94" stop-color="#C9C9C9"/>
</linearGradient>
<linearGradient id="paint1_linear_374_8542" x1="126.84" y1="337.59" x2="82.2376" y2="292.977" gradientUnits="userSpaceOnUse">
<stop offset="0.06" stop-color="#D9D9D9"/>
<stop offset="0.98" stop-color="white"/>
</linearGradient>
</defs>
</svg>
