<svg width="210" height="354" viewBox="0 0 210 354" fill="none" xmlns="http://www.w3.org/2000/svg">
<path d="M104.555 345.176C114.349 345.176 122.288 337.236 122.288 327.441C122.288 317.646 114.349 309.706 104.555 309.706C94.7619 309.706 86.8228 317.646 86.8228 327.441C86.8228 337.236 94.7619 345.176 104.555 345.176Z" fill="#D4D4D4"/>
<path d="M104.556 353.453C90.3696 353.453 78.8389 341.92 78.8389 327.732C78.8389 313.544 90.3696 302.011 104.556 302.011C118.742 302.011 130.272 313.544 130.272 327.732C130.272 341.92 118.742 353.453 104.556 353.453ZM104.556 303.83C91.3699 303.83 80.6576 314.544 80.6576 327.732C80.6576 340.92 91.3699 351.634 104.556 351.634C117.741 351.634 128.454 340.92 128.454 327.732C128.454 314.544 117.741 303.83 104.556 303.83Z" fill="#BFBFBF"/>
<path d="M104.556 303.83C104.047 303.83 103.646 303.43 103.646 302.92V207.731C103.646 207.222 104.047 206.822 104.556 206.822C105.065 206.822 105.465 207.222 105.465 207.731V302.92C105.465 303.43 105.065 303.83 104.556 303.83Z" fill="#BFBFBF"/>
<g filter="url(#filter0_d_374_8495)">
<path d="M192.855 15.8793C188.981 13.4964 184.143 13.3145 180.087 15.37L104.537 53.8604L29.0057 15.3882C24.9499 13.3327 20.1303 13.5146 16.2382 15.8975C12.3643 18.2805 10 22.5006 10 27.0481V153.124C10 157.763 12.4553 162.056 16.4747 164.402L97.9535 212.06C99.9905 213.261 102.264 213.843 104.555 213.843C106.847 213.843 109.12 213.243 111.157 212.06L192.636 164.402C196.637 162.056 199.111 157.763 199.111 153.124V27.0299C199.111 22.4824 196.747 18.2623 192.873 15.8793H192.855Z" fill="#EEEEEE"/>
<path d="M192.855 15.8793C188.981 13.4964 184.143 13.3145 180.087 15.37L104.537 53.8604L29.0057 15.3882C24.9499 13.3327 20.1303 13.5146 16.2382 15.8975C12.3643 18.2805 10 22.5006 10 27.0481V153.124C10 157.763 12.4553 162.056 16.4747 164.402L97.9535 212.06C99.9905 213.261 102.264 213.843 104.555 213.843C106.847 213.843 109.12 213.243 111.157 212.06L192.636 164.402C196.637 162.056 199.111 157.763 199.111 153.124V27.0299C199.111 22.4824 196.747 18.2623 192.873 15.8793H192.855ZM189.872 153.106C189.872 154.47 189.144 155.744 187.962 156.417L106.483 204.075C105.301 204.766 103.773 204.766 102.609 204.075L21.1306 156.417C19.9484 155.725 19.2209 154.452 19.2209 153.106V27.0299C19.2209 25.702 19.9302 24.4469 21.0578 23.7557C21.6762 23.3737 22.3673 23.1918 23.0766 23.1918C23.6768 23.1918 24.277 23.3373 24.8226 23.6102L104.555 64.2288L184.288 23.6102C185.47 23.0099 186.907 23.0645 188.035 23.7557C189.162 24.4469 189.872 25.702 189.872 27.0299V153.106Z" fill="white"/>
</g>
<path d="M87.241 8.65788C70.6906 18.2259 65.0162 39.3811 74.5645 55.9523C84.1128 72.5236 105.283 78.1807 121.851 68.6309C138.42 59.0811 144.076 37.9077 134.528 21.3364C124.98 4.76518 103.81 -0.910158 87.241 8.65788Z" fill="url(#paint0_linear_374_8495)"/>
<path d="M135.028 46.7943C139.536 29.9678 129.552 12.6723 112.728 8.16367C95.9043 3.65503 78.6116 13.6406 74.1037 30.4671C69.5958 47.2935 79.5797 64.5891 96.4035 69.0977C113.227 73.6063 130.52 63.6208 135.028 46.7943Z" fill="url(#paint1_linear_374_8495)"/>
<path d="M72.7498 92.3958C71.8332 92.3958 71.3332 91.8958 71.3332 91C71.3332 90.1042 71.8332 89.6042 72.7498 89.6042C73.6457 89.6042 74.1248 90.1042 74.1248 91C74.1248 91.8958 73.6457 92.3958 72.7498 92.3958ZM76.4373 92.3958C75.5415 92.3958 75.0415 91.8958 75.0415 91C75.0415 90.1042 75.5415 89.6042 76.4373 89.6042C77.3332 89.6042 77.8332 90.1042 77.8332 91C77.8332 91.8958 77.3332 92.3958 76.4373 92.3958ZM81.8748 103.292H82.5832L83.1665 103.875V105.417L82.5832 106H81.1248C79.479 106 78.2498 105.354 77.5832 104.187C76.9998 104.562 76.3748 104.833 75.6873 105C72.3957 105.792 68.8748 104.146 68.8748 99.875C68.8748 96.7708 71.3123 94.4583 74.604 94.4167H79.3957C79.9165 94.4167 80.229 94.7083 80.229 95.25V101.479C80.229 102.646 80.6248 103.292 81.8748 103.292ZM75.3748 102.375C75.9582 102.229 76.5207 101.958 77.0415 101.583V97.125H74.6457C73.1248 97.125 71.9998 98.3125 71.9998 99.875C71.9998 101.979 73.5832 102.833 75.3748 102.375ZM86.7502 94.9583C85.7502 94.9583 85.2293 94.4375 85.2293 93.4583C85.2293 92.4583 85.7502 91.9375 86.7502 91.9375C87.7502 91.9375 88.271 92.4583 88.271 93.4583C88.271 94.4375 87.7502 94.9583 86.7502 94.9583ZM82.5627 106L81.9793 105.417V103.875L82.5627 103.292H83.4168C84.5002 103.292 85.0627 102.646 85.0627 101.479V97.5833C85.0627 97.0625 85.3752 96.75 85.896 96.75H87.4168C87.9585 96.75 88.2502 97.0625 88.2502 97.5833V101.958C88.2502 104.5 86.6668 106 84.1668 106H82.5627ZM97.4266 103.875V105.417L96.8433 106H95.6558C93.2391 106 91.5516 104.5 91.5516 101.958V90.9375C91.5516 90.4167 91.8641 90.1042 92.3849 90.1042H93.9058C94.4474 90.1042 94.7599 90.4167 94.7599 90.9375V101.479C94.7599 102.646 95.4058 103.292 96.3849 103.292H96.8433L97.4266 103.875ZM104.841 103.292H105.862L106.445 103.875V105.417L105.862 106H105.05C103.758 106 102.737 105.583 102.05 104.792C101.32 105.583 100.258 106 98.9663 106H96.8413L96.258 105.417V103.875L96.8413 103.292H98.2163C99.258 103.292 99.8621 102.646 99.8621 101.479V97.5833C99.8621 97.0625 100.175 96.75 100.695 96.75H102.216C102.758 96.75 103.05 97.0625 103.05 97.5833V101.375C103.05 102.687 103.55 103.292 104.841 103.292ZM98.3413 108C99.2371 108 99.7163 108.5 99.7163 109.396C99.7163 110.312 99.2371 110.792 98.3413 110.792C97.4246 110.792 96.9246 110.312 96.9246 109.396C96.9246 108.5 97.4246 108 98.3413 108ZM102.008 108C102.904 108 103.404 108.5 103.404 109.396C103.404 110.312 102.904 110.792 102.008 110.792C101.112 110.792 100.612 110.312 100.612 109.396C100.612 108.5 101.112 108 102.008 108ZM126.913 103.292H127.204L127.788 103.875V105.417L127.204 106H127.079C125.538 106 124.413 105.417 123.767 104.292C122.746 105.375 121.163 106 119.308 106H105.85L105.267 105.417V103.875L105.85 103.292H107.954V96.3333C107.954 95.8125 108.267 95.5 108.808 95.5H110.329C110.85 95.5 111.163 95.8125 111.163 96.3333V98.7917C113.1 96.8958 115.767 95.2917 119.142 95.2917C122.683 95.2917 125.121 97.5417 125.121 100.75V101.375C125.121 102.687 125.621 103.292 126.913 103.292ZM111.163 103.292H119.288C120.871 103.25 121.975 102.333 121.975 100.75C121.975 99.1667 120.996 98.0417 119.142 98C115.788 98 113.058 100 111.163 101.937V103.292ZM127.212 106L126.629 105.417V103.875L127.212 103.292H127.817C128.796 103.292 129.442 102.646 129.442 101.479V90.9167C129.442 90.3958 129.754 90.0833 130.296 90.0833H131.817C132.337 90.0833 132.65 90.3958 132.65 90.9167V101.958C132.65 104.5 130.942 106 128.546 106H127.212ZM138.287 106H136.766C136.224 106 135.912 105.687 135.912 105.146V90.9375C135.912 90.3958 136.224 90.0833 136.766 90.0833H138.287C138.829 90.0833 139.141 90.3958 139.141 90.9375V105.146C139.141 105.687 138.829 106 138.287 106ZM54.0664 137.292H55.0872L55.6706 137.875V139.417L55.0872 140H54.0456H53.9622C54.3164 142.958 52.3581 146.333 46.5872 146.333C40.2747 146.333 38.1497 143 38.1497 138.687V134.333C38.1497 133.812 38.5247 133.5 39.0039 133.5H40.4414C40.9206 133.5 41.2747 133.875 41.2747 134.333V138.667C41.2747 141.333 42.3789 143.625 46.5872 143.625C50.6081 143.604 51.3789 141.542 50.9206 139.646C49.1706 139.208 47.9622 138.458 47.2539 137.771C47.0456 137.562 46.9206 137.375 47.2122 136.979L48.1706 135.771C48.3581 135.542 48.6081 135.417 48.9622 135.729C49.6706 136.333 51.6914 137.292 54.0664 137.292ZM44.2747 148.333C45.1706 148.333 45.6497 148.833 45.6497 149.729C45.6497 150.646 45.1706 151.125 44.2747 151.125C43.3581 151.125 42.8581 150.646 42.8581 149.729C42.8581 148.833 43.3581 148.333 44.2747 148.333ZM47.9414 148.333C48.8372 148.333 49.3372 148.833 49.3372 149.729C49.3372 150.646 48.8372 151.125 47.9414 151.125C47.0456 151.125 46.5456 150.646 46.5456 149.729C46.5456 148.833 47.0456 148.333 47.9414 148.333ZM59.2477 128.812C58.2477 128.812 57.7269 128.271 57.7269 127.292C57.7269 126.312 58.2477 125.771 59.2477 125.771C60.2477 125.771 60.7686 126.312 60.7686 127.292C60.7686 128.271 60.2477 128.812 59.2477 128.812ZM62.5602 137.292H63.0602L63.6436 137.875V139.417L63.0602 140H62.7686C61.4769 140 60.4561 139.583 59.7686 138.792C59.0394 139.583 57.9769 140 56.6852 140H55.0811L54.4977 139.417V137.875L55.0811 137.292H55.9352C56.9769 137.292 57.5811 136.646 57.5811 135.479V131.583C57.5811 131.062 57.8936 130.75 58.4144 130.75H59.9352C60.4769 130.75 60.7686 131.062 60.7686 131.583V135.375C60.7686 136.687 61.2686 137.292 62.5602 137.292ZM70.3978 127.208C69.3978 127.208 68.877 126.687 68.877 125.708C68.877 124.708 69.3978 124.188 70.3978 124.188C71.3978 124.188 71.9186 124.708 71.9186 125.708C71.9186 126.687 71.3978 127.208 70.3978 127.208ZM75.7936 137.292H77.752L78.3353 137.875V139.417L77.752 140H63.0645L62.4811 139.417V137.875L63.0645 137.292H65.5645C64.9603 136.562 64.627 135.625 64.627 134.542C64.627 131.542 67.0645 129.312 70.4186 129.312C73.7728 129.312 76.1895 131.646 76.1895 134.792C76.1895 135.5 76.0853 136.333 75.7936 137.292ZM67.7728 134.687C67.7728 135.958 68.7311 137.25 70.4186 137.292H72.6061C72.9395 136.271 73.0645 135.437 73.0645 134.792C73.0645 133.208 71.9395 132.021 70.4186 132.021C68.877 132.021 67.7728 133.125 67.7728 134.687ZM77.7617 140L77.1784 139.417V137.875L77.7617 137.292H78.3659C79.3451 137.292 79.9909 136.646 79.9909 135.479V124.917C79.9909 124.396 80.3034 124.083 80.8451 124.083H82.3659C82.8867 124.083 83.1992 124.396 83.1992 124.917V135.958C83.1992 138.5 81.4909 140 79.0951 140H77.7617ZM88.8363 140H87.3154C86.7738 140 86.4613 139.687 86.4613 139.146V124.937C86.4613 124.396 86.7738 124.083 87.3154 124.083H88.8363C89.3779 124.083 89.6904 124.396 89.6904 124.937V139.146C89.6904 139.687 89.3779 140 88.8363 140ZM115.479 137.292H115.979L116.563 137.875V139.417L115.979 140H114.729C113.521 140 112.479 139.625 111.75 138.937C110.604 139.667 109.313 140 107.959 140H102.813C101.521 140 100.688 140.625 100.688 142.292C100.688 144.042 101.125 145.333 101.646 146.021C102.021 146.646 102.042 147.083 101.25 147.563L100.563 147.958C99.7712 148.438 99.3337 148.208 98.917 147.5C98.1462 146.292 97.5003 144.729 97.5003 142.479C97.5003 139.292 99.4795 137.271 102.813 137.292H103.084C102.521 136.583 102.209 135.688 102.209 134.625C102.209 131.646 104.688 129.312 108.042 129.312C111.396 129.312 113.834 131.646 113.834 134.792V135.542C113.834 136.687 114.5 137.292 115.479 137.292ZM107.979 132.021C106.459 132.021 105.334 133.208 105.334 134.792C105.334 136 106.146 137.292 107.979 137.292C108.896 137.292 109.813 137.021 110.646 136.542C110.625 136.375 110.625 136.187 110.625 136V134.792C110.625 133.208 109.521 132.021 107.979 132.021ZM123.428 137.292H128.178C128.699 137.292 129.011 137.583 129.011 138.125V139.146C129.011 139.687 128.699 140 128.178 140H115.97L115.386 139.417V137.875L115.97 137.292H118.574C117.97 136.562 117.636 135.625 117.636 134.542C117.636 131.542 120.074 129.312 123.428 129.312C124.491 129.312 125.303 129.396 126.678 129.854C127.157 130 127.324 130.354 127.324 130.75V132.208C127.324 132.646 127.074 132.75 126.678 132.625C125.199 132.146 124.47 131.979 123.428 132.021C121.907 132.063 120.782 133.125 120.782 134.687C120.782 135.958 121.741 137.271 123.428 137.292ZM143.566 137.292H143.858L144.441 137.875V139.417L143.858 140H143.712C142.17 140 141.024 139.396 140.399 138.229C139.399 139.313 137.899 140 135.983 140H131.504C130.983 140 130.67 139.687 130.67 139.146V138.125C130.67 137.583 130.983 137.292 131.504 137.292H135.983C137.67 137.271 138.629 135.958 138.629 134.687C138.629 133.125 137.524 132.063 136.045 132.021C134.962 131.979 133.92 132.146 132.441 132.625C132.024 132.75 131.795 132.646 131.795 132.208V130.75C131.795 130.354 131.941 130 132.441 129.854C133.795 129.396 134.92 129.312 136.045 129.312C139.337 129.312 141.774 131.542 141.774 134.542V135.375C141.774 136.687 142.274 137.292 143.566 137.292ZM143.851 140L143.267 139.417V137.875L143.851 137.292H144.455C145.434 137.292 146.08 136.646 146.08 135.479V124.917C146.08 124.396 146.392 124.083 146.934 124.083H148.455C148.976 124.083 149.288 124.396 149.288 124.917V135.958C149.288 138.5 147.58 140 145.184 140H143.851ZM154.925 140H153.404C152.863 140 152.55 139.687 152.55 139.146V124.937C152.55 124.396 152.863 124.083 153.404 124.083H154.925C155.467 124.083 155.779 124.396 155.779 124.937V139.146C155.779 139.687 155.467 140 154.925 140ZM170.739 134.771V138.562C170.739 142.854 168.531 146.208 163.843 146.229H163.823C163.802 146.229 163.802 146.229 163.802 146.229C162.76 146.229 161.948 146.146 160.614 145.688C160.114 145.521 159.968 145.167 159.968 144.792V143.333C159.968 142.896 160.198 142.792 160.614 142.917C162.073 143.396 162.802 143.521 163.823 143.521C166.968 143.521 167.531 141.396 167.593 139.021C166.927 139.687 165.927 140.271 164.635 140.271C161.552 140.271 159.177 137.937 159.177 134.792C159.177 131.646 161.593 129.312 164.948 129.312C168.302 129.312 170.718 131.646 170.739 134.771ZM167.593 135.021V134.792C167.593 133.208 166.489 132.021 164.948 132.021C163.427 132.021 162.302 133.208 162.302 134.792C162.302 136.354 163.427 137.562 164.948 137.562C166.323 137.562 167.593 136.417 167.593 135.021Z" fill="#0B3041"/>
<path d="M104.297 37.661C104.297 42.8901 101.901 45.7026 98.3799 45.7026C94.859 45.7026 92.4632 42.8901 92.4632 37.661C92.4632 32.411 94.859 29.5985 98.3799 29.5985C101.901 29.5985 104.297 32.411 104.297 37.661ZM95.6507 37.661C95.6507 41.3276 96.734 43.0568 98.3799 43.0568C100.026 43.0568 101.13 41.3276 101.13 37.661C101.13 33.9735 100.026 32.2026 98.3799 32.2026C96.734 32.2026 95.6507 33.9735 95.6507 37.661ZM105.897 29.536H114.084C114.626 29.536 114.918 29.8485 114.918 30.3901V31.1193C114.918 31.411 114.793 31.7651 114.668 32.1193L110.105 44.6193C109.918 45.1401 109.418 45.4526 108.897 45.4526H107.605C107.084 45.4526 106.647 45.1818 106.897 44.4318L111.397 32.0776H105.897C105.355 32.0776 105.063 31.7651 105.063 31.2443V30.3901C105.063 29.8485 105.355 29.536 105.897 29.536Z" fill="#9B9B9B"/>
<defs>
<filter id="filter0_d_374_8495" x="0" y="9.9502" width="209.111" height="219.893" filterUnits="userSpaceOnUse" color-interpolation-filters="sRGB">
<feFlood flood-opacity="0" result="BackgroundImageFix"/>
<feColorMatrix in="SourceAlpha" type="matrix" values="0 0 0 0 0 0 0 0 0 0 0 0 0 0 0 0 0 0 127 0" result="hardAlpha"/>
<feOffset dy="6"/>
<feGaussianBlur stdDeviation="5"/>
<feColorMatrix type="matrix" values="0 0 0 0 0.666667 0 0 0 0 0.666667 0 0 0 0 0.666667 0 0 0 0.75 0"/>
<feBlend mode="normal" in2="BackgroundImageFix" result="effect1_dropShadow_374_8495"/>
<feBlend mode="normal" in="SourceGraphic" in2="effect1_dropShadow_374_8495" result="shape"/>
</filter>
<linearGradient id="paint0_linear_374_8495" x1="80.0752" y1="14.1513" x2="129.043" y2="63.1114" gradientUnits="userSpaceOnUse">
<stop offset="0.02" stop-color="white"/>
<stop offset="0.94" stop-color="#C9C9C9"/>
</linearGradient>
<linearGradient id="paint1_linear_374_8495" x1="82.2709" y1="16.3148" x2="126.873" y2="60.9281" gradientUnits="userSpaceOnUse">
<stop offset="0.06" stop-color="#D9D9D9"/>
<stop offset="0.98" stop-color="white"/>
</linearGradient>
</defs>
</svg>
