<svg width="24" height="24" viewBox="0 0 24 24" fill="none" xmlns="http://www.w3.org/2000/svg">
<path d="M11.9613 23.4326C5.6451 23.4326 0.525146 18.3126 0.525146 11.9964C0.525146 5.68026 5.6451 0.560303 11.9613 0.560303C18.2775 0.560303 23.3974 5.68026 23.3974 11.9964C23.3974 18.3126 18.2775 23.4326 11.9613 23.4326ZM11.9613 21.1453C14.3877 21.1453 16.7148 20.1814 18.4305 18.4657C20.1463 16.7499 21.1102 14.4229 21.1102 11.9964C21.1102 9.57 20.1463 7.24294 18.4305 5.52718C16.7148 3.81143 14.3877 2.84753 11.9613 2.84753C9.53484 2.84753 7.20778 3.81143 5.49203 5.52718C3.77627 7.24294 2.81237 9.57 2.81237 11.9964C2.81237 14.4229 3.77627 16.7499 5.49203 18.4657C7.20778 20.1814 9.53484 21.1453 11.9613 21.1453ZM13.1049 11.9964H17.6793V14.2837H10.8177V6.27837H13.1049V11.9964Z" fill="#C4C4C4"/>
</svg>
