<svg width="25" height="25" viewBox="0 0 25 25" fill="none" xmlns="http://www.w3.org/2000/svg">
<g clip-path="url(#clip0_374_8600)">
<path d="M12.8921 22.7651C7.40441 22.7651 2.95605 18.3167 2.95605 12.8291C2.95605 7.34142 7.40441 2.89307 12.8921 2.89307C18.3797 2.89307 22.8281 7.34142 22.8281 12.8291C22.8281 18.3167 18.3797 22.7651 12.8921 22.7651ZM12.8921 20.7779C15.0002 20.7779 17.022 19.9404 18.5127 18.4497C20.0034 16.959 20.8409 14.9372 20.8409 12.8291C20.8409 10.7209 20.0034 8.69911 18.5127 7.20842C17.022 5.71773 15.0002 4.88027 12.8921 4.88027C10.7839 4.88027 8.7621 5.71773 7.27141 7.20842C5.78072 8.69911 4.94326 10.7209 4.94326 12.8291C4.94326 14.9372 5.78072 16.959 7.27141 18.4497C8.7621 19.9404 10.7839 20.7779 12.8921 20.7779ZM13.8857 12.8291H17.8601V14.8163H11.8985V7.86107H13.8857V12.8291Z" fill="#0B3041"/>
</g>
<defs>
<clipPath id="clip0_374_8600">
<rect width="23.8464" height="23.8464" fill="white" transform="translate(0.96875 0.905762)"/>
</clipPath>
</defs>
</svg>
