<svg width="18" height="18" viewBox="0 0 18 18" fill="none" xmlns="http://www.w3.org/2000/svg">
<path d="M8.99997 17.1814C8.79072 17.1814 8.58127 17.1014 8.42152 16.9416L0.239776 8.75989C-0.0799254 8.44019 -0.0799254 7.92249 0.239776 7.603C0.559478 7.2835 1.07718 7.28329 1.39667 7.603L8.99997 15.2063L16.6033 7.603C16.923 7.28329 17.4407 7.28329 17.7602 7.603C18.0797 7.9227 18.0799 8.4404 17.7602 8.75989L9.57842 16.9416C9.41867 17.1014 9.20922 17.1814 8.99997 17.1814ZM9.57842 10.3962L17.7602 2.2145C18.0799 1.8948 18.0799 1.3771 17.7602 1.0576C17.4405 0.738104 16.9228 0.7379 16.6033 1.0576L8.99997 8.6609L1.39667 1.0576C1.07697 0.7379 0.559273 0.7379 0.239776 1.0576C-0.0797209 1.3773 -0.0799254 1.895 0.239776 2.2145L8.42152 10.3962C8.58127 10.556 8.79072 10.636 8.99997 10.636C9.20922 10.636 9.41867 10.556 9.57842 10.3962Z" fill="white"/>
</svg>
