<svg width="18" height="18" viewBox="0 0 18 18" fill="none" xmlns="http://www.w3.org/2000/svg">
<path d="M8.99997 17.1814C8.79072 17.1814 8.58127 17.1014 8.42152 16.9417L0.239776 8.75994C-0.0799254 8.44024 -0.0799254 7.92254 0.239776 7.60304C0.559478 7.28355 1.07718 7.28334 1.39667 7.60304L8.99997 15.2063L16.6033 7.60304C16.923 7.28334 17.4407 7.28334 17.7602 7.60304C18.0797 7.92274 18.0799 8.44044 17.7602 8.75994L9.57842 16.9417C9.41867 17.1014 9.20922 17.1814 8.99997 17.1814ZM9.57842 10.3963L17.7602 2.21455C18.0799 1.89484 18.0799 1.37714 17.7602 1.05765C17.4405 0.73815 16.9228 0.737946 16.6033 1.05765L8.99997 8.66094L1.39667 1.05765C1.07697 0.737946 0.559273 0.737946 0.239776 1.05765C-0.0797209 1.37735 -0.0799254 1.89505 0.239776 2.21455L8.42152 10.3963C8.58127 10.556 8.79072 10.636 8.99997 10.636C9.20922 10.636 9.41867 10.556 9.57842 10.3963Z" fill="#869006"/>
</svg>
