<svg width="28" height="29" viewBox="0 0 28 29" fill="none" xmlns="http://www.w3.org/2000/svg">
<path d="M23.1285 28.0378H5.1779C2.57934 28.0378 0.476562 25.9265 0.476562 23.3365V5.38593C0.476562 2.79592 2.57934 0.684591 5.1779 0.684591H23.1285C25.7185 0.684591 27.8298 2.79592 27.8298 5.38593V23.3365C27.8298 25.9265 25.7185 28.0378 23.1285 28.0378ZM10.734 25.4735H12.0162C12.7171 25.4735 13.2984 24.9008 13.2984 24.1913C13.2984 23.4818 12.7171 22.9091 12.0162 22.9091H10.734C10.0246 22.9091 9.45185 23.4818 9.45185 24.1913C9.45185 24.9008 10.0246 25.4735 10.734 25.4735ZM18.0681 15.0536C18.2904 14.8912 18.4271 14.6347 18.4271 14.3612C18.4271 14.0791 18.2904 13.8227 18.0681 13.6603L12.0846 9.38634C11.9307 9.28377 11.7598 9.23248 11.5888 9.23248C11.4521 9.23248 11.3153 9.25813 11.1956 9.32651C10.9135 9.47182 10.734 9.76245 10.734 10.0873V18.6352C10.734 18.9514 10.9135 19.2421 11.1956 19.3874C11.4777 19.5327 11.8196 19.5156 12.0846 19.3275L18.0681 15.0536ZM6.46009 3.24896H5.1779C4.46843 3.24896 3.89572 3.82167 3.89572 4.53114C3.89572 5.24062 4.46843 5.81333 5.1779 5.81333H6.46009C7.16101 5.81333 7.74227 5.24062 7.74227 4.53114C7.74227 3.82167 7.16101 3.24896 6.46009 3.24896ZM6.46009 22.9091H5.1779C4.46843 22.9091 3.89572 23.4818 3.89572 24.1913C3.89572 24.9008 4.46843 25.4735 5.1779 25.4735H6.46009C7.16101 25.4735 7.74227 24.9008 7.74227 24.1913C7.74227 23.4818 7.16101 22.9091 6.46009 22.9091ZM12.0162 3.24896H10.734C10.0246 3.24896 9.45185 3.82167 9.45185 4.53114C9.45185 5.24062 10.0246 5.81333 10.734 5.81333H12.0162C12.7171 5.81333 13.2984 5.24062 13.2984 4.53114C13.2984 3.82167 12.7171 3.24896 12.0162 3.24896ZM17.5723 3.24896H16.2902C15.5807 3.24896 15.008 3.82167 15.008 4.53114C15.008 5.24062 15.5807 5.81333 16.2902 5.81333H17.5723C18.2733 5.81333 18.8545 5.24062 18.8545 4.53114C18.8545 3.82167 18.2733 3.24896 17.5723 3.24896ZM17.5723 22.9091H16.2902C15.5807 22.9091 15.008 23.4818 15.008 24.1913C15.008 24.9008 15.5807 25.4735 16.2902 25.4735H17.5723C18.2733 25.4735 18.8545 24.9008 18.8545 24.1913C18.8545 23.4818 18.2733 22.9091 17.5723 22.9091ZM23.1285 3.24896H21.8463C21.1368 3.24896 20.5641 3.82167 20.5641 4.53114C20.5641 5.24062 21.1368 5.81333 21.8463 5.81333H23.1285C23.8294 5.81333 24.4107 5.24062 24.4107 4.53114C24.4107 3.82167 23.8294 3.24896 23.1285 3.24896ZM23.1285 22.9091H21.8463C21.1368 22.9091 20.5641 23.4818 20.5641 24.1913C20.5641 24.9008 21.1368 25.4735 21.8463 25.4735H23.1285C23.8294 25.4735 24.4107 24.9008 24.4107 24.1913C24.4107 23.4818 23.8294 22.9091 23.1285 22.9091Z" fill="#E6E6E6"/>
</svg>
