<svg width="120" height="80" viewBox="0 0 120 80" fill="none" xmlns="http://www.w3.org/2000/svg">
<rect width="120" height="80" fill="#1E1E1E"/>
<g clip-path="url(#clip0_0_1)">
<rect width="1920" height="1697" transform="translate(-1192 -1594)" fill="white"/>
<rect x="-1192" y="-516" width="1920" height="623" fill="#0B3041"/>
<path d="M70.3418 2.64735H71.4764V1.51276H70.3418V2.64735Z" fill="#A8A8AA"/>
<path d="M97.9502 19.2874H99.463V18.1528H97.9502V19.2874Z" fill="#A8A8AA"/>
<path d="M114.212 16.6408C114.59 16.6408 114.968 16.2626 115.346 15.8844C115.346 15.5062 115.346 15.128 115.724 14.7498C115.724 14.3716 115.724 13.9934 115.724 13.6152V4.16022H114.212V13.6152C114.212 13.9934 114.212 14.3716 114.212 14.3716C114.212 14.7498 114.212 14.7498 114.212 15.128L113.833 15.5062C113.455 15.5062 113.455 15.5062 113.077 15.5062C113.077 15.5062 113.077 15.5062 112.699 15.5062C112.699 15.5062 112.699 15.5062 112.321 15.5062L111.942 16.6408C112.321 16.6408 112.699 17.019 113.077 17.019C113.833 17.019 114.212 16.6408 114.212 16.6408Z" fill="#A8A8AA"/>
<path d="M109.673 1.89099H107.782V1.51279C107.782 1.1346 108.16 1.1346 108.16 1.1346C108.16 1.1346 108.16 0.756397 108.539 0.756397H109.295V0H108.539C107.782 0 107.404 0 107.404 0.378199C107.026 0.756397 107.026 1.1346 107.026 1.51279V2.64739H109.673V1.89099Z" fill="#A8A8AA"/>
<path d="M95.3022 19.2874H96.815V18.1528H95.3022V19.2874Z" fill="#A8A8AA"/>
<path d="M72.9897 2.64735H74.1243V1.51276H72.9897V2.64735Z" fill="#A8A8AA"/>
<path d="M103.623 7.56401C104.001 6.80761 104.38 6.80761 104.38 6.42941C104.758 6.05121 105.136 6.05121 105.892 5.67301C106.271 5.67301 106.649 5.29481 107.027 5.29481H109.296L108.54 5.67301V11.7242H107.027C106.649 11.7242 106.271 11.7242 105.514 11.7242C105.136 11.346 104.758 11.346 104.38 10.9678C104.001 10.5896 104.001 10.5896 103.623 10.2114C103.623 9.8332 103.245 9.0768 103.245 8.6986C103.245 8.3204 103.623 7.9422 103.623 7.56401ZM103.623 12.1024C104.38 12.4806 104.758 12.8588 105.514 12.8588C106.271 13.237 107.027 13.237 107.783 13.237H108.162L108.54 12.1024V13.6152C108.54 14.3716 108.162 14.7498 107.783 15.128C107.405 15.5062 107.027 15.5062 106.271 15.5062C105.892 15.5062 105.514 15.5062 105.136 15.5062C104.758 15.5062 104.38 15.128 104.001 15.128L103.623 16.2626C104.001 16.6408 104.38 16.6408 104.758 16.6408C105.136 17.019 105.514 17.019 105.892 17.019C107.405 17.019 108.162 16.6408 108.918 15.8844C109.296 15.5062 109.674 14.3716 109.674 13.6152V4.16022H107.783C106.649 4.16022 105.892 4.16022 105.514 4.53842C104.758 4.53842 104.001 4.91661 103.623 5.29481C103.245 5.67301 102.867 6.42941 102.489 6.80761C102.11 7.56401 102.11 7.9422 102.11 8.6986C102.11 9.455 102.11 10.2114 102.489 10.5896C102.867 11.346 103.245 11.7242 103.623 12.1024Z" fill="#A8A8AA"/>
<path d="M65.8042 10.2112C65.8042 7.56389 67.6952 5.29477 70.7207 5.29477H73.7461L72.9898 5.67296V13.2367C72.9898 13.993 72.9898 14.3712 72.9898 14.7494C72.9898 15.1276 72.9898 15.1276 73.368 15.5058H70.7207C67.6952 15.5058 65.8042 13.2367 65.8042 10.5894V10.2112ZM70.7207 16.6403H73.368V15.5058C73.368 15.884 73.368 15.884 73.368 15.884C73.7461 16.2621 73.7461 16.2621 74.1243 16.6403C74.5025 16.6403 74.8807 16.6403 75.6371 16.6403H99.8409V4.16022H98.7064V15.5058H75.6371C75.2589 15.5058 74.8807 15.5058 74.8807 15.1276H74.5025C74.5025 14.7494 74.5025 14.7494 74.1243 14.3712C74.1243 13.993 74.1243 13.6149 74.1243 13.2367V4.16022H70.7207C66.9388 4.16022 64.2915 7.1857 64.2915 10.5894C64.2915 13.6149 66.9388 16.6403 70.7207 16.6403Z" fill="#A8A8AA"/>
<path d="M57.8627 13.237L58.2409 14.7498L49.9205 4.16022H48.4077V16.6408H49.9205V7.18581L49.1641 5.29481L57.8627 16.6408H58.9973V4.16022H57.8627V13.237Z" fill="#A8A8AA"/>
<path d="M76.7717 36.684L84.3354 29.4985V24.2039H63.9134V30.2548H74.5026L78.2844 27.6075L68.4516 37.4403L69.5862 41.6004H72.2335C76.0153 41.6004 78.2844 43.1131 78.2844 45.3822V45.7604C78.2844 48.0295 76.7717 49.1641 74.1244 49.1641C71.0989 49.1641 68.8298 48.0295 66.5607 45.7604L62.0225 49.9205C64.6698 53.3241 68.4516 55.2151 74.1244 55.2151C80.9317 55.2151 85.0918 51.055 85.0918 45.3822C85.0918 39.7095 80.9317 37.4403 76.7717 36.684Z" fill="#A8A8AA"/>
<path d="M44.6262 10.5893C44.6262 13.2367 42.7352 15.5059 39.7097 15.5059C36.6841 15.5059 34.7931 13.2367 34.7931 10.2111C34.7931 7.56373 36.6841 5.29453 39.7097 5.29453C42.357 5.29453 44.6262 7.56373 44.6262 10.2111V10.5893ZM39.7097 3.78174C35.9277 3.78174 33.2803 6.80733 33.2803 10.2111V10.5893C33.2803 13.9931 35.9277 17.0187 39.7097 17.0187C43.4916 17.0187 46.139 13.9931 46.139 10.2111C46.139 6.80733 43.4916 3.78174 39.7097 3.78174Z" fill="#A8A8AA"/>
<path d="M112.321 39.7096C112.321 45.0042 108.539 49.1642 102.866 49.1642C97.5714 49.1642 93.7895 44.626 93.7895 39.7096V39.3314C93.7895 34.415 97.5714 29.8768 102.866 29.8768C108.161 29.8768 112.321 34.415 112.321 39.7096ZM102.866 23.8258C93.4113 23.8258 86.604 31.0113 86.604 39.7096C86.604 48.4079 93.4113 55.2152 102.866 55.2152C112.321 55.2152 119.128 48.4079 119.128 39.7096V39.3314C119.128 30.6331 112.321 23.8258 102.866 23.8258Z" fill="#A8A8AA"/>
<path d="M29.4985 16.6408H30.6331V4.16022H29.4985V16.6408Z" fill="#A8A8AA"/>
<path d="M6.42938 51.4333L7.94213 50.2988L14.3713 45.0042C20.0441 40.8441 22.6914 38.575 22.6914 33.2804C22.6914 27.6077 18.5313 23.8258 12.1022 23.8258C6.42938 23.8258 3.78209 26.0949 0.756603 30.255L5.29483 34.0368C7.56394 31.3895 9.45487 29.8768 11.724 29.8768C13.9931 29.8768 15.884 31.3895 15.884 34.0368C15.884 36.3059 14.3713 38.1968 10.5894 41.2223L0.378418 49.5424V54.837H23.0695V49.1642H11.3458L6.42938 51.4333Z" fill="#A8A8AA"/>
<path d="M6.80758 16.6408L12.1024 4.16022H10.5896L6.42938 14.3716V15.8844L6.05118 14.7498L2.26919 6.05121L1.51279 4.16022H0L5.29478 16.6408H6.80758Z" fill="#A8A8AA"/>
<path d="M13.9932 16.6408H15.506V4.16022H13.9932V16.6408Z" fill="#A8A8AA"/>
<path d="M23.0697 9.83292C20.0441 9.07652 19.6659 8.32012 19.6659 7.18553C19.6659 6.05093 20.4223 5.29453 22.3133 5.29453C23.4479 5.29453 24.5825 5.67273 25.7171 6.42913L26.8517 5.29453C25.3389 4.53814 24.2043 3.78174 22.3133 3.78174C20.0441 3.78174 18.1531 5.29453 18.1531 7.18553V7.56373C18.1531 9.45472 19.2877 10.2111 22.3133 10.9675C24.9607 11.7239 25.7171 12.1021 25.7171 13.2367V13.6149C25.7171 14.7495 24.5825 15.5059 22.6915 15.5059C21.1787 15.5059 19.6659 15.1277 18.5313 13.6149L17.7749 14.7495C19.2877 16.2623 20.8005 17.0187 22.6915 17.0187C25.3389 17.0187 27.2299 15.5059 27.2299 13.2367C27.2299 11.3457 25.7171 10.2111 23.0697 9.83292Z" fill="#A8A8AA"/>
<path d="M41.2223 21.9349L42.7351 23.4477L41.2223 24.9605L39.7095 23.4477L41.2223 21.9349Z" fill="#39457C"/>
<path d="M44.626 23.4477L46.1388 24.9605L47.6516 23.4477L46.1388 21.9349L44.626 23.4477Z" fill="#ACADAF"/>
<path d="M42.3564 25.3385L43.8692 26.473L45.0038 25.3385L43.491 24.2039L42.3564 25.3385Z" fill="#CDD641"/>
<path d="M46.8955 26.0948L48.0301 27.2294L49.1647 25.7166L48.0301 24.582L46.8955 26.0948Z" fill="#76B84F"/>
<path d="M40.4658 27.2293L41.6004 28.3639L42.735 27.2293L41.6004 26.0947L40.4658 27.2293Z" fill="#CDD641"/>
<path d="M44.626 27.2293L45.7606 28.3639L46.8952 27.2293L45.7606 26.0947L44.626 27.2293Z" fill="#33B5BC"/>
<path d="M43.1128 28.7421L43.8692 29.4985L44.6256 28.7421L43.8692 27.6075L43.1128 28.7421Z" fill="#76B84F"/>
<path d="M46.1382 29.1201L46.8946 30.2547L48.0292 29.1201L46.8946 28.3637L46.1382 29.1201Z" fill="#61B461"/>
<path d="M53.3242 22.6912L53.7024 25.3386L56.3498 24.9604L55.9716 22.313L53.3242 22.6912Z" fill="#3789C8"/>
<path d="M49.9199 23.8255L50.2981 26.0947L52.1891 25.7165L51.8109 23.4473L49.9199 23.8255Z" fill="#334773"/>
<path d="M53.7017 26.851L54.0799 29.1202L56.3491 28.742L55.9709 26.4728L53.7017 26.851Z" fill="#33B5BC"/>
<path d="M51.0547 27.2295V28.7423L52.9457 28.3641L52.5675 26.8513L51.0547 27.2295Z" fill="#CDD641"/>
<path d="M54.0801 30.2547L54.4583 31.7675H55.9711L55.5929 29.8765L54.0801 30.2547Z" fill="#ACADAF"/>
<path d="M48.4077 27.9857L48.7859 29.4985L50.2987 29.1203V27.6075L48.4077 27.9857Z" fill="#33B5BC"/>
<path d="M51.4331 29.8765L51.8113 31.7675L53.3241 31.3893L52.9459 29.8765H51.4331Z" fill="#76B84F"/>
<path d="M49.5425 30.2547V31.3893L50.6771 31.0111V29.8765L49.5425 30.2547Z" fill="#ACADAF"/>
<path d="M51.4331 32.5239L51.8113 33.6585H52.9459L52.5677 32.5239H51.4331Z" fill="#61B461"/>
<path d="M60.8885 31.3892L59.7539 34.0366L62.4013 35.1712L63.5359 32.5238L60.8885 31.3892Z" fill="#39457C"/>
<path d="M57.4844 30.2549L56.728 32.1459L58.619 33.2805L59.3754 31.3895L57.4844 30.2549Z" fill="#33B5BC"/>
<path d="M58.9971 35.1713L58.2407 37.0623L60.1317 37.8187L61.2663 35.9277L58.9971 35.1713Z" fill="#76B84F"/>
<path d="M56.7286 33.6586L55.9722 35.1714L57.485 35.9278L58.2414 34.415L56.7286 33.6586Z" fill="#CDD641"/>
<path d="M57.4844 38.1968L56.728 39.7096L58.2408 40.0878L58.9972 38.575L57.4844 38.1968Z" fill="#CDD641"/>
<path d="M54.0799 32.902L53.7017 34.4148L55.2145 34.793L55.5927 33.2802L54.0799 32.902Z" fill="#3789C8"/>
<path d="M55.5928 36.3056L54.8364 37.8184L56.3492 38.5748L56.7274 37.062L55.5928 36.3056Z" fill="#ACADAF"/>
<path d="M53.7022 35.1713L52.9458 36.3059L54.0804 36.6841L54.8368 35.5495L53.7022 35.1713Z" fill="#76B84F"/>
<path d="M54.0806 38.575L53.3242 39.3313L54.4588 40.0877L55.2152 38.9531L54.0806 38.575Z" fill="#33B5BC"/>
<path d="M62.4005 43.1133L60.1313 44.2479L61.2659 46.5171L63.5351 45.3825L62.4005 43.1133Z" fill="#3789C8"/>
<path d="M60.1317 40.0877L58.2407 41.2223L59.3753 43.1133L61.2663 41.9787L60.1317 40.0877Z" fill="#33B5BC"/>
<path d="M58.619 45.0042L56.728 45.7605L57.8626 47.6515L59.7536 46.8951L58.619 45.0042Z" fill="#33B5BC"/>
<path d="M57.485 42.3567L55.9722 43.1131L56.7286 44.6259L58.2414 43.4913L57.485 42.3567Z" fill="#39457C"/>
<path d="M55.5929 46.1384L54.0801 46.8948L54.8365 48.4076L56.3493 47.6512L55.5929 46.1384Z" fill="#61B461"/>
<path d="M55.9708 40.0877L54.458 40.8441L55.2144 42.3569L56.7272 41.6005L55.9708 40.0877Z" fill="#334773"/>
<path d="M54.837 43.4913L53.3242 44.2477L54.4588 45.7605L55.5934 45.0041L54.837 43.4913Z" fill="#CDD641"/>
<path d="M54.0804 41.6005L52.9458 42.3569L53.7022 43.1133L54.8368 42.7351L54.0804 41.6005Z" fill="#ACADAF"/>
<path d="M52.5677 44.626L51.4331 45.0042L52.1895 46.1388L52.9459 45.3824L52.5677 44.626Z" fill="#33B5BC"/>
<path d="M56.7272 52.946H54.0799L53.7017 55.5934H56.3491L56.7272 52.946Z" fill="#76B84F"/>
<path d="M56.7275 49.5421L54.4583 49.1639L54.0801 51.4331L56.3493 51.8113L56.7275 49.5421Z" fill="#334773"/>
<path d="M52.568 52.5677L50.2988 52.1895V54.4586H52.1898L52.568 52.5677Z" fill="#33B5BC"/>
<path d="M53.3241 49.5424H51.4331V51.0552L52.9459 51.4334L53.3241 49.5424Z" fill="#76B84F"/>
<path d="M49.1639 51.8114L47.6511 51.4332L47.2729 53.3242H49.1639V51.8114Z" fill="#ACADAF"/>
<path d="M53.3241 47.2732L51.4331 46.895V48.4078L52.9459 48.786L53.3241 47.2732Z" fill="#ACADAF"/>
<path d="M50.2987 49.1639H48.7859L48.4077 50.6767L49.9205 51.0549L50.2987 49.1639Z" fill="#76B84F"/>
<path d="M50.6771 47.2731H49.5425V48.4077H50.6771V47.2731Z" fill="#ACADAF"/>
<path d="M47.6517 48.7859L46.5171 48.4077V49.5423L47.6517 49.9205V48.7859Z" fill="#ACADAF"/>
<path d="M46.1384 57.8626L44.2474 55.9716L42.3564 58.2407L44.2474 59.7535L46.1384 57.8626Z" fill="#CDD641"/>
<path d="M45.76 20.4222L43.869 18.9094L41.978 20.8004L43.869 22.6913L45.76 20.4222Z" fill="#76B84F"/>
<path d="M48.03 55.2151L46.5172 53.7023L45.0044 55.2151L46.5172 56.7279L48.03 55.2151Z" fill="#33B5BC"/>
<path d="M43.1135 55.2151L41.6007 53.7023L40.0879 55.2151L41.6007 56.7279L43.1135 55.2151Z" fill="#76B84F"/>
<path d="M45.3827 53.324L43.8699 52.1895L42.7354 53.324L44.2481 54.4586L45.3827 53.324Z" fill="#3789C8"/>
<path d="M40.8444 52.5678L39.7098 51.4332L38.5752 52.5678L39.7098 53.7024L40.8444 52.5678Z" fill="#CDD641"/>
<path d="M46.8952 51.0551L45.7606 49.9205L44.626 51.0551L45.7606 52.1897L46.8952 51.0551Z" fill="#CDD641"/>
<path d="M43.1129 51.0551L41.9783 49.9205L40.8438 51.4333L41.9783 52.5679L43.1129 51.0551Z" fill="#ACADAF"/>
<path d="M44.6256 49.9203L43.8692 49.1639L43.1128 49.9203L43.8692 50.6767L44.6256 49.9203Z" fill="#334773"/>
<path d="M41.6005 49.1641L40.4659 48.4077L39.7095 49.1641L40.8441 49.9205L41.6005 49.1641Z" fill="#ACADAF"/>
<path d="M34.7929 55.5933L34.0366 53.3241L31.3892 53.7023L32.1456 56.3497L34.7929 55.5933Z" fill="#3789C8"/>
<path d="M38.1967 54.4585L37.4403 52.5675L35.5493 52.9457L35.9275 54.8367L38.1967 54.4585Z" fill="#33B5BC"/>
<path d="M34.0366 51.8116L33.6584 49.5424L31.3892 49.9206L31.7674 52.1897L34.0366 51.8116Z" fill="#76B84F"/>
<path d="M36.684 51.4333L36.3058 49.9205H34.793L35.1712 51.8115L36.684 51.4333Z" fill="#CDD641"/>
<path d="M39.3304 50.6767L38.9522 49.1639L37.4395 49.5421V51.0549L39.3304 50.6767Z" fill="#39457C"/>
<path d="M36.3055 48.4078L35.9273 46.895L34.4146 47.2732L34.7927 48.786L36.3055 48.4078Z" fill="#3789C8"/>
<path d="M38.1971 48.4077V47.2731H37.0625V48.4077H38.1971Z" fill="#76B84F"/>
<path d="M35.9276 46.1387V45.0042H34.793V46.1387H35.9276Z" fill="#ACADAF"/>
<path d="M26.8515 47.2732L27.6079 45.004L25.3387 43.8694L24.2041 46.1386L26.8515 47.2732Z" fill="#33B5BC"/>
<path d="M30.2545 48.4078L31.0109 46.5168L29.1199 45.3822L27.9854 47.2732L30.2545 48.4078Z" fill="#CDD641"/>
<path d="M28.3636 43.4913L29.4982 41.6003L27.2291 40.8439L26.4727 42.7349L28.3636 43.4913Z" fill="#3789C8"/>
<path d="M31.0113 45.0039L31.7677 43.4911L30.2549 42.7347L29.4985 44.2475L31.0113 45.0039Z" fill="#33B5BC"/>
<path d="M32.902 48.786L33.6584 47.2732L32.1456 46.5168L31.3892 48.0296L32.902 48.786Z" fill="#ACADAF"/>
<path d="M30.255 40.4659L31.0114 38.9531L29.4986 38.575L28.7422 40.0877L30.255 40.4659Z" fill="#39457C"/>
<path d="M33.2799 45.7605L34.0363 44.2477L32.5235 43.4913L31.7671 45.0041L33.2799 45.7605Z" fill="#61B461"/>
<path d="M32.1456 42.3569L32.902 40.8441L31.3892 40.0877L30.6328 41.6005L32.1456 42.3569Z" fill="#CDD641"/>
<path d="M34.0369 43.4914L34.4151 42.3568L33.2805 41.9786L32.9023 43.1132L34.0369 43.4914Z" fill="#334773"/>
<path d="M33.659 40.0877L34.0372 39.3313L32.9026 38.575L32.5244 39.7095L33.659 40.0877Z" fill="#76B84F"/>
<path d="M25.339 35.9278L27.6082 34.415L26.0954 32.1458L23.8262 33.2804L25.339 35.9278Z" fill="#33B5BC"/>
<path d="M27.2298 38.575L29.1208 37.4404L27.9862 35.5494L26.0952 36.684L27.2298 38.575Z" fill="#76B84F"/>
<path d="M28.742 33.6585L30.633 32.9021L29.4984 31.0111L27.6074 32.1457L28.742 33.6585Z" fill="#334773"/>
<path d="M29.8765 36.3059L31.3893 35.5495L30.6329 34.0367L29.1201 35.1713L29.8765 36.3059Z" fill="#3789C8"/>
<path d="M31.7671 32.5241L33.2799 31.7677L32.5235 30.2549L31.0107 31.0113L31.7671 32.5241Z" fill="#76B84F"/>
<path d="M31.3892 38.5748L32.902 37.8184L32.1456 36.3056L30.6328 37.062L31.3892 38.5748Z" fill="#33B5BC"/>
<path d="M32.5235 35.1712L34.0363 34.0366L33.2799 32.902L31.7671 33.6584L32.5235 35.1712Z" fill="#CDD641"/>
<path d="M33.2805 37.0623L34.4151 36.3059L33.6587 35.1713L32.9023 35.9277L33.2805 37.0623Z" fill="#ACADAF"/>
<path d="M34.7927 34.0367L35.9273 33.6585L35.1709 32.5239L34.4146 32.9021L34.7927 34.0367Z" fill="#76B84F"/>
<path d="M30.6328 25.7166H33.2802L33.6584 23.0692H31.011L30.6328 25.7166Z" fill="#76B84F"/>
<path d="M30.6328 29.1205L32.902 29.4987L33.2802 27.2295L31.011 26.8513L30.6328 29.1205Z" fill="#ACADAF"/>
<path d="M34.793 26.095L37.0622 26.4732V24.204L35.1712 23.8258L34.793 26.095Z" fill="#33B5BC"/>
<path d="M34.4146 29.1204H35.9273V27.6076L34.4146 27.2294V29.1204Z" fill="#CDD641"/>
<path d="M38.1963 26.8511H39.7091L40.0873 25.3383L38.1963 24.9601V26.8511Z" fill="#3789C8"/>
<path d="M34.0366 31.3893L35.9276 31.7675V29.8765H34.4148L34.0366 31.3893Z" fill="#33B5BC"/>
<path d="M37.0625 29.1203L38.5753 29.4985L38.9535 27.6075H37.4407L37.0625 29.1203Z" fill="#76B84F"/>
<path d="M36.6841 31.3895H37.8187V30.2549H36.6841V31.3895Z" fill="#334773"/>
<path d="M39.7095 29.8768H40.8441V28.7422H39.7095V29.8768Z" fill="#ACADAF"/>
<path d="M52.1903 40.8443C52.1903 40.8443 51.8121 40.8443 51.0557 40.4661C50.2993 40.4661 49.5429 40.0879 48.4083 40.4661C48.0301 40.4661 47.2737 40.4661 46.8955 40.4661C46.8955 40.8443 46.8955 40.8443 46.8955 40.8443C46.5173 40.8443 46.5173 40.8443 46.1391 40.8443C46.1391 41.2225 45.761 41.2225 45.761 41.2225C45.0046 41.6007 44.6264 41.9789 44.2482 42.3571C43.87 39.3315 44.2482 36.6841 44.2482 35.5495C45.3828 35.9277 45.0046 37.8187 44.6264 38.1969C46.1391 36.6841 45.3828 35.1713 45.0046 34.7931C45.3828 34.7931 45.3828 35.1713 45.761 35.1713C46.1391 35.5495 46.1391 36.3059 46.1391 36.6841C46.1391 37.0623 46.1391 37.0623 46.1391 37.4405C46.5173 37.0623 46.5173 35.9277 46.1391 34.7931C46.1391 34.7931 45.761 34.4149 45.761 34.0367C45.761 34.0367 46.1391 34.0367 46.1391 34.4149C46.5173 34.4149 46.8955 34.7931 46.8955 35.1713C47.2737 35.5495 47.2737 35.9277 47.2737 36.3059C47.2737 35.5495 47.2737 34.7931 46.8955 34.4149C46.8955 34.0367 46.5173 33.6585 46.1391 33.6585C46.1391 33.2803 45.761 33.2803 45.761 33.2803H46.1391C46.5173 33.2803 46.8955 33.2803 46.8955 33.6585C47.2737 33.6585 47.6519 34.0367 47.6519 34.0367C47.6519 33.6585 47.2737 33.2803 46.8955 32.9021C46.8955 32.9021 46.5173 32.5239 46.1391 32.5239H45.761C45.3828 32.5239 45.0046 32.5239 45.0046 32.5239C45.0046 32.5239 45.3828 32.1457 45.761 32.1457H46.1391C46.5173 32.1457 46.5173 32.1457 46.5173 32.1457C46.5173 32.1457 46.5173 31.7675 46.1391 31.7675H45.761C45.0046 31.3893 44.6264 31.7675 44.2482 32.1457C44.2482 32.1457 44.2482 32.1457 43.87 31.7675C43.87 31.3893 43.87 31.3893 43.87 31.0111C43.4918 31.3893 43.4918 31.7675 43.4918 31.7675C43.4918 32.1457 43.1136 32.1457 43.1136 32.1457C42.7354 31.3893 41.6008 31.3893 40.8444 32.1457C41.2226 32.1457 41.979 32.1457 42.7354 32.5239C42.7354 32.5239 42.7354 32.5239 42.3572 32.5239C41.979 32.5239 40.8444 32.5239 40.4662 33.2803C40.088 33.6585 40.088 33.6585 40.088 34.0367C40.088 34.0367 40.088 34.0367 40.4662 33.6585C40.4662 33.2803 41.2226 33.2803 41.979 33.2803C41.6008 33.2803 40.4662 33.6585 40.4662 34.7931C40.088 35.1713 40.088 35.5495 40.088 36.3059H40.4662C40.4662 35.5495 40.8444 34.0367 41.979 34.0367C40.8444 35.1713 40.8444 36.6841 41.2226 37.4405C41.2226 37.0623 41.2226 35.5495 42.3572 34.7931C41.979 35.1713 41.6008 36.6841 42.7354 38.1969C42.3572 37.8187 42.3572 35.9277 43.1136 35.5495C43.4918 36.6841 43.4918 39.3315 43.1136 42.3571C42.3572 41.6007 41.6008 40.8443 40.4662 40.8443C40.4662 40.4661 40.4662 40.4661 40.4662 40.4661C39.3316 40.4661 38.5752 40.0879 37.8188 40.0879C36.6842 40.4661 35.9278 40.4661 35.5496 40.8443C36.306 40.8443 37.0624 40.8443 37.8188 40.8443C38.5752 40.8443 39.7098 41.2225 40.4662 41.2225C41.2226 41.9789 42.3572 42.3571 43.1136 43.1135C41.979 44.2481 40.8444 45.3827 40.4662 45.7609C40.088 45.7609 40.088 45.7609 40.088 45.7609C40.088 45.3827 39.7098 45.3827 39.3316 45.3827L38.9534 45.7609C38.9534 46.1391 38.9534 46.5173 38.9534 46.5173C39.3316 46.8955 39.7098 46.8955 40.4662 46.5173C41.2226 46.1391 41.979 45.0045 43.4918 43.8699C43.4918 43.8699 43.4918 43.8699 43.87 43.8699C44.6264 44.6263 45.0046 45.0045 45.761 45.3827C45.761 45.7609 46.1391 45.7609 46.1391 46.1391C46.5173 46.1391 46.8955 46.5173 46.8955 46.5173C47.6519 46.8955 48.0301 46.8955 48.4083 46.5173C48.4083 46.5173 48.4083 46.1391 48.4083 45.7609C48.0301 45.3827 48.0301 45.3827 48.0301 45.3827C47.6519 45.3827 47.2737 45.3827 47.2737 45.7609C47.2737 45.7609 47.2737 45.3827 46.8955 45.3827C46.8955 45.3827 46.5173 45.0045 46.1391 45.0045C46.1391 44.6263 45.761 44.6263 45.761 44.2481C45.3828 43.8699 44.6264 43.4917 44.2482 43.1135C44.6264 42.7353 45.0046 42.3571 45.761 42.3571C45.761 41.9789 46.1391 41.9789 46.1391 41.9789C46.5173 41.6007 46.8955 41.6007 46.8955 41.6007C47.2737 41.2225 47.6519 41.2225 48.4083 40.8443C49.1647 40.8443 50.2993 40.4661 51.0557 40.8443C51.4339 40.8443 51.8121 40.8443 52.1903 40.8443Z" fill="#757C83"/>
<path d="M6.05127 70.7205H6.80767V69.9641H6.05127V70.7205Z" fill="#A8A8AA"/>
<path d="M49.5421 68.0733C49.1639 68.0733 48.7857 68.0733 48.7857 68.0733C48.4075 67.6951 48.4075 67.6951 48.4075 67.3169C48.0293 66.9387 48.0293 66.9387 48.0293 66.5605C48.0293 66.1823 48.0293 66.1823 48.4075 65.8041C48.4075 65.4259 48.4075 65.4259 48.7857 65.0477C49.1639 65.0477 49.1639 65.0477 49.5421 64.6695C49.5421 64.6695 49.9203 64.6695 50.2985 64.6695H51.0549V68.4515H50.2985C49.9203 68.4515 49.5421 68.4515 49.5421 68.0733ZM59.3753 69.2079V63.9131H58.6189V68.4515H55.5933V63.9131H54.8369V68.4515H51.8113V63.9131H50.6767C49.9203 63.9131 49.5421 63.9131 49.1639 64.2913C48.7857 64.2913 48.4075 64.2913 48.4075 64.6695C48.0293 65.0477 47.6511 65.0477 47.6511 65.4259C47.2729 65.8041 47.2729 66.1823 47.2729 66.5605C47.2729 66.9387 47.2729 67.3169 47.6511 67.6951C47.6511 68.0733 48.0293 68.4515 48.4075 68.4515C48.7857 68.8297 48.7857 68.8297 49.1639 68.8297C49.5421 69.2079 50.2985 69.2079 50.6767 69.2079H59.3753Z" fill="#A8A8AA"/>
<path d="M42.7354 69.2083H43.4917V62.4008H42.7354V69.2083Z" fill="#A8A8AA"/>
<path d="M51.0547 63.1572H51.8111V62.4008H51.0547V63.1572Z" fill="#A8A8AA"/>
<path d="M58.6182 70.7205H59.3746V69.9641H58.6182V70.7205Z" fill="#A8A8AA"/>
<path d="M7.56396 70.7205H8.32036V69.9641H7.56396V70.7205Z" fill="#A8A8AA"/>
<path d="M22.6909 68.4517L21.5564 65.4262C21.9345 65.0481 21.9345 65.0481 22.3127 65.0481C22.6909 64.6699 23.0691 64.6699 23.4473 64.6699C23.8255 64.6699 24.2037 64.6699 24.5818 65.0481C24.5818 65.0481 24.96 65.4262 25.3382 65.4262L24.2037 68.4517H22.6909ZM18.5309 68.4517H17.7745C17.3963 68.4517 17.0181 68.4517 17.0181 68.0735C16.64 68.0735 16.2618 68.0735 16.2618 68.0735C15.8836 67.6954 15.8836 67.6954 15.8836 67.3172C15.5054 66.939 15.5054 66.939 15.5054 66.5608C15.5054 66.1826 15.5054 66.1826 15.8836 65.8044C15.8836 65.4262 15.8836 65.4262 16.2618 65.4262C16.64 65.0481 16.64 65.0481 17.0181 65.0481C17.0181 64.6699 17.3963 64.6699 17.7745 64.6699H18.5309V68.4517ZM39.7093 68.4517H38.5747C38.1965 68.4517 37.8183 68.4517 37.4401 68.0735C37.062 68.0735 37.062 67.6954 37.062 67.6954C37.062 67.3172 37.062 67.3172 37.062 66.939V64.2917H36.3056V66.939C36.3056 67.3172 35.9274 67.6954 35.9274 68.0735C35.5492 68.4517 35.171 68.4517 34.7928 68.4517C34.4147 68.4517 34.4147 68.4517 34.0365 68.4517L33.6583 68.0735L33.2801 67.6954C33.2801 67.3172 33.2801 67.3172 33.2801 67.3172V64.2917H32.5237V66.939C32.5237 67.3172 32.5237 67.6954 32.5237 67.6954C32.1455 67.6954 32.1455 68.0735 32.1455 68.0735C31.7674 68.0735 31.7674 68.0735 31.7674 68.4517C31.3892 68.4517 31.3892 68.4517 31.011 68.4517H29.4983V64.2917H28.7419V68.4517H24.96L26.0946 65.0481L25.7164 64.6699C25.3382 64.6699 24.96 64.2917 24.96 64.2917C24.5818 64.2917 24.2037 63.9135 24.2037 63.9135C23.8255 63.9135 23.4473 63.9135 23.4473 63.9135C23.0691 63.9135 23.0691 63.9135 22.6909 63.9135C22.3127 63.9135 22.3127 64.2917 21.9345 64.2917C21.5564 64.2917 21.5564 64.6699 21.1782 64.6699C20.8 64.6699 20.8 65.0481 20.4218 65.0481L21.9345 68.4517H19.2872V63.9135H18.1527C17.3963 63.9135 17.0181 63.9135 16.64 64.2917C16.2618 64.2917 15.8836 64.2917 15.8836 64.6699C15.5054 65.0481 15.1272 65.0481 15.1272 65.4262C14.749 65.8044 14.749 66.1826 14.749 66.5608C14.749 66.939 14.749 67.3172 15.1272 67.6954C15.1272 68.0735 15.5054 68.4517 15.8836 68.4517C16.2618 68.8299 16.2618 68.8299 16.64 68.8299C17.0181 69.2081 17.7745 69.2081 18.1527 69.2081H18.5309C18.5309 69.5863 18.5309 69.9645 18.1527 70.3426C17.7745 70.3426 17.3963 70.3426 17.0181 70.3426H16.64C16.2618 70.3426 16.2618 70.3426 15.8836 70.3426L15.5054 71.099C15.8836 71.099 16.2618 71.099 16.2618 71.099C16.64 71.099 17.0181 71.099 17.0181 71.099C17.7745 71.099 18.5309 71.099 18.9091 70.7208C18.9091 70.3426 19.2872 69.9645 19.2872 69.2081H31.011C31.3892 69.2081 31.7674 69.2081 32.1455 68.8299C32.5237 68.8299 32.5237 68.4517 32.9019 68.4517C32.9019 68.4517 33.2801 68.8299 33.6583 68.8299C34.0365 69.2081 34.4147 69.2081 34.7928 69.2081C35.171 69.2081 35.5492 69.2081 35.9274 68.8299C36.3056 68.8299 36.6838 68.4517 36.6838 68.4517C36.6838 68.4517 36.6838 68.4517 37.062 68.4517C37.062 68.8299 37.062 68.8299 37.4401 68.8299C37.4401 68.8299 37.4401 69.2081 37.8183 69.2081H38.1965H40.4656V62.4008H39.7093V68.4517Z" fill="#A8A8AA"/>
<path d="M3.40381 63.1572H4.5384V62.4008H3.40381V63.1572Z" fill="#A8A8AA"/>
<path d="M81.3091 63.1572H82.0655V62.4008H81.3091V63.1572Z" fill="#A8A8AA"/>
<path d="M74.5029 69.2083H75.2593V62.4008H74.5029V69.2083Z" fill="#A8A8AA"/>
<path d="M49.5425 63.1572H50.2989V62.4008H49.5425V63.1572Z" fill="#A8A8AA"/>
<path d="M13.6146 66.1823C13.6146 65.8041 13.6146 65.4259 13.6146 65.4259C13.6146 65.0477 13.2364 64.6695 13.2364 64.6695C12.8582 64.2913 12.8582 64.2913 12.48 64.2913C12.1018 63.9131 11.7236 63.9131 11.3454 63.9131H10.9672V64.6695H11.7236H12.1018C12.48 65.0477 12.48 65.0477 12.48 65.0477C12.8582 65.4259 12.8582 65.4259 12.8582 65.4259C12.8582 65.8041 12.8582 65.8041 12.8582 66.1823V68.4515H9.07617V69.2079H13.6146V66.1823Z" fill="#A8A8AA"/>
<path d="M114.969 69.2083H115.725V62.4008H114.969V69.2083Z" fill="#A8A8AA"/>
<path d="M82.4448 63.1572H83.2012V62.4008H82.4448V63.1572Z" fill="#A8A8AA"/>
<path d="M108.539 68.0735C108.539 68.4517 108.539 68.4517 108.161 68.8299C108.161 68.8299 107.783 68.8299 107.405 69.2081C107.405 69.2081 107.027 69.2081 106.649 69.2081C106.649 69.2081 106.27 69.2081 105.892 69.2081C105.892 68.8299 105.514 68.8299 105.514 68.8299C105.136 68.4517 105.136 68.0735 105.136 68.0735C104.758 67.6954 104.758 67.6954 104.758 67.3172C104.758 66.939 104.758 66.5608 105.136 66.5608C105.136 66.1826 105.136 66.1826 105.514 65.8044L105.892 65.4262C106.27 65.4262 106.649 65.0481 106.649 65.0481C107.027 65.0481 107.405 65.4262 107.405 65.4262C107.783 65.4262 108.161 65.8044 108.161 65.8044C108.539 65.8044 108.539 66.1826 108.539 66.5608C108.918 66.5608 108.918 66.939 108.918 67.3172C108.918 67.6954 108.918 67.6954 108.539 68.0735ZM101.354 68.0735C100.976 68.4517 100.976 68.4517 100.598 68.8299C100.598 68.8299 100.219 68.8299 100.219 69.2081C99.8412 69.2081 99.463 69.2081 99.463 69.2081C99.0848 69.2081 98.7067 69.2081 98.7067 69.2081C98.3285 68.8299 97.9503 68.8299 97.9503 68.8299C97.5721 68.4517 97.5721 68.0735 97.5721 68.0735C97.5721 67.6954 97.1939 67.6954 97.1939 67.3172C97.1939 66.939 97.5721 66.5608 97.5721 66.5608C97.5721 66.1826 97.5721 66.1826 97.9503 65.8044C97.9503 65.8044 98.3285 65.4262 98.7067 65.4262C98.7067 65.4262 99.0848 65.0481 99.463 65.0481C99.463 65.0481 99.8412 65.4262 100.219 65.4262L100.598 65.8044C100.976 65.8044 100.976 66.1826 101.354 66.5608C101.354 66.5608 101.354 66.939 101.354 67.3172C101.354 67.6954 101.354 67.6954 101.354 68.0735ZM82.4447 68.4517H81.6883C81.6883 68.4517 81.3101 68.4517 80.9319 68.0735C80.5538 68.0735 80.5538 68.0735 80.1756 68.0735C80.1756 67.6954 79.7974 67.6954 79.7974 67.3172C79.7974 66.939 79.7974 66.939 79.7974 66.5608C79.7974 66.1826 79.7974 66.1826 79.7974 65.8044C80.1756 65.4262 80.1756 65.4262 80.1756 65.0481C80.5538 65.0481 80.9319 65.0481 80.9319 64.6699C81.3101 64.6699 81.6883 64.6699 81.6883 64.6699H82.4447V68.4517ZM112.7 62.4008H111.943V68.4517H109.296C109.674 68.0735 109.674 67.6954 109.674 67.3172C109.674 66.939 109.674 66.5608 109.296 66.1826C109.296 65.8044 108.918 65.4262 108.918 65.4262C108.539 65.0481 108.161 64.6699 107.783 64.6699C107.405 64.6699 107.027 64.2917 106.649 64.2917C106.27 64.2917 105.892 64.6699 105.514 64.6699C105.514 64.6699 105.136 65.0481 104.758 65.4262C104.758 65.4262 104.379 65.8044 104.379 66.1826C104.001 66.5608 104.001 66.939 104.001 67.3172V67.6954C104.001 68.0735 104.379 68.0735 104.379 68.4517H101.732C102.11 68.0735 102.11 67.6954 102.11 67.3172C102.11 66.939 102.11 66.5608 101.732 66.1826C101.732 65.8044 101.732 65.4262 101.354 65.4262C100.976 65.0481 100.598 64.6699 100.598 64.6699C100.219 64.6699 99.8412 64.2917 99.463 64.2917C99.0848 64.2917 98.7067 64.6699 98.3285 64.6699C97.9503 64.6699 97.5721 65.0481 97.5721 65.4262C97.1939 65.4262 96.8157 65.8044 96.8157 66.1826C96.8157 66.5608 96.4375 66.939 96.4375 67.3172C96.4375 67.3172 96.4375 67.6954 96.8157 67.6954C96.8157 68.0735 96.8157 68.0735 96.8157 68.4517H94.5466V62.4008H93.7902V68.4517H91.1429V67.3172C91.1429 66.939 91.1429 66.5608 91.1429 66.1826L90.7648 65.8044C90.3866 65.4262 90.3866 65.4262 90.0084 65.0481C89.6302 65.0481 89.6302 65.0481 89.252 65.0481H85.8484L86.9829 62.4008H86.2265L84.7138 65.0481C84.7138 65.0481 84.7138 65.4262 85.092 65.4262V65.8044H89.252H89.6302C90.0084 65.8044 90.0084 66.1826 90.0084 66.1826C90.3866 66.1826 90.3866 66.5608 90.3866 66.5608C90.3866 66.939 90.3866 66.939 90.3866 67.3172V68.4517H83.2011V63.9135H82.0665C81.6883 63.9135 81.3101 63.9135 80.9319 64.2917C80.5538 64.2917 80.1756 64.2917 79.7974 64.6699C79.4192 65.0481 79.4192 65.0481 79.041 65.4262C79.041 65.8044 79.041 66.1826 79.041 66.5608C79.041 66.939 79.041 67.3172 79.041 67.6954C79.4192 68.0735 79.4192 68.4517 79.7974 68.4517C80.1756 68.8299 80.5538 68.8299 80.9319 68.8299C81.3101 69.2081 81.6883 69.2081 82.0665 69.2081H97.1939C97.5721 69.5863 97.9503 69.5863 98.3285 69.9645C98.7067 69.9645 99.0848 69.9645 99.463 69.9645C99.8412 69.9645 100.219 69.9645 100.598 69.9645C100.976 69.5863 100.976 69.5863 101.354 69.2081H104.758C105.136 69.5863 105.136 69.5863 105.514 69.9645C105.892 69.9645 106.27 69.9645 106.649 69.9645C107.027 69.9645 107.405 69.9645 107.783 69.9645C108.161 69.5863 108.539 69.5863 108.918 69.2081H112.7V62.4008Z" fill="#A8A8AA"/>
<path d="M0.756397 66.5605C0.756397 66.1823 0.756397 66.1823 0.756397 65.8041C1.1346 65.4259 1.1346 65.4259 1.51279 65.0477C1.51279 65.0477 1.89099 65.0477 2.26919 64.6695C2.26919 64.6695 2.64739 64.6695 3.02559 64.6695H3.78199V68.4515H3.02559C2.64739 68.4515 2.26919 68.4515 1.89099 68.0733H1.51279C1.1346 67.6951 1.1346 67.6951 0.756397 67.3169C0.756397 66.9387 0.756397 66.9387 0.756397 66.5605ZM1.89099 68.8297C2.26919 69.2079 2.64739 69.2079 3.02559 69.2079H8.32037V63.9131H7.56397V68.4515H4.53838V63.9131H3.02559C2.64739 63.9131 2.26919 63.9131 1.89099 64.2913C1.51279 64.2913 1.1346 64.2913 0.756397 64.6695C0.756397 65.0477 0.378199 65.0477 0.378199 65.4259C0 65.8041 0 66.1823 0 66.5605C0 66.9387 0 67.3169 0.378199 67.6951C0.378199 68.0733 0.756397 68.4515 1.1346 68.4515C1.1346 68.8297 1.51279 68.8297 1.89099 68.8297Z" fill="#A8A8AA"/>
<path d="M55.5933 70.7205H56.3497V69.9641H55.5933V70.7205Z" fill="#A8A8AA"/>
<path d="M54.458 70.7205H55.2144V69.9641H54.458V70.7205Z" fill="#A8A8AA"/>
<path d="M64.6697 65.4263C65.0479 65.0481 65.4261 65.0481 65.8043 65.0481C65.8043 64.6699 66.1825 64.6699 66.5607 64.6699C66.9389 64.6699 67.3171 64.6699 67.6953 65.0481C68.0735 65.0481 68.4517 65.4263 68.4517 65.4263L67.3171 68.4519H65.8043L64.6697 65.4263ZM62.0223 69.9647C62.4005 69.9647 62.4005 69.5865 62.4005 69.2083H72.2337V62.4008H71.4773V68.4519H68.0735L69.5863 65.0481C69.2081 65.0481 69.2081 64.6699 68.8299 64.6699C68.4517 64.6699 68.4517 64.2918 68.0735 64.2918C67.6953 64.2918 67.6953 63.9136 67.3171 63.9136C66.9389 63.9136 66.9389 63.9136 66.5607 63.9136C66.5607 63.9136 66.1825 63.9136 65.8043 63.9136C65.8043 63.9136 65.4261 64.2918 65.0479 64.2918C65.0479 64.2918 64.6697 64.6699 64.2915 64.6699L63.9133 65.0481L65.0479 68.4519H62.4005V63.9136H61.6441V69.2083C61.6441 69.5865 61.6441 69.5865 61.6441 69.9647C61.6441 69.9647 61.2659 69.9647 61.2659 70.3429C60.8877 70.3429 60.8877 70.3429 60.8877 70.3429H60.5095L60.1313 71.0993C60.5095 71.0993 60.5095 71.0993 60.8877 71.0993C61.2659 71.0993 61.2659 71.0993 61.6441 71.0993L62.0223 70.7211C62.0223 70.7211 62.0223 70.3429 62.0223 69.9647Z" fill="#A8A8AA"/>
<path d="M2.26904 63.1572H3.02544V62.4008H2.26904V63.1572Z" fill="#A8A8AA"/>
<path d="M5.67293 74.1244H4.16014L1.89094 76.7718V74.1244H0.756348V79.7974H1.89094V77.9064L2.64734 77.15L4.53833 79.7974H5.67293L3.40374 76.3936L5.67293 74.1244Z" fill="#A8A8AA"/>
<path d="M6.4292 79.7974H7.5638V74.1244H6.4292V79.7974Z" fill="#A8A8AA"/>
<path d="M12.8582 77.9064L9.83257 74.1244H9.07617V79.7974H9.83257V75.6372L12.8582 79.7974H13.6146V74.1244H12.8582V77.9064Z" fill="#A8A8AA"/>
<path d="M17.7746 77.5282H18.9092V78.2846C18.9092 78.6628 18.1528 79.041 17.7746 79.041C16.64 79.041 15.8836 77.9064 15.8836 76.7718C15.8836 76.0154 16.64 74.8808 17.7746 74.8808C18.531 74.8808 18.9092 75.259 19.2874 75.6372L19.6656 74.8808C19.2874 74.5026 18.531 74.1244 17.7746 74.1244C15.8836 74.1244 14.749 75.259 14.749 76.7718C14.749 78.6628 15.8836 79.7974 17.7746 79.7974C18.531 79.7974 19.6656 79.4192 20.0438 79.041V76.7718H17.7746V77.5282Z" fill="#A8A8AA"/>
<path d="M25.3384 76.7718C25.3384 77.9064 24.582 78.6628 23.4474 78.6628H22.3128V74.8808H23.4474C24.582 74.8808 25.3384 76.0154 25.3384 76.7718ZM23.4474 74.1244H21.1782V79.7974H23.4474C24.9602 79.7974 26.473 78.2846 26.473 76.7718C26.473 75.259 24.9602 74.1244 23.4474 74.1244Z" fill="#A8A8AA"/>
<path d="M31.7684 76.7718C31.7684 77.9064 31.012 79.041 30.2556 79.041C29.121 79.041 28.3646 77.9064 28.3646 76.7718C28.3646 76.0154 29.121 74.8808 30.2556 74.8808C31.012 74.8808 31.7684 76.0154 31.7684 76.7718ZM30.2556 74.1244C28.3646 74.1244 27.23 75.259 27.23 76.7718C27.23 78.2846 28.3646 79.7974 30.2556 79.7974C31.7684 79.7974 32.903 78.2846 32.903 76.7718C32.903 75.259 31.7684 74.1244 30.2556 74.1244Z" fill="#A8A8AA"/>
<path d="M36.684 76.7718L35.1712 74.1244H34.0366V79.7974H35.1712V75.6372L36.684 78.2846L38.575 75.6372V79.7974H39.7096V74.1244H38.575L36.684 76.7718Z" fill="#A8A8AA"/>
<path d="M47.6512 76.7718C47.6512 77.9064 46.8948 79.041 45.7602 79.041C45.0038 79.041 43.8692 77.9064 43.8692 76.7718C43.8692 76.0154 44.6256 74.8808 45.7602 74.8808C46.8948 74.8808 47.6512 76.0154 47.6512 76.7718ZM45.7602 74.1244C44.2474 74.1244 43.1128 75.259 43.1128 76.7718C43.1128 78.2846 44.2474 79.7974 45.7602 79.7974C47.6512 79.7974 48.7858 78.2846 48.7858 76.7718C48.7858 75.259 47.6512 74.1244 45.7602 74.1244Z" fill="#A8A8AA"/>
<path d="M49.9199 79.7974H51.0545V77.5282H53.7019V76.3936H51.0545V74.8808H54.0801V74.1244H49.9199V79.7974Z" fill="#A8A8AA"/>
<path d="M59.7533 76.3936C58.6188 76.3936 58.2406 76.0154 58.2406 75.6372C58.2406 75.259 58.6188 74.8808 58.997 74.8808C59.7533 74.8808 60.1315 75.259 60.5097 75.6372L61.2661 74.8808C60.5097 74.5026 60.1315 74.1244 58.997 74.1244C58.2406 74.1244 57.4842 74.8808 57.4842 75.6372C57.4842 76.7718 57.8624 77.15 58.997 77.15C60.1315 77.5282 60.5097 77.9064 60.5097 78.2846C60.5097 78.6628 60.1315 79.041 59.3751 79.041C58.6188 79.041 58.2406 78.6628 57.4842 78.2846L57.106 78.6628C57.8624 79.4192 58.6188 79.7974 59.3751 79.7974C60.5097 79.7974 61.2661 79.041 61.2661 77.9064C61.2661 77.15 60.8879 76.7718 59.7533 76.3936Z" fill="#A8A8AA"/>
<path d="M63.9135 77.5282L64.6699 75.259L65.8044 77.5282H63.9135ZM64.2917 74.1244L62.0225 79.7974H62.7789L63.5353 78.2846H66.1826L66.5608 79.7974H67.6954L65.0481 74.1244H64.2917Z" fill="#A8A8AA"/>
<path d="M71.8552 77.15C71.8552 78.2846 71.477 78.6628 70.3424 78.6628C69.586 78.6628 69.2078 78.2846 69.2078 77.15V74.1244H68.0732V77.15C68.0732 79.041 69.2078 79.7974 70.3424 79.7974C71.8552 79.7974 72.9898 79.041 72.9898 77.15V74.1244H71.8552V77.15Z" fill="#A8A8AA"/>
<path d="M78.2847 76.7718C78.2847 77.9064 77.5283 78.6628 76.3937 78.6628H75.2591V74.8808H76.3937C77.5283 74.8808 78.2847 76.0154 78.2847 76.7718ZM76.3937 74.1244H74.1245V79.7974H76.3937C77.9065 79.7974 79.0411 78.2846 79.0411 76.7718C79.0411 75.259 77.9065 74.1244 76.3937 74.1244Z" fill="#A8A8AA"/>
<path d="M80.5532 79.7974H81.3096V74.1244H80.5532V79.7974Z" fill="#A8A8AA"/>
<path d="M86.6044 77.5282L87.739 75.259L88.4954 77.5282H86.6044ZM86.9826 74.1244L84.7134 79.7974H85.848L86.2262 78.2846H88.8736L89.2518 79.7974H90.3864L88.1172 74.1244H86.9826Z" fill="#A8A8AA"/>
<path d="M92.2769 76.7718V74.8808H93.7897C94.5461 74.8808 94.9243 75.259 94.9243 76.0154C94.9243 76.3936 94.5461 76.7718 93.7897 76.7718H92.2769ZM95.6807 76.0154C95.6807 75.259 95.6807 74.8808 95.3025 74.8808C94.9243 74.5026 94.5461 74.1244 93.7897 74.1244H91.5205V79.7974H92.2769V77.9064H93.4115L94.9243 79.7974H96.0589L94.5461 77.5282C95.3025 77.5282 95.6807 76.7718 95.6807 76.0154Z" fill="#A8A8AA"/>
<path d="M98.7054 77.5282L99.4618 75.259L100.596 77.5282H98.7054ZM99.0836 74.1244L96.8145 79.7974H97.5709L98.3272 78.2846H100.975L101.353 79.7974H102.487L99.84 74.1244H99.0836Z" fill="#A8A8AA"/>
<path d="M107.026 77.9064C107.026 78.6628 106.648 78.6628 105.892 78.6628H104.379V77.15H105.892C106.648 77.15 107.026 77.5282 107.026 77.9064ZM104.379 74.8808H105.513C106.27 74.8808 106.648 75.259 106.648 75.6372C106.648 76.3936 106.27 76.3936 105.513 76.3936H104.379V74.8808ZM106.648 76.7718C107.404 76.7718 107.404 76.3936 107.404 75.6372C107.404 75.259 107.404 74.8808 107.404 74.5026C107.026 74.5026 106.27 74.1244 105.892 74.1244H103.244V79.7974H105.892C107.026 79.7974 107.783 79.041 107.783 78.2846C107.783 77.5282 107.404 77.15 106.648 76.7718Z" fill="#A8A8AA"/>
<path d="M108.917 79.7974H110.052V74.1244H108.917V79.7974Z" fill="#A8A8AA"/>
<path d="M112.7 77.5282L113.834 75.259L114.591 77.5282H112.7ZM114.212 74.1244H113.456L110.809 79.7974H111.943L112.7 78.2846H114.969L115.725 79.7974H116.86L114.212 74.1244Z" fill="#A8A8AA"/>
</g>
<defs>
<clipPath id="clip0_0_1">
<rect width="1920" height="1697" fill="white" transform="translate(-1192 -1594)"/>
</clipPath>
</defs>
</svg>
