<svg width="135" height="40" viewBox="0 0 135 40" fill="none" xmlns="http://www.w3.org/2000/svg">
<rect width="135" height="40" fill="#1E1E1E"/>
<g clip-path="url(#clip0_0_1)">
<rect width="1920" height="1697" transform="translate(-373 -1495)" fill="white"/>
<rect x="-373" y="-417" width="1920" height="623" fill="#0B3041"/>
<mask id="path-2-inside-1_0_1" fill="white">
<path d="M128.382 1H5.92026C2.81779 1 0.302734 3.51505 0.302734 6.61753V34.1434C0.302734 37.2459 2.81779 39.761 5.92026 39.761H128.382C131.485 39.761 134 37.2459 134 34.1434V6.61753C134 3.51505 131.485 1 128.382 1Z"/>
</mask>
<path d="M128.382 1H5.92026C2.81779 1 0.302734 3.51505 0.302734 6.61753V34.1434C0.302734 37.2459 2.81779 39.761 5.92026 39.761H128.382C131.485 39.761 134 37.2459 134 34.1434V6.61753C134 3.51505 131.485 1 128.382 1Z" stroke="white" stroke-width="2" mask="url(#path-2-inside-1_0_1)"/>
<path d="M128.382 1.28064H5.92015C2.9728 1.28064 0.583496 3.66994 0.583496 6.61729V34.1432C0.583496 37.0905 2.9728 39.4798 5.92015 39.4798H128.382C131.33 39.4798 133.719 37.0905 133.719 34.1432V6.61729C133.719 3.66994 131.33 1.28064 128.382 1.28064Z" stroke="white"/>
<path d="M44.7786 11.9783L44.2286 13.7922H43.022L45.0763 7.39667H46.5666L48.6451 13.7939H47.3907L46.811 11.9783H44.7786ZM46.6099 11.0969L46.1071 9.52009C45.9847 9.13192 45.8824 8.69432 45.7836 8.32525H45.7639C45.6695 8.69376 45.5768 9.14147 45.4622 9.52009L44.9673 11.0969H46.6099Z" fill="white"/>
<path d="M50.3864 9.17297L51.1358 11.5172C51.2678 11.925 51.3605 12.2958 51.4493 12.6744H51.479C51.5639 12.2958 51.6661 11.9351 51.7903 11.5172L52.5318 9.17297H53.7558L51.9897 13.7956H50.8403L49.123 9.17297H50.3864Z" fill="white"/>
<path d="M58.4141 12.6838C58.4065 13.0559 58.4323 13.428 58.4911 13.7955H57.4367L57.3519 13.2832H57.3221C57.1571 13.484 56.948 13.6439 56.711 13.7506C56.474 13.8573 56.2156 13.9078 55.9559 13.8983C55.7688 13.9093 55.5814 13.8818 55.4054 13.8175C55.2293 13.7532 55.0683 13.6534 54.9323 13.5245C54.7963 13.3955 54.6882 13.24 54.6147 13.0675C54.5412 12.8951 54.5038 12.7094 54.5049 12.522C54.5049 11.3648 55.538 10.7654 57.2468 10.7755V10.7019C57.2468 10.3986 57.1244 9.89581 56.3087 9.89581C55.8711 9.89597 55.4415 10.0137 55.065 10.2368L54.8363 9.47786C55.3476 9.19825 55.9233 9.05763 56.5059 9.07003C57.9861 9.07003 58.4158 10.0104 58.4158 11.0238L58.4141 12.6838ZM57.2755 11.5367C56.4497 11.5266 55.661 11.6962 55.661 12.3984C55.6532 12.4878 55.6651 12.5778 55.696 12.6621C55.7268 12.7464 55.7758 12.8229 55.8395 12.8861C55.9032 12.9493 55.9799 12.9978 56.0644 13.0281C56.1489 13.0584 56.239 13.0697 56.3284 13.0613C56.5287 13.0652 56.7252 13.006 56.89 12.8921C57.0549 12.7782 57.1797 12.6153 57.2468 12.4265C57.2713 12.3434 57.2813 12.2568 57.2766 12.1703L57.2755 11.5367Z" fill="white"/>
<path d="M60.646 8.50693C60.5609 8.50995 60.4761 8.49574 60.3967 8.46514C60.3172 8.43454 60.2448 8.38819 60.1837 8.32888C60.1226 8.26957 60.0742 8.19851 60.0413 8.12C60.0084 8.04148 59.9917 7.95712 59.9922 7.87198C59.9927 7.78685 60.0105 7.7027 60.0444 7.6246C60.0782 7.5465 60.1276 7.47606 60.1894 7.41751C60.2512 7.35897 60.3242 7.31352 60.404 7.28392C60.4838 7.25431 60.5688 7.24115 60.6539 7.24524C60.7395 7.24013 60.8252 7.2529 60.9056 7.28274C60.986 7.31257 61.0593 7.35881 61.1209 7.41852C61.1824 7.47822 61.2309 7.55009 61.2632 7.62954C61.2954 7.709 61.3108 7.7943 61.3083 7.88002C61.3097 7.96508 61.2935 8.04952 61.2607 8.12804C61.228 8.20655 61.1794 8.27746 61.1179 8.33631C61.0565 8.39517 60.9836 8.4407 60.9037 8.47006C60.8239 8.49942 60.7388 8.51197 60.6539 8.50693H60.646ZM60.0663 9.17373H61.2353V13.7964H60.0663V9.17373Z" fill="white"/>
<path d="M64.0816 7.04388H62.9126V13.7939H64.0816V7.04388Z" fill="white"/>
<path d="M69.3573 12.6839C69.35 13.0559 69.375 13.4278 69.432 13.7956H68.3799L68.2933 13.2832H68.2636C68.0987 13.4843 67.8895 13.6444 67.6523 13.7511C67.4152 13.8578 67.1567 13.9082 66.8968 13.8984C66.7097 13.9093 66.5223 13.8818 66.3463 13.8175C66.1702 13.7532 66.0092 13.6535 65.8732 13.5245C65.7372 13.3955 65.6291 13.24 65.5556 13.0676C65.4821 12.8952 65.4447 12.7095 65.4458 12.5221C65.4458 11.3649 66.4806 10.7655 68.1877 10.7756V10.702C68.1877 10.3986 68.0653 9.89587 67.2496 9.89587C66.812 9.89631 66.3825 10.0141 66.0059 10.2369L65.7812 9.47793C66.2923 9.1978 66.8681 9.05714 67.4507 9.07009C68.9315 9.07009 69.3607 10.0105 69.3607 11.0239L69.3573 12.6839ZM68.2181 11.5368C67.3923 11.5266 66.6053 11.6963 66.6053 12.3985C66.5972 12.4877 66.6089 12.5776 66.6395 12.6618C66.6701 12.746 66.7188 12.8224 66.7822 12.8857C66.8456 12.9489 66.9222 12.9974 67.0065 13.0278C67.0907 13.0582 67.1806 13.0696 67.2698 13.0613C67.4702 13.0653 67.6667 13.0061 67.8315 12.8922C67.9963 12.7782 68.1212 12.6154 68.1883 12.4266C68.2127 12.3435 68.2228 12.2569 68.2181 12.1704V11.5368Z" fill="white"/>
<path d="M71.0074 7.04388H72.1747V9.80602H72.1943C72.3559 9.56516 72.5773 9.3704 72.8368 9.24081C73.0963 9.11122 73.3849 9.05124 73.6746 9.06676C74.8042 9.06676 75.6104 10.0071 75.6008 11.4126C75.6008 13.0726 74.5481 13.8984 73.5055 13.8984C73.2121 13.913 72.9203 13.8462 72.6626 13.7053C72.4048 13.5645 72.191 13.355 72.0449 13.1001H72.0253L71.9691 13.7939H70.9697C70.9877 13.4804 71.0074 12.9681 71.0074 12.5019V7.04388ZM72.1747 11.8856C72.1743 11.9784 72.1843 12.0709 72.2045 12.1615C72.26 12.3938 72.3921 12.6006 72.5795 12.7487C72.7669 12.8967 72.9987 12.9774 73.2375 12.9777C73.9678 12.9777 74.4172 12.398 74.4172 11.4576C74.4172 10.6414 74.0268 9.9768 73.2482 9.9768C73.0049 9.98252 72.7706 10.0701 72.5832 10.2253C72.3957 10.3805 72.2661 10.5944 72.2151 10.8323C72.1905 10.9316 72.1773 11.0334 72.1758 11.1357L72.1747 11.8856Z" fill="white"/>
<path d="M78.1456 7.04388H76.9766V13.7939H78.1456V7.04388Z" fill="white"/>
<path d="M80.6593 11.8107C80.6657 11.9856 80.7086 12.1572 80.7854 12.3144C80.8621 12.4717 80.9709 12.6112 81.1048 12.7239C81.2386 12.8366 81.3946 12.92 81.5627 12.9688C81.7307 13.0176 81.9071 13.0307 82.0805 13.0072C82.5175 13.0132 82.952 12.9419 83.3641 12.7966L83.5355 13.5948C83.0219 13.7983 82.4733 13.8981 81.921 13.8886C81.6047 13.9179 81.2859 13.878 80.9866 13.7716C80.6873 13.6652 80.4148 13.495 80.188 13.2726C79.9611 13.0503 79.7855 12.7812 79.6731 12.4841C79.5608 12.1871 79.5145 11.8691 79.5375 11.5523C79.5375 10.2726 80.3161 9.06653 81.7968 9.06653C83.2973 9.06653 83.7916 10.3024 83.7916 11.3135C83.7932 11.4793 83.78 11.645 83.7523 11.8084L80.6593 11.8107ZM82.69 10.9945C82.7092 10.856 82.6989 10.715 82.6599 10.5807C82.6208 10.4465 82.5539 10.3219 82.4635 10.2153C82.373 10.1087 82.2611 10.0224 82.135 9.96196C82.0089 9.90155 81.8714 9.86844 81.7317 9.86478C81.443 9.88188 81.1715 10.0081 80.9724 10.2179C80.7733 10.4276 80.6613 10.7052 80.6593 10.9945H82.69Z" fill="white"/>
<path d="M89.5495 13.8984C89.2364 13.9107 88.9243 13.857 88.6334 13.7408C88.3425 13.6246 88.0792 13.4485 87.8608 13.2239C87.6424 12.9993 87.4736 12.7313 87.3655 12.4373C87.2574 12.1432 87.2124 11.8297 87.2334 11.5171C87.2093 11.1942 87.2542 10.8698 87.3652 10.5655C87.4761 10.2612 87.6506 9.98403 87.877 9.7524C88.1033 9.52077 88.3764 9.33998 88.6781 9.22206C88.9797 9.10413 89.303 9.05177 89.6264 9.06846C89.9377 9.05656 90.2479 9.11037 90.537 9.22637C90.826 9.34238 91.0874 9.51798 91.3041 9.74174C91.5207 9.9655 91.6878 10.2324 91.7944 10.525C91.9011 10.8177 91.9448 11.1295 91.9229 11.4402C91.947 11.7611 91.9032 12.0836 91.7942 12.3864C91.6853 12.6893 91.5136 12.9658 91.2905 13.1978C91.0674 13.4298 90.7979 13.6121 90.4995 13.7328C90.2012 13.8536 89.8807 13.91 89.559 13.8984H89.5495ZM89.5871 13.053C90.2517 13.053 90.7168 12.4081 90.7168 11.4683C90.7168 10.747 90.3932 9.91277 89.5972 9.91277C88.7715 9.91277 88.44 10.7189 88.44 11.4857C88.44 12.3766 88.8894 13.0507 89.5776 13.0507L89.5871 13.053Z" fill="white"/>
<path d="M93.2979 10.5489C93.2979 10.0164 93.2782 9.57092 93.2603 9.17264H94.2753L94.3315 9.86472H94.359C94.5158 9.61469 94.7348 9.40977 94.9948 9.2701C95.2547 9.13043 95.5465 9.06083 95.8415 9.06815C96.6476 9.06815 97.4835 9.59058 97.4835 11.0511V13.7914H96.3145V11.1837C96.3145 10.5192 96.0679 10.0164 95.4331 10.0164C95.2288 10.0218 95.0313 10.0906 94.868 10.2135C94.7047 10.3363 94.5838 10.507 94.5219 10.7017C94.483 10.8214 94.464 10.9467 94.4658 11.0725V13.7914H93.2968L93.2979 10.5489Z" fill="white"/>
<path d="M102.863 7.98639V9.17337H103.973V10.0463H102.863V12.0771C102.863 12.6467 103.014 12.9309 103.462 12.9309C103.615 12.938 103.768 12.9221 103.915 12.8838L103.935 13.7668C103.663 13.8545 103.377 13.8958 103.091 13.8887C102.906 13.8985 102.721 13.8698 102.548 13.8047C102.375 13.7395 102.218 13.6392 102.085 13.5101C101.8 13.1405 101.667 12.6754 101.715 12.2108V10.0463H101.06V9.17337H101.715V8.30771L102.863 7.98639Z" fill="white"/>
<path d="M105.274 7.04388H106.442V9.79647H106.461C106.606 9.57579 106.806 9.39654 107.041 9.27629C107.287 9.13783 107.565 9.06581 107.847 9.06732C108.634 9.06732 109.46 9.58975 109.46 11.07V13.7945H108.293V11.1919C108.293 10.5296 108.047 10.0167 107.4 10.0167C107.199 10.0187 107.004 10.0826 106.841 10.1997C106.678 10.3169 106.555 10.4815 106.49 10.6711C106.454 10.7847 106.438 10.9034 106.442 11.0222V13.7939H105.275L105.274 7.04388Z" fill="white"/>
<path d="M111.945 11.8107C111.951 11.9857 111.994 12.1575 112.071 12.3148C112.148 12.4722 112.257 12.6117 112.391 12.7244C112.525 12.8371 112.682 12.9205 112.85 12.9692C113.018 13.0179 113.195 13.0309 113.368 13.0072C113.804 13.0132 114.238 12.9419 114.649 12.7966L114.821 13.5948C114.307 13.7984 113.759 13.8983 113.206 13.8886C112.89 13.9173 112.572 13.877 112.273 13.7704C111.974 13.6638 111.701 13.4935 111.475 13.2713C111.248 13.0491 111.072 12.7803 110.96 12.4835C110.847 12.1867 110.8 11.8689 110.823 11.5523C110.823 10.2726 111.601 9.06653 113.084 9.06653C114.584 9.06653 115.077 10.3024 115.077 11.3135C115.078 11.4793 115.065 11.6448 115.039 11.8084L111.945 11.8107ZM113.975 10.9945C113.995 10.8559 113.985 10.7149 113.946 10.5805C113.907 10.4462 113.84 10.3216 113.749 10.215C113.659 10.1083 113.547 10.022 113.421 9.96161C113.294 9.90126 113.157 9.86826 113.017 9.86478C112.728 9.88188 112.457 10.0081 112.258 10.2179C112.059 10.4276 111.947 10.7052 111.945 10.9945H113.975Z" fill="white"/>
<path d="M30.2556 19.9995C30.2679 19.0388 30.523 18.0968 30.9973 17.2612C31.4717 16.4257 32.1497 15.7237 32.9683 15.2207C32.448 14.4781 31.7618 13.867 30.9642 13.4358C30.1665 13.0046 29.2794 12.7652 28.3731 12.7366C26.4413 12.5355 24.5667 13.8938 23.5825 13.8938C22.5792 13.8938 21.0614 12.7585 19.4289 12.7917C18.3724 12.8254 17.3427 13.1324 16.4403 13.6827C15.5378 14.2331 14.7935 15.008 14.2799 15.9319C12.0559 19.7866 13.7136 25.4502 15.8483 28.5674C16.9156 30.0914 18.1627 31.7947 19.7929 31.7351C21.39 31.6683 21.9871 30.7178 23.9134 30.7178C25.8233 30.7178 26.3851 31.7351 28.0496 31.6975C29.7607 31.6677 30.8392 30.1616 31.8695 28.6241C32.6366 27.537 33.2268 26.3354 33.6182 25.0637C32.623 24.6425 31.7739 23.9377 31.1765 23.0372C30.5791 22.1366 30.26 21.0802 30.2589 19.9995" fill="white"/>
<path d="M27.111 10.6869C28.0464 9.5673 28.5058 8.12578 28.3907 6.67145C26.9643 6.82008 25.6468 7.50231 24.7022 8.58141C24.2388 9.1081 23.8837 9.721 23.6574 10.385C23.4311 11.0491 23.3379 11.7512 23.3832 12.4513C24.0974 12.4574 24.8037 12.3018 25.4493 11.9962C26.0948 11.6907 26.6629 11.243 27.111 10.6869Z" fill="white"/>
<path d="M53.3299 31.4829H51.1059L49.8874 27.6506H45.6529L44.4901 31.4829H42.3257L46.5225 18.4463H49.1128L53.3299 31.4829ZM49.5212 26.0457L48.419 22.6409C48.3005 22.2937 48.082 21.4758 47.7606 20.1844H47.7241C47.5921 20.7422 47.3871 21.5606 47.1034 22.6409L46.0209 26.0457H49.5212Z" fill="white"/>
<path d="M64.1212 26.6659C64.1965 28.0496 63.7322 29.4085 62.8258 30.4566C62.4617 30.8562 62.0163 31.1732 61.5195 31.3864C61.0228 31.5995 60.4861 31.7039 59.9457 31.6925C59.4209 31.7343 58.8947 31.632 58.4239 31.3964C57.9532 31.1609 57.5557 30.8011 57.2746 30.3561H57.2392V35.3113H55.1478V25.1767C55.1478 24.1712 55.1242 23.1421 55.0708 22.0837H56.9083L57.0246 23.574H57.0639C57.38 23.0889 57.8052 22.6845 58.3055 22.393C58.8058 22.1015 59.3673 21.931 59.9452 21.8952C60.5231 21.8594 61.1014 21.9593 61.6339 22.1868C62.1663 22.4143 62.6382 22.7632 63.0117 23.2055C63.7877 24.1874 64.182 25.417 64.1218 26.6671M61.9944 26.744C62.0272 25.9439 61.8113 25.1532 61.3765 24.4807C61.1746 24.187 60.9026 23.9483 60.5852 23.7862C60.2678 23.624 59.915 23.5436 59.5586 23.5521C59.0446 23.5511 58.5469 23.7327 58.1543 24.0645C57.7345 24.4057 57.4438 24.8799 57.3302 25.4087C57.2745 25.6168 57.2428 25.8305 57.2358 26.0458V27.613C57.2172 28.2483 57.4405 28.8669 57.8605 29.3438C58.0638 29.5749 58.3158 29.758 58.5983 29.88C58.8809 30.002 59.187 30.0599 59.4946 30.0494C59.8523 30.0645 60.2081 29.9894 60.5292 29.8309C60.8504 29.6725 61.1264 29.4358 61.3321 29.1427C61.8018 28.4336 62.0324 27.5929 61.9905 26.7435" fill="white"/>
<path d="M74.9303 26.6659C75.0065 28.0497 74.542 29.409 73.6349 30.4566C73.2706 30.8566 72.8248 31.1738 72.3276 31.387C71.8304 31.6002 71.2933 31.7043 70.7525 31.6925C70.2283 31.7341 69.7028 31.6316 69.2326 31.396C68.7625 31.1605 68.3658 30.8009 68.0853 30.3561H68.0505V35.3113H65.9607V25.1767C65.9607 24.1712 65.9349 23.1421 65.8838 22.0837H67.7213L67.8376 23.574H67.8769C68.193 23.0889 68.6182 22.6845 69.1185 22.393C69.6188 22.1015 70.1803 21.931 70.7582 21.8952C71.3361 21.8594 71.9144 21.9593 72.4468 22.1868C72.9793 22.4143 73.4511 22.7632 73.8247 23.2055C74.6 24.1877 74.9935 25.4173 74.9325 26.6671M72.8074 26.744C72.8411 25.9438 72.6252 25.1528 72.1895 24.4807C71.9877 24.1869 71.7158 23.948 71.3983 23.7859C71.0809 23.6237 70.728 23.5434 70.3716 23.5521C69.8576 23.5514 69.36 23.733 68.9673 24.0645C68.5482 24.4059 68.2582 24.8801 68.1454 25.4087C68.0886 25.6173 68.0567 25.8319 68.0505 26.048V27.6153C68.0317 28.2509 68.2559 28.8698 68.6774 29.3461C68.8805 29.5773 69.1325 29.7606 69.4151 29.8826C69.6977 30.0046 70.0039 30.0624 70.3115 30.0516C70.6692 30.0665 71.0249 29.9912 71.346 29.8328C71.6671 29.6744 71.9432 29.4379 72.149 29.1449C72.617 28.4351 72.8475 27.595 72.8074 26.7457" fill="white"/>
<path d="M87.0205 27.8262C87.0377 28.3347 86.9428 28.8408 86.7425 29.3085C86.5423 29.7763 86.2415 30.1942 85.8616 30.5327C84.8634 31.3451 83.5959 31.7518 82.3114 31.672C81.1304 31.7275 79.9579 31.4468 78.9302 30.8625L79.4172 29.121C80.3272 29.6729 81.373 29.9602 82.4372 29.9507C83.0922 29.9911 83.7411 29.8046 84.2747 29.4227C84.4877 29.2528 84.6579 29.0354 84.7719 28.788C84.8858 28.5405 84.9402 28.2698 84.9308 27.9975C84.9366 27.7494 84.8917 27.5026 84.7988 27.2724C84.7059 27.0422 84.5669 26.8334 84.3904 26.6589C83.865 26.2033 83.2516 25.8605 82.5883 25.6516C80.3076 24.8 79.1674 23.5541 79.1678 21.9137C79.1548 21.4126 79.256 20.9151 79.4637 20.4588C79.6713 20.0026 79.9801 19.5995 80.3666 19.2802C81.2694 18.5582 82.4056 18.1921 83.5601 18.2511C84.5813 18.215 85.596 18.427 86.5172 18.869L85.997 20.5706C85.2288 20.1641 84.3702 19.9587 83.5012 19.9734C82.881 19.9347 82.2686 20.1272 81.7822 20.5138C81.6157 20.6616 81.4828 20.8433 81.3927 21.0469C81.3026 21.2504 81.2572 21.4709 81.2598 21.6935C81.2551 21.9377 81.3065 22.1797 81.41 22.4008C81.5135 22.622 81.6664 22.8165 81.8569 22.9693C82.4319 23.4031 83.072 23.7431 83.7534 23.9765C84.6903 24.306 85.538 24.8484 86.2296 25.5612C86.7659 26.1909 87.0484 26.9978 87.0222 27.8245" fill="white"/>
<path d="M93.9245 23.6468H91.6213V28.2105C91.6213 29.3716 92.0252 29.9519 92.8398 29.9519C93.1513 29.9596 93.4625 29.9279 93.7661 29.8575L93.8223 31.4422C93.2993 31.6142 92.7501 31.6923 92.2 31.6731C91.8426 31.6935 91.4851 31.6369 91.1514 31.5074C90.8178 31.3778 90.5158 31.1782 90.2658 30.9221C89.8026 30.4195 89.5706 29.5744 89.5698 28.3869V23.6468H88.1997V22.0795H89.5738V20.3605L91.6242 19.7426V22.0806H93.9273L93.9245 23.6468Z" fill="white"/>
<path d="M104.312 26.7044C104.363 28.0038 103.922 29.2745 103.076 30.2625C102.641 30.7375 102.107 31.1117 101.513 31.359C100.918 31.6062 100.276 31.7205 99.6323 31.6939C99.0153 31.7214 98.3999 31.6125 97.8298 31.375C97.2598 31.1375 96.7491 30.7772 96.3342 30.3198C95.5009 29.364 95.062 28.1273 95.1062 26.86C95.0533 25.5485 95.5064 24.2668 96.3718 23.28C96.8056 22.8137 97.3358 22.4475 97.9254 22.2068C98.515 21.9661 99.15 21.8567 99.7862 21.8862C100.407 21.8613 101.026 21.9714 101.6 22.209C102.174 22.4466 102.69 22.8061 103.112 23.2625C103.935 24.2155 104.364 25.4462 104.312 26.7044ZM102.146 26.7713C102.167 25.9905 101.973 25.2189 101.584 24.5417C101.408 24.1975 101.139 23.9096 100.808 23.711C100.476 23.5123 100.096 23.4109 99.7092 23.4181C99.3168 23.4067 98.9291 23.5061 98.5905 23.7048C98.252 23.9035 97.9762 24.1935 97.7948 24.5417C97.402 25.2326 97.2076 26.0185 97.233 26.8128C97.2108 27.5931 97.4053 28.3643 97.7948 29.0407C97.9783 29.3818 98.2511 29.6666 98.5841 29.8645C98.917 30.0623 99.2975 30.1659 99.6848 30.1641C100.072 30.1622 100.452 30.055 100.783 29.854C101.114 29.6529 101.384 29.3656 101.564 29.0228C101.964 28.3409 102.165 27.5612 102.146 26.7713Z" fill="white"/>
<path d="M111.099 23.919C110.882 23.8806 110.663 23.8618 110.442 23.8628C110.112 23.8479 109.782 23.9163 109.485 24.0616C109.187 24.207 108.931 24.4247 108.739 24.6947C108.375 25.2425 108.192 25.8911 108.217 26.5485V31.4807H106.129L106.147 25.0402C106.147 23.9598 106.122 22.9735 106.07 22.0815H107.89L107.967 23.8791H108.023C108.221 23.2925 108.585 22.7757 109.07 22.3904C109.505 22.064 110.034 21.8867 110.578 21.8849C110.753 21.8842 110.927 21.8967 111.1 21.9225L111.099 23.919Z" fill="white"/>
<path d="M120.44 26.3359C120.444 26.6537 120.419 26.9711 120.365 27.2842H114.1C114.086 27.684 114.16 28.082 114.317 28.4499C114.474 28.8178 114.71 29.1467 115.009 29.4132C115.592 29.8701 116.319 30.1023 117.059 30.0677C117.924 30.0794 118.783 29.9289 119.593 29.6239L119.92 31.0749C118.92 31.4832 117.846 31.6811 116.766 31.6563C116.136 31.6907 115.506 31.5941 114.915 31.3725C114.324 31.1508 113.786 30.8091 113.334 30.3688C112.907 29.9046 112.577 29.3602 112.363 28.7673C112.149 28.1744 112.055 27.5448 112.086 26.9151C112.042 25.6348 112.454 24.3804 113.249 23.3761C113.64 22.8854 114.141 22.4935 114.712 22.2322C115.282 21.9708 115.906 21.8474 116.533 21.8717C117.133 21.8382 117.73 21.9588 118.269 22.2222C118.809 22.4856 119.271 22.8829 119.613 23.3761C120.187 24.2543 120.476 25.2884 120.441 26.3371M118.446 25.7939C118.474 25.2313 118.333 24.6733 118.042 24.1912C117.869 23.909 117.623 23.679 117.33 23.5255C117.036 23.3721 116.707 23.3011 116.377 23.3199C116.051 23.3144 115.729 23.3893 115.439 23.5378C115.149 23.6864 114.901 23.904 114.715 24.1715C114.358 24.6423 114.144 25.2052 114.097 25.7939H118.446Z" fill="white"/>
</g>
<defs>
<clipPath id="clip0_0_1">
<rect width="1920" height="1697" fill="white" transform="translate(-373 -1495)"/>
</clipPath>
</defs>
</svg>
