<svg width="262" height="249" viewBox="0 0 262 249" fill="none" xmlns="http://www.w3.org/2000/svg">
<path d="M130.266 53.354C86.325 53.354 50.7051 86.1631 50.7051 126.633C50.7051 167.103 86.325 199.915 130.266 199.915C137.685 199.915 141.966 199.815 147.103 199.071C150.027 198.649 153.01 199.148 155.638 200.499C158.265 201.85 160.406 203.986 161.764 206.61L167.086 216.874L173.801 203.258C177.718 195.289 182.986 188.06 189.373 181.891C201.595 170.119 206.892 161.146 210.473 139.938C211.094 135.592 211.337 131.2 211.202 126.812C211.205 86.341 174.207 53.354 130.266 53.354ZM102.066 127.983C101.931 130.062 101.199 132.058 99.9586 133.731C98.7182 135.405 97.0217 136.686 95.0721 137.42C93.1226 138.154 91.0029 138.311 88.9666 137.871C86.9303 137.432 85.0637 136.414 83.5907 134.941C82.1177 133.468 81.1005 131.602 80.6609 129.566C80.2213 127.529 80.3781 125.409 81.1123 123.46C81.8465 121.51 83.1271 119.814 84.8008 118.573C86.4744 117.333 88.4703 116.601 90.5491 116.466C92.086 116.372 93.6254 116.606 95.0653 117.151C96.5052 117.697 97.8129 118.542 98.9019 119.63C99.9908 120.719 100.836 122.026 101.382 123.466C101.928 124.906 102.162 126.445 102.069 127.982L102.066 127.983ZM141.766 127.983C141.631 130.062 140.899 132.058 139.659 133.731C138.418 135.405 136.722 136.686 134.772 137.42C132.823 138.154 130.703 138.311 128.667 137.871C126.63 137.432 124.764 136.414 123.291 134.941C121.818 133.468 120.8 131.602 120.361 129.566C119.921 127.529 120.078 125.409 120.812 123.46C121.547 121.51 122.827 119.814 124.501 118.573C126.175 117.333 128.17 116.601 130.249 116.466C131.786 116.372 133.325 116.606 134.765 117.151C136.205 117.697 137.513 118.542 138.602 119.63C139.691 120.719 140.536 122.026 141.082 123.466C141.628 124.906 141.862 126.445 141.769 127.982L141.766 127.983ZM181.466 127.983C181.331 130.062 180.599 132.058 179.359 133.731C178.118 135.405 176.422 136.686 174.472 137.42C172.523 138.154 170.403 138.311 168.366 137.871C166.33 137.432 164.464 136.414 162.991 134.941C161.518 133.468 160.5 131.602 160.061 129.566C159.621 127.529 159.778 125.409 160.512 123.46C161.247 121.51 162.527 119.814 164.201 118.573C165.874 117.333 167.87 116.601 169.949 116.466C171.486 116.372 173.025 116.606 174.465 117.151C175.905 117.697 177.212 118.542 178.301 119.631C179.39 120.719 180.235 122.027 180.781 123.466C181.327 124.906 181.561 126.445 181.468 127.982L181.466 127.983Z" fill="#869006"/>
<path d="M0.0878927 124.988C0.0858052 130.618 1.65455 136.137 4.61768 140.925C7.58081 145.712 11.8208 149.578 16.8608 152.088V97.897C11.8221 100.406 7.58292 104.27 4.61987 109.056C1.65683 113.842 0.0873645 119.359 0.0878927 124.988Z" fill="#869006"/>
<path d="M244.75 97.8931V152.084C249.789 149.574 254.027 145.708 256.99 140.922C259.953 136.136 261.523 130.618 261.523 124.989C261.523 119.359 259.953 113.842 256.99 109.055C254.027 104.269 249.789 100.403 244.75 97.8931Z" fill="#869006"/>
<path d="M244.751 93.995C244.75 91.4068 243.889 88.8924 242.303 86.8469C240.717 84.8015 238.497 83.3409 235.99 82.6949C234.307 78.4709 232.427 74.3543 230.349 70.345C227.678 65.1991 224.671 60.2342 221.349 55.4821C222.2 53.6114 222.506 51.5388 222.233 49.5021C221.959 47.4654 221.117 45.547 219.803 43.967C218.873 42.838 217.914 41.712 216.951 40.619C193.881 14.424 163.097 0 130.264 0C97.4312 0 66.6502 14.425 43.5842 40.616C42.6222 41.708 41.6622 42.834 40.7332 43.962C39.4187 45.5419 38.5763 47.4604 38.3025 49.4973C38.0287 51.5342 38.3346 53.6071 39.1852 55.478C35.8631 60.2311 32.8566 65.1971 30.1852 70.344C28.0365 74.4896 26.1023 78.7429 24.3903 83.087C22.178 83.9279 20.2735 85.4214 18.9296 87.3695C17.5856 89.3176 16.8657 91.6283 16.8652 93.995V155.981C16.866 158.755 17.8548 161.438 19.6545 163.55C21.4542 165.661 23.9471 167.062 26.6862 167.502C32.7175 185.495 43.5654 201.491 58.0508 213.75C72.5361 226.01 90.1047 234.065 108.847 237.039C109.227 240.176 110.727 243.071 113.07 245.19C115.414 247.31 118.444 248.513 121.603 248.577C124.762 248.641 127.839 247.563 130.267 245.54C132.695 243.518 134.311 240.687 134.818 237.568C135.325 234.449 134.69 231.251 133.028 228.563C131.366 225.876 128.79 223.878 125.773 222.938C122.756 221.998 119.501 222.178 116.607 223.446C113.712 224.714 111.373 226.984 110.018 229.839C92.8219 227.015 76.6988 219.627 63.3308 208.447C49.9628 197.268 39.8399 182.706 34.0182 166.28C35.8861 165.285 37.4483 163.801 38.5375 161.987C39.6266 160.173 40.2017 158.096 40.2012 155.98V93.994C40.2029 92.0466 39.7163 90.1298 38.7859 88.4189C37.8554 86.7081 36.5109 85.258 34.8752 84.201C38.1635 76.3472 42.2439 68.8491 47.0532 61.823C47.7941 61.9734 48.5482 62.0491 49.3042 62.049C50.9422 62.0496 52.5599 61.6865 54.0404 60.9857C55.5209 60.285 56.8273 59.2641 57.8652 57.9969C69.2118 43.9604 84.176 33.2889 101.143 27.134C110.497 23.827 120.347 22.1382 130.268 22.14C157.456 22.14 183.846 35.222 202.668 58.032C203.704 59.2907 205.007 60.3038 206.482 60.9984C207.957 61.693 209.568 62.0518 211.198 62.049H211.235C211.991 62.0489 212.744 61.9732 213.484 61.823C218.412 69.0289 222.574 76.7297 225.903 84.8C224.503 85.8884 223.371 87.2828 222.594 88.8765C221.816 90.4701 221.414 92.2208 221.417 93.994V155.98C221.417 159.075 222.647 162.042 224.835 164.23C227.023 166.419 229.991 167.648 233.085 167.648C236.18 167.648 239.148 166.419 241.336 164.23C243.524 162.042 244.753 159.075 244.753 155.98V93.994L244.751 93.995Z" fill="white"/>
</svg>
