<svg width="46" height="46" viewBox="0 0 46 46" fill="none" xmlns="http://www.w3.org/2000/svg">
<rect width="46" height="46" fill="#1E1E1E"/>
<g clip-path="url(#clip0_0_1)">
<rect width="1920" height="1697" transform="translate(-225 -1611)" fill="white"/>
<rect x="-225" y="-533" width="1920" height="623" fill="#0B3041"/>
<path d="M22.667 45.334C35.1856 45.334 45.334 35.1856 45.334 22.667C45.334 10.1484 35.1856 0 22.667 0C10.1484 0 0 10.1484 0 22.667C0 35.1856 10.1484 45.334 22.667 45.334Z" fill="white"/>
<path d="M22.8762 9.75598C20.2704 9.75598 17.7232 10.5287 15.5565 11.9764C13.3899 13.4241 11.7012 15.4817 10.7041 17.8891C9.70688 20.2965 9.44597 22.9456 9.95433 25.5013C10.4627 28.057 11.7175 30.4046 13.56 32.2471C15.4026 34.0897 17.7502 35.3445 20.3059 35.8528C22.8616 36.3612 25.5106 36.1003 27.918 35.1031C30.3254 34.1059 32.3831 32.4172 33.8308 30.2506C35.2785 28.084 36.0512 25.5368 36.0512 22.931C36.0472 19.438 34.6579 16.0892 32.1879 13.6192C29.718 11.1493 26.3692 9.75995 22.8762 9.75598ZM26.1522 23.395H24.0092V31.035H20.8332V23.395H19.3232V20.695H20.8332V18.948C20.7991 18.5184 20.8587 18.0866 21.0077 17.6823C21.1568 17.278 21.3917 16.9109 21.6964 16.6062C22.0011 16.3015 22.3682 16.0666 22.7725 15.9175C23.1768 15.7685 23.6086 15.7089 24.0382 15.743L26.3922 15.756V18.373H24.6832C24.588 18.3682 24.493 18.3846 24.4049 18.4208C24.3168 18.457 24.2377 18.5123 24.1734 18.5826C24.1091 18.6529 24.0612 18.7365 24.033 18.8275C24.0047 18.9185 23.997 19.0146 24.0102 19.109V20.696H26.4302L26.1522 23.395Z" fill="#869006"/>
</g>
<defs>
<clipPath id="clip0_0_1">
<rect width="1920" height="1697" fill="white" transform="translate(-225 -1611)"/>
</clipPath>
</defs>
</svg>
