<svg width="28" height="28" viewBox="0 0 28 28" fill="none" xmlns="http://www.w3.org/2000/svg">
<path d="M13.8762 0.755859C11.2704 0.755859 8.72316 1.52856 6.55654 2.97625C4.38992 4.42393 2.70125 6.48159 1.70406 8.889C0.70688 11.2964 0.445971 13.9455 0.954332 16.5012C1.46269 19.0569 2.71749 21.4044 4.56005 23.247C6.4026 25.0895 8.75016 26.3443 11.3059 26.8527C13.8616 27.3611 16.5106 27.1002 18.918 26.103C21.3254 25.1058 23.3831 23.4171 24.8308 21.2505C26.2785 19.0839 27.0512 16.5366 27.0512 13.9309C27.0472 10.4379 25.6579 7.08904 23.1879 4.61911C20.718 2.14918 17.3692 0.759829 13.8762 0.755859ZM17.1522 14.3949H15.0092V22.0349H11.8332V14.3949H10.3232V11.6949H11.8332V9.94786C11.7991 9.51832 11.8587 9.08651 12.0077 8.68221C12.1568 8.27792 12.3917 7.91076 12.6964 7.60608C13.0011 7.3014 13.3682 7.06644 13.7725 6.91741C14.1768 6.76838 14.6086 6.70882 15.0382 6.74286L17.3922 6.75586V9.37286H15.6832C15.588 9.36811 15.493 9.38443 15.4049 9.42066C15.3168 9.45689 15.2377 9.51214 15.1734 9.58245C15.1091 9.65276 15.0612 9.7364 15.033 9.8274C15.0047 9.9184 14.997 10.0145 15.0102 10.1089V11.6959H17.4302L17.1522 14.3949Z" fill="#869006"/>
</svg>
