<svg width="135" height="41" viewBox="0 0 135 41" fill="none" xmlns="http://www.w3.org/2000/svg">
<rect width="135" height="41" fill="#1E1E1E"/>
<g clip-path="url(#clip0_0_1)">
<rect width="1920" height="1697" transform="translate(-224 -1495)" fill="white"/>
<rect x="-224" y="-417" width="1920" height="623" fill="#0B3041"/>
<mask id="path-2-inside-1_0_1" fill="white">
<path d="M129.08 1.11493H6.61753C3.51505 1.11493 1 3.62998 1 6.73246V34.2584C1 37.3608 3.51505 39.8759 6.61753 39.8759H129.08C132.182 39.8759 134.697 37.3608 134.697 34.2584V6.73246C134.697 3.62998 132.182 1.11493 129.08 1.11493Z"/>
</mask>
<path d="M129.08 1.11493H6.61753C3.51505 1.11493 1 3.62998 1 6.73246V34.2584C1 37.3608 3.51505 39.8759 6.61753 39.8759H129.08C132.182 39.8759 134.697 37.3608 134.697 34.2584V6.73246C134.697 3.62998 132.182 1.11493 129.08 1.11493Z" stroke="white" stroke-width="2" mask="url(#path-2-inside-1_0_1)"/>
<path d="M129.08 1.39581H6.61741C3.67006 1.39581 1.28076 3.78511 1.28076 6.73247V34.2584C1.28076 37.2057 3.67006 39.595 6.61741 39.595H129.08C132.027 39.595 134.416 37.2057 134.416 34.2584V6.73247C134.416 3.78511 132.027 1.39581 129.08 1.39581Z" stroke="white"/>
<path d="M67.9957 22.3352C67.1743 22.3389 66.3724 22.5858 65.6912 23.0448C65.0101 23.5038 64.4802 24.1543 64.1684 24.9142C63.8566 25.6741 63.7769 26.5093 63.9394 27.3145C64.1019 28.1196 64.4992 28.8586 65.0813 29.4381C65.6634 30.0176 66.4042 30.4117 67.21 30.5706C68.0159 30.7295 68.8508 30.6461 69.6093 30.3309C70.3678 30.0158 71.0159 29.4829 71.4719 28.7997C71.9278 28.1165 72.1712 27.3136 72.1712 26.4922C72.1788 25.9426 72.0759 25.3971 71.8685 24.8881C71.6611 24.3791 71.3535 23.917 70.964 23.5292C70.5745 23.1414 70.111 22.8359 69.6011 22.6308C69.0912 22.4257 68.5452 22.3252 67.9957 22.3352ZM67.9957 29.0161C67.6747 29.0087 67.3585 28.9372 67.0656 28.8056C66.7727 28.6741 66.5091 28.4854 66.2903 28.2504C66.0715 28.0155 65.9019 27.7392 65.7915 27.4377C65.6811 27.1362 65.6322 26.8157 65.6475 26.495C65.6253 26.1731 65.6694 25.8501 65.7773 25.546C65.8851 25.242 66.0544 24.9633 66.2745 24.7274C66.4946 24.4916 66.7609 24.3035 67.0568 24.1749C67.3527 24.0463 67.6719 23.9799 67.9945 23.9799C68.3172 23.9799 68.6364 24.0463 68.9323 24.1749C69.2282 24.3035 69.4945 24.4916 69.7146 24.7274C69.9347 24.9633 70.104 25.242 70.2118 25.546C70.3197 25.8501 70.3638 26.1731 70.3415 26.495C70.3572 26.8156 70.3084 27.136 70.1983 27.4374C70.0881 27.7389 69.9187 28.0152 69.7001 28.2501C69.4815 28.4851 69.2181 28.6739 68.9253 28.8055C68.6326 28.937 68.3165 29.0087 67.9957 29.0161ZM58.888 22.3352C58.0665 22.3384 57.2644 22.585 56.5829 23.0437C55.9015 23.5024 55.3712 24.1528 55.0591 24.9126C54.7469 25.6725 54.6669 26.5078 54.8292 27.3131C54.9914 28.1184 55.3886 28.8576 55.9706 29.4373C56.5526 30.0171 57.2933 30.4114 58.0992 30.5704C58.9052 30.7295 59.7402 30.6463 60.4988 30.3312C61.2574 30.016 61.9057 29.4832 62.3618 28.8C62.8178 28.1167 63.0612 27.3137 63.0612 26.4922C63.0688 25.9428 62.966 25.3975 62.7587 24.8886C62.5515 24.3798 62.2441 23.9178 61.8548 23.53C61.4656 23.1423 61.0024 22.8367 60.4927 22.6314C59.983 22.4262 59.4373 22.3255 58.888 22.3352ZM58.888 29.0161C58.5669 29.0087 58.2506 28.9372 57.9577 28.8057C57.6647 28.6742 57.401 28.4854 57.182 28.2505C56.9631 28.0156 56.7933 27.7393 56.6827 27.4378C56.5722 27.1363 56.523 26.8158 56.5382 26.495C56.5153 26.1727 56.559 25.8491 56.6667 25.5444C56.7743 25.2398 56.9435 24.9605 57.1638 24.7241C57.384 24.4876 57.6506 24.2991 57.9469 24.1702C58.2432 24.0413 58.5629 23.9747 58.886 23.9747C59.2091 23.9747 59.5288 24.0413 59.8251 24.1702C60.1214 24.2991 60.388 24.4876 60.6082 24.7241C60.8285 24.9605 60.9977 25.2398 61.1053 25.5444C61.213 25.8491 61.2567 26.1727 61.2338 26.495C61.2493 26.8155 61.2005 27.1359 61.0903 27.4372C60.98 27.7386 60.8107 28.0149 60.5921 28.2498C60.3735 28.4847 60.1101 28.6735 59.8174 28.8052C59.5248 28.9368 59.2088 29.0085 58.888 29.0161ZM48.0512 23.6104V25.3766H52.2739C52.2123 26.2039 51.8742 26.9865 51.3139 27.5983C50.8902 28.0293 50.3811 28.3669 49.8192 28.5894C49.2573 28.812 48.6551 28.9144 48.0512 28.8903C47.4375 28.8902 46.83 28.7682 46.2638 28.5314C45.6977 28.2946 45.1842 27.9478 44.7532 27.5109C44.3222 27.0741 43.9823 26.556 43.7531 25.9867C43.524 25.4174 43.4102 24.8082 43.4184 24.1946C43.4104 23.581 43.5243 22.972 43.7535 22.4028C43.9826 21.8335 44.3226 21.3155 44.7536 20.8787C45.1845 20.4419 45.6979 20.095 46.264 19.8581C46.8301 19.6213 47.4376 19.4992 48.0512 19.4989C49.2365 19.4838 50.3799 19.937 51.233 20.7601L52.4767 19.5141C51.8942 18.9377 51.2026 18.4834 50.4423 18.1777C49.682 17.872 48.8683 17.7211 48.0489 17.7339C46.3266 17.7326 44.6731 18.4098 43.4466 19.619C42.22 20.8282 41.5193 22.4719 41.4961 24.1941C41.5193 25.9162 42.22 27.5599 43.4466 28.7691C44.6731 29.9783 46.3266 30.6556 48.0489 30.6542C48.8858 30.6893 49.7206 30.5461 50.4979 30.2341C51.2752 29.922 51.9773 29.4483 52.5576 28.8443C53.5876 27.7211 54.1361 26.239 54.0855 24.7159C54.0906 24.3458 54.059 23.976 53.9912 23.6121L48.0512 23.6104ZM92.3639 24.9805C92.1138 24.2274 91.6379 23.5695 91.001 23.0961C90.364 22.6228 89.5968 22.3569 88.8036 22.3347C88.2692 22.3379 87.7411 22.4494 87.2511 22.6624C86.7611 22.8755 86.3193 23.1856 85.9525 23.5741C85.5856 23.9626 85.3013 24.4215 85.1168 24.9229C84.9322 25.4244 84.8512 25.958 84.8786 26.4916C84.8671 27.0384 84.9658 27.5819 85.1689 28.0897C85.3721 28.5975 85.6754 29.0591 86.0609 29.4471C86.4463 29.8351 86.906 30.1414 87.4125 30.3479C87.9189 30.5543 88.4618 30.6566 89.0086 30.6486C89.6938 30.6528 90.3692 30.4865 90.9741 30.1648C91.5791 29.843 92.0945 29.3759 92.4741 28.8055L91.0567 27.8595C90.8443 28.2124 90.5439 28.504 90.1848 28.7058C89.8258 28.9076 89.4205 29.0126 89.0086 29.0105C88.585 29.0265 88.1664 28.915 87.8069 28.6904C87.4474 28.4659 87.1635 28.1387 86.9919 27.7511L92.5533 25.4479L92.3639 24.9805ZM86.6902 26.3686C86.671 26.0657 86.7123 25.7621 86.8117 25.4754C86.9111 25.1886 87.0666 24.9246 87.2692 24.6987C87.4718 24.4727 87.7174 24.2894 87.9917 24.1595C88.2659 24.0295 88.5633 23.9556 88.8665 23.9418C89.1821 23.9211 89.4968 23.9937 89.7714 24.1508C90.0459 24.3078 90.2681 24.5423 90.4102 24.8249L86.6902 26.3686ZM82.1681 30.402H83.9978V18.1754H82.1676L82.1681 30.402ZM79.1751 23.2638H79.1139C78.8355 22.9624 78.4961 22.7238 78.1184 22.5637C77.7407 22.4036 77.3332 22.3257 76.923 22.3352C75.85 22.3802 74.8359 22.8381 74.0926 23.6132C73.3492 24.3884 72.9342 25.4208 72.9342 26.4947C72.9342 27.5687 73.3492 28.6011 74.0926 29.3762C74.8359 30.1514 75.85 30.6093 76.923 30.6542C77.3349 30.6653 77.7442 30.5866 78.1225 30.4235C78.5009 30.2604 78.8392 30.0169 79.1139 29.7099H79.1751V30.3093C79.1751 31.8985 78.3252 32.7501 76.9534 32.7501C76.4966 32.739 76.0535 32.5922 75.6804 32.3285C75.3073 32.0648 75.021 31.6962 74.858 31.2693L73.2672 31.9339C73.5673 32.6638 74.0784 33.2874 74.7351 33.7251C75.3918 34.1627 76.1642 34.3944 76.9534 34.3904C79.0982 34.3904 80.9098 33.131 80.9098 30.0593V22.588H79.1751V23.2638ZM77.0798 29.0161C76.7622 29.0069 76.4497 28.9344 76.1606 28.8028C75.8715 28.6712 75.6115 28.4832 75.396 28.2499C75.1804 28.0166 75.0136 27.7425 74.9053 27.4439C74.797 27.1453 74.7494 26.828 74.7654 26.5107C74.7477 26.1916 74.7938 25.8721 74.9011 25.571C75.0084 25.2699 75.1747 24.9932 75.3902 24.7571C75.6057 24.521 75.8661 24.3303 76.1562 24.1961C76.4464 24.0619 76.7603 23.9869 77.0798 23.9755C78.3257 23.9755 79.3015 25.0462 79.3015 26.5107C79.3015 27.9595 78.3257 29.0161 77.0798 29.0161ZM100.926 18.1743H96.5529V30.402H98.3764V25.7715H100.926C101.439 25.7893 101.951 25.7048 102.432 25.5228C102.913 25.3409 103.353 25.0651 103.726 24.7116C104.099 24.3581 104.398 23.9339 104.606 23.4638C104.813 22.9936 104.925 22.4868 104.935 21.9729C104.926 21.459 104.814 20.9521 104.606 20.4819C104.399 20.0116 104.1 19.5875 103.726 19.234C103.353 18.8806 102.913 18.605 102.432 18.4234C101.952 18.2417 101.439 18.1576 100.926 18.176M100.973 24.0705H98.3764V19.8787H100.973C101.251 19.8741 101.527 19.925 101.785 20.0282C102.044 20.1315 102.279 20.2851 102.477 20.4802C102.675 20.6752 102.833 20.9078 102.94 21.1643C103.048 21.4208 103.103 21.6962 103.103 21.9743C103.103 22.2524 103.048 22.5278 102.94 22.7843C102.833 23.0408 102.675 23.2734 102.477 23.4684C102.279 23.6634 102.044 23.8171 101.785 23.9204C101.527 24.0236 101.251 24.0745 100.973 24.0699M112.251 22.3133C111.585 22.2739 110.922 22.43 110.343 22.7623C109.764 23.0946 109.295 23.5887 108.993 24.1839L110.614 24.8581C110.775 24.563 111.018 24.3212 111.314 24.1622C111.61 24.0033 111.947 23.9341 112.281 23.9632C113.224 23.9632 114.186 24.5289 114.2 25.5361V25.6602C113.613 25.3498 112.959 25.1892 112.296 25.1929C110.549 25.1929 108.773 26.1512 108.773 27.9454C108.773 29.5796 110.204 30.6362 111.806 30.6362C112.266 30.6631 112.724 30.5662 113.133 30.3558C113.542 30.1453 113.887 29.829 114.132 29.4397H114.195V30.384H115.958V25.6945C115.958 23.5239 114.337 22.3139 112.246 22.3139M112.03 29.0128C111.433 29.0128 110.599 28.715 110.599 27.9758C110.599 27.0315 111.638 26.6708 112.535 26.6708C113.116 26.6556 113.692 26.7964 114.2 27.0787C114.134 27.609 113.877 28.0973 113.478 28.4529C113.079 28.8085 112.565 29.0074 112.03 29.0128ZM122.381 22.5824L120.288 27.8814H120.225L118.056 22.5824H116.09L119.348 29.9891L117.491 34.1112H119.394L124.413 22.5824H122.381ZM105.943 30.402H107.768V18.1754H105.943V30.402Z" fill="white"/>
<path d="M11.5631 8.44389C11.2432 8.82674 11.0823 9.31775 11.1137 9.81569V31.4286C11.0823 31.9265 11.2432 32.4175 11.5631 32.8004L11.6339 32.8712L23.7419 20.7654V20.4778L11.6339 8.37311L11.5631 8.44389Z" fill="#9BA519"/>
<path d="M27.7759 24.8034L23.7402 20.7655V20.4796L27.7776 16.4445L27.868 16.494L32.6485 19.2123C34.0147 19.9892 34.0147 21.2565 32.6485 22.0334L27.868 24.75L27.7759 24.8034Z" fill="#9BA519"/>
<path d="M27.8679 24.7476L23.7396 20.6193L11.5625 32.8003C12.0119 33.2756 12.7551 33.3345 13.5932 32.8593L27.8679 24.7476Z" fill="white"/>
<path d="M27.8679 16.4931L13.5927 8.38479C12.7551 7.90786 12.0119 7.96685 11.5625 8.44097L23.7396 20.6215L27.8679 16.4931Z" fill="white"/>
<path d="M46.1942 9.13423C45.8131 8.79269 45.32 8.60263 44.8083 8.60001C44.5226 8.60378 44.2405 8.66424 43.9784 8.77789C43.7162 8.89154 43.4792 9.05611 43.2812 9.26205C43.0831 9.468 42.9279 9.71122 42.8246 9.9776C42.7213 10.244 42.6719 10.5282 42.6793 10.8139C42.6721 11.099 42.7217 11.3826 42.8253 11.6483C42.9288 11.9141 43.0841 12.1565 43.2823 12.3616C43.4804 12.5667 43.7174 12.7303 43.9794 12.843C44.2414 12.9556 44.5232 13.015 44.8083 13.0176C45.0318 13.0406 45.2576 13.0183 45.4722 12.952C45.6868 12.8857 45.8858 12.7768 46.0574 12.6318C46.2289 12.4868 46.3695 12.3086 46.4706 12.108C46.5717 11.9075 46.6313 11.6885 46.6458 11.4644H45.0055V10.7903H47.5334C47.5334 12.8126 46.4571 13.7676 44.8111 13.7676C44.4259 13.7673 44.0446 13.6905 43.6893 13.5417C43.3341 13.3929 43.0119 13.1749 42.7415 12.9005C42.4712 12.6262 42.258 12.3008 42.1145 11.9434C41.9709 11.5859 41.8997 11.2035 41.9052 10.8184C41.8988 10.4327 41.9693 10.0496 42.1125 9.69147C42.2557 9.33331 42.4687 9.00723 42.7392 8.73222C43.0096 8.45721 43.3321 8.23878 43.6878 8.08964C44.0436 7.9405 44.4254 7.86365 44.8111 7.86355C45.5322 7.86063 46.2276 8.13123 46.757 8.62079L46.1942 9.13423Z" fill="white"/>
<path d="M52.0004 7.92273V8.6502H49.3686V10.4877H51.6651V11.2152H49.3686V12.9532H52.083V13.6785H48.5923V7.92273H52.0004Z" fill="white"/>
<path d="M57.035 7.92273V8.65806H55.2908V13.6773H54.5043V8.65806H52.7612V7.92273H57.035Z" fill="white"/>
<path d="M60.762 7.92218H59.9834V13.6768H60.762V7.92218Z" fill="white"/>
<path d="M66.0558 7.92273V8.65806H64.3094V13.6773H63.5268V8.65806H61.7798V7.92273H66.0558Z" fill="white"/>
<path d="M71.536 7.85694C71.9226 7.85631 72.3055 7.93256 72.6624 8.08125C73.0193 8.22994 73.3431 8.4481 73.6149 8.72306C73.8867 8.99801 74.1011 9.32426 74.2457 9.68284C74.3903 10.0414 74.4622 10.4252 74.4571 10.8118C74.4625 11.1979 74.391 11.5813 74.247 11.9396C74.1029 12.2979 73.8891 12.6241 73.6179 12.899C73.3467 13.174 73.0236 13.3924 72.6673 13.5414C72.311 13.6904 71.9286 13.7672 71.5424 13.7672C71.1562 13.7672 70.7739 13.6904 70.4176 13.5414C70.0613 13.3924 69.7382 13.174 69.467 12.899C69.1958 12.6241 68.982 12.2979 68.8379 11.9396C68.6939 11.5813 68.6224 11.1979 68.6278 10.8118C68.6218 10.4261 68.6926 10.043 68.836 9.68491C68.9795 9.32681 69.1927 9.0008 69.4632 8.72585C69.7338 8.45089 70.0563 8.23248 70.4121 8.08331C70.7678 7.93414 71.1502 7.85719 71.536 7.85694ZM71.5354 13.0082C71.8206 13.0071 72.1027 12.9491 72.3652 12.8376C72.6277 12.7261 72.8653 12.5633 73.0641 12.3588C73.2629 12.1543 73.4189 11.9122 73.523 11.6466C73.627 11.3811 73.677 11.0974 73.6701 10.8123C73.6815 10.5251 73.6348 10.2385 73.5327 9.96975C73.4307 9.701 73.2754 9.45564 73.0762 9.24837C72.877 9.0411 72.638 8.8762 72.3736 8.76356C72.1091 8.65092 71.8246 8.59285 71.5371 8.59285C71.2496 8.59285 70.9651 8.65092 70.7007 8.76356C70.4362 8.8762 70.1972 9.0411 69.998 9.24837C69.7988 9.45564 69.6435 9.701 69.5415 9.96975C69.4394 10.2385 69.3927 10.5251 69.4041 10.8123C69.397 11.097 69.4466 11.3803 69.5502 11.6456C69.6539 11.9109 69.8093 12.1528 70.0076 12.3573C70.2058 12.5618 70.4429 12.7246 70.7048 12.8364C70.9668 12.9482 71.2484 13.0066 71.5332 13.0082" fill="white"/>
<path d="M79.0511 13.6768L76.4311 9.34398V13.6768H75.6548V7.92218H76.4238L79.018 12.2224V7.92218H79.7966V13.6768H79.0511Z" fill="white"/>
</g>
<defs>
<clipPath id="clip0_0_1">
<rect width="1920" height="1697" fill="white" transform="translate(-224 -1495)"/>
</clipPath>
</defs>
</svg>
