<svg width="22" height="22" viewBox="0 0 22 22" fill="none" xmlns="http://www.w3.org/2000/svg">
<path d="M6.41674 0H3.66671C2.69424 0 1.7616 0.386313 1.07395 1.07395C0.386313 1.7616 0 2.69424 0 3.66671L0 6.41674C0 7.38921 0.386313 8.32186 1.07395 9.0095C1.7616 9.69714 2.69424 10.0835 3.66671 10.0835H6.41674C7.38921 10.0835 8.32186 9.69714 9.0095 9.0095C9.69714 8.32186 10.0835 7.38921 10.0835 6.41674V3.66671C10.0835 2.69424 9.69714 1.7616 9.0095 1.07395C8.32186 0.386313 7.38921 0 6.41674 0ZM8.2501 6.41674C8.2501 6.90298 8.05694 7.3693 7.71312 7.71312C7.3693 8.05694 6.90298 8.2501 6.41674 8.2501H3.66671C3.18047 8.2501 2.71415 8.05694 2.37033 7.71312C2.02651 7.3693 1.83335 6.90298 1.83335 6.41674V3.66671C1.83335 3.18047 2.02651 2.71415 2.37033 2.37033C2.71415 2.02651 3.18047 1.83335 3.66671 1.83335H6.41674C6.90298 1.83335 7.3693 2.02651 7.71312 2.37033C8.05694 2.71415 8.2501 3.18047 8.2501 3.66671V6.41674Z" fill="#0B3041"/>
<path d="M18.3335 0H15.5835C14.611 0 13.6783 0.386313 12.9907 1.07395C12.3031 1.7616 11.9167 2.69424 11.9167 3.66671V6.41674C11.9167 7.38921 12.3031 8.32186 12.9907 9.0095C13.6783 9.69714 14.611 10.0835 15.5835 10.0835H18.3335C19.306 10.0835 20.2386 9.69714 20.9262 9.0095C21.6139 8.32186 22.0002 7.38921 22.0002 6.41674V3.66671C22.0002 2.69424 21.6139 1.7616 20.9262 1.07395C20.2386 0.386313 19.306 0 18.3335 0ZM20.1668 6.41674C20.1668 6.90298 19.9737 7.3693 19.6299 7.71312C19.286 8.05694 18.8197 8.2501 18.3335 8.2501H15.5835C15.0972 8.2501 14.6309 8.05694 14.2871 7.71312C13.9433 7.3693 13.7501 6.90298 13.7501 6.41674V3.66671C13.7501 3.18047 13.9433 2.71415 14.2871 2.37033C14.6309 2.02651 15.0972 1.83335 15.5835 1.83335H18.3335C18.8197 1.83335 19.286 2.02651 19.6299 2.37033C19.9737 2.71415 20.1668 3.18047 20.1668 3.66671V6.41674Z" fill="#0B3041"/>
<path d="M6.41674 11.917H3.66671C2.69424 11.917 1.7616 12.3033 1.07395 12.9909C0.386313 13.6786 0 14.6112 0 15.5837L0 18.3337C0 19.3062 0.386313 20.2388 1.07395 20.9265C1.7616 21.6141 2.69424 22.0004 3.66671 22.0004H6.41674C7.38921 22.0004 8.32186 21.6141 9.0095 20.9265C9.69714 20.2388 10.0835 19.3062 10.0835 18.3337V15.5837C10.0835 14.6112 9.69714 13.6786 9.0095 12.9909C8.32186 12.3033 7.38921 11.917 6.41674 11.917ZM8.2501 18.3337C8.2501 18.82 8.05694 19.2863 7.71312 19.6301C7.3693 19.9739 6.90298 20.1671 6.41674 20.1671H3.66671C3.18047 20.1671 2.71415 19.9739 2.37033 19.6301C2.02651 19.2863 1.83335 18.82 1.83335 18.3337V15.5837C1.83335 15.0975 2.02651 14.6311 2.37033 14.2873C2.71415 13.9435 3.18047 13.7503 3.66671 13.7503H6.41674C6.90298 13.7503 7.3693 13.9435 7.71312 14.2873C8.05694 14.6311 8.2501 15.0975 8.2501 15.5837V18.3337Z" fill="#0B3041"/>
<path d="M18.3335 11.917H15.5835C14.611 11.917 13.6783 12.3033 12.9907 12.9909C12.3031 13.6786 11.9167 14.6112 11.9167 15.5837V18.3337C11.9167 19.3062 12.3031 20.2388 12.9907 20.9265C13.6783 21.6141 14.611 22.0004 15.5835 22.0004H18.3335C19.306 22.0004 20.2386 21.6141 20.9262 20.9265C21.6139 20.2388 22.0002 19.3062 22.0002 18.3337V15.5837C22.0002 14.6112 21.6139 13.6786 20.9262 12.9909C20.2386 12.3033 19.306 11.917 18.3335 11.917ZM20.1668 18.3337C20.1668 18.82 19.9737 19.2863 19.6299 19.6301C19.286 19.9739 18.8197 20.1671 18.3335 20.1671H15.5835C15.0972 20.1671 14.6309 19.9739 14.2871 19.6301C13.9433 19.2863 13.7501 18.82 13.7501 18.3337V15.5837C13.7501 15.0975 13.9433 14.6311 14.2871 14.2873C14.6309 13.9435 15.0972 13.7503 15.5835 13.7503H18.3335C18.8197 13.7503 19.286 13.9435 19.6299 14.2873C19.9737 14.6311 20.1668 15.0975 20.1668 15.5837V18.3337Z" fill="#0B3041"/>
</svg>
