<svg width="21" height="24" viewBox="0 0 21 24" fill="none" xmlns="http://www.w3.org/2000/svg">
<path d="M20.5 13.681V18.675C20.5001 19.2011 20.3966 19.7221 20.1953 20.2082C19.9941 20.6943 19.699 21.1359 19.327 21.508C18.9549 21.88 18.5133 22.175 18.0272 22.3763C17.5411 22.5776 17.0201 22.6811 16.494 22.681H4.50601C3.9799 22.6811 3.4589 22.5776 2.97281 22.3763C2.48672 22.175 2.04505 21.88 1.67303 21.508C1.30102 21.1359 1.00593 20.6943 0.804657 20.2082C0.603383 19.7221 0.499869 19.2011 0.5 18.675V13.681" stroke="#CCCCCC" stroke-linecap="round" stroke-linejoin="round"/>
<path d="M0.5 9.827C0.5 9.30097 0.60363 8.78007 0.804962 8.2941C1.00629 7.80812 1.3014 7.36657 1.6734 6.99466C2.04541 6.62275 2.48703 6.32777 2.97305 6.12656C3.45908 5.92535 3.97998 5.82186 4.50601 5.82199H16.494C17.02 5.82186 17.5409 5.92535 18.0269 6.12656C18.513 6.32777 18.9546 6.62275 19.3266 6.99466C19.6986 7.36657 19.9937 7.80812 20.195 8.2941C20.3964 8.78007 20.5 9.30097 20.5 9.827" stroke="#CCCCCC" stroke-linecap="round" stroke-linejoin="round"/>
<path d="M10.4998 14.691C11.6116 14.691 12.5128 13.7898 12.5128 12.678C12.5128 11.5663 11.6116 10.665 10.4998 10.665C9.38807 10.665 8.48682 11.5663 8.48682 12.678C8.48682 13.7898 9.38807 14.691 10.4998 14.691Z" stroke="#CCCCCC" stroke-linecap="round" stroke-linejoin="round"/>
<path d="M5.9209 5.08102C5.9209 3.8666 6.40333 2.7019 7.26205 1.84317C8.12078 0.984441 9.28548 0.501984 10.4999 0.501984C11.7143 0.501984 12.879 0.984441 13.7378 1.84317C14.5965 2.7019 15.0789 3.8666 15.0789 5.08102" stroke="#CCCCCC" stroke-linecap="round" stroke-linejoin="round"/>
<path d="M10.5 14.69V16.994" stroke="#CCCCCC" stroke-linecap="round" stroke-linejoin="round"/>
</svg>
