<svg width="21" height="16" viewBox="0 0 21 16" fill="none" xmlns="http://www.w3.org/2000/svg">
<path d="M20.5 4.5V11.494C20.5001 12.0201 20.3966 12.5411 20.1953 13.0272C19.9941 13.5133 19.699 13.9549 19.327 14.327C18.9549 14.699 18.5133 14.994 18.0272 15.1953C17.5411 15.3966 17.0201 15.5001 16.494 15.5H4.50601C3.9799 15.5001 3.4589 15.3966 2.97281 15.1953C2.48672 14.994 2.04505 14.699 1.67303 14.327C1.30102 13.9549 1.00593 13.5133 0.804657 13.0272C0.603383 12.5411 0.499869 12.0201 0.5 11.494V4.5" stroke="#CCCCCC" stroke-linecap="round" stroke-linejoin="round"/>
<path d="M5.67517 0.5H18.6002L10.3882 9L2.18018 0.5H5.67517Z" stroke="#CCCCCC" stroke-linecap="round" stroke-linejoin="round"/>
</svg>
