<svg width="47" height="46" viewBox="0 0 47 46" fill="none" xmlns="http://www.w3.org/2000/svg">
<rect width="47" height="46" fill="#1E1E1E"/>
<g clip-path="url(#clip0_0_1)">
<rect width="1920" height="1697" transform="translate(-288 -1611)" fill="white"/>
<rect x="-288" y="-533" width="1920" height="623" fill="#0B3041"/>
<path d="M23.398 45.334C35.9166 45.334 46.065 35.1856 46.065 22.667C46.065 10.1484 35.9166 0 23.398 0C10.8793 0 0.730957 10.1484 0.730957 22.667C0.730957 35.1856 10.8793 45.334 23.398 45.334Z" fill="white"/>
<path d="M25.6378 22.931C25.6378 23.4298 25.4898 23.9174 25.2127 24.3321C24.9356 24.7469 24.5417 25.0701 24.0809 25.261C23.62 25.4519 23.113 25.5019 22.6237 25.4045C22.1345 25.3072 21.6851 25.067 21.3324 24.7143C20.9797 24.3616 20.7395 23.9122 20.6422 23.423C20.5449 22.9338 20.5948 22.4267 20.7857 21.9659C20.9766 21.505 21.2999 21.1112 21.7146 20.834C22.1293 20.5569 22.6169 20.409 23.1158 20.409C23.7846 20.409 24.4261 20.6747 24.8991 21.1477C25.372 21.6206 25.6378 22.2621 25.6378 22.931Z" fill="#869006"/>
<path d="M29.0138 18.469C28.888 18.1427 28.6952 17.8463 28.4479 17.599C28.2006 17.3516 27.9042 17.1588 27.5778 17.033C27.1294 16.867 26.6559 16.7791 26.1778 16.773C25.3778 16.737 25.1408 16.729 23.1208 16.729C21.1008 16.729 20.8618 16.737 20.0638 16.773C19.5857 16.7794 19.1122 16.8677 18.6638 17.034C18.3375 17.1599 18.0412 17.3527 17.7939 17.6C17.5465 17.8473 17.3537 18.1437 17.2278 18.47C17.0619 18.9184 16.9739 19.3919 16.9678 19.87C16.9318 20.67 16.9238 20.907 16.9238 22.927C16.9238 24.947 16.9318 25.186 16.9678 25.984C16.9739 26.4621 17.0618 26.9356 17.2278 27.384C17.3537 27.7103 17.5465 28.0067 17.7938 28.2541C18.0411 28.5014 18.3375 28.6942 18.6638 28.82C19.1121 28.9864 19.5857 29.0747 20.0638 29.081C20.8638 29.117 21.1008 29.125 23.1208 29.125C25.1408 29.125 25.3808 29.117 26.1778 29.081C26.656 29.0747 27.1295 28.9864 27.5778 28.82C27.9042 28.6942 28.2006 28.5014 28.4479 28.2541C28.6952 28.0067 28.888 27.7103 29.0138 27.384C29.1801 26.9356 29.2684 26.4621 29.2748 25.984C29.3108 25.184 29.3188 24.947 29.3188 22.927C29.3188 20.907 29.3108 20.668 29.2748 19.87C29.2686 19.3915 29.1804 18.9176 29.0138 18.469ZM23.1138 26.816C22.3455 26.816 21.5943 26.5882 20.9554 26.1613C20.3166 25.7344 19.8186 25.1276 19.5246 24.4177C19.2305 23.7078 19.1536 22.9267 19.3035 22.1731C19.4534 21.4195 19.8234 20.7272 20.3667 20.1839C20.9101 19.6406 21.6023 19.2706 22.3559 19.1207C23.1095 18.9707 23.8907 19.0477 24.6006 19.3417C25.3104 19.6358 25.9172 20.1337 26.3441 20.7726C26.771 21.4115 26.9988 22.1626 26.9988 22.931C26.9988 23.961 26.5898 24.9489 25.8616 25.6774C25.1335 26.4059 24.1458 26.8155 23.1158 26.816H23.1138ZM27.1518 19.801C26.9723 19.801 26.7967 19.7478 26.6474 19.648C26.498 19.5482 26.3817 19.4064 26.313 19.2405C26.2442 19.0746 26.2262 18.892 26.2613 18.7159C26.2963 18.5397 26.3828 18.3779 26.5098 18.2509C26.6368 18.124 26.7986 18.0375 26.9747 18.0025C27.1508 17.9674 27.3334 17.9854 27.4993 18.0541C27.6652 18.1228 27.807 18.2392 27.9068 18.3885C28.0066 18.5379 28.0598 18.7134 28.0598 18.893C28.0596 19.1333 27.9641 19.3637 27.7942 19.5337C27.6244 19.7037 27.3941 19.7995 27.1538 19.8L27.1518 19.801Z" fill="#869006"/>
<path d="M23.1159 9.75598C20.5102 9.75598 17.9629 10.5287 15.7963 11.9764C13.6297 13.4241 11.941 15.4817 10.9438 17.8891C9.94663 20.2965 9.68572 22.9456 10.1941 25.5013C10.7024 28.057 11.9572 30.4046 13.7998 32.2471C15.6423 34.0897 17.9899 35.3445 20.5456 35.8528C23.1013 36.3612 25.7504 36.1003 28.1578 35.1031C30.5652 34.1059 32.6228 32.4172 34.0705 30.2506C35.5182 28.084 36.2909 25.5368 36.2909 22.931C36.2907 19.4368 34.9025 16.0859 32.4318 13.6151C29.961 11.1444 26.6101 9.75625 23.1159 9.75598ZM30.6359 26.05C30.6232 26.6775 30.5042 27.2983 30.2839 27.886C30.0896 28.3887 29.7923 28.8452 29.4112 29.2263C29.0301 29.6074 28.5736 29.9046 28.0709 30.099C27.4832 30.3192 26.8624 30.4382 26.2349 30.451C25.4279 30.488 25.1709 30.497 23.1159 30.497C21.0609 30.497 20.8039 30.488 19.9969 30.451C19.3694 30.4382 18.7486 30.3192 18.1609 30.099C17.6582 29.9046 17.2017 29.6074 16.8206 29.2263C16.4395 28.8452 16.1423 28.3887 15.9479 27.886C15.7276 27.2983 15.6086 26.6775 15.5959 26.05C15.5589 25.243 15.5499 24.985 15.5499 22.931C15.5499 20.877 15.5589 20.619 15.5959 19.812C15.6083 19.1845 15.727 18.5637 15.9469 17.976C16.1414 17.4734 16.4387 17.0169 16.8198 16.6359C17.2009 16.2548 17.6573 15.9575 18.1599 15.763C18.7476 15.5428 19.3684 15.4238 19.9959 15.411C20.8029 15.374 21.0599 15.365 23.1149 15.365C25.1699 15.365 25.4269 15.374 26.2339 15.411C26.8614 15.4235 27.4821 15.5422 28.0699 15.762C28.5726 15.9564 29.0291 16.2536 29.4102 16.6347C29.7913 17.0158 30.0885 17.4723 30.2829 17.975C30.5032 18.5627 30.6222 19.1835 30.6349 19.811C30.6719 20.618 30.6799 20.875 30.6799 22.93C30.6799 24.985 30.6729 25.243 30.6359 26.05Z" fill="#869006"/>
</g>
<defs>
<clipPath id="clip0_0_1">
<rect width="1920" height="1697" fill="white" transform="translate(-288 -1611)"/>
</clipPath>
</defs>
</svg>
