<svg width="28" height="28" viewBox="0 0 28 28" fill="none" xmlns="http://www.w3.org/2000/svg">
<path d="M16.6378 13.9307C16.6378 14.4295 16.4898 14.9171 16.2127 15.3318C15.9356 15.7466 15.5417 16.0698 15.0809 16.2607C14.62 16.4516 14.113 16.5015 13.6237 16.4042C13.1345 16.3069 12.6851 16.0667 12.3324 15.714C11.9797 15.3613 11.7395 14.9119 11.6422 14.4227C11.5449 13.9335 11.5948 13.4264 11.7857 12.9656C11.9766 12.5047 12.2999 12.1108 12.7146 11.8337C13.1293 11.5566 13.6169 11.4087 14.1158 11.4087C14.7846 11.4087 15.4261 11.6744 15.8991 12.1474C16.372 12.6203 16.6378 13.2618 16.6378 13.9307Z" fill="#869006"/>
<path d="M20.0138 9.46901C19.888 9.14266 19.6952 8.84628 19.4479 8.59895C19.2006 8.35163 18.9042 8.15885 18.5778 8.033C18.1294 7.867 17.6559 7.77907 17.1778 7.77301C16.3778 7.73701 16.1408 7.729 14.1208 7.729C12.1008 7.729 11.8618 7.73701 11.0638 7.77301C10.5857 7.77945 10.1122 7.86772 9.66383 8.03401C9.33752 8.15991 9.04117 8.3527 8.79385 8.60002C8.54654 8.84734 8.35372 9.14369 8.22783 9.47C8.06186 9.9184 7.97393 10.3919 7.96783 10.87C7.93183 11.67 7.92383 11.907 7.92383 13.927C7.92383 15.947 7.93183 16.186 7.96783 16.984C7.97391 17.4621 8.06184 17.9356 8.22783 18.384C8.35367 18.7103 8.54647 19.0067 8.79379 19.2541C9.04112 19.5014 9.33749 19.6942 9.66383 19.82C10.1121 19.9864 10.5857 20.0747 11.0638 20.081C11.8638 20.117 12.1008 20.125 14.1208 20.125C16.1408 20.125 16.3808 20.117 17.1778 20.081C17.656 20.0747 18.1295 19.9864 18.5778 19.82C18.9042 19.6942 19.2006 19.5014 19.4479 19.2541C19.6952 19.0067 19.888 18.7103 20.0138 18.384C20.1801 17.9356 20.2684 17.4621 20.2748 16.984C20.3108 16.184 20.3188 15.947 20.3188 13.927C20.3188 11.907 20.3108 11.668 20.2748 10.87C20.2686 10.3915 20.1804 9.91763 20.0138 9.46901ZM14.1138 17.816C13.3455 17.816 12.5943 17.5882 11.9554 17.1613C11.3166 16.7344 10.8186 16.1276 10.5246 15.4177C10.2305 14.7078 10.1536 13.9267 10.3035 13.1731C10.4534 12.4195 10.8234 11.7272 11.3667 11.1839C11.9101 10.6406 12.6023 10.2706 13.3559 10.1207C14.1095 9.97075 14.8907 10.0477 15.6006 10.3417C16.3104 10.6358 16.9172 11.1337 17.3441 11.7726C17.771 12.4115 17.9988 13.1626 17.9988 13.931C17.9988 14.961 17.5898 15.9489 16.8616 16.6774C16.1335 17.4059 15.1458 17.8155 14.1158 17.816H14.1138ZM18.1518 10.801C17.9723 10.801 17.7967 10.7478 17.6474 10.648C17.498 10.5482 17.3817 10.4064 17.313 10.2405C17.2442 10.0746 17.2262 9.892 17.2613 9.71587C17.2963 9.53973 17.3828 9.37793 17.5098 9.25095C17.6368 9.12396 17.7986 9.03749 17.9747 9.00246C18.1508 8.96742 18.3334 8.9854 18.4993 9.05412C18.6652 9.12285 18.807 9.23923 18.9068 9.38855C19.0066 9.53787 19.0598 9.71342 19.0598 9.89301C19.0596 10.1333 18.9641 10.3637 18.7942 10.5337C18.6244 10.7037 18.3941 10.7995 18.1538 10.8L18.1518 10.801Z" fill="#869006"/>
<path d="M14.1164 0.755859C11.5106 0.755859 8.96339 1.52856 6.79677 2.97625C4.63016 4.42393 2.94148 6.48159 1.9443 8.889C0.947115 11.2964 0.686206 13.9455 1.19457 16.5012C1.70293 19.0569 2.95772 21.4044 4.80028 23.247C6.64284 25.0895 8.9904 26.3443 11.5461 26.8527C14.1018 27.3611 16.7508 27.1002 19.1583 26.103C21.5657 25.1058 23.6233 23.4171 25.071 21.2505C26.5187 19.0839 27.2914 16.5366 27.2914 13.9309C27.2911 10.4367 25.903 7.08575 23.4323 4.61502C20.9615 2.14429 17.6106 0.756125 14.1164 0.755859ZM21.6364 17.0499C21.6237 17.6774 21.5047 18.2982 21.2844 18.8859C21.0901 19.3885 20.7928 19.8451 20.4117 20.2262C20.0306 20.6073 19.5741 20.9045 19.0714 21.0989C18.4837 21.3191 17.8629 21.4381 17.2354 21.4509C16.4284 21.4879 16.1714 21.4969 14.1164 21.4969C12.0614 21.4969 11.8044 21.4879 10.9974 21.4509C10.3699 21.4381 9.74913 21.3191 9.16141 21.0989C8.65872 20.9045 8.20219 20.6073 7.8211 20.2262C7.44 19.8451 7.14275 19.3885 6.94841 18.8859C6.72809 18.2982 6.60907 17.6774 6.59641 17.0499C6.55941 16.2429 6.55041 15.9849 6.55041 13.9309C6.55041 11.8769 6.55941 11.6189 6.59641 10.8119C6.60879 10.1844 6.72747 9.56362 6.94741 8.97586C7.14192 8.47326 7.43922 8.01682 7.82029 7.63574C8.20137 7.25467 8.65781 6.95736 9.16041 6.76286C9.74814 6.54267 10.3689 6.42365 10.9964 6.41086C11.8034 6.37386 12.0604 6.36486 14.1154 6.36486C16.1704 6.36486 16.4274 6.37386 17.2344 6.41086C17.8618 6.42335 18.4826 6.54203 19.0704 6.76186C19.5731 6.95625 20.0296 7.25352 20.4107 7.63461C20.7917 8.0157 21.089 8.4722 21.2834 8.97486C21.5037 9.56255 21.6227 10.1834 21.6354 10.8109C21.6724 11.6179 21.6804 11.8749 21.6804 13.9299C21.6804 15.9849 21.6734 16.2429 21.6364 17.0499Z" fill="#869006"/>
</svg>
