<svg width="50" height="39" viewBox="0 0 50 39" fill="none" xmlns="http://www.w3.org/2000/svg">
<path fill-rule="evenodd" clip-rule="evenodd" d="M4.0157 2.24272L19.0425 17.3919C22.3199 20.6882 27.6773 20.6911 30.9574 17.3919L45.9842 2.24272C46.1355 2.09022 46.1135 1.83908 45.9379 1.7157C44.4053 0.638571 42.5405 0 40.5318 0H9.46824C7.45941 0 5.59464 0.638681 4.06198 1.7157C3.88642 1.83908 3.86436 2.09022 4.0157 2.24272ZM0 9.54112C0 7.94935 0.39164 6.44537 1.08149 5.12346C1.18937 4.91666 1.46281 4.87484 1.62675 5.04003L16.4633 19.991C21.1616 24.7324 28.8356 24.7351 33.5367 19.991L48.3733 5.04003C48.5372 4.87484 48.8106 4.91666 48.9185 5.12346C49.6083 6.44537 50 7.94946 50 9.54112V29.4588C50 34.7238 45.75 39 40.5318 39H9.46824C4.25014 39 0 34.7238 0 29.4588V9.54112Z" fill="#869006"/>
</svg>
