<svg width="100" height="100" viewBox="0 0 100 100" fill="none" xmlns="http://www.w3.org/2000/svg">
<rect width="100" height="100" fill="#1E1E1E"/>
<g clip-path="url(#clip0_0_1)">
<rect width="1920" height="1697" transform="translate(-1595 -1122)" fill="white"/>
<rect x="-1595" y="-44" width="1920" height="623" fill="#0B3041"/>
<rect x="-1595" y="-44" width="1920" height="181" fill="#092836"/>
<rect width="100" height="100" rx="24" fill="white"/>
<path fill-rule="evenodd" clip-rule="evenodd" d="M29.0157 33.2427L44.0425 48.3919C47.3199 51.6882 52.6773 51.6911 55.9574 48.3919L70.9842 33.2427C71.1355 33.0902 71.1135 32.8391 70.9379 32.7157C69.4053 31.6386 67.5405 31 65.5318 31H34.4682C32.4594 31 30.5946 31.6387 29.062 32.7157C28.8864 32.8391 28.8644 33.0902 29.0157 33.2427ZM25 40.5411C25 38.9493 25.3916 37.4454 26.0815 36.1235C26.1894 35.9167 26.4628 35.8748 26.6267 36.04L41.4633 50.991C46.1616 55.7324 53.8356 55.7351 58.5367 50.991L73.3733 36.04C73.5372 35.8748 73.8106 35.9167 73.9185 36.1235C74.6083 37.4454 75 38.9495 75 40.5411V60.4588C75 65.7238 70.75 70 65.5318 70H34.4682C29.2501 70 25 65.7238 25 60.4588V40.5411Z" fill="#869006"/>
</g>
<defs>
<clipPath id="clip0_0_1">
<rect width="1920" height="1697" fill="white" transform="translate(-1595 -1122)"/>
</clipPath>
</defs>
</svg>
