<svg width="31" height="22" viewBox="0 0 31 22" fill="none" xmlns="http://www.w3.org/2000/svg">
<path d="M30.591 0.853923C30.3425 0.518746 29.9985 0.264478 29.603 0.12363C29.2075 -0.0172184 28.7785 -0.0382412 28.3709 0.063246L1.59923 6.72631C1.19379 6.8268 0.827602 7.04392 0.546986 7.35019C0.266369 7.65647 0.0839336 8.03815 0.0227565 8.44695C-0.0384207 8.85575 0.0244089 9.2733 0.203298 9.6468C0.382187 10.0203 0.669097 10.3329 1.02774 10.5452L6.68915 13.9032V21.2702C6.68917 21.4068 6.72796 21.5406 6.80111 21.6565C6.87426 21.7724 6.97884 21.8657 7.10295 21.9257C7.22706 21.9858 7.36572 22.0102 7.50317 21.9961C7.64061 21.9821 7.77132 21.9303 7.88043 21.8465L13.1898 17.7603L17.552 20.3476C18.0288 20.6309 18.5994 20.7169 19.1399 20.5869C19.6805 20.4569 20.1474 20.1214 20.4393 19.6532L30.6867 3.18431C30.9068 2.83045 31.0153 2.41977 30.9983 2.00469C30.9812 1.58961 30.8394 1.18898 30.591 0.853923ZM18.5115 18.0345L11.8739 14.0967L18.6081 8.35975C18.6556 8.3211 18.6874 8.26678 18.6977 8.20678C18.7079 8.14679 18.6959 8.08515 18.6639 8.0332C18.6319 7.98124 18.5819 7.94247 18.5233 7.92402C18.4646 7.90556 18.4012 7.90866 18.3447 7.93274L8.09199 11.8514L3.11006 8.90047L28.0619 2.69046L18.5115 18.0345Z" fill="#0B3041"/>
</svg>
