<svg width="19" height="15" viewBox="0 0 19 15" fill="none" xmlns="http://www.w3.org/2000/svg">
<path d="M18.34 0.399003C18.1979 0.265866 18.031 0.16211 17.8487 0.0936936C17.6664 0.0252772 17.4724 -0.00645054 17.2778 0.000332779C17.0833 0.00711609 16.8919 0.0522768 16.7149 0.133221C16.5378 0.214165 16.3785 0.329297 16.246 0.472003L16.232 0.487003L6.14301 10.908L2.49201 7.258C2.20963 7.00323 1.83991 6.86712 1.45974 6.87797C1.07957 6.88883 0.718213 7.04582 0.450833 7.31629C0.183453 7.58676 0.0306271 7.9499 0.024141 8.33017C0.0176549 8.71044 0.158008 9.07857 0.416009 9.358L5.08101 14.029C5.21866 14.1715 5.38346 14.285 5.56569 14.3628C5.74791 14.4406 5.94387 14.4811 6.14201 14.482H6.17601C6.56576 14.4734 6.93647 14.3117 7.20801 14.032L18.408 2.49C18.5409 2.34826 18.6445 2.18173 18.713 1.99992C18.7815 1.81812 18.8135 1.62459 18.8072 1.43042C18.8009 1.23624 18.7564 1.0452 18.6762 0.868229C18.5961 0.691256 18.4818 0.531811 18.34 0.399003Z" fill="#869006"/>
</svg>
