<svg width="46" height="46" viewBox="0 0 46 46" fill="none" xmlns="http://www.w3.org/2000/svg">
<rect width="46" height="46" fill="#1E1E1E"/>
<g clip-path="url(#clip0_0_1)">
<rect width="1920" height="1697" transform="translate(-352 -1611)" fill="white"/>
<rect x="-352" y="-533" width="1920" height="623" fill="#0B3041"/>
<path d="M23.1279 45.334C35.6466 45.334 45.7949 35.1856 45.7949 22.667C45.7949 10.1484 35.6466 0 23.1279 0C10.6093 0 0.460938 10.1484 0.460938 22.667C0.460938 35.1856 10.6093 45.334 23.1279 45.334Z" fill="white"/>
<path d="M23.4099 9.75598C20.8041 9.75598 18.2568 10.5287 16.0902 11.9764C13.9236 13.4241 12.2349 15.4817 11.2378 17.8891C10.2406 20.2965 9.97966 22.9456 10.488 25.5013C10.9964 28.057 12.2512 30.4046 14.0937 32.2471C15.9363 34.0897 18.2839 35.3445 20.8396 35.8528C23.3953 36.3612 26.0443 36.1003 28.4517 35.1031C30.8591 34.1059 32.9168 32.4172 34.3645 30.2506C35.8122 28.084 36.5849 25.5368 36.5849 22.931C36.5809 19.438 35.1915 16.0892 32.7216 13.6192C30.2517 11.1493 26.9029 9.75995 23.4099 9.75598ZM29.2869 19.916C29.2929 20.047 29.2959 20.178 29.2959 20.31C29.2956 21.8575 28.8791 23.3765 28.0899 24.7076C27.3007 26.0388 26.1679 27.1331 24.8103 27.8759C23.4528 28.6188 21.9203 28.9827 20.3737 28.9295C18.8271 28.8764 17.3233 28.4082 16.0199 27.574C17.6236 27.7638 19.2374 27.3124 20.5099 26.318C19.877 26.3062 19.2637 26.0968 18.7557 25.7192C18.2477 25.3416 17.8705 24.8146 17.6769 24.212C18.1311 24.2992 18.5993 24.2818 19.0459 24.161C18.3597 24.0223 17.7426 23.6504 17.2993 23.1085C16.856 22.5666 16.6138 21.8881 16.6139 21.188C16.6139 21.175 16.6139 21.162 16.6139 21.15C17.0348 21.384 17.5055 21.5139 17.9869 21.529C17.3452 21.0997 16.891 20.4422 16.7168 19.6901C16.5425 18.9379 16.6613 18.1477 17.0489 17.48C17.8103 18.4169 18.7601 19.1831 19.8369 19.7291C20.9136 20.275 22.0931 20.5884 23.2989 20.649C23.147 19.9987 23.2139 19.3166 23.4892 18.7082C23.7645 18.0999 24.2328 17.5993 24.8215 17.2842C25.4102 16.9691 26.0864 16.8569 26.7453 16.9652C27.4042 17.0734 28.009 17.396 28.4659 17.883C29.1452 17.7496 29.7967 17.5007 30.3919 17.147C30.165 17.8496 29.6905 18.4459 29.0569 18.825C29.6582 18.7544 30.2454 18.5935 30.7989 18.348C30.393 18.9571 29.8809 19.4883 29.2869 19.916Z" fill="#869006"/>
</g>
<defs>
<clipPath id="clip0_0_1">
<rect width="1920" height="1697" fill="white" transform="translate(-352 -1611)"/>
</clipPath>
</defs>
</svg>
