<svg width="27" height="28" viewBox="0 0 27 28" fill="none" xmlns="http://www.w3.org/2000/svg">
<path d="M13.4094 0.755859C10.8036 0.755859 8.25636 1.52856 6.08974 2.97625C3.92313 4.42393 2.23445 6.48159 1.23727 8.889C0.240084 11.2964 -0.0208254 13.9455 0.487535 16.5012C0.995895 19.0569 2.25069 21.4044 4.09325 23.247C5.93581 25.0895 8.28337 26.3443 10.8391 26.8527C13.3948 27.3611 16.0438 27.1002 18.4512 26.103C20.8587 25.1058 22.9163 23.4171 24.364 21.2505C25.8117 19.0839 26.5844 16.5366 26.5844 13.9309C26.5804 10.4379 25.1911 7.08904 22.7211 4.61911C20.2512 2.14918 16.9024 0.759829 13.4094 0.755859ZM19.2864 10.9159C19.2924 11.0469 19.2954 11.1779 19.2954 11.3099C19.2951 12.8574 18.8786 14.3763 18.0894 15.7075C17.3002 17.0387 16.1675 18.133 14.8099 18.8758C13.4523 19.6186 11.9198 19.9825 10.3732 19.9294C8.82663 19.8763 7.3228 19.4081 6.01938 18.5739C7.62312 18.7637 9.23691 18.3123 10.5094 17.3179C9.87652 17.3061 9.26319 17.0967 8.75521 16.7191C8.24722 16.3415 7.87002 15.8145 7.67638 15.2119C8.13066 15.2991 8.59885 15.2817 9.04538 15.1609C8.35917 15.0221 7.74207 14.6503 7.29879 14.1084C6.85551 13.5665 6.61335 12.888 6.61338 12.1879C6.61338 12.1749 6.61338 12.1619 6.61338 12.1499C7.03428 12.3839 7.50504 12.5138 7.98638 12.5289C7.34466 12.0996 6.89052 11.4421 6.71628 10.6899C6.54204 9.93782 6.66079 9.14756 7.04838 8.47986C7.80977 9.41673 8.75966 10.183 9.8364 10.729C10.9131 11.2749 12.0927 11.5883 13.2984 11.6489C13.1465 10.9986 13.2134 10.3164 13.4887 9.7081C13.764 9.09976 14.2323 8.59922 14.821 8.28408C15.4097 7.96894 16.0859 7.85681 16.7448 7.96507C17.4037 8.07333 18.0085 8.39593 18.4654 8.88286C19.1447 8.74948 19.7962 8.50053 20.3914 8.14686C20.1645 8.84951 19.6901 9.44582 19.0564 9.82486C19.6577 9.75423 20.245 9.59343 20.7984 9.34786C20.3925 9.95701 19.8804 10.4881 19.2864 10.9159Z" fill="#869006"/>
</svg>
