<svg width="23" height="17" viewBox="0 0 23 17" fill="none" xmlns="http://www.w3.org/2000/svg">
<mask id="mask0_358_27578" style="mask-type:luminance" maskUnits="userSpaceOnUse" x="0" y="0" width="23" height="17">
<path d="M22.513 0H0V16.364H22.513V0Z" fill="white"/>
</mask>
<g mask="url(#mask0_358_27578)">
<path d="M11.4001 16.364C9.664 16.3464 7.96179 15.8811 6.45814 15.013C4.08375 13.7092 2.07282 11.8327 0.608142 9.554C-0.199858 8.294 -0.199858 8.16 0.591142 6.928C2.22999 4.30238 4.59521 2.20846 7.40014 0.899999C8.61246 0.309056 9.94308 0.000939076 11.2918 -0.00113954C12.6404 -0.00321816 13.972 0.300796 15.1861 0.887999C18.0045 2.20303 20.3894 4.29447 22.0611 6.917C22.3514 7.29444 22.5099 7.75666 22.5122 8.23281C22.5146 8.70895 22.3607 9.17272 22.0741 9.553C21.047 11.1236 19.7623 12.5097 18.2741 13.653C16.9258 14.7375 15.3755 15.5434 13.7131 16.024C12.9572 16.2325 12.1782 16.3461 11.3941 16.362M11.3091 14.1C12.4799 14.099 13.6241 13.7507 14.5968 13.0992C15.5696 12.4477 16.3272 11.5222 16.7738 10.4399C17.2203 9.35766 17.3358 8.16724 17.1056 7.01932C16.8753 5.8714 16.3097 4.8176 15.4803 3.99127C14.6509 3.16495 13.595 2.60325 12.4462 2.37727C11.2974 2.15129 10.1074 2.27118 9.02685 2.72178C7.94625 3.17238 7.02362 3.93342 6.37572 4.90859C5.72782 5.88376 5.38378 7.02922 5.38714 8.2C5.38793 8.97643 5.5418 9.74508 5.83996 10.462C6.13812 11.1789 6.57471 11.83 7.12475 12.378C7.67479 12.926 8.32748 13.3601 9.04549 13.6556C9.76349 13.9511 10.5327 14.1021 11.3091 14.1Z" fill="#ACACAC"/>
<path d="M7.98395 8.167C7.98792 7.50881 8.18772 6.8667 8.55791 6.32248C8.92811 5.77825 9.45194 5.35654 10.0627 5.11109C10.6734 4.86563 11.3433 4.80754 11.9872 4.9442C12.6311 5.08087 13.2196 5.40611 13.678 5.87849C14.1364 6.35087 14.4437 6.949 14.5609 7.59668C14.6781 8.24436 14.5999 8.91227 14.3361 9.51532C14.0724 10.1184 13.6351 10.6292 13.0799 10.9829C12.5248 11.3365 11.877 11.5169 11.219 11.501C10.3503 11.4803 9.52455 11.1193 8.91948 10.4957C8.31442 9.87213 7.97846 9.03586 7.98395 8.167Z" fill="#ACACAC"/>
</g>
</svg>
