<svg width="27" height="28" viewBox="0 0 27 28" fill="none" xmlns="http://www.w3.org/2000/svg">
<path d="M11.5352 16.3989L15.8212 13.9309L11.5352 11.4629V16.3989Z" fill="#869006"/>
<path d="M13.177 0.755859C10.5712 0.755859 8.02394 1.52856 5.85732 2.97625C3.6907 4.42393 2.00203 6.48159 1.00485 8.889C0.00766164 11.2964 -0.253247 13.9455 0.255113 16.5012C0.763473 19.0569 2.01827 21.4044 3.86083 23.247C5.70338 25.0895 8.05094 26.3443 10.6066 26.8527C13.1623 27.3611 15.8114 27.1002 18.2188 26.103C20.6262 25.1058 22.6839 23.4171 24.1316 21.2505C25.5793 19.0839 26.352 16.5366 26.352 13.9309C26.3517 10.4367 24.9635 7.08575 22.4928 4.61502C20.0221 2.14429 16.6711 0.756125 13.177 0.755859ZM21.409 13.9439C21.4171 15.2714 21.3036 16.597 21.07 17.9039C20.9759 18.2515 20.7924 18.5684 20.5379 18.8231C20.2833 19.0779 19.9665 19.2615 19.619 19.3559C17.4811 19.6072 15.3293 19.7204 13.177 19.6949C11.0242 19.7209 8.87202 19.603 6.73496 19.3419C6.38753 19.2476 6.0708 19.0641 5.81625 18.8096C5.56171 18.555 5.3782 18.2383 5.28396 17.8909C5.04977 16.584 4.9363 15.2585 4.94496 13.9309C4.93676 12.6033 5.05023 11.2777 5.28396 9.97086C5.37941 9.6225 5.5631 9.30464 5.81728 9.04801C6.07145 8.79138 6.38753 8.60465 6.73496 8.50586C8.87277 8.25452 11.0246 8.14128 13.177 8.16686C15.3298 8.14046 17.4819 8.25839 19.619 8.51986C19.9664 8.6141 20.2831 8.79761 20.5377 9.05215C20.7922 9.3067 20.9757 9.62343 21.07 9.97086C21.311 11.2815 21.4245 12.6124 21.409 13.9449V13.9439Z" fill="#869006"/>
</svg>
