<svg width="46" height="46" viewBox="0 0 46 46" fill="none" xmlns="http://www.w3.org/2000/svg">
<rect width="46" height="46" fill="#1E1E1E"/>
<g clip-path="url(#clip0_0_1)">
<rect width="1920" height="1697" transform="translate(-416 -1611)" fill="white"/>
<rect x="-416" y="-533" width="1920" height="623" fill="#0B3041"/>
<path d="M22.8589 45.334C35.3775 45.334 45.5259 35.1856 45.5259 22.667C45.5259 10.1484 35.3775 0 22.8589 0C10.3403 0 0.191895 10.1484 0.191895 22.667C0.191895 35.1856 10.3403 45.334 22.8589 45.334Z" fill="white"/>
<path d="M21.5361 25.399L25.8221 22.931L21.5361 20.463V25.399Z" fill="#869006"/>
<path d="M23.177 9.75598C20.5712 9.75598 18.0239 10.5287 15.8573 11.9764C13.6907 13.4241 12.002 15.4817 11.0048 17.8891C10.0077 20.2965 9.74675 22.9456 10.2551 25.5013C10.7635 28.057 12.0183 30.4046 13.8608 32.2471C15.7034 34.0897 18.0509 35.3445 20.6066 35.8528C23.1623 36.3612 25.8114 36.1003 28.2188 35.1031C30.6262 34.1059 32.6839 32.4172 34.1316 30.2506C35.5793 28.084 36.352 25.5368 36.352 22.931C36.3517 19.4368 34.9635 16.0859 32.4928 13.6151C30.0221 11.1444 26.6711 9.75625 23.177 9.75598ZM31.409 22.944C31.4171 24.2716 31.3036 25.5971 31.07 26.904C30.9759 27.2516 30.7924 27.5685 30.5379 27.8233C30.2833 28.078 29.9665 28.2617 29.619 28.356C27.4811 28.6073 25.3293 28.7206 23.177 28.695C21.0242 28.7211 18.872 28.6031 16.735 28.342C16.3875 28.2477 16.0708 28.0642 15.8163 27.8097C15.5617 27.5551 15.3782 27.2384 15.284 26.891C15.0498 25.5842 14.9363 24.2586 14.945 22.931C14.9368 21.6034 15.0502 20.2779 15.284 18.971C15.3794 18.6226 15.5631 18.3048 15.8173 18.0481C16.0715 17.7915 16.3875 17.6048 16.735 17.506C18.8728 17.2546 21.0246 17.1414 23.177 17.167C25.3298 17.1406 27.4819 17.2585 29.619 17.52C29.9664 17.6142 30.2831 17.7977 30.5377 18.0523C30.7922 18.3068 30.9757 18.6236 31.07 18.971C31.311 20.2816 31.4245 21.6125 31.409 22.945V22.944Z" fill="#869006"/>
</g>
<defs>
<clipPath id="clip0_0_1">
<rect width="1920" height="1697" fill="white" transform="translate(-416 -1611)"/>
</clipPath>
</defs>
</svg>
