<svg width="120" height="40" viewBox="0 0 120 40" fill="none" xmlns="http://www.w3.org/2000/svg">
<g clip-path="url(#clip0_2315_4351)">
<path d="M50.7611 23.0659H0V39.9699H50.7611V23.0659Z" fill="#84B740"/>
<path d="M50.7611 0H0V16.919H50.7611V0Z" fill="#259BD6"/>
<path d="M101.522 36.5348L101.296 36.58C100.513 36.7307 100.226 36.791 99.6536 36.791C98.3273 36.791 96.7599 36.113 96.7599 32.919C96.7599 31.2768 97.0311 29.0923 99.5029 29.0923H99.518C99.94 29.1224 100.422 29.1676 101.327 29.4388L101.522 29.4991V36.5348ZM101.929 20.6102L101.522 20.6855V26.5913L101.161 26.4859L101.055 26.4557C100.648 26.3352 99.7139 26.064 98.8096 26.064C93.8661 26.064 92.8262 29.8004 92.8262 32.9341C92.8262 37.2279 95.2376 39.6987 99.4426 39.6987C101.221 39.6987 102.532 39.5179 103.859 39.081C105.079 38.6893 105.516 38.1318 105.516 36.9416V19.9925C104.341 20.2034 103.12 20.4143 101.929 20.6102Z" fill="#27292D"/>
<path d="M116.217 36.6403L116.006 36.7006L115.252 36.8964C114.544 37.0772 113.911 37.1827 113.428 37.1827C112.268 37.1827 111.575 36.6102 111.575 35.6309C111.575 34.9981 111.861 33.9284 113.76 33.9284H116.217V36.6403ZM114.483 25.9887C112.961 25.9887 111.394 26.2599 109.449 26.8625L108.183 27.2392L108.605 30.1017L109.841 29.6949C111.137 29.2731 112.75 29.0019 113.956 29.0019C114.498 29.0019 116.156 29.0019 116.156 30.7947V31.5782H113.85C109.645 31.5782 107.701 32.919 107.701 35.7966C107.701 38.2524 109.495 39.7288 112.509 39.7288C113.443 39.7288 114.74 39.548 115.855 39.2768L115.915 39.2618L115.975 39.2768L116.352 39.3371C117.528 39.548 118.749 39.759 119.939 39.9849V30.5838C119.939 27.5405 118.101 25.9887 114.483 25.9887Z" fill="#27292D"/>
<path d="M86.9334 36.6403L86.7224 36.7006L85.9688 36.8964C85.2605 37.0772 84.6425 37.1827 84.1452 37.1827C82.9847 37.1827 82.2914 36.6102 82.2914 35.6309C82.2914 34.9981 82.5777 33.9284 84.4617 33.9284H86.9183L86.9334 36.6403ZM85.2153 25.9887C83.678 25.9887 82.1256 26.2599 80.1813 26.8625L78.9153 27.2392L79.3373 30.1017L80.5732 29.6949C81.8694 29.2731 83.482 29.0019 84.6878 29.0019C85.2303 29.0019 86.8882 29.0019 86.8882 30.7947V31.5782H84.5823C80.3773 31.5782 78.418 32.919 78.418 35.7966C78.418 38.2524 80.2115 39.7288 83.2409 39.7288C84.1753 39.7288 85.4715 39.548 86.5868 39.2768L86.6471 39.2618L86.7073 39.2768L87.0691 39.3371C88.2597 39.548 89.4654 39.759 90.6561 40V30.5989C90.6712 27.5254 88.8324 25.9887 85.2153 25.9887Z" fill="#27292D"/>
<path d="M71.0629 26.0188C69.1488 26.0188 67.5663 26.6516 66.9785 26.9228L66.8278 26.9981L66.6922 26.8926C65.8783 26.3051 64.6877 26.0038 63.0298 26.0038C61.5678 26.0038 60.1963 26.2147 58.7042 26.6516C57.4231 27.0433 56.9258 27.661 56.9258 28.8211V39.5631H60.9348V29.6346L61.1308 29.5744C61.9446 29.3032 62.4269 29.258 62.8941 29.258C64.0546 29.258 64.6424 29.8757 64.6424 31.081V39.5781H68.5912V30.9152C68.5912 30.403 68.4857 30.1017 68.4706 30.0414L68.335 29.7853L68.6063 29.6648C69.2091 29.3936 69.8723 29.258 70.5656 29.258C71.3644 29.258 72.3139 29.5744 72.3139 31.081V39.5781H76.2476V30.6893C76.2476 27.5405 74.5595 26.0188 71.0629 26.0188Z" fill="#27292D"/>
<path d="M113.263 11.0282C112.675 11.0282 111.695 10.968 110.927 10.8173L110.701 10.7721V4.97175C110.701 4.48964 110.61 4.18832 110.595 4.14313L110.475 3.90207L110.731 3.79661C110.791 3.76648 110.851 3.75141 110.927 3.72128L110.972 3.69115C111.062 3.66102 111.153 3.63088 111.243 3.60075C111.289 3.58569 111.319 3.57062 111.349 3.57062C112.238 3.32957 113.052 3.3597 113.414 3.32957H113.429C115.885 3.32957 116.172 5.51412 116.172 7.15631C116.157 10.3503 114.574 11.0282 113.263 11.0282ZM113.248 0C113.218 0 113.172 0 113.142 0C110.836 0 108.47 0.632768 107.626 1.86817C107.174 2.47081 106.918 3.22411 106.903 4.11299V10.0942C106.903 10.6064 106.797 10.8023 106.782 10.8475L106.646 11.1036H99.3669V6.94539H99.3518C99.2614 2.5612 96.6691 0.150659 92.9163 0.150659H92.4792H89.2539C89.1032 1.22034 88.9826 1.97363 88.8319 3.04331H92.4792C94.3933 3.04331 95.4031 4.67043 95.4031 7.17137V11.3597L95.1469 11.2241C95.1016 11.209 94.7851 11.1036 94.2878 11.1036H87.9879C87.8673 11.9021 87.7166 12.9416 87.5508 13.9812H106.918C107.581 13.8456 108.35 13.725 109.013 13.6196C109.992 14.1017 111.816 14.3578 113.067 14.3578C117.272 14.3578 120 11.5405 120 7.20151C119.985 2.90772 117.347 0.0903955 113.248 0Z" fill="#27292D"/>
<path d="M79.292 15.7439H79.4729C83.6779 15.7439 85.6372 14.3578 85.6372 10.9378C85.6372 8.48209 83.8436 6.52353 80.8293 6.52353H76.9559C75.7954 6.52353 75.1021 5.86063 75.1021 4.74575C75.1021 3.99245 75.3885 3.05837 77.2875 3.05837H85.7577C85.9386 1.95855 86.029 1.26552 86.1948 0.16571H77.393C73.2935 0.16571 71.2287 1.88322 71.2287 4.74575C71.2287 7.57814 73.0222 9.0546 76.0366 9.0546H79.91C81.0705 9.0546 81.7638 9.97362 81.7638 10.9378C81.7638 11.5706 81.4774 12.8813 79.5934 12.8813H78.9454L66.5415 12.8512H64.2807C62.3666 12.8512 61.0253 11.7665 61.0253 9.25046V7.51788C61.0253 4.89641 62.0652 3.26929 64.2807 3.26929H67.9582C68.124 2.15441 68.2295 1.44631 68.3802 0.391699H63.7984H63.3613C59.6085 0.391699 57.0162 2.90771 56.9258 7.29189V7.45761V9.25046C57.0162 13.6346 59.6085 15.7288 63.3613 15.7288H63.7984H67.0237L73.7457 15.7439H77.7547H79.292Z" fill="#27292D"/>
</g>
<defs>
<clipPath id="clip0_2315_4351">
<rect width="120" height="40" fill="white"/>
</clipPath>
</defs>
</svg>
