<svg width="65" height="41" viewBox="0 0 65 41" fill="none" xmlns="http://www.w3.org/2000/svg">
<path d="M64.3444 38.1865C64.3444 39.5055 63.2764 40.5734 61.9574 40.5734H2.38644C1.06837 40.5734 0 39.5055 0 38.1865V2.38681C0 1.06875 1.06837 0 2.38644 0H61.9575C63.2765 0 64.3445 1.06875 64.3445 2.38681V38.1865H64.3444Z" fill="#21246E"/>
<path d="M24.4579 11.7478L17.2986 28.8315H12.6257L9.1051 15.1992C8.88831 14.3584 8.70305 14.0526 8.05318 13.6956C6.98871 13.12 5.23757 12.58 3.69141 12.2438L3.79955 11.7479H11.3176C12.2764 11.7479 13.1384 12.3875 13.3552 13.49L15.2168 23.3778L19.8148 11.7479H24.4579V11.7478ZM42.7617 23.2512C42.7824 18.7448 36.5261 18.4995 36.5711 16.4835C36.5833 15.8681 37.1666 15.2169 38.444 15.0525C39.0782 14.9681 40.8239 14.9063 42.8023 15.8145L43.5778 12.1935C42.5133 11.8072 41.145 11.4372 39.4444 11.4372C35.0766 11.4372 32.0016 13.7604 31.9757 17.0846C31.9471 19.5429 34.1695 20.9146 35.8459 21.7333C37.5673 22.571 38.1428 23.1058 38.1367 23.8571C38.1254 25.0037 36.7633 25.5048 35.4928 25.5273C33.2704 25.562 31.9814 24.9267 30.9519 24.4473L30.1518 28.1928C31.1829 28.6662 33.0921 29.0773 35.0679 29.1016C39.71 29.1014 42.747 26.8029 42.7617 23.2512ZM54.2962 28.8314H58.3845L54.8172 11.7477H51.043C50.1949 11.7477 49.48 12.2423 49.1614 12.9999L42.5339 28.8313H47.1727L48.0934 26.2799H53.7638L54.2962 28.8314ZM49.3648 22.7786L51.6919 16.364L53.0307 22.7786H49.3648ZM30.7736 11.7478L27.117 28.8314H22.6969L26.3543 11.7477H30.7736V11.7478Z" fill="white"/>
</svg>
