<svg width="21" height="21" viewBox="0 0 21 21" fill="none" xmlns="http://www.w3.org/2000/svg">
<path d="M17.0625 0H3.9375C1.7675 0 0 1.7675 0 3.9375V17.0625C0 19.2325 1.7675 21 3.9375 21H17.0625C19.2325 21 21 19.2325 21 17.0625V3.9375C21 1.7675 19.2325 0 17.0625 0ZM20.125 17.0625C20.125 18.7512 18.7512 20.125 17.0625 20.125H3.9375C2.24875 20.125 0.875 18.7512 0.875 17.0625V3.9375C0.875 2.24875 2.24875 0.875 3.9375 0.875H17.0625C18.7512 0.875 20.125 2.24875 20.125 3.9375V17.0625ZM4.375 8.3125C4.375 8.0675 4.5675 7.875 4.8125 7.875H13.5625C13.8075 7.875 14 8.0675 14 8.3125C14 8.5575 13.8075 8.75 13.5625 8.75H4.8125C4.5675 8.75 4.375 8.5575 4.375 8.3125ZM4.375 4.8125C4.375 4.5675 4.5675 4.375 4.8125 4.375H10.9375C11.1825 4.375 11.375 4.5675 11.375 4.8125C11.375 5.0575 11.1825 5.25 10.9375 5.25H4.8125C4.5675 5.25 4.375 5.0575 4.375 4.8125ZM16.625 11.8125C16.625 12.0575 16.4325 12.25 16.1875 12.25H4.8125C4.5675 12.25 4.375 12.0575 4.375 11.8125C4.375 11.5675 4.5675 11.375 4.8125 11.375H16.1875C16.4325 11.375 16.625 11.5675 16.625 11.8125ZM7.875 15.3125C7.875 15.5575 7.6825 15.75 7.4375 15.75H4.8125C4.5675 15.75 4.375 15.5575 4.375 15.3125C4.375 15.0675 4.5675 14.875 4.8125 14.875H7.4375C7.6825 14.875 7.875 15.0675 7.875 15.3125Z" fill="#A0A0A0"/>
</svg>
