<svg width="18" height="24" viewBox="0 0 18 24" fill="none" xmlns="http://www.w3.org/2000/svg">
<path d="M17.63 8.864C17.6081 11.1989 16.664 13.4305 15.0035 15.0723C13.3431 16.714 11.1007 17.6325 8.76572 17.6279C6.42904 17.6144 4.19357 16.6741 2.5499 15.0132C0.906236 13.3523 -0.0108088 11.1067 9.61545e-05 8.77001C0.0225068 6.43567 0.965504 4.20474 2.62461 2.56249C4.28371 0.920237 6.52454 -0.000462913 8.85898 0.000962957C11.1932 0.0264964 13.423 0.971368 15.065 2.6306C16.707 4.28984 17.6288 6.52964 17.63 8.864ZM8.84873 1.15111C6.82321 1.13938 4.87592 1.93076 3.43271 3.35204C1.98951 4.77331 1.1683 6.70865 1.14902 8.73412C1.13633 9.74547 1.32426 10.7491 1.70176 11.6875C2.07926 12.6258 2.6387 13.4801 3.34824 14.2009C4.05778 14.9217 4.90326 15.4947 5.83555 15.8869C6.76783 16.2792 7.76846 16.4828 8.77988 16.4861C9.78685 16.4915 10.7852 16.2983 11.7174 15.9175C12.6496 15.5367 13.4973 14.9757 14.2125 14.2668C14.9277 13.558 15.4963 12.7149 15.8854 11.7861C16.2744 10.8573 16.4765 9.86097 16.4801 8.85399C16.4865 7.84641 16.2936 6.84757 15.9132 5.91454C15.5328 4.98151 14.9719 4.13256 14.2628 3.41673C13.5537 2.70091 12.7103 2.13231 11.7809 1.74315C10.8514 1.35399 9.85438 1.15192 8.84678 1.14891L8.84873 1.15111Z" fill="#A0A0A0"/>
<path d="M8.81577 20.5102H3.35874C3.2314 20.52 3.10355 20.5166 2.9769 20.5002C2.84029 20.4844 2.71488 20.4175 2.62534 20.3131C2.5358 20.2088 2.4888 20.0746 2.49399 19.9372C2.48698 19.7996 2.53246 19.6646 2.62143 19.5595C2.7104 19.4544 2.83619 19.3868 2.973 19.371C3.1156 19.353 3.25983 19.3494 3.40317 19.36H14.222C14.322 19.36 14.4131 19.36 14.5091 19.36C14.8851 19.367 15.1292 19.55 15.1312 19.932C15.1364 20.0127 15.1235 20.0935 15.0936 20.1686C15.0638 20.2437 15.0175 20.3113 14.9583 20.3664C14.8992 20.4215 14.8288 20.4627 14.7518 20.4872C14.6748 20.5117 14.5931 20.519 14.513 20.5082C13.955 20.5132 13.3957 20.5082 12.8377 20.5082L8.81577 20.5102Z" fill="#A0A0A0"/>
<path d="M7.36263 23.385C6.61263 23.385 5.86258 23.385 5.11458 23.385C4.65258 23.385 4.38439 23.1611 4.41439 22.7961C4.44639 22.3851 4.70845 22.2341 5.09945 22.2351C6.61345 22.2351 8.12841 22.2351 9.64241 22.2351C10.1034 22.2351 10.3736 22.458 10.3426 22.823C10.3106 23.233 10.0486 23.387 9.65755 23.385C8.89055 23.381 8.12563 23.385 7.36263 23.385Z" fill="#A0A0A0"/>
<path d="M12.6834 22.2259C13.0084 22.2769 13.2374 22.4388 13.2244 22.8118C13.2282 22.8883 13.2159 22.9647 13.1878 23.0359C13.1597 23.1072 13.1163 23.1716 13.0613 23.2249C13.0063 23.2782 12.9405 23.3192 12.8685 23.345C12.7964 23.3709 12.7197 23.381 12.6434 23.3748C12.5667 23.3812 12.4898 23.3705 12.4178 23.3436C12.3457 23.3166 12.2805 23.274 12.2268 23.2188C12.1732 23.1636 12.1322 23.0973 12.1072 23.0245C12.0823 22.9517 12.0738 22.8744 12.0823 22.7979C12.0825 22.7204 12.0986 22.6435 12.1292 22.5723C12.1598 22.5011 12.2044 22.4368 12.2605 22.3834C12.3167 22.3299 12.3832 22.2886 12.4559 22.2615C12.5285 22.2344 12.6059 22.2222 12.6834 22.2259Z" fill="#A0A0A0"/>
<path d="M12.3637 7.46503C12.3499 8.40748 11.9671 9.30694 11.2973 9.97015C10.6276 10.6334 9.72425 11.0073 8.7817 11.0119C7.83903 10.9969 6.94073 10.6104 6.2817 9.93622C5.62267 9.26202 5.25621 8.35482 5.26266 7.41205C5.27071 6.46988 5.64774 5.56833 6.31295 4.90106C6.97816 4.2338 7.87862 3.85391 8.82076 3.84296C9.29191 3.8458 9.75763 3.94215 10.1914 4.12616C10.6251 4.31017 11.0182 4.57817 11.3476 4.91498C11.6771 5.25179 11.9364 5.65063 12.1108 6.08832C12.2852 6.526 12.3713 6.99394 12.3637 7.46503ZM6.41256 7.44208C6.418 8.08006 6.67339 8.69035 7.1235 9.14252C7.5736 9.59468 8.18282 9.85268 8.82076 9.86102C9.45902 9.85417 10.0688 9.59523 10.5171 9.14081C10.9653 8.68639 11.2157 8.07329 11.2138 7.435C11.215 6.79696 10.9662 6.18379 10.5205 5.72723C10.0748 5.27068 9.46744 5.00723 8.82955 4.9931C8.50887 4.99077 8.19131 5.05264 7.89498 5.17523C7.59865 5.29782 7.32977 5.47852 7.10445 5.70673C6.87914 5.93493 6.70177 6.20597 6.58297 6.50385C6.46417 6.80172 6.40614 7.12145 6.41256 7.44208Z" fill="#A0A0A0"/>
<path d="M8.62496 11.8709C10.065 11.8667 11.4679 12.3278 12.625 13.1851C13.042 13.4991 13.1487 13.816 12.9477 14.108C12.7247 14.431 12.3887 14.438 11.9477 14.129C11.1087 13.4647 10.0814 13.0827 9.01216 13.0377C7.94297 12.9926 6.88704 13.2867 5.99507 13.878C5.83407 13.978 5.69511 14.11 5.53511 14.22C5.47786 14.2773 5.40838 14.3209 5.33199 14.3477C5.25559 14.3745 5.17417 14.3837 5.09371 14.3748C5.01324 14.3659 4.9358 14.3391 4.86714 14.2962C4.79848 14.2533 4.74005 14.1954 4.69673 14.127C4.64917 14.0671 4.61478 13.9979 4.59566 13.9239C4.57654 13.8498 4.57326 13.7727 4.58589 13.6973C4.59853 13.6219 4.6267 13.5499 4.6689 13.4861C4.7111 13.4224 4.76653 13.3681 4.83101 13.327C5.65466 12.6362 6.64607 12.175 7.70504 11.99C8.0063 11.9162 8.31481 11.8761 8.62496 11.8709Z" fill="#A0A0A0"/>
</svg>
