<svg width="24" height="20" viewBox="0 0 24 20" fill="none" xmlns="http://www.w3.org/2000/svg">
<path d="M18.1478 5.18939C17.7068 5.09037 17.3408 4.8103 17.1468 4.42221C15.5329 1.19842 12.0459 -0.526998 8.47192 0.143166C5.33695 0.724307 2.80297 3.22291 2.16598 6.36168C1.97598 7.29491 1.94798 8.23514 2.08298 9.15836C2.16598 9.7255 2.02498 10.2316 1.69698 10.5467C0.603994 11.59 0.000999991 12.9933 0 14.4987C0 17.6354 2.36398 20 5.49995 20H16.2358C20.3668 20 23.8468 16.7652 23.9948 12.7872C24.1288 9.17436 21.6698 5.97859 18.1478 5.18839V5.18939ZM16.2358 19.0008H5.49995C2.89297 19.0008 0.999991 17.1073 0.999991 14.5007C1.00099 13.2714 1.49399 12.1241 2.38898 11.2699C2.95397 10.7287 3.20397 9.90754 3.07397 9.01432C2.95597 8.20613 2.98097 7.38093 3.14797 6.56173C3.70397 3.81906 5.91795 1.63453 8.65592 1.1264C9.10392 1.04338 9.55091 1.00337 9.99091 1.00337C12.6279 1.00337 15.0439 2.45373 16.2538 4.87032C16.5838 5.52848 17.1938 6.00059 17.9308 6.16663C20.9828 6.8508 23.1128 9.61947 22.9958 12.7512C22.8688 16.1971 19.8358 19.0008 16.2358 19.0008ZM15.2669 10.1496C15.4619 10.3446 15.4619 10.6617 15.2669 10.8568C15.1689 10.9548 15.0409 11.0028 14.9129 11.0028C14.7849 11.0028 14.6569 10.9538 14.5589 10.8568L11.9979 8.29515V15.5039C11.9979 15.78 11.7739 16.004 11.4979 16.004C11.2219 16.004 10.9979 15.78 10.9979 15.5039V8.29515L8.43692 10.8568C8.24192 11.0518 7.92493 11.0518 7.72993 10.8568C7.53493 10.6617 7.53493 10.3446 7.72993 10.1496L10.4369 7.44194C10.6799 7.19988 10.9889 7.08285 11.3049 7.04084C11.3639 7.01584 11.4289 7.00183 11.4969 7.00183C11.5649 7.00183 11.6299 7.01584 11.6889 7.04084C12.0059 7.08185 12.3149 7.19888 12.5579 7.44194L15.2649 10.1496H15.2669Z" fill="#A0A0A0"/>
</svg>
