<svg width="21" height="21" viewBox="0 0 21 21" fill="none" xmlns="http://www.w3.org/2000/svg">
<path d="M10.316 20.6395H0.416C0.11 20.6395 0 20.5325 0 20.2325C0 19.8372 0 19.4422 0 19.0475C0 18.7555 0.109994 18.6475 0.399994 18.6475C0.666994 18.6475 0.666992 18.6475 0.666992 18.3665V0.500504C0.666992 0.0935035 0.747003 0.0115051 1.147 0.0115051H10.525C10.886 0.0115051 10.981 0.104505 10.981 0.462505C10.981 3.11717 10.981 5.77184 10.981 8.4265C10.981 8.6105 11.019 8.6675 11.215 8.6665C12.761 8.6565 14.306 8.6605 15.852 8.6595C16.212 8.6595 16.309 8.7595 16.309 9.1105C16.309 12.2018 16.309 15.2932 16.309 18.3845C16.309 18.5845 16.341 18.6575 16.562 18.6485C17.081 18.6285 17.602 18.6355 18.121 18.6485C18.281 18.6485 18.307 18.6005 18.316 18.4485C18.3495 18.3105 18.3301 18.165 18.2616 18.0406C18.1931 17.9162 18.0805 17.822 17.946 17.7765C17.6787 17.6391 17.4516 17.4348 17.2868 17.1835C17.1221 16.9322 17.0253 16.6424 17.006 16.3425C16.94 16.0004 16.9586 15.6474 17.0602 15.3141C17.1618 14.9809 17.3433 14.6775 17.589 14.4305C17.7246 14.2886 17.8875 14.1756 18.068 14.0984C18.2485 14.0212 18.4427 13.9814 18.639 13.9814C18.8353 13.9814 19.0295 14.0212 19.21 14.0984C19.3905 14.1756 19.5534 14.2886 19.689 14.4305C20.0705 14.8338 20.2907 15.3631 20.3077 15.918C20.3246 16.4729 20.1372 17.0147 19.781 17.4405C19.6011 17.6534 19.3662 17.8128 19.102 17.9015C19.002 17.9335 18.971 17.9875 18.97 18.0935C18.964 18.6455 18.961 18.6455 19.509 18.6455C19.765 18.6455 20.022 18.6455 20.278 18.6455C20.3266 18.6394 20.376 18.6446 20.4223 18.6606C20.4687 18.6766 20.5107 18.7029 20.5453 18.7377C20.5799 18.7724 20.606 18.8147 20.6217 18.8611C20.6374 18.9075 20.6423 18.9569 20.636 19.0055C20.636 19.4145 20.636 19.8235 20.636 20.2325C20.636 20.5325 20.526 20.6405 20.22 20.6405L10.316 20.6395ZM1.334 9.6495C1.334 12.5742 1.334 15.4992 1.334 18.4245C1.334 18.6145 1.387 18.6505 1.564 18.6475C2.312 18.6375 3.064 18.6385 3.81 18.6475C3.965 18.6475 4.00999 18.6095 4.00999 18.4535C4.00199 17.5455 4.00999 16.6375 4.00999 15.7295C4.00999 15.4295 4.11799 15.3175 4.42099 15.3175H7.166C7.692 15.3175 7.687 15.3175 7.674 14.7955C7.674 14.6705 7.62599 14.6475 7.51599 14.6495C7.24599 14.6555 6.975 14.6495 6.705 14.6495C6.65472 14.6563 6.60352 14.6513 6.55551 14.6349C6.5075 14.6184 6.46399 14.591 6.42845 14.5548C6.39291 14.5186 6.36631 14.4745 6.35078 14.4262C6.33525 14.3779 6.33123 14.3267 6.339 14.2765C6.339 13.1885 6.339 12.1005 6.339 11.0125C6.33371 10.9639 6.33954 10.9148 6.35605 10.8688C6.37256 10.8228 6.39932 10.7812 6.4343 10.7471C6.46927 10.713 6.51154 10.6873 6.55792 10.6719C6.6043 10.6566 6.65358 10.652 6.702 10.6585C6.861 10.6585 7.02099 10.6585 7.17999 10.6585C7.68799 10.6585 7.68 10.6585 7.673 10.1425C7.673 10.0255 7.64 9.98651 7.521 9.99051C7.258 9.99951 6.994 9.99551 6.731 9.99051C6.468 9.98551 6.34 9.8725 6.34 9.5995C6.34 8.53284 6.34 7.46617 6.34 6.3995C6.34 6.1085 6.44899 5.9995 6.73999 5.9995C7.58532 5.9995 8.43099 5.9995 9.27699 5.9995C9.55099 5.9995 9.663 6.11551 9.664 6.39351C9.664 6.99351 9.664 7.5995 9.664 8.2025C9.664 8.6625 9.664 8.65551 10.129 8.66451C10.293 8.66451 10.334 8.6215 10.329 8.4585C10.3237 5.9285 10.3237 3.39884 10.329 0.869503C10.329 0.720503 10.3 0.669502 10.138 0.669502C7.27533 0.675502 4.41299 0.675502 1.55099 0.669502C1.36999 0.669502 1.34 0.726502 1.34 0.891502C1.33866 3.81217 1.336 6.7315 1.334 9.6495ZM8.31999 13.9865V15.4425C8.31999 16.4478 8.31999 17.4528 8.31999 18.4575C8.31999 18.5345 8.27099 18.6465 8.42999 18.6455C9.12999 18.6422 9.83 18.6422 10.53 18.6455C10.621 18.6455 10.651 18.6145 10.649 18.5255C10.649 18.3455 10.649 18.1655 10.649 17.9845C10.6448 17.6571 10.7615 17.3396 10.9768 17.0929C11.1921 16.8462 11.4909 16.6875 11.8159 16.6474C12.1409 16.6073 12.4693 16.6885 12.7381 16.8754C13.007 17.0623 13.1974 17.3419 13.273 17.6605C13.317 17.9271 13.3287 18.1981 13.308 18.4675C13.308 18.5965 13.334 18.6475 13.478 18.6455C14.1447 18.6382 14.8113 18.6382 15.478 18.6455C15.622 18.6455 15.646 18.5955 15.646 18.4675C15.646 15.4802 15.646 12.4928 15.646 9.5055C15.646 9.3585 15.606 9.32351 15.461 9.32351C13.153 9.32817 10.845 9.32817 8.537 9.32351C8.368 9.32351 8.31699 9.3595 8.31799 9.5365C8.32299 11.0195 8.31999 12.5025 8.31999 13.9865ZM10.296 19.9725H19.525C19.965 19.9725 19.956 19.9725 19.968 19.5345C19.973 19.3545 19.929 19.3055 19.743 19.3055C13.5283 19.3108 7.31333 19.3108 1.09799 19.3055C0.667992 19.3055 0.677993 19.3055 0.664993 19.7325C0.658993 19.9195 0.706994 19.9725 0.899994 19.9715C4.03199 19.9688 7.16466 19.9692 10.296 19.9725ZM6.14099 18.6435C6.59099 18.6435 7.041 18.6435 7.491 18.6435C7.612 18.6435 7.66 18.6215 7.658 18.4855C7.65134 17.7035 7.65134 16.9212 7.658 16.1385C7.658 16.0105 7.624 15.9745 7.496 15.9755C6.60267 15.9815 5.70967 15.9815 4.817 15.9755C4.705 15.9755 4.66 15.9985 4.66 16.1225C4.66467 16.9118 4.66467 17.7012 4.66 18.4905C4.66 18.6115 4.699 18.6415 4.814 18.6405C5.254 18.6405 5.69799 18.6435 6.14099 18.6435ZM6.989 8.0035V8.9385C6.989 9.3265 6.98899 9.3265 7.37599 9.3255C7.64999 9.3255 7.65 9.3255 7.653 9.0545C7.656 8.7835 7.77099 8.6625 8.04199 8.6605C8.31299 8.6585 8.56799 8.6605 8.83099 8.6605C8.94299 8.6605 8.98899 8.6385 8.98799 8.5145C8.98199 7.94717 8.98199 7.3805 8.98799 6.8145C8.98799 6.6965 8.954 6.6615 8.836 6.6625C8.275 6.6685 7.71399 6.6705 7.15399 6.6625C7.00999 6.6625 6.98399 6.7135 6.98599 6.8415C6.99299 7.2285 6.989 7.6165 6.989 8.0035ZM17.634 15.9865C17.6318 16.1875 17.6692 16.387 17.7442 16.5735C17.8192 16.7601 17.9302 16.93 18.071 17.0735C18.1451 17.1494 18.2338 17.2095 18.3317 17.2503C18.4297 17.2911 18.5348 17.3117 18.6409 17.3108C18.747 17.31 18.8518 17.2877 18.9491 17.2454C19.0464 17.2031 19.1341 17.1416 19.207 17.0645C19.4771 16.7695 19.627 16.384 19.627 15.984C19.627 15.584 19.4771 15.1985 19.207 14.9035C19.1328 14.8254 19.0433 14.7634 18.9441 14.7213C18.8449 14.6792 18.7381 14.658 18.6303 14.6589C18.5226 14.6598 18.4162 14.6829 18.3177 14.7267C18.2192 14.7705 18.1308 14.8341 18.058 14.9135C17.7835 15.2031 17.6316 15.5875 17.634 15.9865ZM7.655 12.6605V11.8095C7.655 11.3165 7.655 11.3225 7.155 11.3235C7.011 11.3235 6.986 11.3745 6.987 11.5025C6.993 12.1665 6.987 12.8305 6.987 13.4955C6.987 14.0065 6.98699 14.0005 7.49899 13.9955C7.63699 13.9955 7.65499 13.9415 7.65399 13.8245C7.65099 13.4315 7.655 13.0445 7.655 12.6565V12.6605ZM12.017 18.6475C12.197 18.6265 12.488 18.7475 12.611 18.6015C12.718 18.4775 12.651 18.1935 12.642 17.9805C12.642 17.8047 12.5722 17.636 12.4478 17.5117C12.3235 17.3874 12.1548 17.3175 11.979 17.3175C11.8032 17.3175 11.6345 17.3874 11.5102 17.5117C11.3859 17.636 11.316 17.8047 11.316 17.9805C11.307 18.1595 11.316 18.3395 11.316 18.5195C11.316 18.6195 11.342 18.6555 11.444 18.6515C11.62 18.6385 11.799 18.6435 12.017 18.6435V18.6475Z" fill="#8F8F8F"/>
<path d="M16.5507 0.000500672C17.5682 -0.0155917 18.5537 0.356766 19.3063 1.04175C20.0589 1.72673 20.5222 2.67283 20.6017 3.68739C20.6812 4.70195 20.3711 5.70868 19.7344 6.50258C19.0977 7.29648 18.1823 7.81783 17.1747 7.9605C16.2974 8.08892 15.4026 7.91243 14.6397 7.4605C14.5987 7.43157 14.5505 7.41441 14.5005 7.41089C14.4504 7.40736 14.4003 7.41761 14.3557 7.4405C13.9717 7.6135 13.5817 7.7725 13.1947 7.9405C13.1245 7.98603 13.0409 8.00646 12.9575 7.99847C12.8742 7.99048 12.796 7.95454 12.7357 7.8965C12.6818 7.83699 12.6488 7.76143 12.642 7.68141C12.6351 7.60139 12.6547 7.52133 12.6977 7.4535C12.8617 7.0735 13.0217 6.6905 13.1917 6.3125C13.2185 6.26243 13.2312 6.206 13.2283 6.14928C13.2255 6.09256 13.2073 6.03767 13.1757 5.9905C12.8667 5.45344 12.6867 4.85194 12.6498 4.23342C12.613 3.6149 12.7203 2.99627 12.9634 2.42633C13.2065 1.85639 13.5787 1.35071 14.0506 0.94917C14.5225 0.547632 15.0812 0.261213 15.6827 0.1125C15.9662 0.0390794 16.2578 0.00145385 16.5507 0.000500672ZM13.6287 7.0115C13.8707 6.9115 14.0757 6.8345 14.2707 6.7385C14.3583 6.69085 14.458 6.66973 14.5574 6.67772C14.6568 6.68571 14.7518 6.72247 14.8307 6.7835C15.518 7.24248 16.3548 7.42136 17.1697 7.2835C17.8767 7.17083 18.5284 6.83301 19.0279 6.32026C19.5275 5.80751 19.8483 5.14722 19.9425 4.43757C20.0367 3.72792 19.8994 3.0068 19.5509 2.38146C19.2024 1.75611 18.6615 1.25993 18.0084 0.966691C17.3553 0.673451 16.6251 0.598813 15.9262 0.753877C15.2273 0.90894 14.5971 1.28543 14.1294 1.82735C13.6616 2.36927 13.3812 3.04769 13.3299 3.76173C13.2786 4.47577 13.4592 5.18729 13.8447 5.7905C13.9113 5.87438 13.9517 5.97606 13.9608 6.0828C13.9699 6.18954 13.9472 6.29658 13.8957 6.3905C13.8007 6.5795 13.7287 6.7785 13.6287 7.0115Z" fill="#8F8F8F"/>
<path d="M2.33092 3.33251C2.33092 2.79951 2.33092 2.26651 2.33092 1.73251C2.33092 1.45651 2.44592 1.34251 2.72092 1.34251C3.57292 1.34251 4.42459 1.34251 5.27592 1.34251C5.53892 1.34251 5.65493 1.45951 5.65593 1.72251C5.65593 2.80318 5.65593 3.88352 5.65593 4.96352C5.66338 5.01378 5.65894 5.0651 5.64296 5.11333C5.62698 5.16157 5.5999 5.20539 5.56392 5.24127C5.52794 5.27716 5.48406 5.3041 5.43578 5.31995C5.38749 5.33579 5.33615 5.3401 5.2859 5.33251C4.41924 5.33251 3.55258 5.33251 2.68591 5.33251C2.63733 5.33874 2.58797 5.33374 2.54163 5.31789C2.49528 5.30203 2.4532 5.27576 2.41861 5.24107C2.38402 5.20639 2.35786 5.16423 2.34213 5.11784C2.32641 5.07146 2.32154 5.02208 2.32791 4.97351C2.32891 4.42751 2.33092 3.87951 2.33092 3.33251ZM2.99593 3.33251C2.99593 3.72051 3.00093 4.10751 2.99593 4.49551C2.99593 4.62851 3.02692 4.67251 3.16692 4.67051C3.72092 4.66151 4.27493 4.66351 4.82793 4.67051C4.94693 4.67051 4.9979 4.65051 4.9969 4.51351C4.9909 3.73151 4.9909 2.94918 4.9969 2.16651C4.9969 2.03851 4.96191 2.00252 4.83391 2.00452C4.27324 2.01118 3.71257 2.01118 3.1519 2.00452C3.0159 2.00452 2.99292 2.05152 2.99492 2.17252C3.00092 2.55952 2.99593 2.94651 2.99593 3.33451V3.33251Z" fill="#8F8F8F"/>
<path d="M6.32398 3.3175C6.32398 2.7915 6.32398 2.2645 6.32398 1.7385C6.32398 1.4595 6.43599 1.34351 6.70999 1.34351C7.56199 1.34351 8.41399 1.34351 9.26599 1.34351C9.53099 1.34351 9.65 1.45951 9.65 1.71851C9.65 2.79917 9.65 3.8795 9.65 4.9595C9.65 5.2175 9.52898 5.3335 9.26398 5.3345C8.41198 5.3345 7.56032 5.3345 6.70899 5.3345C6.43699 5.3345 6.32498 5.2175 6.32498 4.9345C6.32298 4.3975 6.32398 3.8575 6.32398 3.3175ZM6.991 3.33951C6.991 3.72751 6.991 4.1145 6.991 4.5025C6.991 4.6175 7.00499 4.67551 7.14499 4.67351C7.71199 4.66451 8.27997 4.66651 8.84497 4.67351C8.94997 4.67351 8.98798 4.64851 8.98798 4.53551C8.98398 3.73951 8.98398 2.94351 8.98798 2.14751C8.98798 2.03551 8.95097 2.00751 8.84497 2.00851C8.27697 2.00851 7.70999 2.01651 7.14499 2.00851C7.00399 2.00851 6.98998 2.0635 6.99198 2.1795C6.99398 2.5645 6.991 2.95151 6.991 3.33951Z" fill="#8F8F8F"/>
<path d="M5.65804 7.99751C5.65804 8.53051 5.65804 9.06452 5.65804 9.59752C5.65804 9.87552 5.54402 9.99151 5.27202 9.99251C4.43402 9.99251 3.59601 9.99251 2.75801 9.99251C2.43601 9.99251 2.33203 9.89251 2.33203 9.57451C2.33203 8.52184 2.33203 7.46919 2.33203 6.41652C2.33203 6.11052 2.43903 6.00152 2.73903 6.00052H5.25304C5.54404 6.00052 5.65304 6.11151 5.65804 6.40051C5.65904 6.93051 5.65804 7.46451 5.65804 7.99751ZM4.99303 8.01752C4.99303 7.62252 4.99303 7.22851 4.99303 6.83351C4.99303 6.71951 4.98201 6.65951 4.84001 6.66151C4.27901 6.67051 3.71904 6.66851 3.15804 6.66151C3.03404 6.66151 2.99102 6.69251 2.99202 6.82251C2.99735 7.60451 2.99735 8.38684 2.99202 9.16951C2.99202 9.30351 3.03701 9.32951 3.15901 9.32751C3.71301 9.32151 4.26669 9.32151 4.82002 9.32751C4.95302 9.32751 4.99904 9.29651 4.99504 9.15651C4.98704 8.77951 4.99303 8.39852 4.99303 8.01752Z" fill="#8F8F8F"/>
<path d="M5.65807 12.6595C5.65807 13.1935 5.65807 13.7265 5.65807 14.2595C5.65807 14.5345 5.54207 14.6495 5.26707 14.6495C4.41507 14.6495 3.56273 14.6495 2.71007 14.6495C2.44807 14.6495 2.33105 14.5315 2.33105 14.2695C2.33105 13.2028 2.33105 12.1362 2.33105 11.0695C2.33105 10.7695 2.44007 10.6575 2.74207 10.6575H5.25706C5.54506 10.6575 5.65706 10.7715 5.65706 11.0575C5.65706 11.5905 5.65706 12.1245 5.65706 12.6575L5.65807 12.6595ZM2.99605 12.6595C2.99605 13.0475 3.00105 13.4345 2.99605 13.8225C2.99605 13.9515 3.03207 13.9865 3.15907 13.9855C3.72007 13.9795 4.28005 13.9855 4.84105 13.9855C4.95405 13.9855 4.99705 13.9595 4.99605 13.8375C4.99071 13.0482 4.99071 12.2592 4.99605 11.4705C4.99605 11.3525 4.96207 11.3185 4.84407 11.3195C4.28307 11.3245 3.72306 11.3265 3.16206 11.3195C3.01806 11.3195 2.99206 11.3695 2.99406 11.4975C3.00106 11.8855 2.99706 12.2735 2.99706 12.6615L2.99605 12.6595Z" fill="#8F8F8F"/>
<path d="M8.98482 11.3045C8.98482 11.0045 8.98482 10.6955 8.98482 10.3905C8.98482 10.1105 9.09682 9.99051 9.36882 9.99051C9.99882 9.99051 10.6291 9.99051 11.2598 9.99051C11.5328 9.99051 11.6458 10.1065 11.6458 10.3855C11.6458 11.0155 11.6458 11.6459 11.6458 12.2765C11.6458 12.5365 11.5278 12.6515 11.2628 12.6515C10.6328 12.6515 10.0025 12.6515 9.37181 12.6515C9.09781 12.6515 8.98582 12.5355 8.98482 12.2575C8.98382 11.9415 8.98482 11.6235 8.98482 11.3045ZM9.65181 11.3045C9.65181 11.4845 9.65181 11.6645 9.65181 11.8435C9.65181 11.9435 9.6638 11.9955 9.7838 11.9925C10.1428 11.9855 10.5028 11.9865 10.8628 11.9925C10.9698 11.9925 10.9878 11.9475 10.9868 11.8565C10.9868 11.5035 10.9818 11.1515 10.9868 10.7985C10.9868 10.6895 10.9558 10.6555 10.8458 10.6575C10.4928 10.6645 10.1408 10.6655 9.7878 10.6575C9.6708 10.6575 9.64983 10.7045 9.65383 10.8055C9.65683 10.9715 9.65181 11.1375 9.65181 11.3035V11.3045Z" fill="#8F8F8F"/>
<path d="M13.642 9.99051C13.954 9.99051 14.265 9.99051 14.577 9.99051C14.854 9.99051 14.977 10.1055 14.977 10.3765C14.977 11.0065 14.977 11.6365 14.977 12.2665C14.977 12.5385 14.86 12.6525 14.582 12.6525C13.9587 12.6525 13.3353 12.6525 12.712 12.6525C12.427 12.6525 12.312 12.5365 12.312 12.2475C12.312 11.6242 12.312 11.0008 12.312 10.3775C12.312 10.1045 12.428 9.9925 12.707 9.9915C13.019 9.9915 13.33 9.99051 13.642 9.99051ZM13.642 11.9905C13.822 11.9905 14.002 11.9905 14.182 11.9905C14.282 11.9905 14.316 11.9645 14.314 11.8625C14.3087 11.5025 14.3087 11.1425 14.314 10.7825C14.314 10.6825 14.276 10.6545 14.181 10.6555C13.828 10.6555 13.475 10.6555 13.122 10.6555C13.016 10.6555 12.977 10.6825 12.979 10.7945C12.9857 11.1472 12.9857 11.5002 12.979 11.8535C12.979 11.9675 13.018 11.9955 13.123 11.9915C13.292 11.9845 13.465 11.9895 13.638 11.9895L13.642 11.9905Z" fill="#8F8F8F"/>
<path d="M8.98489 14.6305C8.98489 14.3305 8.98489 14.0215 8.98489 13.7165C8.98489 13.4375 9.0969 13.3225 9.3699 13.3215C9.9999 13.3215 10.6299 13.3215 11.2599 13.3215C11.5219 13.3215 11.6429 13.4395 11.6439 13.6975C11.6439 14.3342 11.6439 14.9712 11.6439 15.6085C11.6439 15.8665 11.5229 15.9825 11.2589 15.9835C10.6289 15.9835 9.9989 15.9835 9.3689 15.9835C9.0979 15.9835 8.98391 15.8645 8.98291 15.5835C8.98291 15.2645 8.98291 14.9465 8.98291 14.6275L8.98489 14.6305ZM10.9849 14.6515C10.9849 14.4785 10.9849 14.3055 10.9849 14.1325C10.9849 14.0325 10.9709 13.9815 10.8519 13.9845C10.4989 13.9915 10.1459 13.9905 9.79291 13.9845C9.68691 13.9845 9.6479 14.0105 9.6499 14.1235C9.65657 14.4762 9.65657 14.8292 9.6499 15.1825C9.6499 15.2965 9.68891 15.3215 9.79391 15.3205C10.1399 15.3155 10.4859 15.3145 10.8319 15.3205C10.9469 15.3205 10.9929 15.2925 10.9859 15.1715C10.9739 14.9945 10.9819 14.8235 10.9819 14.6505L10.9849 14.6515Z" fill="#8F8F8F"/>
<path d="M14.975 14.6405C14.975 14.9595 14.975 15.2775 14.975 15.5965C14.975 15.8605 14.858 15.9805 14.6 15.9815C13.9626 15.9815 13.3253 15.9815 12.688 15.9815C12.427 15.9815 12.313 15.8635 12.313 15.5975C12.313 14.9675 12.313 14.3372 12.313 13.7065C12.313 13.4335 12.429 13.3225 12.713 13.3215C13.3363 13.3215 13.9596 13.3215 14.583 13.3215C14.861 13.3215 14.976 13.4335 14.977 13.7075C14.975 14.0165 14.975 14.3285 14.975 14.6405ZM14.31 14.6515C14.31 14.4785 14.303 14.3055 14.31 14.1335C14.317 14.0105 14.267 13.9835 14.155 13.9855C13.8096 13.9908 13.4643 13.9908 13.119 13.9855C13.012 13.9855 12.974 14.0135 12.977 14.1245C12.984 14.4765 12.983 14.8245 12.977 15.1815C12.977 15.2725 12.993 15.3195 13.1 15.3185C13.459 15.3185 13.819 15.3185 14.178 15.3185C14.278 15.3185 14.313 15.2905 14.309 15.1905C14.304 15.0105 14.31 14.8305 14.31 14.6515Z" fill="#8F8F8F"/>
<path d="M16.6091 1.3425C17.0756 1.31619 17.5358 1.46047 17.9038 1.74842C18.2718 2.03638 18.5225 2.44835 18.6091 2.9075C18.6951 3.3126 18.6236 3.73525 18.4091 4.0895C17.9291 4.8895 17.4361 5.68451 16.9421 6.47651C16.9161 6.53389 16.8742 6.58264 16.8214 6.61703C16.7686 6.65143 16.707 6.67004 16.644 6.67067C16.581 6.6713 16.5191 6.65393 16.4657 6.62059C16.4122 6.58726 16.3693 6.53935 16.3421 6.4825C15.8421 5.6825 15.3341 4.8935 14.8681 4.0765C14.7224 3.78413 14.6548 3.45897 14.6721 3.13273C14.6894 2.80649 14.7909 2.49029 14.9667 2.21495C15.1425 1.9396 15.3867 1.71452 15.6754 1.56162C15.9641 1.40872 16.2876 1.33323 16.6141 1.3425H16.6091ZM16.6381 5.6945C17.0571 5.0055 17.4631 4.3635 17.8431 3.7055C17.9319 3.54694 17.9762 3.36732 17.9713 3.18565C17.9663 3.00398 17.9124 2.82702 17.8151 2.6735C17.6601 2.40781 17.4194 2.20271 17.1325 2.09186C16.8456 1.98102 16.5295 1.97102 16.2361 2.0635C16.065 2.10179 15.9047 2.17812 15.7671 2.28684C15.6294 2.39555 15.5181 2.53387 15.4412 2.6915C15.3644 2.84914 15.324 3.02205 15.3231 3.19741C15.3223 3.37278 15.3609 3.5461 15.4361 3.7045C15.7991 4.3705 16.2191 5.00651 16.6391 5.69651L16.6381 5.6945Z" fill="#8F8F8F"/>
<path d="M17.6367 3.3355C17.6376 3.53429 17.5793 3.72886 17.4692 3.89435C17.3591 4.05985 17.2021 4.18876 17.0183 4.26463C16.8346 4.3405 16.6324 4.35988 16.4376 4.32029C16.2428 4.28071 16.0642 4.18396 15.9246 4.04239C15.7851 3.90083 15.6908 3.72089 15.654 3.52553C15.6172 3.33018 15.6394 3.12828 15.7179 2.94562C15.7964 2.76297 15.9275 2.60784 16.0945 2.50006C16.2616 2.39227 16.4569 2.33672 16.6557 2.3405C16.9167 2.34545 17.1655 2.45232 17.3488 2.63824C17.5321 2.82417 17.6354 3.07441 17.6367 3.3355ZM16.9667 3.3245C16.9641 3.25955 16.9424 3.19681 16.9043 3.14415C16.8662 3.09148 16.8134 3.05125 16.7526 3.02848C16.6917 3.00571 16.6254 3.00142 16.5621 3.01616C16.4988 3.0309 16.4413 3.06401 16.3967 3.11133C16.3522 3.15865 16.3226 3.21808 16.3116 3.28216C16.3007 3.34623 16.309 3.4121 16.3354 3.4715C16.3617 3.53091 16.4051 3.5812 16.4599 3.61606C16.5148 3.65093 16.5787 3.66883 16.6437 3.6675C16.7303 3.66014 16.8112 3.62106 16.8708 3.55777C16.9304 3.49447 16.9646 3.41141 16.9667 3.3245Z" fill="#8F8F8F"/>
</svg>
