<svg width="19" height="29" viewBox="0 0 19 29" fill="none" xmlns="http://www.w3.org/2000/svg">
<path d="M2.87012 22.353H16.1381" stroke="#8F8F8F" stroke-linecap="round" stroke-linejoin="round"/>
<path d="M2.87012 7.35302H16.1381" stroke="#8F8F8F" stroke-linecap="round" stroke-linejoin="round"/>
<path d="M6.48218 3.35302H10.4882" stroke="#8F8F8F" stroke-linecap="round" stroke-linejoin="round"/>
<path d="M18.2701 10.559V24.354C18.3262 25.3565 17.9832 26.3404 17.3162 27.0908C16.6492 27.8412 15.7123 28.2972 14.7101 28.359H4.05913C3.057 28.2969 2.12018 27.8407 1.45332 27.0901C0.786465 26.3395 0.443784 25.3555 0.500136 24.353V7.07098" stroke="#8F8F8F" stroke-linecap="round" stroke-linejoin="round"/>
<path d="M0.50008 4.505C0.444001 3.5027 0.786803 2.51894 1.45363 1.76855C2.12046 1.01815 3.05712 0.56209 4.05907 0.499991H14.7101C15.712 0.56209 16.6487 1.01815 17.3155 1.76855C17.9823 2.51894 18.3252 3.5027 18.2691 4.505" stroke="#8F8F8F" stroke-linecap="round" stroke-linejoin="round"/>
<path d="M9.39606 26.37C9.95552 26.37 10.4091 25.9165 10.4091 25.357C10.4091 24.7975 9.95552 24.344 9.39606 24.344C8.83659 24.344 8.38306 24.7975 8.38306 25.357C8.38306 25.9165 8.83659 26.37 9.39606 26.37Z" stroke="#8F8F8F" stroke-linecap="round" stroke-linejoin="round"/>
</svg>
