<svg width="38" height="38" viewBox="0 0 38 38" fill="none" xmlns="http://www.w3.org/2000/svg">
<circle cx="19" cy="19" r="19" fill="#E8EAEB"/>
<path d="M27.2893 17.208C27.2773 17.213 27.2703 17.229 27.2573 17.242L20.5963 24.647C20.5893 24.655 20.5893 24.66 20.5833 24.66C20.4337 24.8362 20.2476 24.9777 20.0379 25.0748C19.8282 25.1719 19.5999 25.2222 19.3688 25.2222C19.1377 25.2222 18.9094 25.1719 18.6996 25.0748C18.4899 24.9777 18.3038 24.8362 18.1543 24.66L18.1423 24.647L11.4803 17.242C11.4613 17.208 11.4363 17.179 11.4173 17.151C11.1435 16.7942 10.9973 16.3558 11.0023 15.906C10.9783 15.4268 11.1446 14.9576 11.4651 14.6005C11.7856 14.2435 12.2343 14.0276 12.7133 14C12.9615 14.0024 13.2057 14.0619 13.4272 14.1739C13.6486 14.286 13.8413 14.4475 13.9903 14.646L19.3693 20.629L24.8363 14.546L24.8673 14.512C25.0167 14.3525 25.1969 14.2249 25.3969 14.1369C25.597 14.049 25.8127 14.0024 26.0313 14C26.5103 14.0276 26.9589 14.2435 27.2794 14.6005C27.5999 14.9576 27.7663 15.4268 27.7423 15.906C27.7453 16.3792 27.5853 16.8389 27.2893 17.208Z" fill="#0B3041"/>
</svg>
