<svg width="39" height="35" viewBox="0 0 39 35" fill="none" xmlns="http://www.w3.org/2000/svg">
<path d="M28.768 10.7665C28.7258 11.4978 28.5202 12.2103 28.1663 12.8517C27.8124 13.4931 27.3192 14.0469 26.723 14.4725C25.8947 15.0588 24.8895 15.3414 23.877 15.2725C21.75 15.1635 20.287 13.7225 19.559 10.9255C19.4846 11.6852 19.2365 12.4176 18.8339 13.0661C18.4313 13.7146 17.8849 14.2619 17.237 14.6655C16.3854 15.1899 15.377 15.3994 14.387 15.2575C13.3179 15.0952 12.3361 14.5733 11.6035 13.778C10.8708 12.9826 10.4312 11.9613 10.357 10.8825C10.273 11.2585 10.219 11.5525 10.141 11.8395C9.88816 12.8374 9.3136 13.7243 8.50615 14.3629C7.6987 15.0015 6.70337 15.3563 5.67403 15.3725C4.63081 15.3612 3.61975 15.0099 2.79427 14.372C1.96878 13.734 1.37395 12.8442 1.10002 11.8375C1.00423 11.5347 0.976785 11.2144 1.01967 10.8997C1.06255 10.5849 1.17468 10.2837 1.34801 10.0175C3.11001 7.1525 4.82402 4.2545 6.54802 1.3625C6.6009 1.24763 6.68747 1.15156 6.79625 1.08708C6.90503 1.0226 7.03088 0.992747 7.15703 1.00149C14.8904 1.01149 22.6237 1.01149 30.357 1.00149C30.477 0.995213 30.5964 1.02202 30.7023 1.07898C30.8081 1.13594 30.8962 1.22086 30.957 1.32449C33.0863 4.30649 35.2237 7.2825 37.369 10.2525C37.4916 10.4089 37.5792 10.5899 37.6258 10.7831C37.6724 10.9764 37.6769 11.1774 37.639 11.3725C37.5253 12.3954 37.0556 13.3458 36.312 14.0573C35.5685 14.7689 34.5984 15.1964 33.5715 15.2651C32.5445 15.3337 31.5262 15.0391 30.6945 14.4328C29.8629 13.8266 29.2708 12.9472 29.022 11.9485C28.921 11.6075 28.868 11.2495 28.768 10.7665Z" stroke="#869006" stroke-width="1.5"/>
<path d="M19.4994 33.5196C14.5114 33.5196 9.52346 33.5136 4.53546 33.5316C4.10946 33.5316 4.02946 33.4056 4.03546 32.9836C4.05013 27.9276 4.05013 22.8716 4.03546 17.8156C4.03546 17.4056 4.09446 17.3246 4.50146 17.4276C5.49301 17.6922 6.53552 17.701 7.53137 17.453C8.52722 17.205 9.44386 16.7084 10.1955 16.0096C10.4425 15.7986 10.5715 15.7956 10.8205 16.0156C11.977 17.0583 13.4779 17.6373 15.0351 17.6415C16.5923 17.6458 18.0962 17.075 19.2585 16.0386C19.5315 15.8026 19.6685 15.7956 19.9485 16.0386C21.112 17.0735 22.6162 17.6433 24.1734 17.6391C25.7306 17.6348 27.2316 17.0568 28.3895 16.0156C28.6235 15.8156 28.7465 15.7776 29.0095 16.0026C29.7449 16.6865 30.6385 17.1775 31.6101 17.4316C32.5818 17.6857 33.6013 17.695 34.5775 17.4586C34.8975 17.3846 34.9555 17.4766 34.9545 17.7976C34.9458 22.8989 34.9458 27.9989 34.9545 33.0976C34.9545 33.4976 34.8055 33.5196 34.5055 33.5196C29.5035 33.5162 24.5014 33.5162 19.4994 33.5196ZM23.3545 26.4016C23.3545 27.9516 23.3624 29.5016 23.3484 31.0506C23.3484 31.3726 23.4085 31.4986 23.7485 31.4946C25.4205 31.4772 27.0925 31.4772 28.7645 31.4946C29.0905 31.4946 29.1725 31.3866 29.1715 31.0546C29.1601 27.9552 29.1601 24.8552 29.1715 21.7546C29.1715 21.4236 29.0965 21.3196 28.7715 21.3226C27.0995 21.3406 25.4275 21.3406 23.7555 21.3226C23.4305 21.3226 23.3495 21.4166 23.3555 21.7506C23.3635 23.3016 23.3535 24.8516 23.3535 26.4016H23.3545ZM12.7165 27.4236C14.2015 27.4236 15.6865 27.4166 17.1715 27.4296C17.4715 27.4296 17.5655 27.3416 17.5625 27.0226C17.5498 25.2639 17.5498 23.5049 17.5625 21.7456C17.5625 21.3976 17.4625 21.3236 17.1475 21.3256C14.1915 21.3376 11.2354 21.3376 8.27945 21.3256C7.97945 21.3256 7.89547 21.4066 7.89847 21.7256C7.91313 23.4842 7.91313 25.2432 7.89847 27.0026C7.89847 27.3396 7.98046 27.4366 8.29846 27.4326C9.77446 27.4136 11.2455 27.4246 12.7165 27.4236Z" stroke="#869006" stroke-width="1.5"/>
</svg>
