<svg width="84" height="84" viewBox="0 0 84 84" fill="none" xmlns="http://www.w3.org/2000/svg">
<path opacity="0.15" d="M42 84C65.196 84 84 65.196 84 42C84 18.804 65.196 0 42 0C18.804 0 0 18.804 0 42C0 65.196 18.804 84 42 84Z" fill="#0B3041"/>
<path d="M66.3799 50.613C65.7659 51.854 65.1599 52.106 63.8169 51.672C62.9182 51.382 62.0198 51.0903 61.1218 50.797C60.8981 50.7455 60.6876 50.6479 60.5037 50.5105C60.3197 50.3731 60.1664 50.1989 60.0535 49.999C59.9406 49.7991 59.8706 49.5778 59.8479 49.3494C59.8252 49.1209 59.8505 48.8902 59.9219 48.672C59.9944 48.4547 60.1111 48.2547 60.2645 48.0847C60.418 47.9146 60.605 47.7781 60.8137 47.6837C61.0225 47.5893 61.2485 47.5391 61.4776 47.5363C61.7066 47.5334 61.9339 47.5779 62.1449 47.667C63.0289 47.949 63.9029 48.267 64.7969 48.517C65.1488 48.5909 65.4772 48.7502 65.7531 48.981C66.0289 49.2117 66.2438 49.5067 66.3788 49.84L66.3799 50.613Z" stroke="#0B3041" stroke-width="1.5"/>
<path d="M41.6748 23.5739C42.4117 23.5625 43.1359 23.7672 43.7579 24.1626C44.3799 24.558 44.8724 25.1268 45.1748 25.7989C46.3081 28.0849 47.4355 30.3739 48.5569 32.6659C48.6144 32.811 48.7126 32.9363 48.8396 33.0269C48.9666 33.1176 49.1169 33.1697 49.2728 33.1769C51.8335 33.5303 54.3911 33.9043 56.9458 34.2989C57.6634 34.3793 58.3405 34.673 58.8894 35.1422C59.4383 35.6115 59.8339 36.2345 60.0249 36.9309C60.2658 37.6116 60.2993 38.3484 60.1213 39.0482C59.9433 39.7479 59.5618 40.3792 59.0249 40.8619C57.1935 42.6666 55.3525 44.4616 53.5018 46.2469C53.3858 46.3384 53.2988 46.4615 53.2511 46.6013C53.2034 46.741 53.1971 46.8916 53.2329 47.0349C53.6879 49.5789 54.1149 52.1279 54.5409 54.6769C54.6902 55.3833 54.6259 56.1181 54.3563 56.7879C54.0867 57.4576 53.6239 58.032 53.0268 58.4379C52.4605 58.8864 51.773 59.1552 51.0527 59.2097C50.3324 59.2643 49.6122 59.1021 48.9848 58.7439C46.7748 57.6029 44.5689 56.4519 42.3849 55.2619C42.1754 55.1282 41.9316 55.0582 41.6831 55.0603C41.4346 55.0625 41.192 55.1367 40.9848 55.2739C38.8548 56.4299 36.7028 57.5449 34.5588 58.6739C33.9207 59.0602 33.1814 59.2463 32.4365 59.2081C31.6915 59.17 30.9752 58.9094 30.3799 58.4599C29.7979 58.0749 29.3402 57.5292 29.0622 56.8891C28.7843 56.249 28.6979 55.5421 28.8138 54.8539C28.9918 53.5349 29.2488 52.2249 29.4748 50.9119C29.7058 49.5669 29.9289 48.2209 30.1819 46.8809C30.2009 46.7724 30.1879 46.6606 30.1446 46.5592C30.1013 46.4578 30.0294 46.3713 29.9378 46.3099C28.0508 44.4699 26.1469 42.6469 24.2849 40.7819C23.8831 40.3806 23.5756 39.8949 23.385 39.3599C23.1943 38.825 23.1253 38.2543 23.1827 37.6893C23.2402 37.1244 23.4227 36.5793 23.7171 36.0937C24.0116 35.6081 24.4105 35.1941 24.8849 34.8819C25.4303 34.54 26.0452 34.3244 26.6848 34.2509C29.1798 33.8909 31.6729 33.5209 34.1699 33.1789C34.3104 33.1685 34.4449 33.1183 34.5578 33.0341C34.6708 32.95 34.7575 32.8355 34.8078 32.7039C35.9358 30.3973 37.0709 28.0943 38.2129 25.7949C38.5123 25.1289 38.999 24.5642 39.6137 24.1699C40.2284 23.7755 40.9445 23.5685 41.6748 23.5739Z" stroke="#0B3041" stroke-width="1.5"/>
<path d="M18.6425 51.875C18.2704 51.8748 17.9096 51.7475 17.6197 51.5141C17.3298 51.2808 17.1283 50.9555 17.0485 50.592C16.9558 50.2294 16.9968 49.8455 17.1639 49.5105C17.331 49.1756 17.6131 48.912 17.9586 48.768C19.1746 48.321 20.4105 47.92 21.6585 47.568C22.0176 47.4986 22.3896 47.5571 22.71 47.7334C23.0305 47.9097 23.279 48.1926 23.4126 48.533C23.5611 48.8738 23.589 49.2551 23.4918 49.614C23.3945 49.9728 23.1779 50.2879 22.8775 50.507C21.5086 51.0861 20.0915 51.5438 18.6425 51.875Z" stroke="#0B3041" stroke-width="1.5"/>
<path d="M54.5603 27.001C54.2954 26.9868 54.0389 26.9032 53.8165 26.7585C53.5941 26.6139 53.4137 26.4134 53.2933 26.177C53.1332 25.9321 53.0494 25.6452 53.0528 25.3526C53.0562 25.06 53.1465 24.7751 53.3122 24.534C54.0002 23.534 54.7123 22.534 55.4613 21.579C55.7252 21.2584 56.1042 21.0539 56.5171 21.0092C56.9299 20.9646 57.3438 21.0833 57.6703 21.34C57.9996 21.5778 58.2262 21.932 58.3041 22.3307C58.3819 22.7294 58.3051 23.1428 58.0893 23.487C57.4113 24.498 56.6822 25.476 55.9472 26.447C55.7798 26.6467 55.5655 26.8018 55.3235 26.8985C55.0814 26.9952 54.8192 27.0304 54.5603 27.001Z" stroke="#0B3041" stroke-width="1.5"/>
<path d="M28.8936 27C28.601 27.0331 28.3049 26.9898 28.034 26.8745C27.763 26.7592 27.5266 26.5758 27.3476 26.342C26.6806 25.442 26.0146 24.536 25.3726 23.617C25.118 23.2699 25.0109 22.8362 25.0746 22.4105C25.1383 21.9848 25.3676 21.6015 25.7125 21.344C25.8848 21.2112 26.082 21.1144 26.2925 21.0594C26.503 21.0045 26.7223 20.9924 26.9375 21.0241C27.1527 21.0557 27.3593 21.1303 27.5451 21.2436C27.7308 21.3568 27.8918 21.5062 28.0186 21.683C28.7046 22.5904 29.3712 23.5114 30.0186 24.446C30.2028 24.6931 30.3082 24.99 30.3211 25.2979C30.3339 25.6058 30.2535 25.9105 30.0905 26.172C29.9776 26.4003 29.8086 26.5961 29.5991 26.7409C29.3897 26.8858 29.147 26.975 28.8936 27Z" stroke="#0B3041" stroke-width="1.5"/>
<path d="M43.3348 64.7679C43.3348 65.3139 43.3438 65.861 43.3348 66.407C43.3373 66.6244 43.2965 66.8402 43.2147 67.0418C43.1328 67.2433 43.0117 67.4265 42.8582 67.5807C42.7048 67.7349 42.5222 67.8569 42.3211 67.9397C42.12 68.0225 41.9043 68.0644 41.6868 68.0629C41.4695 68.0618 41.2546 68.0174 41.0545 67.9325C40.8545 67.8476 40.6733 67.7237 40.5215 67.5681C40.3698 67.4126 40.2504 67.2284 40.1705 67.0263C40.0905 66.8242 40.0516 66.6082 40.0559 66.3909C40.0452 65.2983 40.0452 64.206 40.0559 63.114C40.0512 62.8966 40.0896 62.6804 40.1688 62.478C40.2479 62.2755 40.3662 62.0907 40.517 61.9341C40.6679 61.7775 40.8482 61.6523 41.0476 61.5656C41.2469 61.4789 41.4614 61.4325 41.6788 61.429C41.9 61.429 42.119 61.4733 42.3228 61.5593C42.5266 61.6453 42.7113 61.7712 42.8657 61.9297C43.0201 62.0881 43.1412 62.2758 43.222 62.4818C43.3027 62.6877 43.3415 62.9078 43.3359 63.1289C43.3429 63.6769 43.3348 64.2219 43.3348 64.7679Z" stroke="#0B3041" stroke-width="1.5"/>
</svg>
