<svg width="84" height="84" viewBox="0 0 84 84" fill="none" xmlns="http://www.w3.org/2000/svg">
<path opacity="0.15" d="M42 84C65.196 84 84 65.196 84 42C84 18.804 65.196 0 42 0C18.804 0 0 18.804 0 42C0 65.196 18.804 84 42 84Z" fill="#0B3041"/>
<path d="M44.8333 43C44.8333 46.1252 47.3748 48.6667 50.5 48.6667C53.6252 48.6667 56.1667 46.1252 56.1667 43C56.1667 39.8748 53.6252 37.3333 50.5 37.3333C47.3748 37.3333 44.8333 39.8748 44.8333 43ZM50.5 38.75C52.8432 38.75 54.75 40.6568 54.75 43C54.75 45.3432 52.8432 47.25 50.5 47.25C48.1568 47.25 46.25 45.3432 46.25 43C46.25 40.6568 48.1568 38.75 50.5 38.75ZM42 37.3333C45.1252 37.3333 47.6667 34.7918 47.6667 31.6667C47.6667 28.5415 45.1252 26 42 26C38.8748 26 36.3333 28.5415 36.3333 31.6667C36.3333 34.7918 38.8748 37.3333 42 37.3333ZM42 27.4167C44.3432 27.4167 46.25 29.3235 46.25 31.6667C46.25 34.0098 44.3432 35.9167 42 35.9167C39.6568 35.9167 37.75 34.0098 37.75 31.6667C37.75 29.3235 39.6568 27.4167 42 27.4167ZM33.5 48.6667C36.6252 48.6667 39.1667 46.1252 39.1667 43C39.1667 39.8748 36.6252 37.3333 33.5 37.3333C30.3748 37.3333 27.8333 39.8748 27.8333 43C27.8333 46.1252 30.3748 48.6667 33.5 48.6667ZM33.5 38.75C35.8432 38.75 37.75 40.6568 37.75 43C37.75 45.3432 35.8432 47.25 33.5 47.25C31.1568 47.25 29.25 45.3432 29.25 43C29.25 40.6568 31.1568 38.75 33.5 38.75ZM59 55.0417V60H57.5833V55.0417C57.5833 53.0895 55.9952 51.5 54.0417 51.5H53.8873L50.1458 56.175L46.4058 51.5H46.25C44.2978 51.5 42.7083 53.0895 42.7083 55.0417V60H41.2917V55.0417C41.2917 53.0895 39.7022 51.5 37.75 51.5H37.5956L33.8542 56.175L30.1142 51.5H29.9583C28.0062 51.5 26.4167 53.0895 26.4167 55.0417V60H25V55.0417C25 52.3075 27.2242 50.0833 29.9583 50.0833H30.7942L33.8542 53.9083L36.9142 50.0833H37.75C39.5633 50.0833 41.1358 51.0722 42 52.5285C42.8642 51.0722 44.4367 50.0833 46.25 50.0833H47.0858L50.1458 53.9083L53.2058 50.0833H54.0417C56.7758 50.0833 59 52.3075 59 55.0417Z" fill="#0B3041"/>
</svg>
