<svg width="284" height="41" viewBox="0 0 284 41" fill="none" xmlns="http://www.w3.org/2000/svg">
<path d="M154.92 1.5H277.382C280.209 1.5 282.5 3.7912 282.5 6.61753V34.1434C282.5 36.9698 280.209 39.261 277.382 39.261H154.92C152.094 39.261 149.803 36.9698 149.803 34.1434V6.61753C149.803 3.7912 152.094 1.5 154.92 1.5Z" stroke="white"/>
<path d="M277.383 1.28076H154.921C151.973 1.28076 149.584 3.67006 149.584 6.61741V34.1433C149.584 37.0907 151.973 39.48 154.921 39.48H277.383C280.33 39.48 282.719 37.0907 282.719 34.1433V6.61741C282.719 3.67006 280.33 1.28076 277.383 1.28076Z" stroke="white"/>
<path d="M6.61753 1.61475H129.08C131.906 1.61475 134.197 3.90594 134.197 6.73228V34.2582C134.197 37.0845 131.906 39.3757 129.08 39.3757H6.61753C3.7912 39.3757 1.5 37.0845 1.5 34.2582V6.73228C1.5 3.90594 3.7912 1.61475 6.61753 1.61475Z" stroke="white"/>
<path d="M129.08 1.39551H6.6179C3.67055 1.39551 1.28125 3.78481 1.28125 6.73216V34.2581C1.28125 37.2054 3.67055 39.5947 6.6179 39.5947H129.08C132.027 39.5947 134.417 37.2054 134.417 34.2581V6.73216C134.417 3.78481 132.027 1.39551 129.08 1.39551Z" stroke="white"/>
<path d="M67.9957 22.3355C67.1743 22.3391 66.3724 22.586 65.6912 23.045C65.0101 23.504 64.4802 24.1545 64.1684 24.9144C63.8566 25.6743 63.7769 26.5096 63.9394 27.3147C64.1019 28.1199 64.4992 28.8588 65.0813 29.4384C65.6634 30.0179 66.4042 30.4119 67.21 30.5708C68.0159 30.7297 68.8508 30.6463 69.6093 30.3312C70.3678 30.016 71.0159 29.4832 71.4719 28.8C71.9278 28.1168 72.1712 27.3138 72.1712 26.4924C72.1788 25.9429 72.0759 25.3974 71.8685 24.8883C71.6611 24.3793 71.3535 23.9172 70.964 23.5294C70.5745 23.1416 70.111 22.8361 69.6011 22.631C69.0912 22.4259 68.5452 22.3254 67.9957 22.3355ZM67.9957 29.0164C67.6747 29.009 67.3585 28.9374 67.0656 28.8059C66.7727 28.6744 66.5091 28.4856 66.2903 28.2507C66.0715 28.0157 65.9019 27.7394 65.7915 27.4379C65.6811 27.1364 65.6322 26.8159 65.6475 26.4952C65.6253 26.1734 65.6694 25.8504 65.7773 25.5463C65.8851 25.2422 66.0544 24.9636 66.2745 24.7277C66.4946 24.4918 66.7609 24.3037 67.0568 24.1751C67.3527 24.0465 67.6719 23.9801 67.9945 23.9801C68.3172 23.9801 68.6364 24.0465 68.9323 24.1751C69.2282 24.3037 69.4945 24.4918 69.7146 24.7277C69.9347 24.9636 70.104 25.2422 70.2118 25.5463C70.3197 25.8504 70.3638 26.1734 70.3415 26.4952C70.3572 26.8158 70.3084 27.1362 70.1983 27.4377C70.0881 27.7391 69.9187 28.0154 69.7001 28.2504C69.4815 28.4853 69.2181 28.6742 68.9253 28.8057C68.6326 28.9373 68.3165 29.0089 67.9957 29.0164ZM58.888 22.3355C58.0665 22.3387 57.2644 22.5852 56.5829 23.0439C55.9015 23.5027 55.3712 24.153 55.0591 24.9129C54.7469 25.6728 54.6669 26.5081 54.8292 27.3134C54.9914 28.1187 55.3886 28.8578 55.9706 29.4376C56.5526 30.0173 57.2933 30.4116 58.0992 30.5707C58.9052 30.7298 59.7402 30.6465 60.4988 30.3314C61.2574 30.0163 61.9057 29.4835 62.3618 28.8002C62.8178 28.117 63.0612 27.3139 63.0612 26.4924C63.0688 25.9431 62.966 25.3977 62.7587 24.8889C62.5515 24.38 62.2441 23.918 61.8548 23.5302C61.4656 23.1425 61.0024 22.8369 60.4927 22.6317C59.983 22.4264 59.4373 22.3257 58.888 22.3355ZM58.888 29.0164C58.5669 29.009 58.2506 28.9374 57.9577 28.8059C57.6647 28.6744 57.401 28.4857 57.182 28.2508C56.9631 28.0159 56.7933 27.7395 56.6827 27.438C56.5722 27.1366 56.523 26.816 56.5382 26.4952C56.5153 26.1729 56.559 25.8494 56.6667 25.5447C56.7743 25.24 56.9435 24.9608 57.1638 24.7243C57.384 24.4879 57.6506 24.2993 57.9469 24.1704C58.2432 24.0415 58.5629 23.975 58.886 23.975C59.2091 23.975 59.5288 24.0415 59.8251 24.1704C60.1214 24.2993 60.388 24.4879 60.6082 24.7243C60.8285 24.9608 60.9977 25.24 61.1053 25.5447C61.213 25.8494 61.2567 26.1729 61.2338 26.4952C61.2493 26.8158 61.2005 27.1361 61.0903 27.4375C60.98 27.7389 60.8107 28.0151 60.5921 28.2501C60.3735 28.485 60.1101 28.6738 59.8174 28.8054C59.5248 28.937 59.2088 29.0087 58.888 29.0164ZM48.0512 23.6106V25.3768H52.2739C52.2123 26.2041 51.8742 26.9867 51.3139 27.5985C50.8902 28.0295 50.3811 28.3672 49.8192 28.5897C49.2573 28.8122 48.6551 28.9147 48.0512 28.8906C47.4375 28.8905 46.83 28.7685 46.2638 28.5317C45.6977 28.2949 45.1842 27.948 44.7532 27.5111C44.3222 27.0743 43.9823 26.5562 43.7531 25.9869C43.524 25.4176 43.4102 24.8085 43.4184 24.1949C43.4104 23.5813 43.5243 22.9722 43.7535 22.403C43.9826 21.8338 44.3226 21.3157 44.7536 20.8789C45.1845 20.4421 45.6979 20.0952 46.264 19.8584C46.8301 19.6215 47.4376 19.4994 48.0512 19.4992C49.2365 19.484 50.3799 19.9372 51.233 20.7603L52.4767 19.5143C51.8942 18.938 51.2026 18.4836 50.4423 18.1779C49.682 17.8723 48.8683 17.7214 48.0489 17.7341C46.3266 17.7328 44.6731 18.4101 43.4466 19.6193C42.22 20.8284 41.5193 22.4721 41.4961 24.1943C41.5193 25.9165 42.22 27.5602 43.4466 28.7694C44.6731 29.9785 46.3266 30.6558 48.0489 30.6545C48.8858 30.6896 49.7206 30.5464 50.4979 30.2343C51.2752 29.9223 51.9773 29.4485 52.5576 28.8445C53.5876 27.7214 54.1361 26.2392 54.0855 24.7162C54.0906 24.346 54.059 23.9763 53.9912 23.6123L48.0512 23.6106ZM92.3639 24.9808C92.1138 24.2276 91.6379 23.5697 91.001 23.0964C90.364 22.623 89.5968 22.3572 88.8036 22.3349C88.2692 22.3381 87.7411 22.4497 87.2511 22.6627C86.7611 22.8757 86.3193 23.1858 85.9525 23.5744C85.5856 23.9629 85.3013 24.4217 85.1168 24.9232C84.9322 25.4246 84.8512 25.9582 84.8786 26.4919C84.8671 27.0387 84.9658 27.5822 85.1689 28.0899C85.3721 28.5977 85.6754 29.0594 86.0609 29.4474C86.4463 29.8353 86.906 30.1417 87.4125 30.3481C87.9189 30.5545 88.4618 30.6568 89.0086 30.6488C89.6938 30.653 90.3692 30.4868 90.9741 30.165C91.5791 29.8433 92.0945 29.3762 92.4741 28.8057L91.0567 27.8597C90.8443 28.2126 90.5439 28.5042 90.1848 28.706C89.8258 28.9078 89.4205 29.0128 89.0086 29.0108C88.585 29.0267 88.1664 28.9152 87.8069 28.6907C87.4474 28.4661 87.1635 28.1389 86.9919 27.7513L92.5533 25.4481L92.3639 24.9808ZM86.6902 26.3689C86.671 26.066 86.7123 25.7623 86.8117 25.4756C86.9111 25.1889 87.0666 24.9248 87.2692 24.6989C87.4718 24.473 87.7174 24.2897 87.9917 24.1597C88.2659 24.0298 88.5633 23.9558 88.8665 23.9421C89.1821 23.9213 89.4968 23.994 89.7714 24.151C90.0459 24.3081 90.2681 24.5426 90.4102 24.8252L86.6902 26.3689ZM82.1681 30.4022H83.9978V18.1757H82.1676L82.1681 30.4022ZM79.1751 23.264H79.1139C78.8355 22.9627 78.4961 22.724 78.1184 22.5639C77.7407 22.4038 77.3332 22.326 76.923 22.3355C75.85 22.3804 74.8359 22.8383 74.0926 23.6135C73.3492 24.3886 72.9342 25.421 72.9342 26.495C72.9342 27.5689 73.3492 28.6013 74.0926 29.3765C74.8359 30.1516 75.85 30.6095 76.923 30.6545C77.3349 30.6656 77.7442 30.5868 78.1225 30.4238C78.5009 30.2607 78.8392 30.0172 79.1139 29.7102H79.1751V30.3095C79.1751 31.8987 78.3252 32.7504 76.9534 32.7504C76.4966 32.7392 76.0535 32.5924 75.6804 32.3288C75.3073 32.0651 75.021 31.6964 74.858 31.2696L73.2672 31.9341C73.5673 32.664 74.0784 33.2877 74.7351 33.7253C75.3918 34.163 76.1642 34.3946 76.9534 34.3907C79.0982 34.3907 80.9098 33.1312 80.9098 30.0596V22.5883H79.1751V23.264ZM77.0798 29.0164C76.7622 29.0071 76.4497 28.9346 76.1606 28.803C75.8715 28.6715 75.6115 28.4835 75.396 28.2501C75.1804 28.0168 75.0136 27.7428 74.9053 27.4441C74.797 27.1455 74.7494 26.8282 74.7654 26.511C74.7477 26.1918 74.7938 25.8723 74.9011 25.5712C75.0084 25.2701 75.1747 24.9934 75.3902 24.7574C75.6057 24.5213 75.8661 24.3306 76.1562 24.1964C76.4464 24.0622 76.7603 23.9872 77.0798 23.9758C78.3257 23.9758 79.3015 25.0465 79.3015 26.511C79.3015 27.9597 78.3257 29.0164 77.0798 29.0164ZM100.926 18.1746H96.5529V30.4022H98.3764V25.7717H100.926C101.439 25.7895 101.951 25.705 102.432 25.5231C102.913 25.3411 103.353 25.0654 103.726 24.7119C104.099 24.3584 104.398 23.9342 104.606 23.464C104.813 22.9938 104.925 22.487 104.935 21.9731C104.926 21.4592 104.814 20.9524 104.606 20.4821C104.399 20.0119 104.1 19.5877 103.726 19.2343C103.353 18.8809 102.913 18.6053 102.432 18.4236C101.952 18.242 101.439 18.1579 100.926 18.1762M100.973 24.0707H98.3764V19.8789H100.973C101.251 19.8744 101.527 19.9252 101.785 20.0285C102.044 20.1317 102.279 20.2854 102.477 20.4804C102.675 20.6755 102.833 20.908 102.94 21.1646C103.048 21.4211 103.103 21.6964 103.103 21.9745C103.103 22.2527 103.048 22.528 102.94 22.7845C102.833 23.041 102.675 23.2736 102.477 23.4686C102.279 23.6637 102.044 23.8173 101.785 23.9206C101.527 24.0239 101.251 24.0747 100.973 24.0702M112.251 22.3136C111.585 22.2742 110.922 22.4302 110.343 22.7626C109.764 23.0949 109.295 23.589 108.993 24.1842L110.614 24.8583C110.775 24.5632 111.018 24.3214 111.314 24.1625C111.61 24.0036 111.947 23.9344 112.281 23.9634C113.224 23.9634 114.186 24.5291 114.2 25.5363V25.6605C113.613 25.35 112.959 25.1894 112.296 25.1931C110.549 25.1931 108.773 26.1515 108.773 27.9457C108.773 29.5798 110.204 30.6365 111.806 30.6365C112.266 30.6633 112.724 30.5665 113.133 30.356C113.542 30.1456 113.887 29.8292 114.132 29.44H114.195V30.3843H115.958V25.6947C115.958 23.5241 114.337 22.3141 112.246 22.3141M112.03 29.013C111.433 29.013 110.599 28.7153 110.599 27.976C110.599 27.0317 111.638 26.6711 112.535 26.6711C113.116 26.6559 113.692 26.7967 114.2 27.0789C114.134 27.6093 113.877 28.0975 113.478 28.4532C113.079 28.8088 112.565 29.0077 112.03 29.013ZM122.381 22.5826L120.288 27.8817H120.225L118.056 22.5826H116.09L119.348 29.9893L117.491 34.1115H119.394L124.413 22.5826H122.381ZM105.943 30.4022H107.768V18.1757H105.943V30.4022Z" fill="white"/>
<path d="M11.5626 8.44383C11.2427 8.82668 11.0818 9.31769 11.1132 9.81563V31.4285C11.0818 31.9265 11.2427 32.4175 11.5626 32.8003L11.6334 32.8711L23.7414 20.7653V20.4777L11.6334 8.37305L11.5626 8.44383Z" fill="#9BA519"/>
<path d="M27.7759 24.8037L23.7402 20.7658V20.4799L27.7776 16.4448L27.868 16.4943L32.6485 19.2126C34.0147 19.9895 34.0147 21.2568 32.6485 22.0337L27.868 24.7503L27.7759 24.8037Z" fill="#9BA519"/>
<path d="M27.8679 24.7475L23.7396 20.6191L11.5625 32.8002C12.0119 33.2754 12.7551 33.3344 13.5932 32.8592L27.8679 24.7475Z" fill="white"/>
<path d="M27.8679 16.4934L13.5927 8.38504C12.7551 7.90811 12.0119 7.96709 11.5625 8.44121L23.7396 20.6217L27.8679 16.4934Z" fill="white"/>
<path d="M46.1937 9.13448C45.8126 8.79294 45.3196 8.60288 44.8078 8.60025C44.5221 8.60402 44.24 8.66449 43.9779 8.77813C43.7157 8.89178 43.4787 9.05635 43.2807 9.26229C43.0826 9.46824 42.9274 9.71146 42.8241 9.97785C42.7208 10.2442 42.6714 10.5285 42.6788 10.8141C42.6716 11.0992 42.7212 11.3829 42.8248 11.6486C42.9283 11.9143 43.0837 12.1568 43.2818 12.3619C43.4799 12.567 43.7169 12.7306 43.9789 12.8432C44.2409 12.9558 44.5227 13.0152 44.8078 13.0179C45.0313 13.0409 45.2571 13.0185 45.4717 12.9522C45.6863 12.8859 45.8853 12.777 46.0569 12.632C46.2284 12.487 46.369 12.3089 46.4701 12.1083C46.5712 11.9077 46.6308 11.6888 46.6453 11.4646H45.005V10.7905H47.5329C47.5329 12.8128 46.4566 13.7678 44.8106 13.7678C44.4254 13.7676 44.0441 13.6908 43.6889 13.5419C43.3336 13.3931 43.0114 13.1752 42.7411 12.9008C42.4707 12.6264 42.2575 12.301 42.114 11.9436C41.9704 11.5862 41.8993 11.2038 41.9047 10.8186C41.8984 10.4329 41.9688 10.0499 42.112 9.69172C42.2552 9.33356 42.4682 9.00748 42.7387 8.73247C43.0091 8.45746 43.3316 8.23902 43.6874 8.08988C44.0431 7.94075 44.4249 7.86389 44.8106 7.86379C45.5317 7.86087 46.2271 8.13147 46.7565 8.62104L46.1937 9.13448Z" fill="white"/>
<path d="M52 7.92285V8.65032H49.3681V10.4878H51.6646V11.2153H49.3681V12.9533H52.0825V13.6786H48.5918V7.92285H52Z" fill="white"/>
<path d="M57.0336 7.92285V8.65819H55.2893V13.6774H54.5029V8.65819H52.7598V7.92285H57.0336Z" fill="white"/>
<path d="M60.761 7.92236H59.9824V13.677H60.761V7.92236Z" fill="white"/>
<path d="M66.0554 7.92285V8.65819H64.3089V13.6774H63.5263V8.65819H61.7793V7.92285H66.0554Z" fill="white"/>
<path d="M71.5355 7.85694C71.9221 7.85631 72.305 7.93256 72.6619 8.08125C73.0188 8.22994 73.3426 8.4481 73.6144 8.72306C73.8862 8.99801 74.1007 9.32426 74.2452 9.68284C74.3898 10.0414 74.4617 10.4252 74.4566 10.8118C74.462 11.1979 74.3905 11.5813 74.2465 11.9396C74.1024 12.2979 73.8886 12.6241 73.6174 12.899C73.3462 13.174 73.0231 13.3924 72.6668 13.5414C72.3105 13.6904 71.9282 13.7672 71.542 13.7672C71.1558 13.7672 70.7734 13.6904 70.4171 13.5414C70.0608 13.3924 69.7377 13.174 69.4665 12.899C69.1953 12.6241 68.9815 12.2979 68.8374 11.9396C68.6934 11.5813 68.6219 11.1979 68.6273 10.8118C68.6213 10.4261 68.6921 10.043 68.8356 9.68491C68.979 9.32681 69.1922 9.0008 69.4627 8.72585C69.7333 8.45089 70.0558 8.23248 70.4116 8.08331C70.7673 7.93414 71.1497 7.85719 71.5355 7.85694ZM71.5349 13.0082C71.8201 13.0071 72.1022 12.9491 72.3647 12.8376C72.6272 12.7261 72.8649 12.5633 73.0637 12.3588C73.2624 12.1543 73.4184 11.9122 73.5225 11.6466C73.6265 11.3811 73.6765 11.0974 73.6696 10.8123C73.681 10.5251 73.6343 10.2385 73.5323 9.96975C73.4302 9.701 73.2749 9.45564 73.0757 9.24837C72.8766 9.0411 72.6375 8.8762 72.3731 8.76356C72.1086 8.65092 71.8241 8.59285 71.5366 8.59285C71.2492 8.59285 70.9646 8.65092 70.7002 8.76356C70.4357 8.8762 70.1967 9.0411 69.9975 9.24837C69.7983 9.45564 69.643 9.701 69.541 9.96975C69.4389 10.2385 69.3922 10.5251 69.4036 10.8123C69.3965 11.097 69.4461 11.3803 69.5498 11.6456C69.6534 11.9109 69.8089 12.1528 70.0071 12.3573C70.2053 12.5618 70.4424 12.7246 70.7043 12.8364C70.9663 12.9482 71.2479 13.0066 71.5327 13.0082" fill="white"/>
<path d="M79.0507 13.677L76.4306 9.34416V13.677H75.6543V7.92236H76.4233L79.0175 12.2226V7.92236H79.7961V13.677H79.0507Z" fill="white"/>
<path d="M193.78 11.9786L193.23 13.7925H192.023L194.078 7.39697H195.568L197.647 13.7942H196.392L195.812 11.9786H193.78ZM195.611 11.0972L195.109 9.5204C194.986 9.13223 194.884 8.69462 194.785 8.32555H194.765C194.671 8.69406 194.578 9.14178 194.464 9.5204L193.969 11.0972H195.611Z" fill="white"/>
<path d="M199.388 9.17334L200.138 11.5175C200.27 11.9254 200.362 12.2961 200.451 12.6747H200.481C200.566 12.2961 200.668 11.9355 200.792 11.5175L201.534 9.17334H202.758L200.992 13.796H199.842L198.125 9.17334H199.388Z" fill="white"/>
<path d="M207.415 12.6838C207.407 13.056 207.433 13.428 207.492 13.7956H206.438L206.353 13.2832H206.323C206.158 13.484 205.949 13.644 205.712 13.7507C205.475 13.8574 205.217 13.9079 204.957 13.8984C204.77 13.9093 204.582 13.8818 204.406 13.8175C204.23 13.7532 204.069 13.6535 203.933 13.5245C203.797 13.3955 203.689 13.24 203.616 13.0676C203.542 12.8952 203.505 12.7095 203.506 12.5221C203.506 11.3649 204.539 10.7655 206.248 10.7756V10.702C206.248 10.3986 206.125 9.89587 205.31 9.89587C204.872 9.89603 204.442 10.0138 204.066 10.2369L203.837 9.47792C204.349 9.19832 204.924 9.05769 205.507 9.07009C206.987 9.07009 207.417 10.0105 207.417 11.0239L207.415 12.6838ZM206.276 11.5367C205.451 11.5266 204.662 11.6963 204.662 12.3985C204.654 12.4879 204.666 12.5779 204.697 12.6622C204.728 12.7465 204.777 12.8229 204.84 12.8862C204.904 12.9494 204.981 12.9979 205.065 13.0281C205.15 13.0584 205.24 13.0698 205.329 13.0613C205.53 13.0653 205.726 13.0061 205.891 12.8922C206.056 12.7782 206.181 12.6154 206.248 12.4266C206.272 12.3435 206.282 12.2569 206.278 12.1704L206.276 11.5367Z" fill="white"/>
<path d="M209.646 8.50693C209.561 8.50995 209.476 8.49574 209.397 8.46514C209.317 8.43454 209.245 8.38819 209.184 8.32888C209.123 8.26957 209.074 8.19851 209.041 8.12C209.008 8.04148 208.992 7.95712 208.992 7.87198C208.993 7.78685 209.01 7.7027 209.044 7.6246C209.078 7.5465 209.128 7.47606 209.189 7.41751C209.251 7.35897 209.324 7.31352 209.404 7.28392C209.484 7.25431 209.569 7.24115 209.654 7.24524C209.739 7.24013 209.825 7.2529 209.906 7.28274C209.986 7.31257 210.059 7.35881 210.121 7.41852C210.182 7.47822 210.231 7.55009 210.263 7.62954C210.295 7.709 210.311 7.7943 210.308 7.88002C210.31 7.96508 210.294 8.04952 210.261 8.12804C210.228 8.20655 210.179 8.27746 210.118 8.33631C210.056 8.39517 209.984 8.4407 209.904 8.47006C209.824 8.49942 209.739 8.51197 209.654 8.50693H209.646ZM209.066 9.17373H210.235V13.7964H209.066V9.17373Z" fill="white"/>
<path d="M213.083 7.04395H211.914V13.794H213.083V7.04395Z" fill="white"/>
<path d="M218.359 12.6839C218.351 13.0559 218.376 13.4279 218.433 13.7956H217.381L217.295 13.2833H217.265C217.1 13.4843 216.891 13.6445 216.654 13.7512C216.417 13.8579 216.158 13.9083 215.898 13.8984C215.711 13.9094 215.524 13.8819 215.348 13.8176C215.172 13.7533 215.011 13.6536 214.875 13.5246C214.739 13.3956 214.631 13.2401 214.557 13.0677C214.484 12.8952 214.446 12.7096 214.447 12.5221C214.447 11.3649 215.482 10.7655 217.189 10.7756V10.702C217.189 10.3987 217.067 9.89593 216.251 9.89593C215.813 9.89637 215.384 10.0141 215.007 10.2369L214.783 9.47799C215.294 9.19786 215.87 9.0572 216.452 9.07016C217.933 9.07016 218.362 10.0105 218.362 11.0239L218.359 12.6839ZM217.22 11.5368C216.394 11.5267 215.607 11.6964 215.607 12.3985C215.599 12.4878 215.61 12.5776 215.641 12.6618C215.672 12.746 215.72 12.8225 215.784 12.8857C215.847 12.949 215.924 12.9975 216.008 13.0279C216.092 13.0582 216.182 13.0697 216.271 13.0614C216.472 13.0653 216.668 13.0061 216.833 12.8922C216.998 12.7783 217.123 12.6154 217.19 12.4266C217.214 12.3436 217.224 12.2569 217.22 12.1705V11.5368Z" fill="white"/>
<path d="M220.008 7.04395H221.176V9.80608H221.195C221.357 9.56522 221.578 9.37046 221.838 9.24087C222.097 9.11128 222.386 9.0513 222.676 9.06682C223.805 9.06682 224.611 10.0072 224.602 11.4127C224.602 13.0727 223.549 13.8985 222.506 13.8985C222.213 13.9131 221.921 13.8463 221.664 13.7054C221.406 13.5645 221.192 13.3551 221.046 13.1002H221.026L220.97 13.794H219.971C219.989 13.4805 220.008 12.9682 220.008 12.5019V7.04395ZM221.176 11.8857C221.175 11.9785 221.185 12.071 221.205 12.1615C221.261 12.3938 221.393 12.6007 221.58 12.7487C221.768 12.8968 222 12.9775 222.238 12.9777C222.969 12.9777 223.418 12.398 223.418 11.4576C223.418 10.6414 223.028 9.97686 222.249 9.97686C222.006 9.98258 221.772 10.0701 221.584 10.2253C221.397 10.3806 221.267 10.5944 221.216 10.8324C221.191 10.9317 221.178 11.0335 221.177 11.1358L221.176 11.8857Z" fill="white"/>
<path d="M227.148 7.04395H225.979V13.794H227.148V7.04395Z" fill="white"/>
<path d="M229.661 11.8111C229.667 11.9859 229.71 12.1575 229.787 12.3148C229.864 12.4721 229.972 12.6116 230.106 12.7243C230.24 12.837 230.396 12.9204 230.564 12.9692C230.732 13.018 230.909 13.0311 231.082 13.0076C231.519 13.0136 231.953 12.9422 232.366 12.7969L232.537 13.5952C232.023 13.7986 231.475 13.8985 230.922 13.889C230.606 13.9183 230.287 13.8784 229.988 13.772C229.689 13.6656 229.416 13.4953 229.189 13.273C228.963 13.0507 228.787 12.7816 228.675 12.4845C228.562 12.1874 228.516 11.8694 228.539 11.5527C228.539 10.273 229.318 9.06689 230.798 9.06689C232.299 9.06689 232.793 10.3028 232.793 11.3139C232.795 11.4797 232.782 11.6453 232.754 11.8088L229.661 11.8111ZM231.691 10.9948C231.711 10.8563 231.7 10.7153 231.661 10.5811C231.622 10.4468 231.555 10.3223 231.465 10.2157C231.374 10.1091 231.263 10.0227 231.136 9.96232C231.01 9.90192 230.873 9.8688 230.733 9.86515C230.444 9.88224 230.173 10.0085 229.974 10.2182C229.775 10.428 229.663 10.7056 229.661 10.9948H231.691Z" fill="white"/>
<path d="M238.551 13.8984C238.238 13.9107 237.926 13.857 237.635 13.7408C237.344 13.6246 237.081 13.4485 236.862 13.2239C236.644 12.9993 236.475 12.7313 236.367 12.4373C236.259 12.1432 236.214 11.8297 236.235 11.5171C236.211 11.1942 236.256 10.8698 236.367 10.5655C236.478 10.2612 236.652 9.98403 236.878 9.7524C237.105 9.52077 237.378 9.33998 237.68 9.22206C237.981 9.10413 238.304 9.05177 238.628 9.06846C238.939 9.05656 239.249 9.11037 239.538 9.22637C239.827 9.34238 240.089 9.51798 240.306 9.74174C240.522 9.9655 240.689 10.2324 240.796 10.525C240.903 10.8177 240.946 11.1295 240.924 11.4402C240.949 11.7611 240.905 12.0836 240.796 12.3864C240.687 12.6893 240.515 12.9658 240.292 13.1978C240.069 13.4298 239.799 13.6121 239.501 13.7328C239.203 13.8536 238.882 13.91 238.561 13.8984H238.551ZM238.589 13.053C239.253 13.053 239.718 12.4081 239.718 11.4683C239.718 10.747 239.395 9.91277 238.599 9.91277C237.773 9.91277 237.441 10.7189 237.441 11.4857C237.441 12.3766 237.891 13.0507 238.579 13.0507L238.589 13.053Z" fill="white"/>
<path d="M242.299 10.5492C242.299 10.0166 242.28 9.57116 242.262 9.17288H243.277L243.333 9.86496H243.361C243.517 9.61494 243.736 9.41001 243.996 9.27034C244.256 9.13068 244.548 9.06108 244.843 9.06839C245.649 9.06839 246.485 9.59082 246.485 11.0514V13.7916H245.316V11.184C245.316 10.5194 245.069 10.0166 244.435 10.0166C244.23 10.022 244.033 10.0909 243.869 10.2137C243.706 10.3365 243.585 10.5072 243.523 10.702C243.484 10.8216 243.465 10.9469 243.467 11.0727V13.7916H242.298L242.299 10.5492Z" fill="white"/>
<path d="M251.863 7.98633V9.17331H252.973V10.0463H251.863V12.077C251.863 12.6466 252.015 12.9309 252.463 12.9309C252.615 12.9379 252.768 12.922 252.916 12.8837L252.936 13.7668C252.663 13.8545 252.378 13.8957 252.091 13.8887C251.907 13.8984 251.722 13.8698 251.549 13.8046C251.376 13.7395 251.218 13.6392 251.086 13.51C250.8 13.1404 250.668 12.6753 250.715 12.2107V10.0463H250.061V9.17331H250.715V8.30765L251.863 7.98633Z" fill="white"/>
<path d="M254.275 7.04395H255.443V9.79653H255.463C255.608 9.57585 255.808 9.39661 256.043 9.27635C256.289 9.13789 256.566 9.06587 256.849 9.06738C257.635 9.06738 258.462 9.58981 258.462 11.07V13.7945H257.295V11.1919C257.295 10.5296 257.048 10.0167 256.402 10.0167C256.201 10.0187 256.006 10.0826 255.843 10.1998C255.68 10.3169 255.557 10.4816 255.491 10.6712C255.456 10.7847 255.44 10.9034 255.444 11.0223V13.794H254.277L254.275 7.04395Z" fill="white"/>
<path d="M260.946 11.8111C260.952 11.9861 260.995 12.1578 261.072 12.3152C261.149 12.4726 261.258 12.6121 261.392 12.7248C261.526 12.8375 261.682 12.9209 261.851 12.9696C262.019 13.0183 262.196 13.0312 262.369 13.0076C262.805 13.0135 263.239 12.9422 263.65 12.7969L263.822 13.5952C263.308 13.7988 262.76 13.8987 262.207 13.889C261.891 13.9177 261.573 13.8774 261.274 13.7708C260.975 13.6642 260.702 13.4939 260.476 13.2717C260.249 13.0495 260.073 12.7807 259.961 12.4838C259.848 12.187 259.801 11.8693 259.824 11.5527C259.824 10.273 260.602 9.06689 262.085 9.06689C263.585 9.06689 264.078 10.3028 264.078 11.3139C264.079 11.4796 264.066 11.6451 264.04 11.8088L260.946 11.8111ZM262.976 10.9948C262.996 10.8563 262.986 10.7152 262.947 10.5809C262.908 10.4466 262.841 10.322 262.75 10.2153C262.66 10.1087 262.548 10.0223 262.422 9.96197C262.295 9.90162 262.158 9.86863 262.018 9.86515C261.729 9.88224 261.458 10.0085 261.259 10.2182C261.06 10.428 260.948 10.7056 260.946 10.9948H262.976Z" fill="white"/>
<path d="M179.257 19.9995C179.269 19.0388 179.524 18.0968 179.998 17.2612C180.473 16.4257 181.151 15.7237 181.969 15.2207C181.449 14.4781 180.763 13.867 179.965 13.4358C179.168 13.0046 178.28 12.7652 177.374 12.7366C175.442 12.5355 173.568 13.8938 172.583 13.8938C171.58 13.8938 170.062 12.7585 168.43 12.7917C167.373 12.8254 166.344 13.1324 165.441 13.6827C164.539 14.2331 163.794 15.008 163.281 15.9319C161.057 19.7866 162.715 25.4502 164.849 28.5674C165.917 30.0914 167.164 31.7947 168.794 31.7351C170.391 31.6683 170.988 30.7178 172.914 30.7178C174.824 30.7178 175.386 31.7351 177.051 31.6975C178.762 31.6677 179.84 30.1616 180.87 28.6241C181.638 27.537 182.228 26.3354 182.619 25.0637C181.624 24.6425 180.775 23.9377 180.177 23.0372C179.58 22.1366 179.261 21.0802 179.26 19.9995" fill="white"/>
<path d="M176.112 10.6868C177.047 9.56724 177.507 8.12572 177.392 6.67139C175.965 6.82002 174.648 7.50225 173.703 8.58135C173.24 9.10804 172.885 9.72094 172.658 10.385C172.432 11.049 172.339 11.7512 172.384 12.4513C173.098 12.4573 173.805 12.3017 174.45 11.9962C175.096 11.6906 175.664 11.243 176.112 10.6868Z" fill="white"/>
<path d="M202.33 31.4829H200.106L198.888 27.6506H194.653L193.491 31.4829H191.326L195.523 18.4463H198.113L202.33 31.4829ZM198.522 26.0457L197.42 22.6409C197.301 22.2937 197.082 21.4758 196.761 20.1844H196.725C196.593 20.7422 196.388 21.5606 196.104 22.6409L195.021 26.0457H198.522Z" fill="white"/>
<path d="M213.123 26.666C213.198 28.0496 212.734 29.4085 211.827 30.4567C211.463 30.8563 211.018 31.1733 210.521 31.3864C210.024 31.5996 209.488 31.704 208.947 31.6926C208.422 31.7344 207.896 31.632 207.425 31.3965C206.955 31.1609 206.557 30.8012 206.276 30.3561H206.241V35.3114H204.149V25.1768C204.149 24.1712 204.126 23.1421 204.072 22.0838H205.91L206.026 23.5741H206.065C206.381 23.089 206.807 22.6845 207.307 22.3931C207.807 22.1016 208.369 21.9311 208.947 21.8953C209.525 21.8595 210.103 21.9593 210.635 22.1868C211.168 22.4143 211.64 22.7632 212.013 23.2056C212.789 24.1875 213.183 25.4171 213.123 26.6671M210.996 26.7441C211.029 25.9439 210.813 25.1533 210.378 24.4808C210.176 24.1871 209.904 23.9484 209.587 23.7862C209.269 23.6241 208.916 23.5437 208.56 23.5522C208.046 23.5512 207.548 23.7328 207.156 24.0645C206.736 24.4057 206.445 24.8799 206.332 25.4088C206.276 25.6168 206.244 25.8306 206.237 26.0458V27.6131C206.219 28.2483 206.442 28.8669 206.862 29.3439C207.065 29.575 207.317 29.7581 207.6 29.8801C207.882 30.0021 208.188 30.0599 208.496 30.0494C208.854 30.0645 209.21 29.9894 209.531 29.831C209.852 29.6725 210.128 29.4359 210.334 29.1428C210.803 28.4337 211.034 27.593 210.992 26.7435" fill="white"/>
<path d="M223.931 26.666C224.008 28.0498 223.543 29.409 222.636 30.4567C222.272 30.8566 221.826 31.1739 221.329 31.387C220.831 31.6002 220.294 31.7044 219.753 31.6926C219.229 31.7342 218.704 31.6316 218.234 31.3961C217.764 31.1605 217.367 30.8009 217.086 30.3561H217.051V35.3114H214.962V25.1768C214.962 24.1712 214.936 23.1421 214.885 22.0838H216.722L216.839 23.5741H216.878C217.194 23.089 217.619 22.6845 218.119 22.3931C218.62 22.1016 219.181 21.9311 219.759 21.8953C220.337 21.8595 220.915 21.9593 221.448 22.1868C221.98 22.4143 222.452 22.7632 222.826 23.2056C223.601 24.1877 223.994 25.4173 223.933 26.6671M221.808 26.7441C221.842 25.9438 221.626 25.1529 221.19 24.4808C220.989 24.1869 220.717 23.9481 220.399 23.7859C220.082 23.6238 219.729 23.5434 219.373 23.5522C218.859 23.5515 218.361 23.733 217.968 24.0645C217.549 24.4059 217.259 24.8802 217.146 25.4088C217.09 25.6174 217.058 25.832 217.051 26.0481V27.6154C217.033 28.251 217.257 28.8699 217.678 29.3461C217.882 29.5774 218.133 29.7607 218.416 29.8827C218.699 30.0047 219.005 30.0624 219.313 30.0517C219.67 30.0665 220.026 29.9913 220.347 29.8329C220.668 29.6745 220.944 29.4379 221.15 29.145C221.618 28.4351 221.848 27.595 221.808 26.7458" fill="white"/>
<path d="M236.022 27.8264C236.039 28.3349 235.944 28.841 235.744 29.3087C235.544 29.7764 235.243 30.1944 234.863 30.5329C233.865 31.3453 232.597 31.752 231.313 31.6721C230.132 31.7277 228.959 31.447 227.932 30.8626L228.419 29.1212C229.329 29.6731 230.374 29.9604 231.439 29.9509C232.094 29.9912 232.743 29.8048 233.276 29.4229C233.489 29.253 233.659 29.0356 233.773 28.7881C233.887 28.5407 233.942 28.27 233.932 27.9977C233.938 27.7495 233.893 27.5028 233.8 27.2726C233.707 27.0424 233.568 26.8336 233.392 26.659C232.866 26.2035 232.253 25.8607 231.59 25.6518C229.309 24.8002 228.169 23.5542 228.169 21.9139C228.156 21.4128 228.257 20.9153 228.465 20.459C228.673 20.0027 228.982 19.5997 229.368 19.2804C230.271 18.5584 231.407 18.1922 232.562 18.2513C233.583 18.2152 234.597 18.4272 235.519 18.8692L234.998 20.5708C234.23 20.1643 233.372 19.9589 232.503 19.9736C231.883 19.9348 231.27 20.1274 230.784 20.514C230.617 20.6617 230.484 20.8435 230.394 21.0471C230.304 21.2506 230.259 21.4711 230.261 21.6937C230.257 21.9379 230.308 22.1799 230.411 22.401C230.515 22.6222 230.668 22.8167 230.858 22.9695C231.433 23.4033 232.073 23.7433 232.755 23.9767C233.692 24.3062 234.539 24.8486 235.231 25.5614C235.767 26.1911 236.05 26.998 236.024 27.8247" fill="white"/>
<path d="M242.926 23.6469H240.623V28.2105C240.623 29.3717 241.027 29.952 241.841 29.952C242.153 29.9597 242.464 29.9279 242.768 29.8576L242.824 31.4423C242.301 31.6142 241.752 31.6924 241.201 31.6732C240.844 31.6935 240.487 31.637 240.153 31.5074C239.819 31.3779 239.517 31.1783 239.267 30.9221C238.804 30.4195 238.572 29.5745 238.571 28.3869V23.6469H237.201V22.0796H238.575V20.3606L240.626 19.7427V22.0807H242.929L242.926 23.6469Z" fill="white"/>
<path d="M253.314 26.7047C253.365 28.0041 252.923 29.2748 252.078 30.2629C251.643 30.7379 251.109 31.112 250.514 31.3593C249.919 31.6065 249.277 31.7208 248.634 31.6942C248.017 31.7217 247.401 31.6128 246.831 31.3753C246.261 31.1378 245.751 30.7776 245.336 30.3202C244.502 29.3643 244.063 28.1276 244.108 26.8603C244.055 25.5488 244.508 24.2671 245.373 23.2803C245.807 22.814 246.337 22.4478 246.927 22.2071C247.516 21.9664 248.151 21.857 248.788 21.8866C249.409 21.8616 250.027 21.9717 250.602 22.2093C251.176 22.4469 251.692 22.8064 252.113 23.2628C252.936 24.2158 253.366 25.4465 253.314 26.7047ZM251.147 26.7716C251.169 25.9908 250.974 25.2192 250.585 24.542C250.41 24.1978 250.141 23.9099 249.809 23.7113C249.478 23.5126 249.097 23.4112 248.711 23.4185C248.318 23.4071 247.931 23.5064 247.592 23.7051C247.253 23.9038 246.978 24.1938 246.796 24.542C246.403 25.2329 246.209 26.0188 246.234 26.8131C246.212 27.5934 246.407 28.3646 246.796 29.041C246.98 29.3821 247.253 29.6669 247.586 29.8648C247.918 30.0626 248.299 30.1662 248.686 30.1644C249.074 30.1625 249.453 30.0553 249.784 29.8543C250.115 29.6532 250.385 29.3659 250.566 29.0231C250.965 28.3412 251.166 27.5615 251.147 26.7716Z" fill="white"/>
<path d="M260.101 23.9189C259.884 23.8805 259.665 23.8617 259.444 23.8627C259.114 23.8479 258.784 23.9162 258.487 24.0616C258.189 24.2069 257.933 24.4246 257.741 24.6947C257.377 25.2425 257.194 25.891 257.219 26.5485V31.4807H255.131L255.149 25.0402C255.149 23.9597 255.124 22.9735 255.072 22.0814H256.892L256.969 23.879H257.025C257.223 23.2925 257.587 22.7756 258.071 22.3904C258.507 22.0639 259.036 21.8866 259.58 21.8848C259.755 21.8841 259.929 21.8967 260.102 21.9224L260.101 23.9189Z" fill="white"/>
<path d="M269.442 26.3359C269.446 26.6537 269.421 26.9711 269.367 27.2842H263.102C263.088 27.684 263.162 28.082 263.319 28.4499C263.476 28.8178 263.712 29.1467 264.011 29.4132C264.594 29.8701 265.321 30.1023 266.061 30.0677C266.926 30.0794 267.785 29.9289 268.595 29.6239L268.922 31.0749C267.922 31.4832 266.848 31.6811 265.768 31.6563C265.138 31.6907 264.508 31.5941 263.917 31.3725C263.326 31.1508 262.788 30.8091 262.336 30.3688C261.909 29.9046 261.579 29.3602 261.365 28.7673C261.151 28.1744 261.057 27.5448 261.088 26.9151C261.044 25.6348 261.456 24.3804 262.251 23.3761C262.642 22.8854 263.143 22.4935 263.714 22.2322C264.284 21.9708 264.908 21.8474 265.535 21.8717C266.134 21.8382 266.732 21.9588 267.271 22.2222C267.81 22.4856 268.273 22.8829 268.615 23.3761C269.189 24.2543 269.478 25.2884 269.443 26.3371M267.448 25.7939C267.476 25.2313 267.335 24.6733 267.044 24.1912C266.871 23.909 266.625 23.679 266.332 23.5255C266.038 23.3721 265.709 23.3011 265.379 23.3199C265.053 23.3144 264.731 23.3893 264.441 23.5378C264.151 23.6864 263.903 23.904 263.717 24.1715C263.36 24.6423 263.146 25.2052 263.099 25.7939H267.448Z" fill="white"/>
</svg>
