<svg width="84" height="84" viewBox="0 0 84 84" fill="none" xmlns="http://www.w3.org/2000/svg">
<path opacity="0.15" d="M42 84C65.196 84 84 65.196 84 42C84 18.804 65.196 0 42 0C18.804 0 0 18.804 0 42C0 65.196 18.804 84 42 84Z" fill="#0B3041"/>
<path d="M58.6667 49.6667V28H25.3333V49.6667H22V53.8333C22 56.13 23.87 58 26.1667 58H57.8333C60.13 58 62 56.13 62 53.8333V49.6667H58.6667ZM27 29.6667H57V49.6667H47.4883L45.8217 51.3333H38.1783L36.5117 49.6667H27V29.6667ZM60.3333 53.8333C60.3333 55.2117 59.2117 56.3333 57.8333 56.3333H26.1667C24.7883 56.3333 23.6667 55.2117 23.6667 53.8333V51.3333H35.8217L37.4883 53H46.5117L48.1783 51.3333H60.3333V53.8333ZM38.6667 42.1667V37.1667C38.6667 34.87 36.7967 33 34.5 33C32.2033 33 30.3333 34.87 30.3333 37.1667V42.1667C30.3333 44.4633 32.2033 46.3333 34.5 46.3333C36.7967 46.3333 38.6667 44.4633 38.6667 42.1667ZM37 42.1667C37 43.545 35.8783 44.6667 34.5 44.6667C33.1217 44.6667 32 43.545 32 42.1667V37.1667C32 35.7883 33.1217 34.6667 34.5 34.6667C35.8783 34.6667 37 35.7883 37 37.1667V42.1667ZM49.5 46.3333C51.7967 46.3333 53.6667 44.4633 53.6667 42.1667V37.1667C53.6667 34.87 51.7967 33 49.5 33C47.2033 33 45.3333 34.87 45.3333 37.1667V42.1667C45.3333 44.4633 47.2033 46.3333 49.5 46.3333ZM47 37.1667C47 35.7883 48.1217 34.6667 49.5 34.6667C50.8783 34.6667 52 35.7883 52 37.1667V42.1667C52 43.545 50.8783 44.6667 49.5 44.6667C48.1217 44.6667 47 43.545 47 42.1667V37.1667ZM40.9517 37.0983L39.7167 35.98L42.4167 33H43.62L43.6683 46.3333H42.0017V35.94L40.9517 37.0983Z" fill="#0B3041"/>
</svg>
