<svg width="84" height="84" viewBox="0 0 84 84" fill="none" xmlns="http://www.w3.org/2000/svg">
<path opacity="0.15" d="M42 84C65.196 84 84 65.196 84 42C84 18.804 65.196 0 42 0C18.804 0 0 18.804 0 42C0 65.196 18.804 84 42 84Z" fill="#0B3041"/>
<path d="M52.9098 63.0467H31.2097C31.1527 62.9677 31.0638 62.9757 30.9828 62.9637C29.2884 62.7204 27.7426 61.8624 26.6399 60.5531C25.5371 59.2439 24.9545 57.5747 25.0028 55.8636C25.0248 54.8296 25.1497 53.7976 25.2297 52.7636C25.4917 49.4003 25.7551 46.037 26.0197 42.6736C26.3147 38.9616 26.6268 35.2506 26.9088 31.5386C26.9104 31.1204 26.9972 30.7069 27.164 30.3233C27.3309 29.9398 27.5743 29.5943 27.8792 29.3081C28.1842 29.0219 28.5444 28.8008 28.9377 28.6586C29.331 28.5163 29.7492 28.4558 30.1667 28.4807C31.3567 28.4773 32.5471 28.475 33.7378 28.4736C33.7378 30.3376 33.7278 32.2027 33.7378 34.0667C33.7324 34.2353 33.761 34.4033 33.8217 34.5606C33.8825 34.718 33.9743 34.8616 34.0916 34.9828C34.209 35.1041 34.3494 35.2006 34.5047 35.2665C34.66 35.3324 34.827 35.3665 34.9957 35.3666C35.1644 35.3666 35.3314 35.3326 35.4867 35.2667C35.6419 35.2008 35.7823 35.1043 35.8995 34.983C36.0167 34.8617 36.1083 34.7181 36.1688 34.5607C36.2293 34.4032 36.2576 34.2352 36.2518 34.0667C36.2598 32.2027 36.2518 30.3386 36.2518 28.4736H47.8707C47.8707 30.3096 47.8627 32.1456 47.8647 33.9826C47.8491 34.1579 47.8699 34.3346 47.926 34.5014C47.982 34.6682 48.0721 34.8217 48.1904 34.952C48.3087 35.0823 48.4527 35.1867 48.6134 35.2585C48.774 35.3304 48.9478 35.3683 49.1238 35.3696C49.2998 35.3684 49.4736 35.3307 49.6344 35.2589C49.7951 35.1872 49.9393 35.0829 50.0577 34.9527C50.1762 34.8225 50.2663 34.6692 50.3226 34.5024C50.3789 34.3356 50.4001 34.159 50.3847 33.9836C50.3847 32.1476 50.3847 30.3106 50.3847 28.4746C51.6027 28.4746 52.8218 28.4746 54.0398 28.4826C54.447 28.4684 54.853 28.5354 55.234 28.6799C55.615 28.8244 55.9634 29.0435 56.2588 29.3242C56.5541 29.6049 56.7904 29.9418 56.9541 30.3149C57.1177 30.6881 57.2054 31.0902 57.2118 31.4977C57.3708 33.7317 57.5598 35.9636 57.7378 38.1976C57.9784 41.2116 58.2198 44.2257 58.4618 47.2397C58.6768 49.9327 58.8617 52.6286 59.1107 55.3186C59.2511 56.8423 58.8955 58.3705 58.0969 59.6757C57.2983 60.9809 56.0994 61.9931 54.6788 62.5616C54.0998 62.7826 53.4918 62.8617 52.9098 63.0467ZM40.3358 50.0316C40.5376 50.0273 40.736 49.9788 40.9171 49.8895C41.0982 49.8001 41.2575 49.6722 41.3838 49.5146C43.4418 47.4533 45.5011 45.3936 47.5617 43.3356C47.6731 43.2292 47.7754 43.1138 47.8678 42.9906C47.9822 42.8351 48.0586 42.655 48.091 42.4646C48.1234 42.2743 48.1108 42.079 48.0543 41.8943C47.9977 41.7097 47.8988 41.5409 47.7654 41.4014C47.6319 41.2618 47.4676 41.1554 47.2857 41.0906C47.0268 40.9973 46.745 40.988 46.4804 41.0639C46.2158 41.1399 45.9818 41.2972 45.8117 41.5136C44.0727 43.2606 42.3248 44.9976 40.5908 46.7486C40.3908 46.9486 40.2907 46.9847 40.0737 46.7607C39.4667 46.1207 38.8398 45.4996 38.2058 44.8866C38.0915 44.7572 37.9516 44.653 37.7949 44.5806C37.6382 44.5082 37.4681 44.4692 37.2955 44.4661C37.1229 44.463 36.9515 44.4959 36.7923 44.5626C36.6331 44.6293 36.4895 44.7284 36.3707 44.8536C36.2509 44.9731 36.1569 45.1158 36.0942 45.2729C36.0315 45.4301 36.0016 45.5983 36.0063 45.7674C36.011 45.9365 36.0502 46.1029 36.1214 46.2563C36.1927 46.4097 36.2945 46.547 36.4207 46.6596C37.4007 47.6596 38.3968 48.6436 39.3888 49.6326C39.5088 49.7631 39.6554 49.8663 39.8188 49.9351C39.9822 50.004 40.1586 50.0369 40.3358 50.0316Z" stroke="#0B3041" stroke-width="1.5"/>
<path d="M50.3929 28.4857H47.8578C47.8799 27.7097 47.7462 26.9372 47.4648 26.2138C47.1833 25.4903 46.7598 24.8306 46.2192 24.2736C45.6785 23.7165 45.0318 23.2734 44.3171 22.9705C43.6023 22.6675 42.8342 22.5109 42.0579 22.5097C41.2817 22.511 40.5135 22.6678 39.7989 22.9708C39.0842 23.2738 38.4375 23.7168 37.8969 24.2739C37.3563 24.8309 36.9327 25.4905 36.6512 26.2139C36.3697 26.9373 36.236 27.7098 36.2579 28.4857H33.7269C33.7105 27.2845 33.952 26.0938 34.435 24.9939C34.918 23.894 35.6314 22.9104 36.5269 22.1097C38.1326 20.6786 40.2299 19.9247 42.3792 20.006C44.5285 20.0872 46.5628 20.9974 48.0558 22.5457C49.5822 24.1435 50.4213 26.2761 50.3929 28.4857Z" stroke="#0B3041" stroke-width="1.5"/>
</svg>
