<svg width="30" height="30" viewBox="0 0 30 30" fill="none" xmlns="http://www.w3.org/2000/svg">
<rect x="0.5" y="0.5" width="29" height="29" rx="6.5" fill="#0B3041" stroke="white"/>
<path d="M16.2372 15L21.7437 9.49413C22.0855 9.15232 22.0855 8.59814 21.7437 8.25636C21.4018 7.91455 20.8477 7.91455 20.5059 8.25636L15 13.7628L9.49413 8.25636C9.15232 7.91455 8.59814 7.91455 8.25636 8.25636C7.91457 8.59817 7.91455 9.15235 8.25636 9.49413L13.7628 15L8.25636 20.5059C7.91455 20.8477 7.91455 21.4019 8.25636 21.7437C8.59817 22.0854 9.15235 22.0855 9.49413 21.7437L15 16.2372L20.5059 21.7437C20.8477 22.0855 21.4018 22.0855 21.7436 21.7437C22.0854 21.4018 22.0854 20.8477 21.7436 20.5059L16.2372 15Z" fill="white"/>
</svg>
