<svg width="61" height="47" viewBox="0 0 61 47" fill="none" xmlns="http://www.w3.org/2000/svg">
<path d="M29.9287 18.2101C30.0958 18.5028 30.2658 18.796 30.4315 19.0887V18.1602L29.9287 18.2101ZM29.9287 18.2101C30.0958 18.5028 30.2658 18.796 30.4315 19.0887V18.1602L29.9287 18.2101Z" fill="white"/>
<path d="M43.3647 31.1645H40.8499C40.8181 31.1856 40.7868 31.2053 40.7564 31.2236H37.3714C37.3594 31.2039 37.3493 31.1842 37.3372 31.1645L30.4319 19.0882H27.513V19.0921H22.2446C22.1004 19.0924 21.9584 19.1275 21.8307 19.1944C21.7031 19.2614 21.5936 19.3582 21.5116 19.4765C21.48 19.5204 21.453 19.5674 21.4312 19.6169C21.405 19.6741 21.3851 19.7341 21.3719 19.7956C21.3575 19.8587 21.3504 19.9232 21.3508 19.9879V31.1424H16.0486V21.5431C16.0486 21.0731 16.0524 19.8423 16.0486 18.19V17.9665C16.0365 17.8468 16.0303 17.7262 16.0303 17.6042C16.0303 16.6355 16.4159 15.7064 17.1023 15.0215C17.7886 14.3365 18.7196 13.9517 19.6903 13.9517H32.6207C33.1784 13.9692 33.7341 13.8763 34.2557 13.6783C34.7772 13.4804 35.2543 13.1812 35.6594 12.7982C36.4796 11.9828 36.9525 10.8828 36.9794 9.72775C37.0228 9.10122 36.927 8.47286 36.6988 7.88757C36.4706 7.30228 36.1157 6.77452 35.6594 6.34199C35.2525 6.00458 34.7811 5.75309 34.274 5.60274C33.7668 5.4524 33.2343 5.40633 32.7088 5.46732C31.152 5.47533 29.5949 5.48269 28.0375 5.48942C27.0464 5.49455 26.055 5.49935 25.0632 5.50384C25.0151 5.50384 24.9621 5.50384 24.912 5.50384V0.0895054H25.0632L32.6207 0.0683594C33.1366 0.0683594 33.6333 0.0885442 34.1107 0.128914C36.6441 0.339092 38.6555 1.10804 40.1448 2.43575C41.0414 3.23271 41.7321 4.23373 42.1583 5.3539C42.6064 6.57065 42.8245 7.85974 42.8017 9.15585C42.8364 10.7553 42.5449 12.3451 41.945 13.8286C41.9291 13.8695 41.9108 13.9089 41.8925 13.9483C41.2093 15.5036 40.055 16.8061 38.5917 17.6729C37.8499 18.1071 37.0519 18.4376 36.22 18.6552C38.6022 22.8251 40.9834 26.9951 43.3637 31.165L43.3647 31.1645Z" fill="white"/>
<path d="M24.2641 5.50104L15.39 5.50489C15.3743 14.0575 15.3582 22.6106 15.3419 31.1641H9.53546C9.56435 22.6128 9.59325 14.0612 9.62214 5.50921L0.751465 5.51306L0.802994 0.134766H24.2352C24.2445 1.92352 24.2541 3.71228 24.2641 5.50104Z" fill="white"/>
<path d="M29.9287 18.2101C30.0958 18.5028 30.2658 18.796 30.4315 19.0887V18.1602L29.9287 18.2101Z" fill="white"/>
<path d="M60.4125 9.72639C60.4274 12.2531 59.4718 14.6896 57.7422 16.5349C56.9177 17.4201 55.92 18.127 54.8107 18.612C53.7015 19.097 52.5044 19.3497 51.2934 19.3545H45.7726C45.4541 19.3001 45.1269 19.3716 44.8604 19.554C44.3355 19.9716 44.4328 20.8857 44.4593 21.188C44.5845 22.5865 44.5556 26.1563 44.4554 31.1655C44.4554 31.1828 44.4554 31.1997 44.4554 31.217H43.8578C43.8487 31.1997 43.8381 31.1828 43.8289 31.1655C41.4811 27.0732 39.1342 22.9812 36.7882 18.8898C37.588 18.6677 38.3519 18.3329 39.0569 17.8955C39.5995 17.5544 40.0983 17.1487 40.5426 16.6873C41.2533 15.9432 41.8201 15.0745 42.2142 14.1248H51.2515C51.7986 14.1225 52.3395 14.0083 52.8406 13.7892C53.3418 13.5701 53.7925 13.2506 54.165 12.8507C54.9451 12.0164 55.3758 10.916 55.369 9.77493C55.3998 8.65321 54.9833 7.56511 54.211 6.74956C53.4386 5.93401 52.3735 5.45766 51.2495 5.4251H42.468C42.2024 4.68607 41.8257 3.99167 41.3507 3.36577C41.1022 3.04908 40.8322 2.74977 40.5426 2.46995C39.0613 1.05221 36.5142 0.202044 36.0273 0.0429688L51.2934 0.0982367C56.3297 0.0982367 60.4125 4.40866 60.4125 9.72639Z" fill="#869006"/>
<path d="M0.401367 38.8088H2.47031C2.26027 37.6924 1.82101 36.9893 1.15254 36.6995L1.351 36.2539C2.19842 36.5652 2.74898 37.4203 3.00268 38.8192V39.2648H0.401367V38.8088Z" fill="white"/>
<path d="M4.8244 36.4385V39.4043C4.84362 39.7375 4.74101 40.0663 4.53564 40.3297C4.43309 40.4434 4.30621 40.5326 4.16441 40.5907C4.02261 40.6489 3.86953 40.6744 3.7165 40.6654C3.4114 40.6707 3.11371 40.5714 2.87305 40.3842L3.12112 40.0282C3.29135 40.1488 3.49535 40.2127 3.7041 40.2109C3.78858 40.2132 3.87236 40.1949 3.94818 40.1577C4.024 40.1204 4.08957 40.0652 4.13922 39.997C4.25469 39.8321 4.31194 39.6335 4.30196 39.4325V36.4385H4.8244Z" fill="white"/>
<path d="M6.43502 39.2664H5.8833V34.835H6.43502V39.2664Z" fill="white"/>
<path d="M9.86031 38.8089H10.4061V39.2649H9.86031V39.4041C9.86976 39.577 9.84087 39.7498 9.77569 39.9103C9.71051 40.0708 9.61065 40.2149 9.48324 40.3324C9.18391 40.5706 8.80653 40.6892 8.42446 40.6652C8.03161 40.6715 7.64474 40.5686 7.30713 40.3681L7.5552 39.9784C7.82723 40.1215 8.12808 40.2015 8.43537 40.2126C8.67303 40.223 8.90663 40.1486 9.09426 40.0027C9.1748 39.9321 9.23842 39.8444 9.28041 39.746C9.32241 39.6476 9.3417 39.5411 9.33687 39.4343V39.2639H8.7286C8.35501 39.2878 7.98696 39.1644 7.70355 38.9203C7.57738 38.7904 7.47994 38.6354 7.41755 38.4655C7.35516 38.2956 7.32921 38.1146 7.34136 37.934C7.33168 37.7279 7.36872 37.5223 7.44973 37.3325C7.53074 37.1427 7.65362 36.9736 7.80923 36.8378C8.15768 36.5571 8.59736 36.414 9.04464 36.4358H9.86031V38.8089ZM9.06647 36.8903C8.75398 36.8701 8.4454 36.9686 8.20268 37.1661C8.0994 37.2636 8.01862 37.3823 7.96593 37.514C7.91324 37.6458 7.88991 37.7874 7.89755 37.9291C7.87893 38.0463 7.88789 38.1663 7.92372 38.2795C7.95954 38.3926 8.02126 38.496 8.10398 38.5813C8.18671 38.6665 8.28818 38.7315 8.40037 38.7709C8.51256 38.8103 8.6324 38.8232 8.75043 38.8084H9.32943V36.8898L9.06647 36.8903Z" fill="white"/>
<path d="M10.2773 38.8086H11.4636V39.2646H10.2773V38.8086Z" fill="white"/>
<path d="M11.3389 38.8086H12.5252V39.2646H11.3389V38.8086Z" fill="white"/>
<path d="M12.4023 39.2658V38.8097H13.2036C13.0511 38.5467 12.9795 38.2446 12.9977 37.9413C12.9812 37.5284 13.126 37.1252 13.4016 36.8168C13.5354 36.6719 13.6992 36.5577 13.8816 36.4821C14.0639 36.4064 14.2605 36.3711 14.4579 36.3786C14.6451 36.3695 14.8322 36.3978 15.0082 36.4619C15.1843 36.526 15.3457 36.6246 15.4829 36.752C15.6825 36.9668 15.8134 37.2362 15.8588 37.5257C15.9042 37.8151 15.8621 38.1115 15.738 38.377C15.6585 38.5527 15.5317 38.7031 15.3718 38.8112H16.4633V39.2672H12.4038L12.4023 39.2658ZM13.7677 38.8097H14.3319C14.4656 38.8179 14.5996 38.7976 14.7249 38.7503C14.8502 38.7029 14.964 38.6295 15.0587 38.5349C15.2402 38.3219 15.332 38.047 15.3147 37.768C15.329 37.516 15.2433 37.2686 15.0761 37.0792C14.9952 36.9958 14.8976 36.9303 14.7896 36.8871C14.6816 36.8439 14.5657 36.824 14.4495 36.8287C14.326 36.8265 14.2037 36.8526 14.0919 36.9049C13.9801 36.9571 13.8818 37.0342 13.8045 37.1302C13.6228 37.3608 13.5313 37.6494 13.547 37.9423C13.5239 38.2477 13.6005 38.5523 13.7653 38.8107L13.7677 38.8097Z" fill="white"/>
<path d="M16.3359 38.8089H17.1858V34.835H17.7376V39.2664H16.3359V38.8089Z" fill="white"/>
<path d="M19.3456 39.2664H18.7949V34.835H19.3456V39.2664Z" fill="white"/>
<path d="M22.746 39.2664H21.6138V38.8104H22.2191V34.835H22.748V37.6899C23.1465 36.8145 23.7201 36.377 24.4686 36.3773C25.4176 36.3773 25.8921 36.8708 25.8921 37.8577V38.2786C25.8895 38.3509 25.9032 38.4229 25.9324 38.4891C25.9615 38.5554 26.0052 38.6143 26.0603 38.6613C26.1857 38.764 26.3447 38.8169 26.5068 38.8099H26.606V39.2659H26.5852C26.4496 39.2833 26.3118 39.2611 26.1886 39.2021C26.0653 39.143 25.9618 39.0496 25.8906 38.9332V39.2659H23.3811C23.2436 39.2586 23.111 39.2125 22.9987 39.133C22.8863 39.0535 22.7989 38.9439 22.7465 38.8168V39.2659L22.746 39.2664ZM22.7584 38.3098C22.7639 38.3824 22.7839 38.4532 22.8173 38.5179C22.8507 38.5827 22.8968 38.6401 22.9528 38.6868C23.0089 38.7334 23.0737 38.7684 23.1435 38.7896C23.2133 38.8109 23.2866 38.8179 23.3592 38.8104H25.3617V37.885C25.3617 37.1882 25.026 36.8399 24.3545 36.8403C23.7181 36.8403 23.1859 37.3296 22.7579 38.3083L22.7584 38.3098Z" fill="white"/>
<path d="M26.4814 38.8086H27.6677V39.2646H26.4814V38.8086Z" fill="white"/>
<path d="M27.5449 38.8097H28.3948V36.4375H28.9465V38.2507C28.9429 38.3267 28.9561 38.4027 28.9851 38.4731C29.0142 38.5435 29.0585 38.6067 29.1147 38.6582C29.2392 38.7628 29.3986 38.8169 29.5613 38.8097H29.7865V39.2657H29.6441C29.5081 39.2824 29.3701 39.26 29.2464 39.201C29.1227 39.1421 29.0185 39.0491 28.946 38.933V39.2657H27.5449V38.8097ZM28.1458 39.485C28.2302 39.4883 28.3101 39.5241 28.3687 39.5849C28.4273 39.6457 28.46 39.7267 28.46 39.8111C28.46 39.8954 28.4273 39.9765 28.3687 40.0372C28.3101 40.098 28.2302 40.1338 28.1458 40.1371C28.1017 40.1434 28.0568 40.1392 28.0147 40.125C27.9726 40.1109 27.9343 40.087 27.9031 40.0555C27.8718 40.0239 27.8484 39.9854 27.8347 39.9432C27.8211 39.901 27.8175 39.8562 27.8243 39.8123C27.8176 39.7683 27.8212 39.7234 27.8349 39.6811C27.8486 39.6388 27.872 39.6002 27.9031 39.5684C27.9343 39.5367 27.9724 39.5125 28.0146 39.498C28.0567 39.4834 28.1016 39.4788 28.1458 39.4845V39.485ZM29.0989 39.485C29.1635 39.4847 29.2269 39.5036 29.2808 39.5392C29.3348 39.5748 29.3769 39.6257 29.4019 39.6852C29.4269 39.7447 29.4336 39.8103 29.4213 39.8737C29.4089 39.9371 29.378 39.9953 29.3324 40.0412C29.2869 40.087 29.2287 40.1183 29.1653 40.1311C29.1019 40.1439 29.0361 40.1377 28.9763 40.1132C28.9164 40.0887 28.8652 40.047 28.8291 39.9935C28.793 39.9399 28.7736 39.8769 28.7734 39.8123C28.7665 39.7679 28.7701 39.7226 28.7839 39.6799C28.7978 39.6371 28.8215 39.5983 28.8532 39.5664C28.8848 39.5345 28.9236 39.5105 28.9663 39.4963C29.0089 39.482 29.0543 39.478 29.0989 39.4845V39.485Z" fill="white"/>
<path d="M29.6626 38.8086H30.8489V39.2646H29.6626V38.8086Z" fill="white"/>
<path d="M32.0424 39.2664H30.7256V38.8104H31.5145V34.835H32.0419V37.6899C32.4404 36.8145 33.014 36.377 33.7625 36.3773C34.7115 36.3773 35.186 36.8708 35.186 37.8577V38.2786C35.1834 38.3509 35.1971 38.4229 35.2263 38.4891C35.2554 38.5554 35.2991 38.6143 35.3542 38.6613C35.4796 38.764 35.6386 38.8169 35.8007 38.8099H35.8999V39.2659H35.8781C35.7425 39.2833 35.6047 39.2611 35.4815 39.2021C35.3582 39.143 35.2547 39.0496 35.1835 38.9332V39.2659H32.6754C32.538 39.2586 32.4054 39.2125 32.293 39.133C32.1807 39.0535 32.0933 38.9439 32.0409 38.8168V39.2659L32.0424 39.2664ZM32.0548 38.3098C32.0603 38.3824 32.0803 38.4532 32.1137 38.5179C32.1471 38.5827 32.1932 38.6401 32.2492 38.6868C32.3052 38.7334 32.3701 38.7684 32.4399 38.7896C32.5097 38.8109 32.583 38.8179 32.6556 38.8104H34.6581V37.885C34.6581 37.1882 34.3223 36.8399 33.6509 36.8403C33.0148 36.8403 32.4824 37.3301 32.0538 38.3098H32.0548Z" fill="white"/>
<path d="M38.4739 38.809C38.2512 38.4939 38.116 38.1256 38.082 37.7415C38.054 37.486 37.9626 37.2415 37.816 37.03C37.7497 36.9609 37.6689 36.9073 37.5793 36.8731C37.4897 36.8388 37.3937 36.8248 37.2981 36.832C36.9839 36.8411 36.6758 36.9206 36.3966 37.0647L36.1807 36.6627C36.5211 36.465 36.9099 36.3657 37.3035 36.376C37.6084 36.3586 37.9089 36.4545 38.147 36.6453C38.3922 36.9089 38.5413 37.2473 38.5702 37.6059C38.5947 38.0421 38.7503 38.4608 39.0167 38.8076H39.4633V39.2636H35.7759V38.8076H38.4714L38.4739 38.809ZM37.2633 35.2476C37.3282 35.2465 37.3919 35.2647 37.4463 35.2998C37.5008 35.335 37.5436 35.3855 37.5692 35.4449C37.5948 35.5044 37.6021 35.5701 37.5902 35.6337C37.5783 35.6974 37.5477 35.756 37.5023 35.8022C37.4569 35.8485 37.3987 35.8802 37.3352 35.8933C37.2717 35.9065 37.2057 35.9005 37.1456 35.8761C37.0856 35.8517 37.0341 35.81 36.9978 35.7564C36.9615 35.7028 36.942 35.6396 36.9418 35.5748C36.9351 35.5309 36.9388 35.486 36.9525 35.4437C36.9662 35.4014 36.9895 35.3628 37.0207 35.3311C37.0519 35.2994 37.09 35.2753 37.1321 35.2608C37.1743 35.2463 37.2192 35.2418 37.2633 35.2476Z" fill="white"/>
<path d="M39.3486 38.8086H40.5349V39.2646H39.3486V38.8086Z" fill="white"/>
<path d="M40.4106 38.8086H41.2606V36.4355H41.8123V39.2622H40.4106V38.8062V38.8086ZM41.0115 35.2472C41.0959 35.2504 41.1758 35.2862 41.2344 35.347C41.293 35.4078 41.3257 35.4889 41.3257 35.5732C41.3257 35.6575 41.293 35.7386 41.2344 35.7994C41.1758 35.8602 41.0959 35.896 41.0115 35.8992C40.9675 35.9055 40.9226 35.9013 40.8804 35.8872C40.8383 35.873 40.8001 35.8492 40.7688 35.8176C40.7376 35.786 40.7142 35.7476 40.7005 35.7054C40.6868 35.6631 40.6832 35.6183 40.69 35.5744C40.6834 35.5305 40.6871 35.4856 40.7008 35.4434C40.7146 35.4011 40.7379 35.3626 40.7691 35.3309C40.8002 35.2992 40.8384 35.2751 40.8804 35.2606C40.9225 35.2461 40.9673 35.2415 41.0115 35.2472ZM41.9646 35.2472C42.0293 35.2469 42.0926 35.2657 42.1465 35.3014C42.2005 35.337 42.2426 35.3878 42.2676 35.4473C42.2926 35.5069 42.2994 35.5725 42.287 35.6358C42.2746 35.6992 42.2437 35.7575 42.1981 35.8033C42.1526 35.8491 42.0944 35.8804 42.031 35.8932C41.9676 35.9061 41.9018 35.8998 41.842 35.8753C41.7821 35.8508 41.7309 35.8092 41.6948 35.7556C41.6587 35.702 41.6393 35.639 41.6391 35.5744C41.6323 35.5301 41.636 35.4848 41.6499 35.4422C41.6637 35.3995 41.6875 35.3607 41.7191 35.3289C41.7508 35.297 41.7895 35.2731 41.8321 35.2589C41.8747 35.2447 41.9201 35.2407 41.9646 35.2472Z" fill="white"/>
<path d="M45.7159 39.2646C45.337 39.2857 44.9647 39.1591 44.6775 38.9116C44.5481 38.7852 44.4472 38.6326 44.3818 38.4641C44.3163 38.2956 44.2877 38.1151 44.2979 37.9347C44.2882 37.7286 44.3252 37.523 44.4062 37.3332C44.4872 37.1434 44.6102 36.9743 44.7658 36.8385C45.1144 36.558 45.554 36.4149 46.0012 36.4364H46.9369V38.8086H47.6812V39.2646H45.7159ZM46.0196 36.888C45.7071 36.8678 45.3985 36.9663 45.1558 37.1638C45.0525 37.2612 44.9717 37.38 44.919 37.5117C44.8663 37.6435 44.843 37.7851 44.8506 37.9268C44.8506 38.5127 45.1339 38.8058 45.7005 38.8061H46.411V36.8875H46.0191L46.0196 36.888ZM45.3036 35.2451C45.3685 35.2441 45.4322 35.2622 45.4866 35.2974C45.5411 35.3325 45.5838 35.383 45.6095 35.4425C45.6351 35.502 45.6424 35.5677 45.6305 35.6313C45.6186 35.6949 45.588 35.7536 45.5426 35.7998C45.4972 35.846 45.439 35.8777 45.3755 35.8909C45.312 35.904 45.246 35.898 45.1859 35.8736C45.1259 35.8493 45.0744 35.8076 45.0381 35.754C45.0018 35.7003 44.9823 35.6371 44.9821 35.5724C44.976 35.5286 44.98 35.4841 44.9939 35.4421C45.0078 35.4002 45.0313 35.362 45.0624 35.3305C45.0934 35.2991 45.1314 35.2752 45.1732 35.2607C45.2151 35.2462 45.2597 35.2416 45.3036 35.2471V35.2451ZM46.2567 35.2451C46.3214 35.2448 46.3847 35.2637 46.4387 35.2993C46.4926 35.335 46.5347 35.3858 46.5597 35.4453C46.5848 35.5048 46.5915 35.5704 46.5791 35.6338C46.5668 35.6972 46.5358 35.7554 46.4903 35.8013C46.4447 35.8471 46.3865 35.8784 46.3231 35.8912C46.2598 35.904 46.194 35.8978 46.1341 35.8733C46.0743 35.8488 46.0231 35.8071 45.9869 35.7536C45.9508 35.7 45.9314 35.637 45.9312 35.5724C45.9248 35.5282 45.9287 35.4832 45.9427 35.4408C45.9568 35.3984 45.9806 35.3598 46.0122 35.3283C46.0438 35.2967 46.0824 35.2729 46.1248 35.2588C46.1673 35.2447 46.2124 35.2407 46.2567 35.2471V35.2451Z" fill="white"/>
<path d="M47.5562 38.8086H48.7419V39.2646H47.5562V38.8086Z" fill="white"/>
<path d="M48.6177 38.8086H49.804V39.2646H48.6177V38.8086Z" fill="white"/>
<path d="M49.6812 38.8097H50.5311V36.4375H51.0828V38.2507C51.0791 38.3267 51.0923 38.4027 51.1214 38.4731C51.1504 38.5435 51.1947 38.6067 51.251 38.6582C51.3755 38.7628 51.5349 38.8169 51.6975 38.8097H51.9228V39.2657H51.7804C51.6443 39.2824 51.5063 39.26 51.3827 39.201C51.259 39.1421 51.1548 39.0491 51.0823 38.933V39.2657H49.6812V38.8097ZM50.282 39.485C50.3664 39.4883 50.4463 39.5241 50.5049 39.5849C50.5635 39.6457 50.5962 39.7267 50.5962 39.8111C50.5962 39.8954 50.5635 39.9765 50.5049 40.0372C50.4463 40.098 50.3664 40.1338 50.282 40.1371C50.238 40.1434 50.1931 40.1392 50.1509 40.125C50.1088 40.1109 50.0706 40.087 50.0393 40.0555C50.0081 40.0239 49.9847 39.9854 49.971 39.9432C49.9573 39.901 49.9537 39.8562 49.9605 39.8123C49.9538 39.7683 49.9575 39.7234 49.9712 39.6811C49.9848 39.6388 50.0082 39.6002 50.0394 39.5684C50.0705 39.5367 50.1087 39.5125 50.1508 39.498C50.1929 39.4834 50.2378 39.4788 50.282 39.4845V39.485ZM51.2351 39.485C51.2998 39.4847 51.3631 39.5036 51.417 39.5392C51.471 39.5748 51.5131 39.6257 51.5381 39.6852C51.5631 39.7447 51.5699 39.8103 51.5575 39.8737C51.5452 39.9371 51.5142 39.9953 51.4687 40.0412C51.4231 40.087 51.3649 40.1183 51.3015 40.1311C51.2381 40.1439 51.1723 40.1377 51.1125 40.1132C51.0526 40.0887 51.0014 40.047 50.9653 39.9935C50.9292 39.9399 50.9098 39.8769 50.9096 39.8123C50.9027 39.7679 50.9063 39.7226 50.9202 39.6799C50.934 39.6371 50.9578 39.5983 50.9894 39.5664C51.0211 39.5345 51.0598 39.5105 51.1025 39.4963C51.1452 39.482 51.1906 39.478 51.2351 39.4845V39.485Z" fill="white"/>
<path d="M51.7983 38.8086H52.9846V39.2646H51.7983V38.8086Z" fill="white"/>
<path d="M52.8618 38.809H53.7117V36.4359H54.2634V38.249C54.2598 38.3251 54.273 38.4011 54.302 38.4715C54.3311 38.5419 54.3753 38.6051 54.4316 38.6565C54.5561 38.7612 54.7155 38.8153 54.8782 38.808H55.1034V39.2641H54.961C54.825 39.2808 54.687 39.2584 54.5633 39.1994C54.4396 39.1405 54.3354 39.0474 54.2629 38.9313V39.2641H52.8618V38.809ZM53.9831 35.2476C54.0479 35.2465 54.1117 35.2647 54.1661 35.2998C54.2206 35.335 54.2633 35.3855 54.2889 35.4449C54.3146 35.5044 54.3219 35.5701 54.31 35.6337C54.298 35.6974 54.2674 35.756 54.222 35.8022C54.1766 35.8485 54.1185 35.8802 54.055 35.8933C53.9915 35.9065 53.9255 35.9005 53.8654 35.8761C53.8053 35.8517 53.7539 35.81 53.7176 35.7564C53.6813 35.7028 53.6618 35.6396 53.6616 35.5748C53.6549 35.5309 53.6585 35.486 53.6722 35.4437C53.6859 35.4014 53.7093 35.3628 53.7405 35.3311C53.7717 35.2994 53.8098 35.2753 53.8519 35.2608C53.894 35.2463 53.9389 35.2418 53.9831 35.2476Z" fill="white"/>
<path d="M54.979 38.8084H55.9539C55.7347 38.5691 55.6191 38.253 55.6324 37.9291C55.6224 37.7239 55.6588 37.5191 55.7389 37.3299C55.8189 37.1406 55.9406 36.9718 56.0948 36.8358C56.4455 36.5559 56.8868 36.4139 57.3352 36.4367H58.1489V38.8089H58.8375V39.2649H54.979V38.8084ZM57.3531 36.8898C57.0413 36.8706 56.7337 36.9687 56.4908 37.1646C56.3868 37.2619 56.3054 37.3808 56.2525 37.5129C56.1995 37.6449 56.1762 37.787 56.1841 37.9291C56.1841 38.515 56.4674 38.8081 57.0341 38.8084H57.62V36.8898H57.3531ZM56.6818 35.2469C56.7465 35.2463 56.81 35.265 56.8641 35.3004C56.9183 35.3359 56.9606 35.3866 56.9859 35.4461C57.0111 35.5056 57.0181 35.5712 57.0059 35.6347C56.9937 35.6981 56.9629 35.7566 56.9174 35.8025C56.8719 35.8485 56.8137 35.8799 56.7503 35.8929C56.6868 35.9058 56.621 35.8997 56.561 35.8752C56.5011 35.8508 56.4498 35.8091 56.4136 35.7555C56.3774 35.7019 56.358 35.6388 56.3578 35.5742C56.351 35.53 56.3547 35.4849 56.3685 35.4424C56.3823 35.3998 56.4059 35.3611 56.4374 35.3293C56.4689 35.2976 56.5074 35.2735 56.5498 35.2592C56.5922 35.2449 56.6374 35.2407 56.6818 35.2469ZM57.6324 35.2469C57.7169 35.2502 57.7967 35.286 57.8553 35.3468C57.9139 35.4076 57.9466 35.4886 57.9466 35.573C57.9466 35.6573 57.9139 35.7384 57.8553 35.7992C57.7967 35.86 57.7169 35.8957 57.6324 35.899C57.5884 35.9053 57.5435 35.9011 57.5014 35.8869C57.4592 35.8728 57.421 35.8489 57.3897 35.8174C57.3585 35.7858 57.3351 35.7474 57.3214 35.7051C57.3077 35.6629 57.3041 35.6181 57.3109 35.5742C57.3043 35.5303 57.308 35.4854 57.3218 35.4432C57.3355 35.4009 57.3588 35.3624 57.39 35.3307C57.4212 35.299 57.4593 35.2749 57.5013 35.2604C57.5434 35.2458 57.5883 35.2412 57.6324 35.2469Z" fill="white"/>
<path d="M58.7163 38.8086H59.5662V36.4355H60.1179V39.2622H58.7163V38.8062V38.8086ZM59.3171 35.2472C59.4016 35.2504 59.4815 35.2862 59.5401 35.347C59.5987 35.4078 59.6314 35.4889 59.6314 35.5732C59.6314 35.6575 59.5987 35.7386 59.5401 35.7994C59.4815 35.8602 59.4016 35.896 59.3171 35.8992C59.2731 35.9055 59.2282 35.9013 59.1861 35.8872C59.144 35.873 59.1057 35.8492 59.0745 35.8176C59.0432 35.786 59.0198 35.7476 59.0061 35.7054C58.9924 35.6631 58.9888 35.6183 58.9956 35.5744C58.9891 35.5305 58.9928 35.4856 59.0065 35.4434C59.0202 35.4011 59.0436 35.3626 59.0747 35.3309C59.1059 35.2992 59.144 35.2751 59.1861 35.2606C59.2281 35.2461 59.273 35.2415 59.3171 35.2472ZM60.2702 35.2472C60.3349 35.2469 60.3983 35.2657 60.4522 35.3014C60.5061 35.337 60.5483 35.3878 60.5733 35.4473C60.5983 35.5069 60.605 35.5725 60.5927 35.6358C60.5803 35.6992 60.5494 35.7575 60.5038 35.8033C60.4582 35.8491 60.4001 35.8804 60.3367 35.8932C60.2733 35.9061 60.2075 35.8998 60.1476 35.8753C60.0878 35.8508 60.0366 35.8092 60.0005 35.7556C59.9643 35.702 59.945 35.639 59.9448 35.5744C59.9379 35.5301 59.9416 35.4848 59.9555 35.4422C59.9694 35.3995 59.9931 35.3607 60.0248 35.3289C60.0565 35.297 60.0951 35.2731 60.1378 35.2589C60.1804 35.2447 60.2258 35.2407 60.2702 35.2472Z" fill="white"/>
<path d="M2.66479 42.6398H1.85188V45.0523H1.20801V42.6398H0.401367V42.0986H2.66479V42.6398Z" fill="#869006"/>
<path d="M4.44561 44.1835H3.12031C3.1415 44.4895 3.32755 44.6426 3.67846 44.643C3.88683 44.6469 4.09178 44.5898 4.26791 44.4786V44.9486C4.04114 45.0613 3.78952 45.115 3.53639 45.1048C3.39618 45.1131 3.25577 45.0922 3.1241 45.0434C2.99243 44.9946 2.8724 44.9189 2.77165 44.8213C2.57957 44.6041 2.48155 44.3198 2.49907 44.0307C2.48454 43.7256 2.58975 43.4268 2.79235 43.1978C2.88428 43.0987 2.99616 43.0202 3.12065 42.9672C3.24514 42.9143 3.37943 42.8882 3.51472 42.8907C3.64245 42.8844 3.77005 42.9057 3.88881 42.953C4.00757 43.0004 4.1147 43.0727 4.2029 43.1651C4.37467 43.3737 4.46164 43.6391 4.44658 43.9086V44.183L4.44561 44.1835ZM3.86387 43.7832C3.86387 43.4809 3.7454 43.33 3.51135 43.33C3.46087 43.3306 3.41118 43.3426 3.36604 43.3651C3.3209 43.3877 3.2815 43.4202 3.25082 43.4602C3.17485 43.5522 3.12808 43.6646 3.11646 43.7832H3.86531H3.86387Z" fill="#869006"/>
<path d="M6.35992 44.9769C6.17048 45.0728 5.95892 45.1167 5.74687 45.1043C5.60706 45.1099 5.46758 45.0866 5.33716 45.036C5.20675 44.9854 5.08818 44.9085 4.98887 44.8102C4.89191 44.7094 4.81635 44.5901 4.7667 44.4594C4.71705 44.3288 4.69433 44.1895 4.69992 44.0499C4.69151 43.895 4.71471 43.7401 4.7681 43.5944C4.8215 43.4488 4.90398 43.3155 5.01054 43.2026C5.12065 43.0974 5.25102 43.0157 5.39375 42.9625C5.53647 42.9092 5.68857 42.8854 5.84078 42.8926C6.01942 42.8791 6.1985 42.9122 6.36041 42.9887V43.5414C6.23585 43.4425 6.08133 43.3888 5.92217 43.389C5.84335 43.3852 5.76458 43.3978 5.69093 43.4261C5.61728 43.4544 5.55038 43.4978 5.49453 43.5534C5.43975 43.6147 5.3976 43.6861 5.3705 43.7636C5.34339 43.8411 5.33186 43.9232 5.33657 44.0052C5.33145 44.0848 5.34218 44.1647 5.36813 44.2401C5.39408 44.3156 5.43475 44.3852 5.48779 44.4449C5.54168 44.4993 5.60649 44.5416 5.67795 44.5692C5.74941 44.5968 5.82591 44.609 5.90243 44.6049C6.06711 44.6021 6.22695 44.5489 6.36041 44.4526L6.35992 44.9769Z" fill="#869006"/>
<path d="M8.72043 45.0525H8.09437V43.851C8.09437 43.5425 7.98602 43.3879 7.76931 43.3872C7.71722 43.386 7.66559 43.3972 7.61869 43.4198C7.57179 43.4425 7.53098 43.476 7.49962 43.5175C7.4286 43.6124 7.39239 43.7288 7.39705 43.8472V45.0486H6.771V41.9248H7.39705V43.2512H7.40475C7.46645 43.1397 7.55719 43.0469 7.6674 42.9826C7.7776 42.9183 7.90316 42.8849 8.03081 42.886C8.49152 42.886 8.72187 43.1743 8.72187 43.751V45.0486L8.72043 45.0525Z" fill="#869006"/>
<path d="M11.1792 45.0521H10.5532V43.8804C10.5532 43.5533 10.4408 43.3901 10.2161 43.3907C10.1643 43.3901 10.1131 43.4016 10.0665 43.4242C10.0199 43.4468 9.9793 43.4799 9.94782 43.521C9.8753 43.6153 9.83801 43.7318 9.84236 43.8506V45.0521H9.21631V42.9428H9.84236V43.2763H9.85151C9.91305 43.1575 10.0069 43.0584 10.1223 42.9904C10.2378 42.9224 10.3701 42.8882 10.504 42.8919C10.9535 42.8919 11.1783 43.1817 11.1783 43.7612V45.0521H11.1792Z" fill="#869006"/>
<path d="M12.6444 45.1036C12.498 45.1116 12.3516 45.0896 12.2141 45.0387C12.0767 44.9879 11.9512 44.9094 11.8454 44.808C11.7461 44.7002 11.6693 44.5737 11.6197 44.4359C11.5701 44.298 11.5486 44.1517 11.5565 44.0054C11.5437 43.8558 11.5638 43.7052 11.6154 43.5641C11.667 43.423 11.7489 43.2949 11.8553 43.1887C11.9617 43.0824 12.0901 43.0007 12.2315 42.9492C12.3729 42.8977 12.5238 42.8777 12.6738 42.8905C12.8194 42.8818 12.9652 42.9036 13.1019 42.9545C13.2386 43.0054 13.3631 43.0843 13.4674 43.186C13.5653 43.2905 13.6412 43.4135 13.6909 43.5477C13.7405 43.6819 13.7627 43.8246 13.7563 43.9675C13.7645 44.1185 13.7425 44.2696 13.6917 44.4121C13.6409 44.5546 13.5622 44.6856 13.4602 44.7975C13.3532 44.9017 13.2256 44.9827 13.0856 45.0351C12.9455 45.0876 12.7961 45.1104 12.6468 45.1022L12.6444 45.1036ZM12.6603 43.3898C12.5942 43.3864 12.5283 43.3991 12.4682 43.4268C12.4081 43.4545 12.3557 43.4964 12.3155 43.5489C12.2258 43.681 12.1823 43.8389 12.1917 43.9982C12.1917 44.4029 12.3497 44.6062 12.6641 44.6062C12.9786 44.6062 13.1144 44.3986 13.1144 43.9814C13.1144 43.5873 12.963 43.3903 12.6603 43.3903V43.3898Z" fill="#869006"/>
<path d="M14.7672 44.3369C14.7621 44.4096 14.784 44.4817 14.8289 44.5393C14.8495 44.5623 14.875 44.5804 14.9034 44.5925C14.9319 44.6045 14.9627 44.6101 14.9936 44.6089C15.028 44.6087 15.0624 44.6051 15.0962 44.5984C15.1304 44.5916 15.1645 44.5854 15.1987 44.5772V45.0343C15.1195 45.055 15.0391 45.0711 14.9579 45.0823C14.8708 45.0957 14.7827 45.1023 14.6945 45.102C14.6164 45.1031 14.539 45.0884 14.4667 45.0588C14.3999 45.0305 14.3402 44.9879 14.2919 44.9338C14.2415 44.8765 14.2035 44.8094 14.1802 44.7368C14.1528 44.6529 14.1394 44.565 14.1407 44.4768V41.9268H14.7668V44.3355L14.7672 44.3369Z" fill="#869006"/>
<path d="M16.4315 45.1036C16.2851 45.1116 16.1387 45.0896 16.0012 45.0387C15.8638 44.9879 15.7383 44.9094 15.6325 44.808C15.5332 44.7002 15.4564 44.5737 15.4068 44.4359C15.3572 44.298 15.3357 44.1517 15.3436 44.0054C15.3308 43.8558 15.3509 43.7052 15.4025 43.5641C15.4541 43.423 15.536 43.2949 15.6424 43.1887C15.7488 43.0824 15.8772 43.0007 16.0186 42.9492C16.16 42.8977 16.3109 42.8777 16.4609 42.8905C16.6065 42.8818 16.7523 42.9036 16.889 42.9545C17.0257 43.0054 17.1502 43.0843 17.2545 43.186C17.3524 43.2905 17.4284 43.4135 17.478 43.5477C17.5276 43.6819 17.5499 43.8246 17.5435 43.9675C17.5517 44.1185 17.5297 44.2696 17.4788 44.4121C17.428 44.5546 17.3493 44.6856 17.2473 44.7975C17.1403 44.9017 17.0127 44.9827 16.8727 45.0351C16.7327 45.0876 16.5832 45.1104 16.4339 45.1022L16.4315 45.1036ZM16.4474 43.3898C16.3813 43.3864 16.3154 43.3991 16.2553 43.4268C16.1952 43.4545 16.1428 43.4964 16.1026 43.5489C16.0129 43.681 15.9694 43.8389 15.9788 43.9982C15.9788 44.4029 16.1368 44.6062 16.4512 44.6062C16.7657 44.6062 16.9015 44.3986 16.9015 43.9814C16.9015 43.5873 16.7501 43.3903 16.4474 43.3903V43.3898Z" fill="#869006"/>
<path d="M19.9423 44.8104C19.9527 44.9762 19.9291 45.1423 19.8727 45.2986C19.8164 45.4549 19.7286 45.5981 19.6148 45.7192C19.4859 45.833 19.3357 45.9202 19.1729 45.9756C19.01 46.031 18.8378 46.0537 18.6661 46.0422C18.4424 46.0522 18.2194 46.0104 18.0145 45.9201V45.3737C18.2038 45.494 18.4229 45.5596 18.6473 45.563C18.7369 45.5688 18.8268 45.5563 18.9114 45.5263C18.996 45.4963 19.0736 45.4495 19.1395 45.3886C19.1992 45.3257 19.2455 45.2513 19.2755 45.17C19.3056 45.0887 19.3188 45.0022 19.3143 44.9157V44.7489H19.3066C19.2441 44.8605 19.1519 44.9527 19.0403 45.0152C18.9286 45.0778 18.8018 45.1084 18.6738 45.1036C18.5556 45.1082 18.4381 45.0847 18.3308 45.0352C18.2234 44.9856 18.1294 44.9114 18.0564 44.8186C17.8947 44.5985 17.8143 44.3294 17.8286 44.0569C17.812 43.7524 17.9017 43.4516 18.0824 43.2057C18.1612 43.1045 18.2628 43.0233 18.3789 42.9685C18.4951 42.9137 18.6225 42.887 18.7509 42.8905C18.8617 42.8847 18.9721 42.9093 19.07 42.9617C19.1678 43.0141 19.2495 43.0921 19.3061 43.1875H19.3138V42.9419H19.9399V44.8109L19.9423 44.8104ZM19.3225 44.0381V43.8713C19.3256 43.7476 19.285 43.6266 19.2079 43.5296C19.1731 43.4846 19.1281 43.4485 19.0766 43.4241C19.0252 43.3997 18.9687 43.3878 18.9117 43.3893C18.8472 43.3875 18.7832 43.4021 18.7259 43.4317C18.6686 43.4614 18.6198 43.5052 18.5842 43.559C18.4973 43.7017 18.456 43.8675 18.4658 44.0343C18.4579 44.182 18.4976 44.3283 18.5789 44.4519C18.6136 44.5011 18.66 44.541 18.714 44.5678C18.768 44.5947 18.8278 44.6077 18.8881 44.6057C18.9492 44.6072 19.0097 44.594 19.0645 44.567C19.1192 44.5401 19.1666 44.5002 19.2026 44.4509C19.2876 44.3313 19.3299 44.1866 19.3225 44.04V44.0381Z" fill="#869006"/>
<path d="M22.4009 42.9424L21.576 45.2209C21.3772 45.7684 21.078 46.0425 20.6783 46.0432C20.5511 46.0469 20.4242 46.0286 20.3032 45.9893V45.4703C20.3849 45.5211 20.4795 45.5476 20.5757 45.5467C20.6502 45.55 20.7237 45.5286 20.7847 45.4859C20.8457 45.4431 20.8908 45.3813 20.9128 45.3102L21.0193 45.0488L20.1943 42.9433H20.8893L21.2683 44.2265C21.2945 44.319 21.313 44.4135 21.3236 44.5091H21.3313C21.3469 44.4149 21.3689 44.322 21.3973 44.2308L21.7826 42.9438H22.4038L22.4009 42.9424Z" fill="#869006"/>
<path d="M26.2148 45.0528H25.479L25.0369 44.2925C25.0041 44.2348 24.9724 44.1834 24.9406 44.1378C24.9132 44.0964 24.8824 44.0573 24.8486 44.021C24.821 43.9911 24.7884 43.9662 24.7523 43.9474C24.718 43.93 24.68 43.921 24.6415 43.921H24.4691V45.0518H23.8286V42.0977H24.8447C25.5356 42.0977 25.8809 42.3655 25.8806 42.9012C25.8807 42.9982 25.8644 43.0946 25.8325 43.1862C25.8027 43.2715 25.7591 43.3514 25.7034 43.4226C25.647 43.4939 25.5789 43.5552 25.5021 43.6038C25.4206 43.6562 25.3318 43.6966 25.2387 43.7235V43.7312C25.2831 43.7469 25.3249 43.7695 25.3624 43.798C25.4038 43.8304 25.4422 43.8664 25.4771 43.9056C25.5149 43.9479 25.5504 43.9922 25.5835 44.0383C25.6177 44.0863 25.648 44.1315 25.6755 44.1777L26.2139 45.0509L26.2148 45.0528ZM24.4686 42.597V43.4193H24.7465C24.8073 43.4222 24.8681 43.4127 24.9251 43.3915C24.9821 43.3702 25.0343 43.3377 25.0783 43.2958C25.1195 43.2552 25.152 43.2066 25.1737 43.1531C25.1954 43.0995 25.2059 43.0421 25.2045 42.9843C25.2045 42.7255 25.0558 42.5963 24.7585 42.597H24.4696H24.4686Z" fill="#869006"/>
<path d="M28.1439 44.1835H26.8186C26.8397 44.4895 27.0258 44.6426 27.3767 44.643C27.5851 44.6469 27.79 44.5898 27.9662 44.4786V44.9486C27.7394 45.0613 27.4878 45.115 27.2346 45.1048C27.0944 45.1131 26.954 45.0922 26.8223 45.0434C26.6907 44.9946 26.5706 44.9189 26.4699 44.8213C26.2778 44.6041 26.1798 44.3198 26.1973 44.0307C26.1828 43.7256 26.288 43.4268 26.4906 43.1978C26.5825 43.0987 26.6944 43.0202 26.8189 42.9672C26.9434 42.9143 27.0777 42.8882 27.213 42.8907C27.3407 42.8844 27.4683 42.9057 27.5871 42.953C27.7058 43.0004 27.8129 43.0727 27.9011 43.1651C28.0729 43.3737 28.1599 43.6391 28.1448 43.9086V44.183L28.1439 44.1835ZM27.5621 43.7832C27.5621 43.4809 27.4436 43.33 27.2096 43.33C27.1591 43.3306 27.1094 43.3426 27.0643 43.3651C27.0191 43.3877 26.9797 43.4202 26.9491 43.4602C26.8731 43.5522 26.8263 43.6646 26.8147 43.7832H27.5636H27.5621Z" fill="#869006"/>
<path d="M28.3852 44.9966V44.4679C28.4815 44.5293 28.5855 44.5777 28.6944 44.6121C28.7878 44.6423 28.8852 44.6585 28.9833 44.6602C29.0736 44.6639 29.1636 44.6475 29.2468 44.6121C29.2756 44.6006 29.3002 44.5807 29.3174 44.5549C29.3346 44.5292 29.3435 44.4989 29.3431 44.4679C29.3435 44.4486 29.3399 44.4293 29.3324 44.4115C29.3249 44.3936 29.3138 44.3775 29.2997 44.3641C29.2666 44.3343 29.2288 44.31 29.188 44.292C29.1393 44.27 29.0891 44.2516 29.0378 44.2368C28.9838 44.2195 28.9313 44.2012 28.8812 44.1815C28.8075 44.1532 28.7361 44.1189 28.6679 44.0791C28.61 44.0454 28.5577 44.0029 28.5128 43.9532C28.4699 43.9046 28.4372 43.8479 28.4165 43.7864C28.393 43.714 28.3819 43.6381 28.3838 43.562C28.3809 43.4556 28.4069 43.3503 28.4589 43.2573C28.5077 43.1729 28.5758 43.1013 28.6578 43.0483C28.7448 42.9922 28.841 42.9517 28.9419 42.9286C29.051 42.9032 29.1627 42.8904 29.2747 42.8906C29.3663 42.8909 29.4578 42.8983 29.5482 42.9127C29.6408 42.9272 29.7322 42.9482 29.8218 42.9757V43.4789C29.7425 43.4305 29.6565 43.3942 29.5665 43.3712C29.4793 43.348 29.3895 43.336 29.2993 43.3357C29.2604 43.3355 29.2217 43.3395 29.1837 43.3477C29.1502 43.3541 29.1178 43.3651 29.0874 43.3804C29.0613 43.3933 29.0386 43.4122 29.0214 43.4356C29.0056 43.4583 28.9973 43.4854 28.9978 43.513C28.9975 43.5483 29.0101 43.5825 29.0334 43.6091C29.0597 43.6386 29.0914 43.6628 29.1268 43.6802C29.168 43.7012 29.2107 43.7192 29.2545 43.7341C29.3026 43.7499 29.3479 43.7658 29.3941 43.7821C29.4717 43.809 29.5473 43.8411 29.6205 43.8782C29.6844 43.9113 29.743 43.9538 29.7943 44.0041C29.8431 44.0521 29.8808 44.1099 29.9051 44.1738C29.9325 44.2477 29.9454 44.3262 29.9431 44.405C29.9463 44.517 29.919 44.6278 29.8641 44.7255C29.8122 44.8126 29.741 44.8867 29.6561 44.9423C29.564 44.9997 29.4624 45.0405 29.3561 45.0629C29.2403 45.0883 29.1221 45.1011 29.0036 45.1009C28.7916 45.1032 28.5811 45.0667 28.3823 44.9932L28.3852 44.9966Z" fill="#869006"/>
<path d="M31.2733 45.1036C31.1269 45.1116 30.9805 45.0896 30.843 45.0387C30.7056 44.9879 30.5801 44.9094 30.4743 44.808C30.375 44.7002 30.2982 44.5737 30.2486 44.4359C30.199 44.298 30.1775 44.1517 30.1854 44.0054C30.1726 43.8558 30.1927 43.7052 30.2443 43.5641C30.2959 43.423 30.3778 43.2949 30.4842 43.1887C30.5906 43.0824 30.719 43.0007 30.8604 42.9492C31.0018 42.8977 31.1527 42.8777 31.3027 42.8905C31.4483 42.8818 31.5941 42.9036 31.7308 42.9545C31.8675 43.0054 31.992 43.0843 32.0963 43.186C32.1942 43.2905 32.2701 43.4135 32.3198 43.5477C32.3694 43.6819 32.3916 43.8246 32.3852 43.9675C32.3934 44.1185 32.3715 44.2696 32.3206 44.4121C32.2698 44.5546 32.1911 44.6856 32.0891 44.7975C31.9821 44.9017 31.8545 44.9827 31.7145 45.0351C31.5745 45.0876 31.425 45.1104 31.2757 45.1022L31.2733 45.1036ZM31.2892 43.3898C31.2231 43.3864 31.1572 43.3991 31.0971 43.4268C31.037 43.4545 30.9846 43.4964 30.9444 43.5489C30.8547 43.681 30.8112 43.8389 30.8206 43.9982C30.8206 44.4029 30.9786 44.6062 31.293 44.6062C31.6075 44.6062 31.7433 44.3986 31.7433 43.9814C31.7433 43.5873 31.5919 43.3903 31.2892 43.3903V43.3898Z" fill="#869006"/>
<path d="M34.7217 45.0517H34.0956V44.7297H34.085C34.0249 44.8421 33.9354 44.9361 33.826 45.0018C33.7166 45.0675 33.5915 45.1023 33.4638 45.1026C32.9925 45.1026 32.7568 44.8067 32.7568 44.215V42.9424H33.3829V44.1573C33.3829 44.4553 33.4961 44.6038 33.7239 44.6038C33.7752 44.6056 33.8263 44.5955 33.873 44.5743C33.9198 44.5532 33.9611 44.5214 33.9935 44.4817C34.0652 44.3862 34.1009 44.2687 34.0947 44.1496V42.9424H34.7207V45.0517H34.7217Z" fill="#869006"/>
<path d="M36.5743 43.5285C36.4933 43.4844 36.4022 43.4622 36.3099 43.4641C36.248 43.4615 36.1863 43.4743 36.1305 43.5013C36.0747 43.5283 36.0265 43.5687 35.9902 43.6189C35.9071 43.7438 35.8664 43.8921 35.8741 44.0418V45.051H35.248V42.9417H35.8741V43.3329H35.8818C35.9086 43.2112 35.9763 43.1023 36.0737 43.0244C36.1712 42.9465 36.2925 42.9042 36.4173 42.9047C36.4702 42.9022 36.523 42.9108 36.5724 42.9297V43.5285H36.5743Z" fill="#869006"/>
<path d="M38.3912 44.9769C38.2017 45.0728 37.9902 45.1167 37.7781 45.1043C37.6383 45.1099 37.4988 45.0866 37.3684 45.036C37.238 44.9854 37.1194 44.9085 37.0201 44.8102C36.9231 44.7094 36.8474 44.5901 36.7978 44.4595C36.7481 44.3288 36.7255 44.1895 36.7312 44.0499C36.7228 43.895 36.746 43.7401 36.7994 43.5944C36.8528 43.4488 36.9352 43.3155 37.0418 43.2026C37.1519 43.0974 37.2823 43.0157 37.425 42.9625C37.5677 42.9092 37.7198 42.8854 37.872 42.8926C38.0507 42.8791 38.2297 42.9122 38.3917 42.9887V43.5414C38.2671 43.4425 38.1126 43.3888 37.9534 43.389C37.8746 43.3852 37.7958 43.3978 37.7222 43.4261C37.6485 43.4544 37.5816 43.4978 37.5258 43.5534C37.471 43.6147 37.4289 43.6861 37.4017 43.7636C37.3746 43.8411 37.3631 43.9232 37.3678 44.0052C37.3627 44.0848 37.3734 44.1647 37.3994 44.2401C37.4253 44.3156 37.466 44.3852 37.519 44.4449C37.5729 44.4993 37.6377 44.5416 37.7092 44.5692C37.7807 44.5968 37.8572 44.609 37.9337 44.6049C38.0984 44.6021 38.2582 44.5489 38.3917 44.4526L38.3912 44.9769Z" fill="#869006"/>
<path d="M40.6253 44.1835H39.301C39.3222 44.4895 39.5082 44.6426 39.8591 44.643C40.0675 44.6469 40.2724 44.5898 40.4486 44.4786V44.9486C40.2218 45.0613 39.9702 45.115 39.7171 45.1048C39.5769 45.1131 39.4364 45.0922 39.3048 45.0434C39.1731 44.9946 39.0531 44.9189 38.9523 44.8213C38.7602 44.6041 38.6622 44.3198 38.6797 44.0307C38.6652 43.7256 38.7704 43.4268 38.973 43.1978C39.065 43.0987 39.1768 43.0202 39.3013 42.9672C39.4258 42.9143 39.5601 42.8882 39.6954 42.8907C39.8231 42.8844 39.9507 42.9057 40.0695 42.953C40.1882 43.0004 40.2954 43.0727 40.3836 43.1651C40.5548 43.374 40.6417 43.6392 40.6272 43.9086V44.183L40.6253 44.1835ZM40.0474 43.7851C40.0474 43.4828 39.929 43.3319 39.6949 43.3319C39.6444 43.3325 39.5947 43.3445 39.5496 43.3671C39.5045 43.3896 39.4651 43.4221 39.4344 43.4622C39.3584 43.5541 39.3116 43.6665 39.3 43.7851H40.0474Z" fill="#869006"/>
<path d="M40.8676 44.9966V44.4679C40.9636 44.529 41.067 44.5774 41.1753 44.6121C41.2687 44.6424 41.3661 44.6586 41.4643 44.6602C41.5546 44.6639 41.6446 44.6475 41.7277 44.6121C41.7565 44.6006 41.7811 44.5807 41.7983 44.5549C41.8155 44.5292 41.8245 44.4989 41.824 44.4679C41.8245 44.4486 41.8208 44.4293 41.8134 44.4115C41.8059 44.3936 41.7948 44.3775 41.7807 44.3641C41.7477 44.3341 41.71 44.3097 41.669 44.292C41.6203 44.27 41.5701 44.2516 41.5187 44.2368C41.4648 44.2195 41.4123 44.2012 41.3622 44.1815C41.2884 44.1532 41.2171 44.1189 41.1489 44.0791C41.091 44.0454 41.0387 44.0029 40.9938 43.9532C40.9506 43.9048 40.9179 43.848 40.8975 43.7864C40.8739 43.714 40.8628 43.6381 40.8647 43.562C40.8619 43.4556 40.8878 43.3503 40.9399 43.2573C40.9886 43.1729 41.0568 43.1013 41.1388 43.0483C41.2258 42.9922 41.3219 42.9517 41.4229 42.9286C41.532 42.9032 41.6436 42.8904 41.7556 42.8906C41.8473 42.8909 41.9387 42.8983 42.0292 42.9127C42.1218 42.9272 42.2132 42.9482 42.3027 42.9757V43.4789C42.2235 43.4305 42.1375 43.3942 42.0475 43.3712C41.9603 43.3481 41.8705 43.3361 41.7802 43.3357C41.7414 43.3355 41.7026 43.3395 41.6646 43.3477C41.6312 43.3541 41.5988 43.3651 41.5683 43.3804C41.5422 43.3933 41.5196 43.4122 41.5023 43.4356C41.4866 43.4583 41.4783 43.4854 41.4787 43.513C41.4784 43.5483 41.4911 43.5825 41.5144 43.6091C41.5407 43.6386 41.5724 43.6628 41.6078 43.6802C41.649 43.7012 41.6916 43.7192 41.7354 43.7341C41.7836 43.7499 41.8289 43.7658 41.8751 43.7821C41.9526 43.809 42.0282 43.8411 42.1014 43.8782C42.1654 43.9113 42.224 43.9537 42.2753 44.0041C42.324 44.0521 42.3618 44.1099 42.386 44.1738C42.4135 44.2477 42.4264 44.3262 42.4241 44.405C42.4273 44.517 42.4 44.6278 42.3451 44.7255C42.2935 44.8129 42.2223 44.8871 42.1371 44.9423C42.0449 44.9997 41.9434 45.0405 41.837 45.0629C41.7213 45.0883 41.6031 45.1011 41.4845 45.1009C41.2726 45.1032 41.062 45.0667 40.8633 44.9932L40.8676 44.9966Z" fill="#869006"/>
<path d="M44.6039 44.0345V45.0523H43.9629V42.0986H44.967C45.6842 42.0986 46.0427 42.4125 46.0423 43.0401C46.0475 43.1755 46.0226 43.3103 45.9694 43.435C45.9162 43.5596 45.836 43.6709 45.7346 43.761C45.5042 43.9532 45.2095 44.0512 44.9097 44.0354L44.6039 44.0345ZM44.6039 42.6081V43.5289H44.8567C45.1977 43.5289 45.3683 43.374 45.3686 43.0641C45.3686 42.7542 45.1977 42.6085 44.8567 42.6085L44.6039 42.6081Z" fill="#869006"/>
<path d="M47.0055 44.3369C47.0004 44.4096 47.0223 44.4817 47.0672 44.5393C47.0878 44.5623 47.1132 44.5804 47.1417 44.5925C47.1702 44.6045 47.201 44.6101 47.2319 44.6089C47.2663 44.6087 47.3007 44.6051 47.3344 44.5984C47.3686 44.5916 47.4028 44.5854 47.437 44.5772V45.0343C47.3578 45.055 47.2774 45.0711 47.1962 45.0823C47.1091 45.0957 47.021 45.1023 46.9328 45.102C46.8547 45.1031 46.7772 45.0884 46.705 45.0588C46.6382 45.0305 46.5785 44.9879 46.5302 44.9338C46.4798 44.8765 46.4418 44.8094 46.4185 44.7368C46.3911 44.6529 46.3777 44.565 46.379 44.4768V41.9268H47.005V44.3355L47.0055 44.3369Z" fill="#869006"/>
<path d="M49.3921 45.0523H48.7988V44.7491H48.7911C48.734 44.8592 48.6469 44.9509 48.5398 45.0137C48.4326 45.0764 48.3099 45.1076 48.1858 45.1038C48.1003 45.1085 48.0147 45.0954 47.9345 45.0654C47.8544 45.0354 47.7813 44.989 47.7201 44.9293C47.6621 44.8671 47.6172 44.7939 47.588 44.7141C47.5588 44.6343 47.5459 44.5494 47.5501 44.4646C47.5501 44.0546 47.7832 43.8196 48.2503 43.7552L48.8017 43.6788C48.8017 43.4476 48.6808 43.3333 48.441 43.3333C48.193 43.3354 47.9517 43.4138 47.7499 43.5577V43.068C47.8634 43.0116 47.9836 42.97 48.1078 42.9445C48.243 42.9109 48.3816 42.8928 48.521 42.8906C49.0988 42.8906 49.3878 43.1905 49.3878 43.7903V45.0509L49.3921 45.0523ZM48.8027 44.1945V44.0503L48.4343 44.0983C48.2301 44.1257 48.129 44.2219 48.129 44.3867C48.1278 44.4207 48.1339 44.4546 48.1469 44.4861C48.1598 44.5176 48.1793 44.5459 48.2041 44.5693C48.2592 44.6186 48.3315 44.6441 48.4054 44.6405C48.4599 44.6421 48.5141 44.6317 48.564 44.6099C48.614 44.5881 48.6585 44.5556 48.6943 44.5145C48.7699 44.4251 48.8094 44.3109 48.8051 44.194L48.8027 44.1945Z" fill="#869006"/>
<path d="M51.8526 45.0521H51.2265V43.8804C51.2265 43.5536 51.1133 43.3907 50.8894 43.3907C50.8376 43.3901 50.7864 43.4016 50.7398 43.4242C50.6933 43.4468 50.6526 43.4799 50.6212 43.521C50.5487 43.6153 50.5113 43.7318 50.5157 43.8506V45.0521H49.8896V42.9428H50.5157V43.2763H50.5234C50.5849 43.1575 50.6788 43.0584 50.7942 42.9904C50.9096 42.9224 51.042 42.8882 51.1759 42.8919C51.6254 42.8919 51.8501 43.1817 51.8501 43.7612V45.0521H51.8526Z" fill="#869006"/>
<path d="M54.3116 45.0521H53.6855V43.8804C53.6855 43.5536 53.5723 43.3907 53.3484 43.3907C53.2966 43.3901 53.2454 43.4016 53.1988 43.4242C53.1523 43.4468 53.1116 43.4799 53.0802 43.521C53.0076 43.6153 52.9703 43.7318 52.9747 43.8506V45.0521H52.3486V42.9428H52.9747V43.2763H52.9824C53.0439 43.1575 53.1378 43.0584 53.2532 42.9904C53.3686 42.9224 53.5009 42.8882 53.6349 42.8919C54.0844 42.8919 54.3091 43.1817 54.3091 43.7612V45.0521H54.3116Z" fill="#869006"/>
<path d="M55.1113 42.6073C55.0637 42.6093 55.0161 42.6018 54.9714 42.5853C54.9267 42.5688 54.8857 42.5436 54.8508 42.5112C54.8182 42.4803 54.7924 42.443 54.775 42.4017C54.7576 42.3603 54.7489 42.3158 54.7496 42.2709C54.7484 42.226 54.7567 42.1813 54.7742 42.1399C54.7916 42.0984 54.8177 42.0612 54.8508 42.0306C54.9242 41.9704 55.0163 41.9375 55.1113 41.9375C55.2063 41.9375 55.2984 41.9704 55.3718 42.0306C55.4047 42.0612 55.4307 42.0985 55.448 42.14C55.4653 42.1814 55.4734 42.2261 55.472 42.2709C55.4735 42.3162 55.4653 42.3613 55.448 42.4032C55.4307 42.4451 55.4048 42.4829 55.3718 42.5141C55.3011 42.5792 55.2075 42.6137 55.1113 42.6102V42.6073ZM55.4152 44.3375C55.41 44.4102 55.432 44.4823 55.4768 44.5398C55.4974 44.5628 55.5229 44.581 55.5514 44.593C55.5798 44.6051 55.6106 44.6107 55.6415 44.6095C55.676 44.6092 55.7103 44.6057 55.7441 44.5989C55.7783 44.5922 55.8125 44.5859 55.8467 44.5778V45.0348C55.7674 45.0556 55.687 45.0716 55.6059 45.0829C55.5187 45.0963 55.4306 45.1029 55.3425 45.1026C55.2644 45.1037 55.1869 45.0889 55.1147 45.0593C55.0479 45.0311 54.9882 44.9884 54.9399 44.9344C54.8894 44.877 54.8514 44.81 54.8281 44.7373C54.8007 44.6534 54.7874 44.5656 54.7886 44.4773V42.9394H55.4147V44.3331L55.4152 44.3375Z" fill="#869006"/>
<path d="M58.0738 45.0521H57.4477V43.8804C57.4477 43.5536 57.3345 43.3907 57.1106 43.3907C57.0588 43.3901 57.0076 43.4016 56.961 43.4242C56.9145 43.4468 56.8738 43.4799 56.8424 43.521C56.7698 43.6153 56.7325 43.7318 56.7369 43.8506V45.0521H56.1108V42.9428H56.7369V43.2763H56.7446C56.8061 43.1575 56.9 43.0584 57.0154 42.9904C57.1309 42.9224 57.2632 42.8882 57.3971 42.8919C57.8466 42.8919 58.0714 43.1817 58.0714 43.7612V45.0521H58.0738Z" fill="#869006"/>
<path d="M60.5629 44.8104C60.5733 44.9762 60.5497 45.1423 60.4934 45.2986C60.437 45.4549 60.3492 45.5981 60.2354 45.7192C60.1067 45.8333 59.9566 45.9207 59.7937 45.9761C59.6308 46.0316 59.4584 46.054 59.2867 46.0422C59.063 46.0522 58.84 46.0104 58.6351 45.9201V45.3737C58.8244 45.494 59.0435 45.5596 59.2679 45.563C59.3575 45.5689 59.4474 45.5565 59.532 45.5265C59.6167 45.4965 59.6943 45.4496 59.7601 45.3886C59.8197 45.3256 59.8659 45.2512 59.896 45.17C59.926 45.0887 59.9393 45.0022 59.9349 44.9157V44.7489H59.9272C59.8647 44.8605 59.7725 44.9527 59.6609 45.0152C59.5492 45.0778 59.4224 45.1084 59.2944 45.1036C59.1762 45.1082 59.0587 45.0847 58.9514 45.0352C58.844 44.9856 58.75 44.9114 58.677 44.8186C58.5151 44.5986 58.4346 44.3294 58.4492 44.0569C58.4326 43.7524 58.5223 43.4516 58.703 43.2057C58.7818 43.1045 58.8834 43.0233 58.9995 42.9685C59.1157 42.9137 59.2431 42.887 59.3714 42.8905C59.4823 42.8847 59.5927 42.9093 59.6906 42.9617C59.7885 43.0141 59.8701 43.0921 59.9267 43.1875H59.9344V42.9419H60.5605V44.8109L60.5629 44.8104ZM59.9445 44.0381V43.8713C59.9476 43.7476 59.907 43.6266 59.8299 43.5296C59.7951 43.4846 59.7501 43.4485 59.6987 43.4241C59.6472 43.3997 59.5907 43.3878 59.5337 43.3893C59.4692 43.3875 59.4053 43.4021 59.348 43.4317C59.2907 43.4614 59.2419 43.5052 59.2063 43.559C59.1188 43.7015 59.0774 43.8675 59.0878 44.0343C59.08 44.182 59.1196 44.3283 59.201 44.4519C59.2357 44.5011 59.2821 44.541 59.3361 44.5678C59.39 44.5947 59.4499 44.6077 59.5102 44.6057C59.5712 44.6072 59.6317 44.594 59.6865 44.567C59.7413 44.5401 59.7887 44.5002 59.8246 44.4509C59.9097 44.3313 59.9519 44.1866 59.9445 44.04V44.0381Z" fill="#869006"/>
</svg>
